<svg width="18" height="18" viewBox="0 0 18 18" fill="none" xmlns="http://www.w3.org/2000/svg">
<path d="M11.7516 10.0414C11.7516 10.1599 11.7047 10.2735 11.6212 10.3572C11.5377 10.441 11.4244 10.4881 11.3063 10.4881H8.38339V13.4184C8.38339 13.5369 8.33645 13.6505 8.2529 13.7343C8.16935 13.8181 8.05602 13.8651 7.93786 13.8651C7.8197 13.8651 7.70637 13.8181 7.62282 13.7343C7.53926 13.6505 7.49232 13.5369 7.49232 13.4184V10.4881H4.56964C4.45148 10.4881 4.33816 10.4411 4.2546 10.3573C4.17105 10.2735 4.12411 10.1599 4.12411 10.0414C4.12411 9.92296 4.17105 9.80935 4.2546 9.72557C4.33816 9.6418 4.45148 9.59474 4.56964 9.59474H7.49232V6.6644C7.49232 6.54593 7.53926 6.43231 7.62282 6.34854C7.70637 6.26477 7.8197 6.2177 7.93786 6.2177C8.05602 6.2177 8.16935 6.26477 8.2529 6.34854C8.33645 6.43231 8.38339 6.54593 8.38339 6.6644V9.59474H11.3063C11.4244 9.59478 11.5377 9.64186 11.6212 9.72562C11.7047 9.80939 11.7516 9.92299 11.7516 10.0414ZM18 2.52812V13.389C17.9992 13.9964 17.7806 14.5832 17.3842 15.0425C16.9878 15.5017 16.4399 15.8028 15.8405 15.8907C15.741 16.48 15.4369 17.0149 14.9819 17.401C14.5268 17.787 13.9503 17.9992 13.3542 18H2.52155C1.85301 17.9993 1.21205 17.7327 0.739325 17.2587C0.266597 16.7848 0.000707272 16.1422 0 15.4719V4.61096C0.000808028 4.00361 0.219358 3.41678 0.615782 2.95754C1.01221 2.49829 1.56008 2.19723 2.15947 2.10927C2.25894 1.52003 2.5631 0.985062 3.01813 0.599036C3.47316 0.21301 4.04973 0.000814386 4.64579 0H15.4785C16.147 0.000709117 16.7879 0.267292 17.2607 0.741253C17.7334 1.21522 17.9993 1.85784 18 2.52812ZM14.9846 4.61096C14.9842 4.17754 14.8123 3.762 14.5066 3.45551C14.2009 3.14902 13.7865 2.97662 13.3542 2.97613H2.52155C2.08927 2.97662 1.67484 3.14901 1.36918 3.45547C1.06352 3.76194 0.891589 4.17745 0.891105 4.61085V15.4719C0.891589 15.9053 1.06352 16.3208 1.36918 16.6273C1.67484 16.9337 2.08927 17.1061 2.52155 17.1066H13.3542C13.7865 17.1061 14.2009 16.9337 14.5066 16.6273C14.8122 16.3208 14.9842 15.9053 14.9846 15.4719V4.61096ZM17.1089 2.52812C17.1084 2.09472 16.9365 1.67921 16.6308 1.37274C16.3252 1.06628 15.9107 0.893889 15.4785 0.893394H4.64579C4.29096 0.89389 3.94595 1.01024 3.66296 1.22485C3.37996 1.43946 3.17438 1.74065 3.07733 2.08284H13.3542C14.0227 2.08355 14.6637 2.35014 15.1364 2.8241C15.6091 3.29806 15.875 3.94068 15.8757 4.61096V14.9745C16.2278 14.8853 16.5402 14.681 16.7636 14.3939C16.9869 14.1068 17.1084 13.7532 17.1089 13.3891V2.52812Z" fill="url(#paint0_linear_24_225)"/>
<defs>
<linearGradient id="paint0_linear_24_225" x1="2.95881e-08" y1="1.35" x2="18.8891" y2="2.4285" gradientUnits="userSpaceOnUse">
<stop stop-color="#62C6AA"/>
<stop offset="1" stop-color="#44A88C"/>
</linearGradient>
</defs>
</svg>
