<svg width="31" height="35" viewBox="0 0 31 35" fill="none" xmlns="http://www.w3.org/2000/svg">
<path fill-rule="evenodd" clip-rule="evenodd" d="M31 27.7H5.18733C4.49156 27.717 3.67867 27.9567 3.48578 28.9359C3.45994 29.0753 3.44444 29.2283 3.44444 29.4C3.44444 30.7702 4.39167 31.0796 5.18733 31.1H31V34.5H5.16667C3.08967 34.5 0 33.1417 0 29.4V5.6C0 1.8583 3.08967 0.5 5.16667 0.5H27.5556C29.4552 0.5 31 2.0249 31 3.9V27.7ZM12.1909 6.92443C10.9438 6.92443 9.74691 7.41324 8.85943 8.28498C8.4189 8.70638 8.06847 9.21197 7.82916 9.77143C7.58985 10.3309 7.4666 10.9327 7.4668 11.5407C7.467 12.1487 7.59064 12.7504 7.83032 13.3097C8.06999 13.869 8.42076 14.3744 8.86157 14.7955L16.0022 21.7727L23.1407 14.7955C23.5811 14.3741 23.9315 13.8686 24.1708 13.3092C24.4101 12.7498 24.5335 12.1482 24.5335 11.5402C24.5335 10.9323 24.4101 10.3306 24.1708 9.77128C23.9315 9.21192 23.5811 8.70639 23.1407 8.28498C22.2529 7.4131 21.0556 6.92424 19.8081 6.92424C18.5607 6.92424 17.3634 7.4131 16.4755 8.28498L16.0001 8.74957L15.5225 8.28498C14.635 7.41324 13.4381 6.92443 12.1909 6.92443Z" fill="#8F969C"/>
</svg>
