<svg width="41" height="50" viewBox="0 0 41 50" fill="none" xmlns="http://www.w3.org/2000/svg">
<path d="M31.0234 38.1226C31.0825 37.0354 30.7934 35.9589 30.1973 35.0469C30.543 30.357 36.2804 21.1245 39.9471 19.4597C40.0288 19.4217 40.1 19.3644 40.1544 19.2929C40.2087 19.2213 40.2446 19.1378 40.2588 19.0495C40.273 18.9612 40.2651 18.8709 40.2358 18.7865C40.2066 18.7021 40.1568 18.6262 40.0909 18.5655C36.7881 15.2857 35.8564 17.575 31.106 17.472C30.2517 17.4442 29.3966 17.5165 28.5586 17.6874C28.725 17.112 28.9321 16.5487 29.1784 16.0018C29.6691 16.178 30.2059 16.186 30.7031 16.0245C31.2004 15.863 31.6293 15.5415 31.9215 15.1111C32.0723 14.8805 32.2052 14.639 32.3191 14.3886C32.4562 14.6266 32.611 14.8541 32.7822 15.0693C33.1653 15.5511 33.7267 15.8617 34.3427 15.9326C34.9587 16.0035 35.5789 15.8291 36.0669 15.4476C36.5549 15.0661 36.8708 14.5089 36.9449 13.8984C37.0191 13.288 36.8455 12.6743 36.4624 12.1925C36.2898 11.9782 36.1016 11.7768 35.8992 11.5899C36.1714 11.5404 36.4392 11.4688 36.6998 11.3759C37.2844 11.1611 37.7599 10.7254 38.0216 10.1646C38.2833 9.60386 38.3099 8.964 38.0954 8.3858C37.8809 7.8076 37.443 7.33842 36.8779 7.08149C36.3128 6.82455 35.6669 6.8009 35.0823 7.01573C34.823 7.11348 34.5708 7.22895 34.3275 7.36128C34.3582 7.08902 34.369 6.81498 34.3598 6.54133C34.3367 5.92741 34.0682 5.34874 33.6136 4.93262C33.1589 4.5165 32.5552 4.29701 31.9353 4.32244C31.3154 4.34788 30.73 4.61614 30.3081 5.06823C29.8861 5.52032 29.662 6.1192 29.6851 6.73311C29.6975 7.0084 29.7295 7.2824 29.7808 7.55308C29.531 7.4425 29.2744 7.34759 29.0125 7.26892C28.5667 7.14413 28.093 7.15362 27.6515 7.29619C27.2101 7.43876 26.8209 7.70796 26.5334 8.06958C26.2459 8.43119 26.0731 8.86887 26.037 9.32697C26.0009 9.78507 26.1031 10.2429 26.3306 10.6422C26.8333 11.5348 27.6122 11.7682 28.5491 11.8944C27.902 12.6151 27.4859 13.2945 27.6845 14.2787C27.7659 14.6946 27.9627 15.0794 28.2529 15.39C27.8562 16.2365 27.5501 17.1215 27.3394 18.0304C26.896 18.1921 26.4643 18.3841 26.0475 18.6051C26.0771 18.5219 26.1148 18.4433 26.1443 18.3601C26.3457 17.7192 26.2874 17.0269 25.9817 16.43C25.676 15.833 25.147 15.3786 24.5069 15.163C23.8669 14.9475 23.1662 14.9878 22.5536 15.2754C21.941 15.563 21.4647 16.0753 21.2257 16.7035C20.8517 15.311 20.5882 14.0463 20.4027 13.021C20.8886 13.5353 21.5617 13.8364 22.2738 13.8583C22.986 13.8801 23.6788 13.6208 24.2 13.1373C24.7212 12.6539 25.0281 11.986 25.053 11.2805C25.078 10.5751 24.819 9.88982 24.3331 9.37555C24.0666 9.08729 23.7765 8.82136 23.4657 8.58046C23.8455 8.47974 24.2162 8.34744 24.5739 8.18496C25.2231 7.88974 25.7285 7.35161 25.9788 6.68895C26.229 6.0263 26.2037 5.29339 25.9083 4.65148C25.6129 4.00956 25.0717 3.5112 24.4037 3.26605C23.7357 3.02089 22.9957 3.04902 22.3464 3.34424C21.9912 3.50608 21.6502 3.69687 21.3267 3.91463C21.3934 2.73291 21.2462 1.72131 20.2993 0.978257C19.8817 0.653142 19.3757 0.458306 18.8452 0.418364C18.3147 0.378422 17.7835 0.495166 17.3188 0.753847C16.854 1.01253 16.4764 1.40154 16.2339 1.87173C15.9913 2.34193 15.8946 2.87221 15.956 3.39559C15.998 3.78297 16.0731 4.166 16.1805 4.54056C15.8153 4.39785 15.4381 4.28677 15.0533 4.20855C14.3546 4.0703 13.6279 4.21287 13.0331 4.60491C12.4382 4.99695 12.024 5.60633 11.8816 6.29901C11.7391 6.99169 11.8801 7.71092 12.2734 8.29848C12.6668 8.88603 13.2803 9.29379 13.979 9.43204C14.3608 9.50775 14.7485 9.55071 15.138 9.56043C14.892 9.86392 14.6708 10.1863 14.4766 10.5246C14.207 10.9831 14.0822 11.5107 14.1182 12.039C14.1543 12.5674 14.3497 13.0722 14.6791 13.4882C15.0084 13.9042 15.4566 14.2122 15.9657 14.3724C16.4748 14.5326 17.0213 14.5376 17.5346 14.3867C17.8797 14.296 18.2031 14.1372 18.4854 13.92C18.7677 13.7028 19.0031 13.4316 19.1775 13.1226C19.2154 13.0577 19.2501 12.9936 19.284 12.9264C19.4831 14.0542 19.7811 15.5115 20.2217 17.126C19.694 16.6939 19.0145 16.4865 18.3311 16.5488C17.6478 16.6111 17.0158 16.9381 16.5727 17.4587C16.1296 17.9792 15.9112 18.6512 15.9651 19.3283C16.019 20.0055 16.3408 20.6331 16.8605 21.0745C16.5543 21.0957 16.2496 21.1359 15.9483 21.1951C14.6321 19.3218 13.449 18.3304 12.4511 17.7584C12.7862 17.6855 13.1032 17.5465 13.3834 17.3499C13.6637 17.1532 13.9013 16.9029 14.0822 16.6139C14.2632 16.3248 14.3837 16.0029 14.4366 15.6672C14.4895 15.3316 14.4738 14.9891 14.3903 14.6602C14.3069 14.3312 14.1574 14.0226 13.9507 13.7526C13.7441 13.4825 13.4846 13.2567 13.1876 13.0884C12.8906 12.9202 12.5622 12.8129 12.222 12.7732C11.8818 12.7334 11.5367 12.7618 11.2072 12.8568C10.8639 12.945 10.528 13.06 10.2028 13.2006C10.2833 12.8663 10.3354 12.526 10.3586 12.1833C10.3977 11.8429 10.3665 11.4984 10.2671 11.1708C10.1676 10.8432 10.0018 10.5393 9.7799 10.2775C9.55796 10.0158 9.28445 9.8017 8.97597 9.64822C8.66749 9.49474 8.33048 9.40509 7.98539 9.38471C7.64031 9.36433 7.29436 9.41364 6.96854 9.52966C6.64272 9.64567 6.34383 9.82597 6.09002 10.0596C5.83621 10.2932 5.63276 10.5753 5.49204 10.8887C5.35132 11.2022 5.27626 11.5404 5.27142 11.8829C5.24782 12.224 5.25184 12.5664 5.28344 12.9066C4.98633 12.7307 4.67577 12.5779 4.35457 12.4497C3.72557 12.2039 3.0227 12.216 2.40057 12.4834C1.77845 12.7508 1.28804 13.2516 1.03722 13.8756C0.786397 14.4997 0.795719 15.1958 1.06313 15.811C1.33055 16.4261 1.83414 16.9098 2.46314 17.1557C2.78272 17.2813 3.11173 17.3821 3.44723 17.4574C3.18914 17.6838 2.94849 17.9289 2.72732 18.1908C2.37702 18.6055 2.16945 19.1198 2.13497 19.6585C2.10049 20.1971 2.24093 20.7319 2.53572 21.1845C2.83051 21.6371 3.26418 21.9838 3.77329 22.1738C4.2824 22.3638 4.84021 22.3872 5.36511 22.2406C6.27866 21.9964 6.77256 21.3748 7.25801 20.5672C7.39581 20.8839 7.55774 21.1897 7.7424 21.4819C8.11493 22.0019 8.67305 22.3621 9.30448 22.49C9.9359 22.6179 10.5938 22.504 11.1458 22.1712C11.6978 21.8385 12.1029 21.3115 12.2798 20.6964C12.4566 20.0812 12.3919 19.4236 12.0988 18.8556C13.1727 19.573 14.0973 20.4878 14.8225 21.5508C13.1582 22.1943 12.3351 23.342 12.019 23.3888C11.9592 23.4047 11.9014 23.4271 11.8466 23.4555C11.097 23.8852 9.49844 23.5628 7.76944 24.5453C7.17529 24.8648 6.68008 25.3389 6.33748 25.9162C5.99488 26.4936 5.81796 27.1521 5.82589 27.8205C5.83275 27.8461 5.83619 27.8589 5.82025 27.8768C5.82025 27.9527 5.83613 28.0277 5.86689 28.0971C5.89765 28.1664 5.94261 28.2287 5.99895 28.2799C6.05529 28.3311 6.12178 28.3701 6.19422 28.3945C6.26667 28.419 6.34349 28.4282 6.41985 28.4217C10.4297 28.0345 20.0232 33.1587 22.6693 37.0591C22.6118 38.1462 22.9008 39.2222 23.4954 40.1349L23.3145 49.1351C23.3116 49.2721 23.3608 49.405 23.4524 49.5074C23.544 49.6097 23.6712 49.6741 23.8089 49.6876C27.5564 50.0243 32.8233 48.4693 35.5624 46.5458C35.6761 46.4664 35.7551 46.3472 35.7832 46.2124C35.8113 46.0776 35.7865 45.9375 35.7137 45.8207L31.0234 38.1226ZM7.96861 17.1457C7.83362 17.227 7.67874 17.2697 7.52109 17.2693C7.36343 17.2689 7.20914 17.2254 7.07526 17.1434C6.94138 17.0615 6.83313 16.9444 6.76246 16.8051C6.6918 16.6658 6.66148 16.5097 6.67484 16.354C6.68821 16.1984 6.74475 16.0492 6.83822 15.9231C6.93168 15.797 7.05843 15.6987 7.20445 15.6392C7.35048 15.5798 7.51009 15.5614 7.66566 15.5861C7.82123 15.6108 7.96669 15.6777 8.08598 15.7793C8.18747 15.8667 8.26666 15.9766 8.31713 16.1002C8.36761 16.2238 8.38796 16.3575 8.37653 16.4905C8.3651 16.6236 8.32222 16.7522 8.25135 16.8661C8.18049 16.9799 8.08363 17.0757 7.96861 17.1457ZM13.2326 14.9616C13.3264 15.3312 13.2692 15.7231 13.0732 16.0524C12.8773 16.3816 12.5585 16.6215 12.1861 16.7202C11.5065 16.8956 10.7993 16.9369 10.1047 16.8418L9.4739 16.5927C9.4802 16.526 9.47751 16.4001 9.47625 16.3696C9.4701 16.0001 9.35673 15.6407 9.14967 15.3341L9.59722 14.8105C10.1596 14.394 10.7992 14.0915 11.4791 13.9206C11.8517 13.8318 12.2441 13.891 12.5719 14.0856C12.8997 14.2802 13.1369 14.5947 13.2326 14.9616ZM6.36544 11.9499C6.37789 11.7611 6.42775 11.5765 6.51217 11.4065C6.59658 11.2365 6.71391 11.0845 6.85744 10.9592C7.00097 10.8339 7.16789 10.7377 7.34868 10.6762C7.52947 10.6146 7.72059 10.5889 7.91111 10.6004C8.10164 10.612 8.28785 10.6606 8.45911 10.7435C8.63037 10.8265 8.78332 10.9421 8.90924 11.0837C9.03515 11.2254 9.13157 11.3903 9.19297 11.5691C9.25438 11.7479 9.27958 11.9371 9.26712 12.1259C9.2241 12.8198 9.04458 13.4992 8.73869 14.126L8.30319 14.6429C8.24125 14.6184 8.12402 14.5813 8.09068 14.5731C7.9601 14.5275 7.82356 14.5006 7.68517 14.4932C7.45185 14.4824 7.21809 14.5068 6.99187 14.5655L6.62767 13.9954C6.4044 13.338 6.31526 12.6427 6.36544 11.9499ZM2.05897 14.2855C2.12945 14.109 2.23428 13.9479 2.36748 13.8113C2.50067 13.6748 2.65962 13.5654 2.83523 13.4896C3.01085 13.4137 3.19969 13.3728 3.39098 13.3692C3.58226 13.3655 3.77224 13.3993 3.95005 13.4685C4.6032 13.7187 5.19865 14.0961 5.70134 14.5784L6.06146 15.1463C5.76453 15.4841 5.59254 15.9117 5.57394 16.3584L4.92832 16.5309C4.22788 16.5408 3.53293 16.4137 2.88335 16.1567C2.70467 16.0883 2.54153 15.9856 2.40331 15.8544C2.26508 15.7233 2.15449 15.5662 2.07789 15.3924C2.00129 15.2185 1.96019 15.0312 1.95694 14.8412C1.95369 14.6513 1.98837 14.4624 2.05897 14.2855ZM5.81244 20.7243C5.55545 20.9836 5.2097 21.1379 4.84403 21.1565C4.47836 21.1751 4.1196 21.0566 3.83917 20.8247C3.55875 20.5928 3.37723 20.2644 3.33077 19.9049C3.2843 19.5454 3.37629 19.1812 3.58843 18.8848C4.03463 18.3462 4.58404 17.9003 5.20475 17.573L5.85038 17.4004C6.03535 17.714 6.30889 17.9668 6.63744 18.128C6.7118 18.1677 6.78834 18.2032 6.86671 18.2345L6.81019 18.9C6.60186 19.5668 6.26279 20.1867 5.81244 20.7243ZM10.6588 21.339C10.3322 21.5444 9.93731 21.6136 9.56054 21.5315C9.18377 21.4494 8.85582 21.2226 8.6485 20.9007C8.27071 20.3157 8.01496 19.6613 7.89625 18.976L7.93985 18.3139L8.0141 18.2941L8.16259 18.2544C8.52046 18.1325 8.83468 17.9092 9.06616 17.6123L9.60388 17.8109C9.65472 17.8534 9.71283 17.8866 9.7755 17.9088C10.3114 18.2966 10.7671 18.7824 11.1184 19.3402C11.2218 19.5005 11.2919 19.6796 11.3248 19.8672C11.3577 20.0547 11.3526 20.2471 11.3099 20.433C11.2671 20.619 11.1875 20.7948 11.0758 20.9503C10.964 21.1058 10.8223 21.238 10.6588 21.339ZM24.3006 39.3583C23.939 38.7397 23.7501 38.0365 23.7533 37.3205L29.396 35.8122C29.7591 36.4301 29.9481 37.1337 29.9433 37.8499L24.3006 39.3583ZM32.5678 9.98146C32.6597 10.0432 32.7355 10.1257 32.7889 10.2222C32.8423 10.3188 32.8719 10.4265 32.8751 10.5367C32.8783 10.6469 32.8551 10.7564 32.8074 10.8562C32.7597 10.956 32.6889 11.0433 32.6007 11.111C32.5125 11.1786 32.4095 11.2247 32.3001 11.2454C32.1907 11.2661 32.078 11.2609 31.9713 11.2301C31.8645 11.1994 31.7667 11.144 31.6859 11.0685C31.6051 10.993 31.5436 10.8995 31.5064 10.7958C31.4556 10.656 31.4511 10.5037 31.4935 10.3608C31.536 10.218 31.6231 10.092 31.7423 10.001C31.8615 9.9101 32.0067 9.85896 32.1568 9.85497C32.3069 9.85099 32.4542 9.89438 32.5775 9.97887L32.5678 9.98146ZM35.3882 14.5952C35.2585 14.6951 35.1103 14.7687 34.9521 14.8119C34.7939 14.8551 34.6288 14.8669 34.4662 14.8468C34.3036 14.8266 34.1468 14.7749 34.0047 14.6945C33.8626 14.6141 33.738 14.5067 33.6381 14.3784C33.2539 13.9034 32.9705 13.3563 32.8046 12.7697C32.7855 12.299 32.7931 12.4305 32.7819 12.2212C33.1443 12.0838 33.4555 11.8393 33.6732 11.5208L34.2078 11.6689C34.7448 11.9685 35.2162 12.3707 35.5947 12.8523C35.698 12.9786 35.7749 13.1239 35.8209 13.28C35.867 13.4361 35.8813 13.5998 35.8629 13.7617C35.8446 13.9236 35.7941 14.0803 35.7143 14.223C35.6344 14.3656 35.5269 14.4912 35.3979 14.5926L35.3882 14.5952ZM35.4565 8.03512C35.762 7.9382 36.093 7.96147 36.3807 8.10008C36.6684 8.2387 36.8907 8.48201 37.0013 8.77945C37.1119 9.07689 37.1024 9.40558 36.9747 9.69723C36.8471 9.98888 36.6111 10.221 36.3157 10.3455C35.7371 10.5594 35.1224 10.6597 34.506 10.641L33.9715 10.4929C33.9562 10.1178 33.8231 9.75723 33.5907 9.46156C33.5838 9.43601 33.545 9.49773 33.8906 8.98087C34.3443 8.56592 34.8767 8.24441 35.4565 8.03512ZM30.7775 6.69101C30.7714 6.52946 30.7974 6.36817 30.8542 6.21634C30.9109 6.06451 30.9973 5.92512 31.1083 5.80612C31.3325 5.5658 31.6435 5.42314 31.973 5.40952C32.1361 5.40278 32.2988 5.42793 32.4519 5.48352C32.6049 5.53912 32.7453 5.62407 32.865 5.73353C32.9846 5.843 33.0813 5.97483 33.1494 6.1215C33.2175 6.26817 33.2557 6.42681 33.2618 6.58835C33.2841 7.19636 33.1875 7.80339 32.9773 8.37602L32.6682 8.83522C32.304 8.73792 31.9183 8.75156 31.5612 8.87439C31.5256 8.88388 31.5766 8.93188 31.1943 8.4487C30.9417 7.89489 30.8044 7.29597 30.7904 6.68756L30.7775 6.69101ZM27.2877 10.1091C27.1687 9.89706 27.1158 9.65466 27.1355 9.41233C27.1552 9.17 27.2467 8.93853 27.3984 8.74695C27.5502 8.55538 27.7556 8.41223 27.9887 8.33547C28.2218 8.2587 28.4723 8.25174 28.7089 8.31544C29.3042 8.47712 29.8607 8.75419 30.3464 9.13064L30.6898 9.55917C30.4702 9.87747 30.3609 10.2576 30.3786 10.6419L29.8589 10.8322C29.245 10.9056 28.623 10.8552 28.0304 10.6843C27.8741 10.642 27.728 10.5694 27.6005 10.4706C27.4731 10.3719 27.3667 10.249 27.2877 10.1091ZM28.947 13.1436C29.2904 12.6294 29.7343 12.1883 30.2524 11.8464L30.7721 11.6562C31.0121 11.9586 31.3435 12.177 31.7181 12.2797C31.7257 12.4625 31.7329 12.618 31.74 12.8249C31.6142 13.4245 31.3726 13.9947 31.0285 14.5042C30.8447 14.7763 30.5595 14.9653 30.2358 15.0296C29.9122 15.094 29.5764 15.0285 29.3025 14.8475C29.0287 14.6665 28.839 14.3848 28.7754 14.0645C28.7117 13.7441 28.7792 13.4114 28.9631 13.1393L28.947 13.1436ZM21.5234 21.2898C21.6299 21.1511 21.7753 21.0465 21.9412 20.989C22.1072 20.9315 22.2864 20.9238 22.4564 20.9668C22.6263 21.0098 22.7795 21.1015 22.8967 21.2306C23.0138 21.3596 23.0898 21.5202 23.115 21.6922C23.1403 21.8643 23.1136 22.04 23.0385 22.1975C22.9633 22.355 22.843 22.4872 22.6926 22.5776C22.5422 22.6679 22.3684 22.7124 22.193 22.7054C22.0176 22.6984 21.8483 22.6403 21.7065 22.5383C21.5169 22.3982 21.3913 22.1891 21.3575 21.9569C21.3237 21.7246 21.3843 21.4882 21.526 21.2994L21.5234 21.2898ZM19.4486 22.3887C19.6616 22.3318 19.5274 22.3471 20.3198 22.3476C20.4496 22.7905 20.7276 23.1761 21.1083 23.4411L20.8858 24.1201C20.502 24.726 20.0009 25.2509 19.4115 25.6644C19.0858 25.8809 18.6884 25.9636 18.3034 25.895C17.9184 25.8265 17.5761 25.6121 17.3489 25.2972C17.1218 24.9824 17.0277 24.5918 17.0865 24.2082C17.1454 23.8246 17.3525 23.4782 17.6642 23.2423C18.204 22.8566 18.8094 22.5707 19.4511 22.3983L19.4486 22.3887ZM21.9265 24.465L22.1523 23.7987C22.618 23.8143 23.0754 23.6702 23.4475 23.3909L24.0119 23.8048C24.4764 24.351 24.8262 24.9836 25.0411 25.6658C25.1118 25.8551 25.1429 26.0567 25.1325 26.2586C25.1222 26.4604 25.0705 26.6582 24.9807 26.84C24.8909 27.0218 24.7649 27.1838 24.6102 27.3161C24.4555 27.4485 24.2754 27.5485 24.0808 27.61C23.8863 27.6715 23.6813 27.6933 23.4783 27.674C23.2753 27.6548 23.0786 27.5949 22.9 27.4979C22.7214 27.401 22.5647 27.2691 22.4394 27.1102C22.3141 26.9512 22.2228 26.7686 22.171 26.5734C21.9458 25.8938 21.8623 25.1754 21.9256 24.4618L21.9265 24.465ZM24.6657 22.9283L24.1021 22.5176C24.2695 22.0752 24.2726 21.589 24.1108 21.1459L24.6938 20.7402C25.3635 20.4707 26.0802 20.3361 26.8019 20.3444C27.2028 20.3476 27.5854 20.5084 27.8655 20.7914C28.1455 21.0744 28.3002 21.4565 28.2954 21.8537C28.2905 22.2508 28.1267 22.6304 27.8397 22.909C27.5528 23.1876 27.1664 23.3424 26.7655 23.3392C26.044 23.3393 25.3302 23.1986 24.6648 22.9251L24.6657 22.9283ZM22.2532 17.0896C22.3817 16.7138 22.6554 16.4034 23.0141 16.2267C23.3728 16.0499 23.7871 16.0212 24.1659 16.1469C24.5447 16.2727 24.857 16.5425 25.0339 16.8971C25.2109 17.2516 25.2382 17.6619 25.1097 18.0376C24.8849 18.7165 24.5253 19.3445 24.0523 19.8847L23.4702 20.2936C23.102 20.0113 22.647 19.8624 22.1805 19.8716C21.9959 19.2876 22.0444 19.4424 21.9713 19.2086C21.919 18.4912 22.0149 17.7702 22.2532 17.0896ZM18.2937 8.13152C18.2128 7.94943 18.1916 7.74664 18.2328 7.5515C18.2741 7.35635 18.3758 7.17859 18.5237 7.04305C18.6729 6.90913 18.8608 6.82521 19.0605 6.80329C19.2603 6.78138 19.4616 6.82258 19.6358 6.92102C19.81 7.01945 19.948 7.17007 20.0302 7.35132C20.1123 7.53256 20.1344 7.73513 20.0932 7.93005C20.052 8.12496 19.9496 8.30223 19.8008 8.43647C19.652 8.57071 19.4643 8.65504 19.2646 8.6774C19.0648 8.69976 18.8634 8.659 18.689 8.56094C18.5146 8.46289 18.3762 8.31258 18.2937 8.13152ZM23.4245 12.3433C23.1129 12.6262 22.7016 12.7761 22.2801 12.7606C21.8587 12.745 21.4612 12.5652 21.1741 12.2602C20.663 11.7123 20.2678 11.0685 20.0115 10.3664C19.9395 9.72499 19.9545 9.85792 19.9267 9.62572C20.3841 9.43796 20.7594 9.09483 20.985 8.65817L21.7165 8.80498C22.4016 9.12004 23.0165 9.56645 23.5259 10.1185C23.8085 10.4265 23.9564 10.833 23.9374 11.2497C23.9185 11.6664 23.7341 12.0594 23.4245 12.3433ZM22.8079 4.35397C23.1893 4.19694 23.6166 4.19225 24.0001 4.34087C24.3837 4.48949 24.6934 4.77986 24.8643 5.15091C25.0352 5.52196 25.054 5.94479 24.9166 6.33049C24.7792 6.71619 24.4964 7.03471 24.1276 7.21908C23.4404 7.53337 22.6981 7.71087 21.9429 7.74145L21.2114 7.59463C21.1721 7.1088 20.9591 6.65352 20.6105 6.31064L20.9767 5.65137C21.4931 5.10146 22.116 4.66015 22.8079 4.35397ZM17.0463 3.26846C17.0163 2.96155 17.0777 2.6523 17.2228 2.37878C17.3679 2.10527 17.5905 1.87944 17.863 1.72909C18.1356 1.57874 18.4462 1.51044 18.7568 1.53261C19.0673 1.55477 19.3641 1.66643 19.6107 1.85383C19.774 1.98096 19.9102 2.13898 20.0113 2.31876C20.1124 2.49854 20.1766 2.69653 20.1999 2.90129C20.2858 3.64511 20.2239 4.39898 20.0175 5.1204L19.64 5.77588C19.1679 5.65814 18.6683 5.70926 18.2291 5.92025L17.7347 5.36775C17.3679 4.72018 17.134 4.00681 17.0463 3.26846ZM12.968 6.50499C13.0092 6.30232 13.0904 6.10955 13.207 5.93776C13.3236 5.76597 13.4732 5.61854 13.6472 5.50395C13.8212 5.38936 14.0162 5.30987 14.221 5.27003C14.4259 5.23019 14.6364 5.23081 14.8407 5.27183C15.5817 5.41443 16.2859 5.70218 16.9121 6.11823L17.4065 6.67072C17.1544 7.08874 17.0552 7.57956 17.1258 8.06028L16.4353 8.37494C15.6976 8.51588 14.9398 8.51261 14.2046 8.36532C13.7918 8.28043 13.4302 8.03731 13.1986 7.68889C12.967 7.34046 12.8841 6.91495 12.968 6.50499ZM18.2095 12.5974C18.1055 12.7801 17.9655 12.9404 17.7979 13.0687C17.6303 13.1971 17.4384 13.2908 17.2338 13.3443C16.9315 13.4241 16.6125 13.4142 16.3165 13.3157C16.0206 13.2173 15.7608 13.0346 15.5695 12.7906C15.3781 12.5465 15.2638 12.2518 15.2406 11.9431C15.2174 11.6345 15.2864 11.3255 15.439 11.0547C15.8058 10.3974 16.3026 9.81975 16.8997 9.35653L17.5869 9.04274C17.9058 9.41403 18.3485 9.65987 18.8353 9.73601L18.9169 10.4776C18.824 11.2228 18.5836 11.9432 18.2095 12.5974ZM17.1021 19.3976C17.0598 19.1066 17.1051 18.8094 17.2324 18.5432C17.3596 18.2769 17.5632 18.0534 17.8176 17.9006C18.072 17.7478 18.3659 17.6726 18.6626 17.6843C18.9593 17.696 19.2455 17.7941 19.4855 17.9663C20.071 18.3845 20.5662 18.9143 20.9421 19.5248L21.1513 20.1877C21.1255 20.1946 21.0391 20.2725 20.9552 20.3463C20.8415 20.4356 20.7416 20.5407 20.6584 20.6584C20.5657 20.7732 20.4916 20.9016 20.4388 21.0389C20.4037 21.1151 20.3727 21.1931 20.3459 21.2725L19.6352 21.2674C18.9365 21.0966 18.2799 20.7891 17.7039 20.363C17.5426 20.2503 17.4062 20.1064 17.3026 19.94C17.199 19.7735 17.1305 19.588 17.1012 19.3944L17.1021 19.3976ZM6.97871 27.3207C7.04353 26.9336 7.19742 26.5661 7.42843 26.2467C7.65944 25.9273 7.96137 25.6646 8.31084 25.4789C9.80908 24.6163 11.2187 24.9823 12.2976 24.4132C13.3693 24.1267 14.124 22.1963 17.3342 22.1426C17.2274 22.2088 17.1215 22.2782 17.0173 22.354C16.5216 22.7065 16.1657 23.2196 16.0117 23.8039C15.8577 24.3882 15.9153 25.0067 16.1744 25.5516C16.4335 26.0965 16.8778 26.5333 17.4299 26.7859C17.9819 27.0385 18.6067 27.0909 19.1955 26.934C19.8364 26.7194 20.4115 26.3452 20.8654 25.8475C20.9189 26.2036 21.0005 26.555 21.1096 26.8982C21.3283 27.5352 21.7905 28.061 22.3972 28.363C23.0039 28.665 23.7068 28.7192 24.3555 28.5141C25.0042 28.3089 25.547 27.8606 25.8678 27.2653C26.1885 26.6699 26.2617 25.9748 26.0716 25.3288C25.9623 24.9851 25.8251 24.6508 25.6613 24.3293C26.0184 24.3911 26.3801 24.4238 26.7428 24.427C27.4028 24.4263 28.0388 24.177 28.5217 23.7295C29.0047 23.282 29.2984 22.67 29.3434 22.0177C29.3883 21.3653 29.181 20.7215 28.7636 20.2169C28.3462 19.7123 27.7499 19.3846 27.0958 19.3005C28.3379 18.7499 29.6925 18.4969 31.0493 18.5621C35.6749 18.6641 36.4203 16.8149 38.7689 18.8606C34.6514 21.423 29.5751 30.2186 29.0985 34.7689L27.9299 35.0813C27.5826 33.2108 27.396 31.3138 27.3722 29.4108C27.3722 29.3393 27.3578 29.2686 27.3299 29.2028C27.3021 29.1369 27.2613 29.0773 27.2098 29.0273C27.1584 28.9774 27.0975 28.9381 27.0305 28.9117C26.9635 28.8854 26.8918 28.8725 26.8197 28.8738C26.6744 28.8762 26.5358 28.9352 26.4338 29.0381C26.3319 29.141 26.2749 29.2795 26.2753 29.4233C26.3037 31.4171 26.5063 33.4039 26.8808 35.3617L25.6961 35.6784C25.2579 34.6434 24.7635 33.6328 24.2151 32.651C24.1806 32.5885 24.134 32.5334 24.078 32.4889C24.0219 32.4443 23.9575 32.4112 23.8884 32.3913C23.8193 32.3715 23.7468 32.3654 23.6752 32.3733C23.6036 32.3812 23.5342 32.403 23.471 32.4374C23.4078 32.4718 23.352 32.5182 23.3068 32.574C23.2616 32.6297 23.2278 32.6936 23.2075 32.7621C23.1872 32.8307 23.1807 32.9024 23.1884 32.9733C23.1961 33.0442 23.2178 33.1129 23.2523 33.1754C23.8044 34.1746 24.2698 35.1216 24.6233 35.948L23.4579 36.2595C20.745 32.5482 11.7999 27.391 6.97871 27.3207ZM32.4278 46.9969L30.4032 42.5504C30.3433 42.419 30.2331 42.3167 30.0969 42.2659C29.9607 42.215 29.8095 42.2198 29.6764 42.2791C29.5457 42.3376 29.4434 42.4446 29.3915 42.577C29.3396 42.7094 29.3424 42.8565 29.3993 42.9865L31.3902 47.3974C30.2342 47.809 29.0466 48.1264 27.8393 48.3466L27.5879 45.7232C27.5737 45.5799 27.5026 45.4483 27.3903 45.3573C27.2779 45.2663 27.1335 45.2234 26.9888 45.238C26.844 45.2526 26.7109 45.3236 26.6185 45.4353C26.5262 45.5469 26.4823 45.6902 26.4965 45.8335L26.7631 48.5008C25.9866 48.5899 25.2052 48.6284 24.4241 48.616L24.6052 40.3894L25.9643 40.0261L26.1655 41.4067C26.1756 41.4772 26.1997 41.5451 26.2363 41.6064C26.2729 41.6676 26.3214 41.7211 26.3789 41.7637C26.4365 41.8063 26.502 41.8373 26.5717 41.8548C26.6414 41.8723 26.714 41.876 26.7853 41.8657C26.8566 41.8554 26.9252 41.8313 26.9872 41.7948C27.0492 41.7583 27.1034 41.7101 27.1467 41.6529C27.19 41.5957 27.2215 41.5307 27.2394 41.4615C27.2574 41.3924 27.2614 41.3205 27.2514 41.2499L27.0224 39.7535L30.215 38.9001L34.4951 45.9342C33.8311 46.3346 33.1404 46.6897 32.4278 46.9969Z" fill="white"/>
</svg>
