<svg width="45" height="37" viewBox="0 0 45 37" fill="none" xmlns="http://www.w3.org/2000/svg">
<path d="M39.7419 29.75H12.2747L7.28064 1H1.03809" stroke="#EC374D" stroke-width="1.5" stroke-linecap="round" stroke-linejoin="round"/>
<path d="M8.5293 4.75H43.4876L39.7421 23.5H12.2748" stroke="#EC374D" stroke-width="1.5" stroke-linecap="round" stroke-linejoin="round"/>
<path d="M17.2695 4.75V23.5" stroke="#EC374D" stroke-width="1.5" stroke-linecap="round" stroke-linejoin="round"/>
<path d="M26.0078 4.75V23.5" stroke="#EC374D" stroke-width="1.5" stroke-linecap="round" stroke-linejoin="round"/>
<path d="M40.9901 13.5002H9.77734" stroke="#EC374D" stroke-width="1.5" stroke-linecap="round" stroke-linejoin="round"/>
<path d="M34.748 4.75V23.5" stroke="#EC374D" stroke-width="1.5" stroke-linecap="round" stroke-linejoin="round"/>
<path d="M17.8928 36.0002C19.6166 36.0002 21.014 34.6011 21.014 32.8752C21.014 31.1494 19.6166 29.7502 17.8928 29.7502C16.1689 29.7502 14.7715 31.1494 14.7715 32.8752C14.7715 34.6011 16.1689 36.0002 17.8928 36.0002Z" stroke="#EC374D" stroke-width="1.5" stroke-linecap="round" stroke-linejoin="round"/>
<path d="M34.1232 36.0002C35.8471 36.0002 37.2445 34.6011 37.2445 32.8752C37.2445 31.1494 35.8471 29.7502 34.1232 29.7502C32.3994 29.7502 31.002 31.1494 31.002 32.8752C31.002 34.6011 32.3994 36.0002 34.1232 36.0002Z" stroke="#EC374D" stroke-width="1.5" stroke-linecap="round" stroke-linejoin="round"/>
</svg>
