<svg width="18" height="19" viewBox="0 0 18 19" fill="none" xmlns="http://www.w3.org/2000/svg">
<path d="M0.600019 0.152344C0.440884 0.152344 0.288267 0.215558 0.175741 0.32808C0.0632161 0.440601 0 0.593214 0 0.752344C0 0.911474 0.0632161 1.06409 0.175741 1.17661C0.288267 1.28913 0.440884 1.35234 0.600019 1.35234H1.93206L2.41327 3.28074L4.21093 12.8627C4.23667 13.0002 4.30964 13.1244 4.41723 13.2138C4.52482 13.3032 4.66026 13.3522 4.80015 13.3523H6.00019C5.36365 13.3523 4.75318 13.6052 4.30308 14.0553C3.85298 14.5054 3.60011 15.1158 3.60011 15.7523C3.60011 16.3889 3.85298 16.9993 4.30308 17.4494C4.75318 17.8995 5.36365 18.1523 6.00019 18.1523C6.63672 18.1523 7.24719 17.8995 7.69729 17.4494C8.1474 16.9993 8.40026 16.3889 8.40026 15.7523C8.40026 15.1158 8.1474 14.5054 7.69729 14.0553C7.24719 13.6052 6.63672 13.3523 6.00019 13.3523H14.4004C13.7639 13.3523 13.1534 13.6052 12.7033 14.0553C12.2532 14.5054 12.0004 15.1158 12.0004 15.7523C12.0004 16.3889 12.2532 16.9993 12.7033 17.4494C13.1534 17.8995 13.7639 18.1523 14.4004 18.1523C15.037 18.1523 15.6475 17.8995 16.0976 17.4494C16.5477 16.9993 16.8005 16.3889 16.8005 15.7523C16.8005 15.1158 16.5477 14.5054 16.0976 14.0553C15.6475 13.6052 15.037 13.3523 14.4004 13.3523H15.6005C15.7404 13.3522 15.8758 13.3032 15.9834 13.2138C16.091 13.1244 16.164 13.0002 16.1897 12.8627L17.9898 3.26274C18.006 3.17615 18.0029 3.08705 17.9808 3.00177C17.9587 2.91648 17.9181 2.83712 17.8618 2.76931C17.8056 2.7015 17.7351 2.6469 17.6554 2.60941C17.5756 2.57191 17.4886 2.55243 17.4005 2.55234H3.46811L2.98209 0.607144C2.9497 0.477284 2.87482 0.361982 2.76936 0.279573C2.6639 0.197165 2.53392 0.152381 2.40007 0.152344H0.600019ZM7.20022 15.7523C7.20022 16.0706 7.07379 16.3758 6.84874 16.6009C6.62369 16.8259 6.31846 16.9523 6.00019 16.9523C5.68192 16.9523 5.37668 16.8259 5.15163 16.6009C4.92658 16.3758 4.80015 16.0706 4.80015 15.7523C4.80015 15.4341 4.92658 15.1289 5.15163 14.9038C5.37668 14.6788 5.68192 14.5523 6.00019 14.5523C6.31846 14.5523 6.62369 14.6788 6.84874 14.9038C7.07379 15.1289 7.20022 15.4341 7.20022 15.7523ZM15.6005 15.7523C15.6005 16.0706 15.4741 16.3758 15.249 16.6009C15.0239 16.8259 14.7187 16.9523 14.4004 16.9523C14.0822 16.9523 13.7769 16.8259 13.5519 16.6009C13.3268 16.3758 13.2004 16.0706 13.2004 15.7523C13.2004 15.4341 13.3268 15.1289 13.5519 14.9038C13.7769 14.6788 14.0822 14.5523 14.4004 14.5523C14.7187 14.5523 15.0239 14.6788 15.249 14.9038C15.4741 15.1289 15.6005 15.4341 15.6005 15.7523ZM13.6252 6.57714L10.0251 10.1771C9.96937 10.233 9.90316 10.2774 9.83026 10.3076C9.75737 10.3378 9.67922 10.3534 9.6003 10.3534C9.52137 10.3534 9.44323 10.3378 9.37033 10.3076C9.29743 10.2774 9.23122 10.233 9.17548 10.1771L7.37543 8.37714C7.31964 8.32136 7.27539 8.25513 7.2452 8.18224C7.215 8.10936 7.19946 8.03124 7.19946 7.95234C7.19946 7.87345 7.215 7.79533 7.2452 7.72244C7.27539 7.64956 7.31964 7.58333 7.37543 7.52754C7.43122 7.47176 7.49744 7.42751 7.57033 7.39732C7.64322 7.36713 7.72135 7.35159 7.80024 7.35159C7.87914 7.35159 7.95726 7.36713 8.03015 7.39732C8.10304 7.42751 8.16927 7.47176 8.22505 7.52754L9.6003 8.90394L12.7756 5.72754C12.8314 5.67176 12.8976 5.62751 12.9705 5.59732C13.0434 5.56712 13.1215 5.55159 13.2004 5.55159C13.2793 5.55159 13.3574 5.56712 13.4303 5.59732C13.5032 5.62751 13.5694 5.67176 13.6252 5.72754C13.681 5.78333 13.7253 5.84956 13.7555 5.92244C13.7856 5.99533 13.8012 6.07345 13.8012 6.15234C13.8012 6.23124 13.7856 6.30936 13.7555 6.38224C13.7253 6.45513 13.681 6.52136 13.6252 6.57714Z" fill="white"/>
</svg>
