<svg width="27" height="22" viewBox="0 0 27 22" fill="none" xmlns="http://www.w3.org/2000/svg">
<path d="M24.179 1.43082C20.6502 3.79421 17.6322 6.08232 14.7558 9.18682C13.4873 10.5561 12.0657 12.1758 11.0791 13.7449C10.5234 14.5734 9.54549 15.8555 9.1163 17.1456C7.73753 15.5772 6.2661 13.8076 4.7179 12.377C3.61436 11.3577 -0.0526567 12.7713 1.24115 13.9666C3.56006 16.108 5.40222 18.6578 7.64269 20.8744C8.57992 21.8005 11.0565 20.296 11.675 19.6175C13.7062 17.3814 14.2806 14.4337 15.8599 11.9232C18.272 8.0832 22.1157 5.13799 25.8661 2.62677C28.3677 0.813565 26.0668 0.168867 24.1825 1.43121" fill="#52B69A"/>
</svg>
