<svg width="38" height="38" viewBox="0 0 38 38" fill="none" xmlns="http://www.w3.org/2000/svg">
<path d="M19 3.16667C10.2916 3.16667 3.16663 10.2917 3.16663 19C3.16663 22.6417 4.43329 26.125 6.80829 28.975L3.64163 32.1417C3.00829 32.775 3.00829 33.725 3.64163 34.3583C3.95829 34.675 4.27496 34.8333 4.74996 34.8333H19C27.7083 34.8333 34.8333 27.7083 34.8333 19C34.8333 10.2917 27.7083 3.16667 19 3.16667ZM12.6666 20.5833C11.7166 20.5833 11.0833 19.95 11.0833 19C11.0833 18.05 11.7166 17.4167 12.6666 17.4167C13.6166 17.4167 14.25 18.05 14.25 19C14.25 19.95 13.6166 20.5833 12.6666 20.5833ZM19 20.5833C18.05 20.5833 17.4166 19.95 17.4166 19C17.4166 18.05 18.05 17.4167 19 17.4167C19.95 17.4167 20.5833 18.05 20.5833 19C20.5833 19.95 19.95 20.5833 19 20.5833ZM25.3333 20.5833C24.3833 20.5833 23.75 19.95 23.75 19C23.75 18.05 24.3833 17.4167 25.3333 17.4167C26.2833 17.4167 26.9166 18.05 26.9166 19C26.9166 19.95 26.2833 20.5833 25.3333 20.5833Z" fill="white"/>
</svg>
