<svg width="18" height="19" viewBox="0 0 18 19" fill="none" xmlns="http://www.w3.org/2000/svg">
<path d="M5.29412 0.152344H2.91176C2.13952 0.152344 1.3989 0.489118 0.852836 1.00518C0.306774 1.55124 0 2.29186 0 3.06411V5.44646H2.40141C2.16837 5.04276 2.07504 4.57344 2.1359 4.11128C2.19676 3.64913 2.40841 3.21997 2.73802 2.89036C3.06763 2.56075 3.49679 2.3491 3.95894 2.28824C4.42109 2.22738 4.89041 2.32071 5.29412 2.55376V0.152344ZM0 6.50529V9.94646C0 10.7187 0.306774 11.4893 0.852836 12.0054C1.3989 12.5515 2.13952 12.8582 2.91176 12.8582H5.29412V7.25387L3.55129 8.99776C3.48188 9.09717 3.31706 9.15301 3.17647 9.15301C3.03588 9.15301 2.90106 9.09717 2.80165 8.99776C2.70224 8.89835 2.64639 8.76352 2.64639 8.62293C2.64639 8.48235 2.70224 8.34752 2.80165 8.24811L4.54853 6.50529H0ZM6.35294 12.8582H7.43506C7.5312 11.8031 7.91339 10.7941 8.54048 9.94009C9.16752 9.08605 10.0157 8.41926 10.9936 8.01148C11.9716 7.60384 13.0422 7.47065 14.0903 7.62634C15.1383 7.78202 16.124 8.22067 16.9412 8.89505V6.50529H7.10153L8.84841 8.24811C8.94482 8.34752 9.00067 8.48235 9.00067 8.62293C9.00067 8.76352 8.94482 8.89835 8.84841 8.99776C8.746 9.09717 8.61117 9.15301 8.47059 9.15301C8.33 9.15301 8.19517 9.09717 8.09577 8.99776L6.35294 7.25387V12.8582ZM16.9412 5.44646H9.24865C9.47869 5.04276 9.57202 4.57344 9.51116 4.11128C9.4803 3.64913 9.23865 3.21997 8.90904 2.89036C8.57943 2.56075 8.15027 2.3491 7.68812 2.28824C7.22597 2.22738 6.75665 2.32071 6.35294 2.55376V0.152344H14.0294C14.8017 0.152344 15.5423 0.489118 16.0883 1.00518C16.6344 1.55124 16.9412 2.29186 16.9412 3.06411V5.44646ZM6.35294 5.44646V4.38764C6.35294 4.17822 6.41504 3.97351 6.53139 3.79939C6.64773 3.62526 6.8131 3.48955 7.00657 3.40941C7.20005 3.32927 7.41294 3.3083 7.61833 3.34916C7.82372 3.39001 8.01239 3.49086 8.16047 3.63894C8.30855 3.78702 8.40939 3.97568 8.48024 4.18107C8.4911 4.38646 8.47013 4.59936 8.38999 4.79283C8.30985 4.98631 8.17414 5.15167 8.00002 5.26802C7.82589 5.38436 7.62118 5.44646 7.41177 5.44646H6.35294ZM5.29412 5.44646H4.23529C4.02588 5.44646 3.82117 5.38436 3.64704 5.26802C3.47292 5.15167 3.33721 4.98631 3.25707 4.79283C3.17693 4.59936 3.15596 4.38646 3.19682 4.18107C3.23767 3.97568 3.33851 3.78702 3.48659 3.63894C3.63467 3.49086 3.82334 3.39001 4.02873 3.34916C4.23412 3.3083 4.44701 3.32927 4.64049 3.40941C4.83396 3.48955 4.99933 3.62526 5.11467 3.79939C5.23202 3.97351 5.29412 4.17822 5.29412 4.38764V5.44646ZM18 13.3876C18 14.6513 17.498 15.8632 16.6048 16.7568C15.7109 17.6504 14.499 18.1523 13.2353 18.1523C11.9716 18.1523 10.7597 17.6504 9.86614 16.7568C8.97258 15.8632 8.47059 14.6513 8.47059 13.3876C8.47059 12.124 8.97258 10.912 9.86614 10.0185C10.7597 9.12493 11.9716 8.62293 13.2353 8.62293C14.499 8.62293 15.7109 9.12493 16.6048 10.0185C17.498 10.912 18 12.124 18 13.3876ZM15.7267 13.7625L15.7299 13.7593C15.8269 13.6611 15.8816 13.5288 15.8824 13.3908V13.3848C15.8815 13.2484 15.826 13.1123 15.7278 13.0139L13.6101 10.8962C13.5108 10.7968 13.3762 10.7409 13.2357 10.7408C13.0952 10.7407 12.9604 10.7964 12.861 10.8957C12.7616 10.995 12.7057 11.1297 12.7056 11.2701C12.7055 11.4106 12.7612 11.5484 12.8605 11.6448L14.0749 12.8582H11.1176C10.9772 12.8582 10.8426 12.914 10.7433 13.0133C10.644 13.1126 10.5882 13.2472 10.5882 13.3876C10.5882 13.528 10.644 13.6627 10.7433 13.762C10.8426 13.8613 10.9772 13.9171 11.1176 13.9171H14.0749L12.8605 15.1305C12.7611 15.2299 12.7052 15.3647 12.7052 15.5053C12.7052 15.6489 12.7611 15.7807 12.8605 15.8801C12.9599 15.9795 13.0947 16.0354 13.2353 16.0354C13.3759 16.0354 13.5107 15.9795 13.6101 15.8801L15.7278 13.7625H15.7267Z" fill="white"/>
</svg>
