<svg width="40" height="40" viewBox="0 0 40 40" fill="none" xmlns="http://www.w3.org/2000/svg">
<g id="erase">
<g id="Group 1234">
<path id="Rectangle 3023 (Stroke)" fill-rule="evenodd" clip-rule="evenodd" d="M13.7074 11L5.65738 20.2L13.7074 29.4H35.9998V11H13.7074ZM13.2536 9C12.9653 9 12.6909 9.12448 12.501 9.3415L3.57604 19.5415C3.24614 19.9185 3.24614 20.4815 3.57604 20.8585L12.501 31.0585C12.6909 31.2755 12.9653 31.4 13.2536 31.4H36.9998C37.5521 31.4 37.9998 30.9523 37.9998 30.4V10C37.9998 9.44772 37.5521 9 36.9998 9H13.2536Z" fill="#9DA7B0"/>
<path id="Vector 40 (Stroke)" fill-rule="evenodd" clip-rule="evenodd" d="M18.2929 13.893C18.6834 13.5025 19.3166 13.5025 19.7071 13.893L30.2071 24.393C30.5976 24.7835 30.5976 25.4167 30.2071 25.8072C29.8166 26.1977 29.1834 26.1977 28.7929 25.8072L18.2929 15.3072C17.9024 14.9167 17.9024 14.2835 18.2929 13.893Z" fill="#9DA7B0"/>
<path id="Vector 41 (Stroke)" fill-rule="evenodd" clip-rule="evenodd" d="M18.2929 25.8072C17.9024 25.4167 17.9024 24.7835 18.2929 24.393L28.7929 13.893C29.1834 13.5025 29.8166 13.5025 30.2071 13.893C30.5976 14.2835 30.5976 14.9167 30.2071 15.3072L19.7071 25.8072C19.3166 26.1977 18.6834 26.1977 18.2929 25.8072Z" fill="#9DA7B0"/>
</g>
</g>
</svg>
