<svg width="46" height="42" viewBox="0 0 46 42" fill="none" xmlns="http://www.w3.org/2000/svg">
<path d="M27.4 29.8889L35.5972 23.2667C36.4571 22.5711 37.4758 22.1042 38.5603 21.9086C39.6448 21.7129 40.7605 21.7948 41.8056 22.1467L45 23.2222L31.5734 38.7244C30.9538 39.4394 30.19 40.0124 29.3332 40.4048C28.4765 40.7973 27.5465 41.0002 26.6058 41H5.4C4.23305 41 3.11389 40.5317 2.28873 39.6983C1.46357 38.8648 1 37.7343 1 36.5556V23.2222C1 22.6329 1.23178 22.0676 1.64437 21.6509C2.05695 21.2341 2.61652 21 3.2 21H20.646C21.3702 20.9995 22.0833 21.1801 22.7217 21.5255C23.36 21.871 23.9038 22.3707 24.3046 22.98L26.2582 25.94C26.3684 26.1073 26.4317 26.3017 26.4412 26.5025C26.4507 26.7032 26.4061 26.9028 26.3122 27.08C26.2183 27.2572 26.0785 27.4053 25.9079 27.5086C25.7372 27.6119 25.542 27.6666 25.343 27.6667H16.4V29.8889H27.4Z" stroke="white" stroke-width="1.5" stroke-linejoin="round"/>
<path d="M40.5736 6.71556C40.5736 8.29333 39.9598 9.72222 38.9676 10.7556L29.6 21L20.2324 10.7533C19.2402 9.72222 18.6264 8.29111 18.6264 6.71333C18.6264 5.13556 19.2402 3.70889 20.2324 2.67333C20.7346 2.14511 21.3371 1.72465 22.004 1.43713C22.6708 1.14961 23.3882 1.00093 24.1132 1C24.1132 1 26.85 0.993333 29.6 3.85778C32.35 0.993333 35.0868 1 35.0868 1C35.812 1.00084 36.5297 1.14969 37.1965 1.43762C37.8634 1.72555 38.4658 2.14662 38.9676 2.67556C39.9598 3.70889 40.5736 5.13778 40.5736 6.71556Z" stroke="white" stroke-width="1.5" stroke-linejoin="round"/>
</svg>
