<svg width="58" height="58" viewBox="0 0 58 58" fill="none" xmlns="http://www.w3.org/2000/svg">
<path d="M37.0225 42.1212C37.0816 41.034 36.7925 39.9575 36.1964 39.0454C36.5421 34.3556 42.2795 25.1231 45.9461 23.4583C46.0279 23.4203 46.0991 23.363 46.1535 23.2914C46.2078 23.2199 46.2437 23.1363 46.2579 23.048C46.2721 22.9598 46.2642 22.8695 46.2349 22.7851C46.2056 22.7007 46.1559 22.6248 46.09 22.564C42.7871 19.2842 41.8555 21.5735 37.1051 21.4706C36.2507 21.4428 35.3957 21.515 34.5576 21.686C34.7241 21.1105 34.9312 20.5473 35.1775 20.0004C35.6682 20.1765 36.205 20.1845 36.7022 20.0231C37.1994 19.8616 37.6284 19.54 37.9206 19.1096C38.0714 18.8791 38.2043 18.6376 38.3182 18.3872C38.4553 18.6252 38.6101 18.8527 38.7813 19.0679C39.1644 19.5497 39.7257 19.8602 40.3417 19.9312C40.9577 20.0021 41.578 19.8277 42.066 19.4462C42.554 19.0647 42.8699 18.5074 42.944 17.897C43.0182 17.2865 42.8446 16.6729 42.4615 16.1911C42.2889 15.9768 42.1007 15.7754 41.8983 15.5885C42.1705 15.5389 42.4383 15.4674 42.6989 15.3745C43.2835 15.1597 43.759 14.7239 44.0207 14.1632C44.2824 13.6024 44.309 12.9626 44.0945 12.3844C43.88 11.8062 43.442 11.337 42.877 11.0801C42.3119 10.8231 41.666 10.7995 41.0814 11.0143C40.8221 11.112 40.5698 11.2275 40.3265 11.3598C40.3573 11.0876 40.3681 10.8135 40.3589 10.5399C40.3358 9.92598 40.0673 9.34731 39.6126 8.93119C39.158 8.51506 38.5543 8.29558 37.9344 8.32101C37.3144 8.34644 36.7291 8.61471 36.3071 9.0668C35.8851 9.51889 35.6611 10.1178 35.6842 10.7317C35.6966 11.007 35.7286 11.281 35.7799 11.5516C35.5301 11.4411 35.2735 11.3462 35.0116 11.2675C34.5658 11.1427 34.0921 11.1522 33.6506 11.2948C33.2092 11.4373 32.82 11.7065 32.5325 12.0681C32.245 12.4298 32.0722 12.8674 32.0361 13.3255C32 13.7836 32.1022 14.2415 32.3297 14.6408C32.8324 15.5334 33.6113 15.7668 34.5482 15.8929C33.9011 16.6136 33.485 17.2931 33.6836 18.2773C33.765 18.6932 33.9618 19.078 34.2519 19.3885C33.8553 20.235 33.5492 21.12 33.3385 22.029C32.895 22.1907 32.4634 22.3827 32.0466 22.6037C32.0761 22.5205 32.1139 22.4419 32.1434 22.3587C32.3448 21.7178 32.2865 21.0254 31.9807 20.4285C31.675 19.8316 31.146 19.3771 30.506 19.1616C29.866 18.946 29.1653 18.9863 28.5527 19.2739C27.9401 19.5616 27.4638 20.0738 27.2248 20.7021C26.8508 19.3095 26.5872 18.0449 26.4018 17.0196C26.8877 17.5338 27.5608 17.835 28.2729 17.8568C28.985 17.8786 29.6779 17.6193 30.1991 17.1359C30.7203 16.6525 31.0272 15.9846 31.0521 15.2791C31.0771 14.5736 30.8181 13.8884 30.3322 13.3741C30.0657 13.0859 29.7756 12.8199 29.4647 12.579C29.8446 12.4783 30.2153 12.346 30.5729 12.1835C31.2222 11.8883 31.7276 11.3502 31.9779 10.6875C32.2281 10.0249 32.2028 9.29196 31.9074 8.65004C31.612 8.00812 31.0708 7.50977 30.4028 7.26461C29.7348 7.01946 28.9948 7.04759 28.3455 7.3428C27.9903 7.50465 27.6493 7.69544 27.3258 7.9132C27.3924 6.73148 27.2453 5.71987 26.2984 4.97682C25.8808 4.65171 25.3748 4.45687 24.8443 4.41693C24.3138 4.37699 23.7826 4.49373 23.3178 4.75241C22.8531 5.01109 22.4755 5.4001 22.233 5.8703C21.9904 6.34049 21.8937 6.87078 21.955 7.39415C21.9971 7.78154 22.0722 8.16457 22.1795 8.53913C21.8143 8.39642 21.4372 8.28533 21.0524 8.20712C20.3537 8.06886 19.627 8.21144 19.0321 8.60348C18.4373 8.99551 18.0231 9.6049 17.8807 10.2976C17.7382 10.9903 17.8792 11.7095 18.2725 12.297C18.6659 12.8846 19.2794 13.2924 19.9781 13.4306C20.3599 13.5063 20.7476 13.5493 21.1371 13.559C20.8911 13.8625 20.6699 14.1849 20.4757 14.5231C20.2061 14.9817 20.0812 15.5093 20.1173 16.0376C20.1534 16.5659 20.3488 17.0708 20.6781 17.4867C21.0075 17.9027 21.4557 18.2107 21.9648 18.3709C22.4738 18.5311 23.0204 18.5361 23.5336 18.3853C23.8788 18.2945 24.2022 18.1358 24.4845 17.9186C24.7668 17.7014 25.0022 17.4301 25.1766 17.1211C25.2145 17.0562 25.2492 16.9922 25.2831 16.9249C25.4822 18.0527 25.7802 19.5101 26.2207 21.1245C25.6931 20.6925 25.0136 20.4851 24.3302 20.5474C23.6469 20.6097 23.0149 20.9367 22.5718 21.4572C22.1287 21.9778 21.9103 22.6497 21.9642 23.3269C22.0181 24.0041 22.3399 24.6316 22.8596 25.0731C22.5533 25.0942 22.2487 25.1345 21.9474 25.1937C20.6312 23.3204 19.448 22.329 18.4502 21.757C18.7852 21.684 19.1023 21.5451 19.3825 21.3484C19.6627 21.1518 19.9004 20.9015 20.0813 20.6124C20.2623 20.3234 20.3828 20.0014 20.4357 19.6658C20.4886 19.3301 20.4729 18.9877 20.3894 18.6587C20.3059 18.3298 20.1564 18.0212 19.9498 17.7511C19.7432 17.4811 19.4837 17.2552 19.1867 17.087C18.8897 16.9187 18.5613 16.8115 18.2211 16.7717C17.8809 16.7319 17.5358 16.7604 17.2063 16.8554C16.863 16.9436 16.5271 17.0585 16.2019 17.1992C16.2823 16.8649 16.3344 16.5246 16.3577 16.1819C16.3967 15.8414 16.3656 15.4969 16.2661 15.1693C16.1667 14.8417 16.0009 14.5378 15.779 14.2761C15.557 14.0144 15.2835 13.8003 14.975 13.6468C14.6666 13.4933 14.3296 13.4037 13.9845 13.3833C13.6394 13.3629 13.2934 13.4122 12.9676 13.5282C12.6418 13.6442 12.3429 13.8245 12.0891 14.0582C11.8353 14.2918 11.6318 14.5739 11.4911 14.8873C11.3504 15.2007 11.2753 15.539 11.2705 15.8814C11.2469 16.2226 11.2509 16.5649 11.2825 16.9052C10.9854 16.7293 10.6749 16.5765 10.3537 16.4483C9.72466 16.2024 9.02178 16.2145 8.39966 16.4819C7.77753 16.7494 7.28712 17.2502 7.0363 17.8742C6.78548 18.4983 6.7948 19.1944 7.06222 19.8095C7.32963 20.4247 7.83323 20.9084 8.46223 21.1542C8.78181 21.2798 9.11082 21.3807 9.44631 21.456C9.18822 21.6823 8.94758 21.9274 8.72641 22.1893C8.37611 22.604 8.16853 23.1183 8.13406 23.657C8.09958 24.1957 8.24001 24.7305 8.5348 25.1831C8.82959 25.6356 9.26327 25.9823 9.77237 26.1723C10.2815 26.3624 10.8393 26.3858 11.3642 26.2391C12.2777 25.9949 12.7716 25.3734 13.2571 24.5658C13.3949 24.8825 13.5568 25.1882 13.7415 25.4804C14.114 26.0005 14.6721 26.3607 15.3036 26.4886C15.935 26.6165 16.5929 26.5026 17.1449 26.1698C17.6969 25.837 18.102 25.3101 18.2788 24.6949C18.4557 24.0798 18.391 23.4221 18.0979 22.8542C19.1718 23.5715 20.0963 24.4864 20.8216 25.5494C19.1573 26.1928 18.3341 27.3406 18.018 27.3874C17.9583 27.4033 17.9005 27.4256 17.8456 27.454C17.0961 27.8837 15.4975 27.5613 13.7685 28.5439C13.1744 28.8633 12.6792 29.3374 12.3366 29.9148C11.994 30.4921 11.817 31.1507 11.825 31.8191C11.8318 31.8446 11.8353 31.8574 11.8193 31.8754C11.8193 31.9513 11.8352 32.0263 11.866 32.0956C11.8967 32.165 11.9417 32.2273 11.998 32.2785C12.0544 32.3297 12.1209 32.3687 12.1933 32.3931C12.2658 32.4175 12.3426 32.4268 12.4189 32.4203C16.4287 32.0331 26.0223 37.1573 28.6684 41.0577C28.6109 42.1447 28.8999 43.2207 29.4945 44.1335L29.3136 53.1336C29.3106 53.2707 29.3599 53.4036 29.4515 53.5059C29.543 53.6083 29.6703 53.6726 29.8079 53.6861C33.5555 54.0229 38.8224 52.4678 41.5615 50.5444C41.6752 50.465 41.7542 50.3457 41.7823 50.211C41.8104 50.0762 41.7855 49.9361 41.7127 49.8193L37.0225 42.1212ZM13.9677 21.1443C13.8327 21.2255 13.6778 21.2683 13.5202 21.2679C13.3625 21.2675 13.2082 21.2239 13.0743 21.142C12.9405 21.0601 12.8322 20.943 12.7615 20.8037C12.6909 20.6644 12.6606 20.5083 12.6739 20.3526C12.6873 20.1969 12.7438 20.0478 12.8373 19.9217C12.9308 19.7955 13.0575 19.6973 13.2035 19.6378C13.3496 19.5783 13.5092 19.5599 13.6647 19.5847C13.8203 19.6094 13.9658 19.6762 14.0851 19.7779C14.1866 19.8653 14.2657 19.9752 14.3162 20.0988C14.3667 20.2223 14.387 20.3561 14.3756 20.4891C14.3642 20.6222 14.3213 20.7508 14.2504 20.8646C14.1796 20.9785 14.0827 21.0743 13.9677 21.1443ZM19.2317 18.9601C19.3255 19.3297 19.2682 19.7217 19.0723 20.0509C18.8764 20.3801 18.5576 20.6201 18.1852 20.7187C17.5056 20.8941 16.7984 20.9355 16.1038 20.8403L15.473 20.5913C15.4793 20.5246 15.4766 20.3986 15.4753 20.3682C15.4692 19.9987 15.3558 19.6392 15.1488 19.3326L15.5963 18.8091C16.1587 18.3925 16.7983 18.0901 17.4782 17.9192C17.8508 17.8303 18.2431 17.8896 18.571 18.0842C18.8988 18.2788 19.136 18.5933 19.2317 18.9601ZM12.3645 15.9484C12.377 15.7597 12.4268 15.575 12.5113 15.4051C12.5957 15.2351 12.713 15.0831 12.8565 14.9578C13.0001 14.8325 13.167 14.7363 13.3478 14.6748C13.5286 14.6132 13.7197 14.5875 13.9102 14.599C14.1007 14.6106 14.2869 14.6592 14.4582 14.7421C14.6295 14.825 14.7824 14.9406 14.9083 15.0823C15.0342 15.2239 15.1307 15.3889 15.1921 15.5677C15.2535 15.7465 15.2787 15.9357 15.2662 16.1245C15.2232 16.8184 15.0437 17.4978 14.7378 18.1246L14.3023 18.6415C14.2403 18.617 14.1231 18.5798 14.0898 18.5716C13.9592 18.526 13.8226 18.4991 13.6843 18.4917C13.4509 18.481 13.2172 18.5054 12.991 18.5641L12.6268 17.9939C12.4035 17.3366 12.3143 16.6413 12.3645 15.9484ZM8.05806 18.284C8.12854 18.1076 8.23337 17.9465 8.36656 17.8099C8.49976 17.6734 8.6587 17.564 8.83432 17.4881C9.00993 17.4123 9.19878 17.3714 9.39006 17.3677C9.58135 17.3641 9.77132 17.3978 9.94914 17.467C10.6023 17.7173 11.1977 18.0947 11.7004 18.577L12.0605 19.1449C11.7636 19.4826 11.5916 19.9103 11.573 20.3569L10.9274 20.5295C10.227 20.5394 9.53202 20.4122 8.88243 20.1553C8.70375 20.0869 8.54061 19.9842 8.40239 19.853C8.26417 19.7218 8.15358 19.5648 8.07698 19.3909C8.00038 19.2171 7.95927 19.0298 7.95602 18.8398C7.95278 18.6498 7.98745 18.461 8.05806 18.284ZM11.8115 24.7229C11.5545 24.9821 11.2088 25.1364 10.8431 25.155C10.4774 25.1737 10.1187 25.0552 9.83826 24.8233C9.55783 24.5913 9.37632 24.2629 9.32985 23.9034C9.28339 23.544 9.37538 23.1798 9.58752 22.8834C10.0337 22.3448 10.5831 21.8989 11.2038 21.5716L11.8495 21.399C12.0344 21.7125 12.308 21.9654 12.6365 22.1266C12.7109 22.1663 12.7874 22.2018 12.8658 22.233L12.8093 22.8986C12.6009 23.5653 12.2619 24.1853 11.8115 24.7229ZM16.6579 25.3376C16.3313 25.543 15.9364 25.6122 15.5596 25.5301C15.1829 25.4479 14.8549 25.2211 14.6476 24.8993C14.2698 24.3142 14.014 23.6599 13.8953 22.9746L13.9389 22.3125L14.0132 22.2926L14.1617 22.2529C14.5195 22.1311 14.8338 21.9078 15.0652 21.6109L15.603 21.8095C15.6538 21.852 15.7119 21.8851 15.7746 21.9074C16.3104 22.2951 16.7662 22.781 17.1174 23.3388C17.2209 23.499 17.291 23.6781 17.3239 23.8657C17.3568 24.0533 17.3517 24.2457 17.3089 24.4316C17.2662 24.6175 17.1866 24.7934 17.0749 24.9489C16.9631 25.1044 16.8213 25.2365 16.6579 25.3376ZM30.2997 43.3568C29.9381 42.7383 29.7492 42.0351 29.7523 41.3191L35.3951 39.8108C35.7582 40.4286 35.9472 41.1323 35.9424 41.8485L30.2997 43.3568ZM38.5669 13.98C38.6588 14.0418 38.7346 14.1243 38.788 14.2208C38.8414 14.3173 38.8709 14.4251 38.8742 14.5353C38.8774 14.6455 38.8542 14.7549 38.8065 14.8548C38.7588 14.9546 38.688 15.0419 38.5998 15.1095C38.5116 15.1772 38.4086 15.2232 38.2992 15.244C38.1898 15.2647 38.0771 15.2594 37.9703 15.2287C37.8636 15.1979 37.7658 15.1425 37.685 15.0671C37.6042 14.9916 37.5426 14.8981 37.5054 14.7944C37.4547 14.6546 37.4502 14.5022 37.4926 14.3594C37.535 14.2165 37.6221 14.0905 37.7414 13.9996C37.8606 13.9087 38.0057 13.8575 38.1559 13.8535C38.306 13.8496 38.4533 13.8929 38.5766 13.9774L38.5669 13.98ZM41.3873 18.5938C41.2576 18.6937 41.1094 18.7673 40.9512 18.8105C40.793 18.8536 40.6279 18.8655 40.4653 18.8454C40.3027 18.8252 40.1458 18.7735 40.0037 18.6931C39.8616 18.6127 39.7371 18.5053 39.6371 18.3769C39.253 17.902 38.9696 17.3549 38.8037 16.7683C38.7846 16.2976 38.7922 16.429 38.781 16.2198C39.1434 16.0824 39.4546 15.8378 39.6723 15.5194L40.2069 15.6675C40.7439 15.9671 41.2153 16.3693 41.5938 16.8509C41.6971 16.9771 41.774 17.1225 41.82 17.2786C41.8661 17.4347 41.8803 17.5984 41.862 17.7603C41.8437 17.9221 41.7932 18.0789 41.7134 18.2215C41.6335 18.3642 41.526 18.4898 41.397 18.5912L41.3873 18.5938ZM41.4555 12.0337C41.7611 11.9368 42.0921 11.96 42.3798 12.0986C42.6675 12.2373 42.8898 12.4806 43.0004 12.778C43.111 13.0755 43.1015 13.4041 42.9738 13.6958C42.8462 13.9874 42.6101 14.2196 42.3148 14.3441C41.7362 14.5579 41.1215 14.6583 40.5051 14.6395L39.9706 14.4914C39.9553 14.1163 39.8222 13.7558 39.5898 13.4601C39.5829 13.4346 39.5441 13.4963 39.8897 12.9794C40.3434 12.5645 40.8757 12.243 41.4555 12.0337ZM36.7766 10.6896C36.7705 10.528 36.7965 10.3667 36.8533 10.2149C36.91 10.0631 36.9964 9.92368 37.1074 9.80469C37.3316 9.56436 37.6426 9.4217 37.972 9.40809C38.1352 9.40135 38.2979 9.42649 38.4509 9.48209C38.604 9.53768 38.7444 9.62264 38.864 9.7321C38.9837 9.84156 39.0804 9.9734 39.1485 10.1201C39.2166 10.2667 39.2548 10.4254 39.2609 10.5869C39.2832 11.1949 39.1866 11.802 38.9764 12.3746L38.6673 12.8338C38.3031 12.7365 37.9174 12.7501 37.5602 12.873C37.5247 12.8824 37.5757 12.9304 37.1933 12.4473C36.9408 11.8935 36.8034 11.2945 36.7895 10.6861L36.7766 10.6896ZM33.2868 14.1077C33.1678 13.8956 33.1149 13.6532 33.1346 13.4109C33.1543 13.1686 33.2457 12.9371 33.3975 12.7455C33.5493 12.5539 33.7546 12.4108 33.9878 12.334C34.2209 12.2573 34.4714 12.2503 34.7079 12.314C35.3032 12.4757 35.8598 12.7528 36.3455 13.1292L36.6889 13.5577C36.4692 13.876 36.36 14.2562 36.3777 14.6405L35.8579 14.8308C35.2441 14.9041 34.6221 14.8538 34.0294 14.6828C33.8732 14.6405 33.7271 14.5679 33.5996 14.4692C33.4722 14.3705 33.3658 14.2476 33.2868 14.1077ZM34.946 17.1422C35.2895 16.6279 35.7334 16.1868 36.2515 15.845L36.7712 15.6547C37.0112 15.9571 37.3425 16.1755 37.7172 16.2782C37.7248 16.461 37.7319 16.6166 37.7391 16.8235C37.6133 17.423 37.3717 17.9933 37.0276 18.5028C36.8437 18.7748 36.5586 18.9638 36.2349 19.0282C35.9112 19.0926 35.5755 19.0271 35.3016 18.8461C35.0277 18.6651 34.8381 18.3834 34.7744 18.0631C34.7108 17.7427 34.7783 17.4099 34.9622 17.1379L34.946 17.1422ZM27.5225 25.2884C27.629 25.1497 27.7744 25.045 27.9403 24.9876C28.1063 24.9301 28.2855 24.9224 28.4555 24.9654C28.6254 25.0083 28.7786 25.1001 28.8958 25.2291C29.0129 25.3582 29.0889 25.5188 29.1141 25.6908C29.1393 25.8628 29.1127 26.0386 29.0376 26.1961C28.9624 26.3536 28.8421 26.4858 28.6917 26.5761C28.5413 26.6665 28.3675 26.7109 28.1921 26.704C28.0166 26.697 27.8474 26.6389 27.7056 26.5369C27.5159 26.3968 27.3904 26.1877 27.3566 25.9554C27.3227 25.7232 27.3833 25.4868 27.5251 25.298L27.5225 25.2884ZM25.4477 26.3873C25.6607 26.3304 25.5264 26.3457 26.3189 26.3461C26.4487 26.7891 26.7267 27.1746 27.1073 27.4396L26.8849 28.1187C26.5011 28.7246 26 29.2495 25.4106 29.663C25.0849 29.8794 24.6875 29.9621 24.3025 29.8936C23.9175 29.825 23.5752 29.6106 23.348 29.2958C23.1209 28.9809 23.0268 28.5903 23.0856 28.2068C23.1445 27.8232 23.3516 27.4768 23.6633 27.2409C24.203 26.8552 24.8085 26.5693 25.4502 26.3969L25.4477 26.3873ZM27.9256 28.4636L28.1514 27.7973C28.617 27.8129 29.0745 27.6688 29.4466 27.3894L30.011 27.8034C30.4755 28.3496 30.8253 28.9821 31.0402 29.6644C31.1109 29.8536 31.142 30.0553 31.1316 30.2571C31.1212 30.459 31.0696 30.6568 30.9798 30.8386C30.89 31.0204 30.7639 31.1823 30.6093 31.3147C30.4546 31.4471 30.2745 31.547 30.0799 31.6085C29.8854 31.6701 29.6804 31.6919 29.4774 31.6726C29.2744 31.6533 29.0777 31.5934 28.8991 31.4965C28.7205 31.3996 28.5638 31.2676 28.4385 31.1087C28.3132 30.9498 28.2219 30.7672 28.1701 30.572C27.9449 29.8924 27.8614 29.174 27.9247 28.4604L27.9256 28.4636ZM30.6648 26.9269L30.1012 26.5161C30.2686 26.0738 30.2716 25.5875 30.1099 25.1445L30.6929 24.7388C31.3626 24.4693 32.0793 24.3347 32.8009 24.343C33.2019 24.3461 33.5845 24.5069 33.8645 24.79C34.1446 25.073 34.2993 25.4551 34.2945 25.8522C34.2896 26.2494 34.1257 26.629 33.8388 26.9076C33.5519 27.1862 33.1655 27.3409 32.7646 27.3378C32.0431 27.3379 31.3293 27.1972 30.6639 26.9237L30.6648 26.9269ZM28.2523 21.0881C28.3808 20.7124 28.6545 20.402 29.0132 20.2252C29.3719 20.0485 29.7862 20.0198 30.165 20.1455C30.5438 20.2712 30.856 20.5411 31.033 20.8956C31.21 21.2502 31.2373 21.6605 31.1088 22.0362C30.8839 22.7151 30.5244 23.3431 30.0514 23.8833L29.4693 24.2922C29.1011 24.0099 28.646 23.861 28.1795 23.8701C27.995 23.2862 28.0435 23.4409 27.9703 23.2072C27.918 22.4898 28.014 21.7687 28.2523 21.0881ZM24.2927 12.1301C24.2119 11.948 24.1907 11.7452 24.2319 11.5501C24.2732 11.3549 24.3749 11.1772 24.5228 11.0416C24.672 10.9077 24.8599 10.8238 25.0596 10.8019C25.2594 10.7799 25.4607 10.8211 25.6349 10.9196C25.8091 11.018 25.9471 11.1686 26.0293 11.3499C26.1114 11.5311 26.1335 11.7337 26.0923 11.9286C26.0511 12.1235 25.9487 12.3008 25.7999 12.435C25.6511 12.5693 25.4633 12.6536 25.2636 12.676C25.0639 12.6983 24.8625 12.6576 24.6881 12.5595C24.5137 12.4615 24.3753 12.3111 24.2927 12.1301ZM29.4236 16.3419C29.112 16.6248 28.7007 16.7747 28.2792 16.7592C27.8578 16.7436 27.4602 16.5638 27.1732 16.2588C26.6621 15.7109 26.2669 15.067 26.0106 14.365C25.9386 13.7236 25.9536 13.8565 25.9258 13.6243C26.3832 13.4365 26.7585 13.0934 26.9841 12.6567L27.7155 12.8035C28.4007 13.1186 29.0156 13.565 29.525 14.1171C29.8076 14.425 29.9555 14.8316 29.9365 15.2483C29.9175 15.6649 29.7332 16.058 29.4236 16.3419ZM28.807 8.35254C29.1884 8.19551 29.6157 8.19081 29.9992 8.33944C30.3827 8.48806 30.6925 8.77842 30.8634 9.14948C31.0343 9.52053 31.0531 9.94336 30.9157 10.3291C30.7783 10.7148 30.4954 11.0333 30.1267 11.2176C29.4395 11.5319 28.6971 11.7094 27.9419 11.74L27.2105 11.5932C27.1712 11.1074 26.9581 10.6521 26.6096 10.3092L26.9757 9.64993C27.4922 9.10002 28.1151 8.65872 28.807 8.35254ZM23.0454 7.26702C23.0154 6.96011 23.0768 6.65086 23.2219 6.37735C23.367 6.10384 23.5896 5.878 23.8621 5.72765C24.1347 5.57731 24.4453 5.50901 24.7558 5.53117C25.0664 5.55334 25.3632 5.66499 25.6098 5.85239C25.7731 5.97953 25.9092 6.13754 26.0104 6.31733C26.1115 6.49711 26.1756 6.69509 26.199 6.89986C26.2849 7.64367 26.2229 8.39754 26.0166 9.11897L25.6391 9.77445C25.167 9.6567 24.6673 9.70782 24.2282 9.91881L23.7338 9.36631C23.367 8.71875 23.1331 8.00538 23.0454 7.26702ZM18.967 10.5036C19.0083 10.3009 19.0895 10.1081 19.2061 9.93632C19.3227 9.76453 19.4722 9.61711 19.6463 9.50252C19.8203 9.38793 20.0153 9.30843 20.2201 9.2686C20.4249 9.22876 20.6355 9.22937 20.8398 9.27039C21.5808 9.41299 22.285 9.70074 22.9112 10.1168L23.4056 10.6693C23.1534 11.0873 23.0543 11.5781 23.1249 12.0588L22.4344 12.3735C21.6967 12.5144 20.9389 12.5112 20.2037 12.3639C19.7909 12.279 19.4293 12.0359 19.1977 11.6875C18.9661 11.339 18.8832 10.9135 18.967 10.5036ZM24.2086 16.596C24.1046 16.7787 23.9646 16.939 23.797 17.0673C23.6293 17.1956 23.4375 17.2893 23.2329 17.3429C22.9305 17.4227 22.6115 17.4127 22.3156 17.3143C22.0197 17.2158 21.7599 17.0332 21.5685 16.7891C21.3772 16.5451 21.2628 16.2503 21.2396 15.9417C21.2164 15.633 21.2855 15.324 21.4381 15.0532C21.8048 14.3959 22.3017 13.8183 22.8987 13.3551L23.586 13.0413C23.9049 13.4126 24.3476 13.6584 24.8344 13.7346L24.916 14.4762C24.8231 15.2214 24.5827 15.9418 24.2086 16.596ZM23.1011 23.3962C23.0589 23.1052 23.1042 22.808 23.2315 22.5417C23.3587 22.2755 23.5623 22.0519 23.8167 21.8992C24.0711 21.7464 24.365 21.6712 24.6617 21.6828C24.9584 21.6945 25.2446 21.7926 25.4846 21.9649C26.0701 22.3831 26.5652 22.9129 26.9412 23.5233L27.1504 24.1863C27.1246 24.1932 27.0382 24.2711 26.9542 24.3449C26.8406 24.4342 26.7407 24.5393 26.6575 24.657C26.5647 24.7718 26.4907 24.9001 26.4379 25.0374C26.4028 25.1137 26.3717 25.1917 26.345 25.2711L25.6343 25.2659C24.9356 25.0952 24.279 24.7877 23.703 24.3616C23.5417 24.2488 23.4052 24.105 23.3017 23.9385C23.1981 23.7721 23.1296 23.5865 23.1003 23.393L23.1011 23.3962ZM12.9778 31.3192C13.0426 30.9321 13.1965 30.5646 13.4275 30.2453C13.6585 29.9259 13.9605 29.6631 14.3099 29.4775C15.8082 28.6148 17.2178 28.9809 18.2966 28.4118C19.3684 28.1253 20.1231 26.1948 23.3333 26.1412C23.2265 26.2074 23.1206 26.2768 23.0164 26.3526C22.5207 26.7051 22.1648 27.2182 22.0108 27.8025C21.8568 28.3868 21.9143 29.0053 22.1735 29.5501C22.4326 30.095 22.8769 30.5318 23.429 30.7845C23.981 31.0371 24.6058 31.0895 25.1946 30.9326C25.8355 30.7179 26.4106 30.3438 26.8645 29.846C26.9179 30.2022 26.9996 30.5535 27.1087 30.8968C27.3274 31.5337 27.7896 32.0595 28.3963 32.3615C29.003 32.6636 29.7059 32.7178 30.3546 32.5126C31.0033 32.3075 31.5461 31.8592 31.8668 31.2639C32.1876 30.6685 32.2608 29.9734 32.0707 29.3273C31.9614 28.9837 31.8242 28.6494 31.6604 28.3279C32.0175 28.3897 32.3792 28.4224 32.7419 28.4256C33.4019 28.4249 34.0379 28.1755 34.5208 27.7281C35.0038 27.2806 35.2975 26.6686 35.3424 26.0162C35.3874 25.3639 35.1801 24.7201 34.7627 24.2155C34.3453 23.7108 33.749 23.3832 33.0949 23.2991C34.337 22.7485 35.6915 22.4955 37.0484 22.5606C41.674 22.6627 42.4194 20.8134 44.768 22.8592C40.6505 25.4216 35.5742 34.2172 35.0976 38.7675L33.929 39.0798C33.5817 37.2093 33.3951 35.3124 33.3712 33.4094C33.3712 33.3379 33.3569 33.2672 33.329 33.2013C33.3012 33.1355 33.2603 33.0759 33.2089 33.0259C33.1575 32.9759 33.0965 32.9366 33.0296 32.9103C32.9626 32.8839 32.8909 32.8711 32.8188 32.8724C32.6735 32.8748 32.5349 32.9338 32.4329 33.0367C32.331 33.1396 32.274 33.278 32.2744 33.4219C32.3028 35.4156 32.5054 37.4025 32.8799 39.3603L31.6951 39.6769C31.257 38.6419 30.7626 37.6313 30.2142 36.6495C30.1797 36.5871 30.1331 36.532 30.077 36.4874C30.021 36.4429 29.9566 36.4097 29.8875 36.3899C29.8184 36.3701 29.7459 36.3639 29.6743 36.3718C29.6027 36.3797 29.5333 36.4015 29.4701 36.436C29.4069 36.4704 29.351 36.5168 29.3058 36.5725C29.2606 36.6282 29.2269 36.6922 29.2066 36.7607C29.1863 36.8292 29.1798 36.901 29.1875 36.9719C29.1952 37.0428 29.2169 37.1115 29.2514 37.1739C29.8035 38.1732 30.2689 39.1202 30.6223 39.9466L29.457 40.2581C26.744 36.5467 17.799 31.3895 12.9778 31.3192ZM38.4269 50.9954L36.4022 46.5489C36.3423 46.4176 36.2322 46.3153 36.096 46.2644C35.9598 46.2136 35.8086 46.2183 35.6755 46.2777C35.5448 46.3362 35.4425 46.4432 35.3906 46.5756C35.3387 46.708 35.3415 46.8551 35.3984 46.985L37.3893 51.396C36.2333 51.8075 35.0457 52.125 33.8384 52.3452L33.587 49.7217C33.5728 49.5784 33.5017 49.4468 33.3893 49.3558C33.277 49.2649 33.1326 49.222 32.9878 49.2366C32.8431 49.2512 32.7099 49.3222 32.6176 49.4338C32.5253 49.5455 32.4814 49.6887 32.4956 49.832L32.7622 52.4994C31.9857 52.5885 31.2043 52.627 30.4231 52.6145L30.6043 44.388L31.9633 44.0247L32.1646 45.4052C32.1747 45.4758 32.1988 45.5436 32.2354 45.6049C32.272 45.6662 32.3204 45.7197 32.378 45.7623C32.4355 45.8049 32.5011 45.8359 32.5708 45.8534C32.6405 45.8709 32.7131 45.8746 32.7844 45.8643C32.8557 45.854 32.9243 45.8299 32.9863 45.7934C33.0483 45.7569 33.1025 45.7086 33.1458 45.6515C33.1891 45.5943 33.2206 45.5293 33.2385 45.4601C33.2565 45.391 33.2605 45.3191 33.2504 45.2485L33.0215 43.7521L36.2141 42.8987L40.4942 49.9327C39.8302 50.3332 39.1395 50.6882 38.4269 50.9954Z" fill="#429D84"/>
</svg>
