<?xml version="1.0" encoding="utf-8"?>
<svg viewBox="0 0 53 37" fill="none" xmlns="http://www.w3.org/2000/svg">
  <path d="M 41.861 24.389 C 41.629 25.331 40.676 25.905 39.728 25.678 L 39.204 25.537 L 38.466 25.34 L 38.282 26.081 L 37.337 29.881 C 37.337 29.882 37.337 29.882 37.337 29.882 C 37.049 31.017 35.859 31.709 34.691 31.462 L 32.91 30.98 L 32.171 30.78 L 31.986 31.523 C 31.417 33.812 29.111 35.208 26.816 34.638 L 17.659 31.807 L 17.382 31.722 L 17.12 31.844 L 8.983 35.652 C 8.185 36.024 1.331 21.393 2.207 20.984 L 2.209 20.983 L 9.05 17.761 L 9.33 17.629 L 9.436 17.337 C 10.747 13.711 13.293 10.678 16.594 8.754 L 14.04 14.958 L 14.04 14.959 C 12.699 18.227 14.249 21.986 17.528 23.351 L 17.53 23.352 C 18.467 23.739 20.064 23.992 21.669 23.601 C 23.316 23.2 24.97 22.117 25.896 19.867 L 26.866 17.506 L 40.857 21.081 L 40.86 21.081 C 41.804 21.319 42.38 22.277 42.148 23.225 C 42.147 23.225 42.147 23.225 42.147 23.225 L 41.861 24.389 Z M 43.224 1.819 L 43.225 1.819 C 44.107 1.406 45.158 1.787 45.575 2.679 L 50.905 14.088 C 51.319 14.972 50.933 16.031 50.057 16.441 C 50.057 16.441 50.057 16.441 50.057 16.441 L 44.777 18.906 C 44.039 18.067 43.061 17.433 41.902 17.131 L 41.896 17.13 L 28.426 13.745 L 29.157 11.972 L 29.159 11.969 C 29.574 10.948 29.099 9.767 28.065 9.342 C 27.036 8.919 25.869 9.415 25.444 10.427 L 25.443 10.431 L 22.216 18.246 C 22.21 18.257 22.203 18.27 22.196 18.283 C 22.182 18.31 22.167 18.344 22.153 18.383 C 21.813 19.147 21.256 19.518 20.679 19.677 C 20.059 19.847 19.427 19.764 19.061 19.612 L 19.058 19.611 C 17.895 19.132 17.246 17.795 17.757 16.505 L 17.806 16.381 L 17.807 16.352 L 21.754 6.801 C 21.937 6.372 22.247 6.04 22.63 5.86 L 23.241 5.582 L 23.241 5.583 L 23.249 5.579 C 27.195 3.735 31.711 3.534 35.81 5.029 L 36.102 5.136 L 36.383 5.005 L 43.224 1.819 Z" stroke="white" stroke-width="1.5"/>
</svg>