<svg width="58" height="58" viewBox="0 0 58 58" fill="none" xmlns="http://www.w3.org/2000/svg">
<path d="M35.647 16.0623C34.3569 16.0281 33.1325 15.4856 32.2407 14.5528C31.349 13.6201 30.8621 12.3729 30.8862 11.0829C30.8597 10.4418 30.963 9.80203 31.1901 9.20194C31.4172 8.60185 31.7633 8.05386 32.2076 7.5909C32.6519 7.12794 33.1853 6.75956 33.7757 6.50792C34.366 6.25627 35.0012 6.12655 35.643 6.12655C36.2847 6.12655 36.9199 6.25627 37.5103 6.50792C38.1006 6.75956 38.634 7.12794 39.0783 7.5909C39.5226 8.05386 39.8687 8.60185 40.0958 9.20194C40.3229 9.80203 40.4263 10.4418 40.3997 11.0829C40.4239 12.3715 39.9381 13.6176 39.0481 14.55C38.1581 15.4825 36.9358 16.026 35.647 16.0623ZM35.647 7.74964C34.7965 7.78984 33.9954 8.16104 33.415 8.78389C32.8346 9.40675 32.521 10.2319 32.5411 11.0829C32.5102 11.5095 32.5675 11.938 32.7096 12.3415C32.8516 12.7451 33.0754 13.115 33.3668 13.4282C33.6583 13.7415 34.0111 13.9913 34.4035 14.1621C34.7958 14.333 35.2191 14.4211 35.647 14.4211C36.075 14.4211 36.4983 14.333 36.8906 14.1621C37.2829 13.9913 37.6358 13.7415 37.9273 13.4282C38.2187 13.115 38.4424 12.7451 38.5845 12.3415C38.7266 11.938 38.7839 11.5095 38.753 11.0829C38.7774 10.2291 38.4657 9.39981 37.8849 8.77342C37.304 8.14704 36.5005 7.77357 35.647 7.73334V7.74964Z" fill="white"/>
<path d="M35.6469 51C35.4307 51 35.2234 50.9141 35.0705 50.7613C34.9176 50.6084 34.8317 50.4011 34.8317 50.185V35.6704C34.8317 35.4543 34.9176 35.247 35.0705 35.0942C35.2234 34.9413 35.4307 34.8555 35.6469 34.8555C35.8631 34.8555 36.0705 34.9413 36.2234 35.0942C36.3762 35.247 36.4621 35.4543 36.4621 35.6704V50.1768C36.4632 50.2846 36.4429 50.3914 36.4024 50.4912C36.362 50.591 36.3021 50.6818 36.2263 50.7584C36.1505 50.8349 36.0602 50.8957 35.9608 50.9372C35.8614 50.9786 35.7547 51 35.6469 51Z" fill="white"/>
<path d="M21.9595 16.0623C20.6707 16.026 19.4485 15.4826 18.5584 14.5501C17.6684 13.6176 17.1827 12.3715 17.2068 11.0829C17.1827 9.79425 17.6684 8.54818 18.5584 7.6157C19.4485 6.68322 20.6707 6.13973 21.9595 6.10344C23.2482 6.13973 24.4705 6.68322 25.3605 7.6157C26.2505 8.54818 26.7363 9.79425 26.7122 11.0829C26.7363 12.3715 26.2505 13.6176 25.3605 14.5501C24.4705 15.4826 23.2482 16.026 21.9595 16.0623ZM21.9595 7.74967C21.1089 7.78987 20.3079 8.16107 19.7275 8.78392C19.1471 9.40678 18.8334 10.2319 18.8535 11.0829C18.8334 11.9339 19.1471 12.759 19.7275 13.3819C20.3079 14.0047 21.1089 14.3759 21.9595 14.4161C22.81 14.3759 23.6111 14.0047 24.1915 13.3819C24.7719 12.759 25.0855 11.9339 25.0654 11.0829C25.0899 10.2291 24.7782 9.39984 24.1973 8.77345C23.6165 8.14706 22.8129 7.77359 21.9595 7.73337V7.74967Z" fill="white"/>
<path d="M21.9596 51C21.7434 51 21.536 50.9141 21.3832 50.7613C21.2303 50.6084 21.1444 50.4011 21.1444 50.185V35.6704C21.1444 35.4543 21.2303 35.247 21.3832 35.0942C21.536 34.9413 21.7434 34.8555 21.9596 34.8555C22.1758 34.8555 22.3832 34.9413 22.536 35.0942C22.6889 35.247 22.7748 35.4543 22.7748 35.6704V50.1768C22.7759 50.2846 22.7556 50.3914 22.7151 50.4912C22.6746 50.591 22.6147 50.6818 22.5389 50.7584C22.4631 50.8349 22.3729 50.8957 22.2735 50.9372C22.174 50.9786 22.0673 51 21.9596 51Z" fill="white"/>
<path d="M40.0326 51H31.2528C31.0366 51 30.8292 50.9141 30.6764 50.7613C30.5235 50.6084 30.4376 50.4011 30.4376 50.185V25.736C30.4376 25.3037 30.2658 24.8891 29.9601 24.5835C29.6543 24.2778 29.2396 24.1061 28.8072 24.1061C28.3748 24.1061 27.9601 24.2778 27.6543 24.5835C27.3485 24.8891 27.1768 25.3037 27.1768 25.736V50.185C27.1768 50.4011 27.0909 50.6084 26.938 50.7613C26.7851 50.9141 26.5777 51 26.3615 51H17.5654C17.3492 51 17.1419 50.9141 16.989 50.7613C16.8361 50.6084 16.7502 50.4011 16.7502 50.185V23.9757C14.1451 23.5048 11.6641 22.5055 9.46007 21.0394C7.25605 19.5733 5.37577 17.6715 3.93514 15.4511C3.71011 15.0748 3.56759 14.6549 3.51699 14.2194C3.4664 13.7839 3.50889 13.3426 3.64166 12.9247C3.7777 12.4957 4.0047 12.1011 4.30718 11.7678C4.60965 11.4344 4.98047 11.1703 5.39436 10.9932C5.96934 10.7614 6.6007 10.7073 7.20674 10.8381C7.81279 10.9688 8.36564 11.2784 8.79378 11.7267C11.3315 14.2888 14.3664 16.305 17.7122 17.6515H39.894C43.2629 16.2805 46.3148 14.2335 48.8613 11.6371C49.169 11.3348 49.5374 11.1015 49.9422 10.9526C50.347 10.8036 50.7789 10.7425 51.2091 10.7732C51.7404 10.8075 52.2536 10.9797 52.6981 11.2726C53.1427 11.5655 53.5032 11.9691 53.7443 12.4437C53.9853 12.9182 54.0986 13.4474 54.0729 13.979C54.0472 14.5107 53.8834 15.0264 53.5977 15.4756C52.1621 17.6827 50.292 19.5746 48.1015 21.0359C45.9109 22.4973 43.4457 23.4975 40.856 23.9757V50.1768C40.8571 50.2852 40.8365 50.3928 40.7955 50.4931C40.7545 50.5935 40.6939 50.6847 40.6172 50.7613C40.5406 50.838 40.4494 50.8985 40.349 50.9395C40.2486 50.9805 40.141 51.001 40.0326 51ZM32.0762 49.37H39.2092V23.2911C39.2073 23.0933 39.2773 22.9016 39.4063 22.7517C39.5353 22.6017 39.7144 22.5038 39.9103 22.4761C42.3995 22.1179 44.7843 21.2361 46.9076 19.8889C49.0309 18.5417 50.8443 16.7598 52.2281 14.6606C52.3657 14.452 52.4461 14.2109 52.4612 13.9615C52.4763 13.7121 52.4256 13.4631 52.3142 13.2394C52.2027 13.0158 52.0344 12.8253 51.8262 12.6871C51.618 12.5489 51.377 12.4679 51.1276 12.452C50.932 12.438 50.7357 12.4656 50.5516 12.5331C50.3676 12.6005 50.1999 12.7062 50.0597 12.8432C47.3054 15.6782 43.9675 17.8806 40.2772 19.2977C40.1926 19.3238 40.1048 19.3375 40.0163 19.3385H17.5654C17.4797 19.3368 17.3946 19.3231 17.3127 19.2977C13.6656 17.8951 10.3648 15.7211 7.63619 12.9247C7.43271 12.7069 7.16924 12.5543 6.87905 12.4861C6.58886 12.418 6.28497 12.4373 6.00577 12.5417C5.81783 12.6264 5.65009 12.7501 5.51374 12.9047C5.37739 13.0593 5.27556 13.2411 5.21501 13.4381C5.15114 13.6316 5.12973 13.8366 5.15224 14.0391C5.17474 14.2416 5.24064 14.4369 5.34545 14.6117C6.72669 16.7248 8.54268 18.5192 10.6723 19.8753C12.802 21.2314 15.1964 22.1181 17.6959 22.4761C17.8903 22.5056 18.0674 22.6043 18.1948 22.7541C18.3221 22.9038 18.391 23.0945 18.3888 23.2911V49.37H25.5056V25.736C25.5056 24.8714 25.8491 24.0423 26.4607 23.4309C27.0722 22.8196 27.9016 22.4761 28.7664 22.4761C29.6312 22.4761 30.4606 22.8196 31.0722 23.4309C31.6837 24.0423 32.0272 24.8714 32.0272 25.736L32.0762 49.37Z" fill="white"/>
<path d="M26.647 25.41H26.4921C26.3857 25.3905 26.2843 25.35 26.1937 25.2909C26.1031 25.2318 26.0252 25.1553 25.9645 25.0658C25.9038 24.9763 25.8616 24.8756 25.8402 24.7696C25.8188 24.6636 25.8187 24.5544 25.84 24.4483C26.0673 23.0114 26.6411 21.6514 27.5117 20.4857C28.3824 19.32 29.5237 18.3837 30.8372 17.7575C31.0393 17.6753 31.2659 17.6768 31.4669 17.7617C31.6679 17.8465 31.827 18.0077 31.9092 18.2098C31.9914 18.4119 31.9898 18.6383 31.905 18.8393C31.8201 19.0403 31.6589 19.1993 31.4568 19.2815C30.4013 19.8073 29.4872 20.5782 28.7909 21.5295C28.0945 22.4809 27.6361 23.5851 27.4541 24.7499C27.4179 24.9368 27.3174 25.1052 27.1699 25.2258C27.0225 25.3464 26.8375 25.4116 26.647 25.41Z" fill="white"/>
<path d="M47.3041 50.9999H10.2936C10.0774 50.9999 9.87004 50.9141 9.71715 50.7612C9.56427 50.6084 9.47839 50.4011 9.47839 50.185C9.47839 49.9688 9.56427 49.7615 9.71715 49.6087C9.87004 49.4559 10.0774 49.37 10.2936 49.37H47.3041C47.5203 49.37 47.7276 49.4559 47.8805 49.6087C48.0334 49.7615 48.1193 49.9688 48.1193 50.185C48.1193 50.4011 48.0334 50.6084 47.8805 50.7612C47.7276 50.9141 47.5203 50.9999 47.3041 50.9999Z" fill="white"/>
</svg>
