<svg width="40" height="40" viewBox="0 0 40 40" fill="none" xmlns="http://www.w3.org/2000/svg">
<path fill-rule="evenodd" clip-rule="evenodd" d="M12.1835 1.51899C8.95031 1.51899 6.32911 4.14018 6.32911 7.37342C6.32911 8.32216 6.55427 9.16537 6.97692 10.0533C7.08891 10.2886 7.07245 10.5649 6.9333 10.7853C6.79415 11.0056 6.55174 11.1392 6.29114 11.1392H3.16456C2.2555 11.1392 1.51899 11.8744 1.51899 12.7848V17.5949C1.51899 18.5053 2.2555 19.2405 3.16456 19.2405H36.8354C37.7463 19.2405 38.481 18.5058 38.481 17.5949V12.7848C38.481 11.874 37.7463 11.1392 36.8354 11.1392H33.7089C33.4486 11.1392 33.2065 11.006 33.0672 10.7861C32.928 10.5662 32.911 10.2904 33.0223 10.0551C33.4433 9.16458 33.6709 8.32097 33.6709 7.37342C33.6709 4.14018 31.0497 1.51899 27.8165 1.51899H27.6511C25.5227 1.51899 23.5472 2.64743 22.4661 4.48508C22.4661 4.48517 22.4662 4.48498 22.4661 4.48508L20.6548 7.56732C20.5184 7.79945 20.2693 7.94201 20 7.94201C19.7307 7.94201 19.4816 7.79945 19.3452 7.56732L17.5341 4.48536C17.534 4.48526 17.5341 4.48545 17.5341 4.48536C16.453 2.64771 14.4773 1.51899 12.3489 1.51899H12.1835ZM4.81013 7.37342C4.81013 3.30127 8.1114 0 12.1835 0H12.3489C15.0155 0 17.4893 1.41329 18.8433 3.7152L20 5.68347L21.1565 3.71548C22.5106 1.41357 24.9845 0 27.6511 0H27.8165C31.8886 0 35.1899 3.30127 35.1899 7.37342C35.1899 8.17533 35.0602 8.91142 34.83 9.62025H36.8354C38.5852 9.62025 40 11.0351 40 12.7848V17.5949C40 19.3447 38.5852 20.7595 36.8354 20.7595H3.16456C1.41752 20.7595 0 19.3452 0 17.5949V12.7848C0 11.0346 1.41752 9.62025 3.16456 9.62025H5.16871C4.9382 8.91063 4.81013 8.17459 4.81013 7.37342ZM8.41772 7.37342C8.41772 5.29384 10.103 3.60759 12.1835 3.60759H12.3489C13.739 3.60759 15.0241 4.34544 15.7311 5.54269L15.7319 5.54409L18.3474 9.99496C18.4854 10.2298 18.4871 10.5206 18.3518 10.757C18.2166 10.9934 17.965 11.1392 17.6926 11.1392H12.1835C10.1031 11.1392 8.41772 9.45387 8.41772 7.37342ZM12.1835 5.12658C10.9421 5.12658 9.93671 6.13251 9.93671 7.37342C9.93671 8.61496 10.942 9.62025 12.1835 9.62025H16.3654L14.4232 6.31506C14.4231 6.31493 14.4232 6.3152 14.4232 6.31506C13.9877 5.57797 13.1983 5.12658 12.3489 5.12658H12.1835ZM24.2689 5.54269C24.9759 4.34544 26.261 3.60759 27.6511 3.60759H27.8165C29.897 3.60759 31.5823 5.29384 31.5823 7.37342C31.5823 9.45387 29.8969 11.1392 27.8165 11.1392H22.3074C22.035 11.1392 21.7834 10.9934 21.6482 10.757C21.5129 10.5206 21.5146 10.2298 21.6526 9.99496L24.2681 5.54409L24.2689 5.54269ZM25.5768 6.31506C25.5767 6.31529 25.577 6.31483 25.5768 6.31506L23.6346 9.62025H27.8165C29.058 9.62025 30.0633 8.61496 30.0633 7.37342C30.0633 6.13251 29.0579 5.12658 27.8165 5.12658H27.6511C26.8018 5.12658 26.0123 5.57815 25.5768 6.31506ZM2.40506 22.4051C2.40506 21.9856 2.7451 21.6456 3.16456 21.6456H18.481C18.9005 21.6456 19.2405 21.9856 19.2405 22.4051V39.2405C19.2405 39.66 18.9005 40 18.481 40H6.77215C4.36015 40 2.40506 38.044 2.40506 35.6329V22.4051ZM3.92405 23.1646V35.6329C3.92405 37.2053 5.19927 38.481 6.77215 38.481H17.7215V23.1646H3.92405ZM21.2658 22.4051C21.2658 21.9856 21.6059 21.6456 22.0253 21.6456H36.8354C37.2549 21.6456 37.5949 21.9856 37.5949 22.4051V35.6329C37.5949 38.0441 35.639 40 33.2278 40H22.0253C21.6059 40 21.2658 39.66 21.2658 39.2405V22.4051ZM22.7848 23.1646V38.481H33.2278C34.8001 38.481 36.0759 37.2051 36.0759 35.6329V23.1646H22.7848Z" fill="#429D84"/>
</svg>
