<svg width="38" height="35" viewBox="0 0 38 35" fill="none" xmlns="http://www.w3.org/2000/svg">
<path d="M6.54302 29.9739C6.46816 29.974 6.39401 29.9595 6.32483 29.9313C6.25565 29.9031 6.19279 29.8617 6.13985 29.8095C6.08692 29.7573 6.04495 29.6953 6.01634 29.6271C5.98774 29.5589 5.97307 29.4857 5.97317 29.4119V26.4737C4.37147 26.3313 2.88158 25.6036 1.79593 24.4335C0.710276 23.2633 0.107256 21.7353 0.105225 20.1492V6.34922C0.107235 4.66591 0.786147 3.05212 1.99303 1.86183C3.19992 0.671554 4.83623 0.00198317 6.54302 0H25.7348C27.4416 0.00198317 29.0779 0.671554 30.2848 1.86183C31.4917 3.05212 32.1706 4.66591 32.1726 6.34922V20.1492C32.1706 21.8325 31.4917 23.4463 30.2848 24.6366C29.0779 25.8269 27.4416 26.4964 25.7348 26.4984H11.4977L6.88189 29.8638C6.7838 29.9353 6.66502 29.9739 6.54302 29.9739V29.9739ZM6.54302 1.12402C5.13837 1.12561 3.79172 1.67663 2.79848 2.6562C1.80524 3.63577 1.24654 4.9639 1.24493 6.34922V20.1492C1.24654 21.5345 1.80524 22.8627 2.79848 23.8422C3.79172 24.8218 5.13837 25.3728 6.54302 25.3744C6.69416 25.3744 6.8391 25.4336 6.94597 25.539C7.05283 25.6444 7.11287 25.7874 7.11287 25.9364V28.2976L10.9704 25.4846C11.0685 25.413 11.1873 25.3744 11.3093 25.3744H25.7348C27.1395 25.3728 28.4861 24.8218 29.4794 23.8422C30.4726 22.8627 31.0313 21.5345 31.0329 20.1492V6.34922C31.0313 4.9639 30.4726 3.63577 29.4794 2.6562C28.4861 1.67663 27.1395 1.12561 25.7348 1.12402H6.54302Z" fill="#429D84"/>
<path d="M32.1826 34.1904C32.0606 34.1904 31.9419 34.1518 31.8438 34.0802L27.8168 31.1443H15.3629C14.2676 31.1455 13.1952 30.8351 12.2743 30.2503C12.1472 30.1696 12.0577 30.0424 12.0257 29.8967C11.9936 29.751 12.0216 29.5986 12.1034 29.4732C12.1852 29.3478 12.3142 29.2596 12.4619 29.228C12.6097 29.1964 12.7641 29.224 12.8913 29.3046C13.6281 29.773 14.4863 30.0215 15.3629 30.0203H28.0052C28.1271 30.0202 28.2459 30.0585 28.3441 30.1297L31.6113 32.5133V30.5823C31.6113 30.4332 31.6713 30.2903 31.7782 30.1849C31.885 30.0795 32.03 30.0203 32.1811 30.0203C33.3935 30.0189 34.5558 29.5432 35.4131 28.6976C36.2703 27.8521 36.7524 26.7057 36.7536 25.5099V13.4132C36.7553 12.8207 36.6377 12.2337 36.4078 11.6863C36.1778 11.1388 35.8401 10.6418 35.4141 10.224C35.3072 10.1186 35.2471 9.97557 35.2471 9.82647C35.2471 9.67737 35.3072 9.53438 35.4141 9.42894C35.521 9.32351 35.666 9.26428 35.8171 9.26428C35.9683 9.26428 36.1133 9.32351 36.2202 9.42894C36.7521 9.95107 37.1737 10.5721 37.4607 11.256C37.7476 11.9399 37.8941 12.6731 37.8918 13.4132V25.5099C37.8902 26.9064 37.3635 28.2525 36.4136 29.2881C35.4637 30.3236 34.1581 30.9748 32.7494 31.1158V33.6284C32.7488 33.7772 32.6886 33.9199 32.5819 34.0251C32.4751 34.1304 32.3305 34.1898 32.1796 34.1904H32.1826Z" fill="#429D84"/>
<path fill-rule="evenodd" clip-rule="evenodd" d="M7.71082 10.3685C7.71082 7.92723 9.7383 5.98071 12.1983 5.98071C13.4844 5.98071 14.5875 6.65952 15.318 7.25496C15.574 7.46365 15.7959 7.67163 15.9773 7.85507C16.1586 7.67163 16.3805 7.46365 16.6365 7.25496C17.367 6.65952 18.4701 5.98071 19.7562 5.98071C22.2162 5.98071 24.2437 7.92723 24.2437 10.3685C24.2437 11.2933 24.0548 12.8047 23.0021 14.6007C21.9521 16.3921 20.0655 18.428 16.7308 20.4441L16.7281 20.4458L16.728 20.4457C16.501 20.5816 16.2413 20.653 15.9773 20.653C15.7132 20.653 15.4536 20.5816 15.2265 20.4457L15.2237 20.4441C11.8891 18.428 10.0025 16.3921 8.95244 14.6007C7.89976 12.8047 7.71082 11.2933 7.71082 10.3685ZM16.5415 9.34772C16.5415 9.34762 16.5416 9.34752 16.5417 9.34742L16.5415 9.34772ZM16.5417 9.34742L16.5425 9.34637L16.5527 9.3333C16.5626 9.32076 16.5786 9.30078 16.6004 9.27442C16.644 9.22164 16.7104 9.14369 16.7971 9.04895C16.9712 8.85859 17.2229 8.60522 17.5319 8.35339C18.1692 7.83392 18.9556 7.39782 19.7562 7.39782C21.4697 7.39782 22.8266 8.74548 22.8266 10.3685C22.8266 11.084 22.6849 12.3394 21.7795 13.8841C20.8717 15.4329 19.1734 17.3109 15.9999 19.23C15.9938 19.2335 15.986 19.2359 15.9773 19.2359C15.9683 19.2359 15.9603 19.2334 15.9541 19.2297L15.5903 19.8377L15.5903 19.8378L15.5903 19.8377L15.9569 19.2314C12.7819 17.3118 11.0831 15.4333 10.175 13.8841C9.26964 12.3394 9.12792 11.084 9.12792 10.3685C9.12792 8.74548 10.4849 7.39782 12.1983 7.39782C12.999 7.39782 13.7853 7.83392 14.4226 8.35339C14.7316 8.60522 14.9833 8.85859 15.1575 9.04895C15.2441 9.14369 15.3105 9.22164 15.3541 9.27442C15.3759 9.30078 15.3919 9.32076 15.4018 9.3333L15.412 9.34637L15.4131 9.34772C15.4131 9.34772 15.4131 9.34772 15.4131 9.34772C15.4131 9.34782 15.4132 9.34793 15.4133 9.34803C15.4134 9.34816 15.4135 9.34829 15.4136 9.34843C15.5476 9.52434 15.7561 9.62763 15.9773 9.62763C16.1987 9.62763 16.4075 9.52407 16.5415 9.34772" fill="#429D84"/>
</svg>
