<svg width="45" height="37" viewBox="0 0 45 37" fill="none" xmlns="http://www.w3.org/2000/svg">
<path d="M39.591 29.75H12.2038L7.22435 1H1" stroke="#429D84" stroke-width="1.5" stroke-linecap="round" stroke-linejoin="round"/>
<path d="M8.46973 4.75012H43.3261L39.5915 23.5001H12.2043" stroke="#429D84" stroke-width="1.5" stroke-linecap="round" stroke-linejoin="round"/>
<path d="M17.1837 4.75012V23.5001" stroke="#429D84" stroke-width="1.5" stroke-linecap="round" stroke-linejoin="round"/>
<path d="M25.8969 4.75012V23.5001" stroke="#429D84" stroke-width="1.5" stroke-linecap="round" stroke-linejoin="round"/>
<path d="M40.8358 13.5001H9.71399" stroke="#429D84" stroke-width="1.5" stroke-linecap="round" stroke-linejoin="round"/>
<path d="M34.6118 4.75012V23.5001" stroke="#429D84" stroke-width="1.5" stroke-linecap="round" stroke-linejoin="round"/>
<path d="M17.8054 36.0001C19.5242 36.0001 20.9176 34.601 20.9176 32.8751C20.9176 31.1492 19.5242 29.7501 17.8054 29.7501C16.0866 29.7501 14.6932 31.1492 14.6932 32.8751C14.6932 34.601 16.0866 36.0001 17.8054 36.0001Z" stroke="#429D84" stroke-width="1.5" stroke-linecap="round" stroke-linejoin="round"/>
<path d="M33.9891 36.0001C35.7079 36.0001 37.1013 34.601 37.1013 32.8751C37.1013 31.1492 35.7079 29.7501 33.9891 29.7501C32.2703 29.7501 30.877 31.1492 30.877 32.8751C30.877 34.601 32.2703 36.0001 33.9891 36.0001Z" stroke="#429D84" stroke-width="1.5" stroke-linecap="round" stroke-linejoin="round"/>
</svg>
