<svg width="40" height="40" viewBox="0 0 40 40" fill="none" xmlns="http://www.w3.org/2000/svg">
<g opacity="0.5">
<path fill-rule="evenodd" clip-rule="evenodd" d="M19.0318 2.18443C19.1748 2.06526 19.3551 2 19.5412 2H20.4588C20.6449 2 20.8252 2.06526 20.9682 2.18443L37.4842 15.9478C37.6656 16.099 37.7705 16.3229 37.7705 16.559V35.369C37.7705 36.0667 37.4933 36.7358 36.9999 37.2292C36.5066 37.7226 35.8374 37.9998 35.1397 37.9998H4.86031C4.16257 37.9998 3.49341 37.7226 3.00004 37.2292C2.50667 36.7358 2.22949 36.0667 2.22949 35.369V26.6522C2.22949 26.2127 2.58574 25.8565 3.02519 25.8565C3.46465 25.8565 3.8209 26.2127 3.8209 26.6522V35.369C3.8209 35.6446 3.9304 35.909 4.12533 36.1039C4.32026 36.2989 4.58464 36.4084 4.86031 36.4084H35.1397C35.4153 36.4084 35.6797 36.2989 35.8746 36.1039C36.0696 35.909 36.1791 35.6446 36.1791 35.369V16.9317L20.1707 3.5914H19.8293L3.8209 16.9317V21.5856L19.739 30.0222H20.2582L30.1748 24.6853C30.5618 24.477 31.0443 24.6219 31.2526 25.0089C31.4608 25.3958 31.316 25.8784 30.929 26.0866L20.8359 31.5186C20.72 31.5809 20.5904 31.6136 20.4588 31.6136H19.5412C19.4113 31.6136 19.2834 31.5818 19.1686 31.5209L2.65257 22.7674C2.39227 22.6295 2.22949 22.359 2.22949 22.0644V16.559C2.22949 16.3229 2.33438 16.099 2.5158 15.9478L19.0318 2.18443Z" fill="#429D84"/>
<path fill-rule="evenodd" clip-rule="evenodd" d="M19.7107 9.29468C20.1502 9.29468 20.5064 9.65093 20.5064 10.0904V23.1931C20.5064 23.6325 20.1502 23.9888 19.7107 23.9888C19.2713 23.9888 18.915 23.6325 18.915 23.1931V10.0904C18.915 9.65093 19.2713 9.29468 19.7107 9.29468Z" fill="#429D84"/>
<path fill-rule="evenodd" clip-rule="evenodd" d="M12.5978 16.4075C12.5978 15.9681 12.954 15.6118 13.3935 15.6118L26.4962 15.6118C26.9356 15.6118 27.2919 15.9681 27.2919 16.4075C27.2919 16.847 26.9356 17.2032 26.4962 17.2032L13.3935 17.2032C12.954 17.2032 12.5978 16.847 12.5978 16.4075Z" fill="#429D84"/>
</g>
</svg>
