<svg width="40" height="40" viewBox="0 0 40 40" fill="none" xmlns="http://www.w3.org/2000/svg">
<g opacity="0.5">
<path fill-rule="evenodd" clip-rule="evenodd" d="M25.7129 1.22617C25.7912 1.30461 25.8509 1.39819 25.8892 1.50005L34.601 10.4168C34.8389 10.5484 35 10.8022 35 11.0939V36.3635C35 37.0576 34.7307 37.7265 34.2465 38.2221C33.7618 38.7182 33.1008 39 32.4082 39H7.5461L7.52636 38.9997C6.84523 38.9823 6.20113 38.6929 5.73044 38.1988C5.26029 37.7052 4.99985 37.0461 5 36.3632L5 3.64589C4.99986 2.96281 5.26048 2.30374 5.7309 1.81011C6.20187 1.31591 6.84631 1.02673 7.52767 1.00959L7.5466 1.00935L25.1676 1C25.3721 0.999892 25.5683 1.08125 25.7129 1.22617ZM33.4585 11.8665H26.9443L26.925 11.8663C26.2434 11.8491 25.5987 11.5598 25.1277 11.0653C24.6572 10.5713 24.3968 9.91184 24.3973 9.22845V8.60879V2.54577L7.55822 2.5547C7.29217 2.56354 7.03635 2.67736 6.84549 2.87763C6.65219 3.08046 6.54142 3.35584 6.5415 3.64566V36.3635C6.54141 36.6532 6.65211 36.9287 6.8453 37.1315C7.03598 37.3317 7.29155 37.4456 7.5574 37.4546H32.4082C32.6816 37.4546 32.947 37.3437 33.1453 37.1407C33.344 36.9373 33.4585 36.658 33.4585 36.3635V11.8665ZM11.7754 32.0021C11.7754 31.5754 12.1204 31.2295 12.5461 31.2295H27.4082C27.8339 31.2295 28.179 31.5754 28.179 32.0021C28.179 32.4289 27.8339 32.7748 27.4082 32.7748H12.5461C12.1204 32.7748 11.7754 32.4289 11.7754 32.0021ZM25.9388 4.13143V9.163V9.22906C25.9386 9.51898 26.0493 9.7951 26.2426 9.99805C26.4334 10.1984 26.6892 10.3123 26.9553 10.3212H29.1602H31.9562L25.9388 4.13143Z" fill="#429D84"/>
<path fill-rule="evenodd" clip-rule="evenodd" d="M20.0014 10C20.317 10.0001 20.6042 10.1734 20.7383 10.4448L23.3918 15.8154L29.3089 16.6756C29.6106 16.7195 29.8611 16.9199 29.9579 17.1948C30.0547 17.4697 29.9816 17.773 29.7685 17.9804L25.4621 22.1727L26.4809 28.1019C26.5311 28.3943 26.4012 28.6882 26.1463 28.8588C25.8914 29.0294 25.5563 29.0468 25.2834 28.9034L20.0012 26.1291L14.7165 28.9035C14.4436 29.0468 14.1085 29.0294 13.8537 28.8588C13.5988 28.6881 13.4689 28.3942 13.5191 28.1019L14.5379 22.1727L10.2315 17.9804C10.0184 17.773 9.94527 17.4697 10.0421 17.1948C10.1389 16.9199 10.3894 16.7195 10.6911 16.6756L16.6084 15.8154L19.2643 10.4446C19.3985 10.1732 19.6857 9.99995 20.0014 10ZM20.0009 12.5932L17.8976 16.8465C17.7823 17.0798 17.5521 17.2432 17.2839 17.2822L12.5034 17.9771L15.9904 21.3718C16.171 21.5475 16.2529 21.7942 16.2113 22.0366L15.3964 26.7791L19.6074 24.5683C19.8526 24.4397 20.1501 24.4397 20.3952 24.5684L24.6036 26.7787L23.7887 22.0366C23.7471 21.7942 23.829 21.5475 24.0096 21.3718L27.4966 17.9771L22.7161 17.2822C22.4478 17.2432 22.2176 17.0797 22.1022 16.8462L20.0009 12.5932Z" fill="#429D84"/>
</g>
</svg>
