<svg width="38" height="38" viewBox="0 0 38 38" fill="none" xmlns="http://www.w3.org/2000/svg">
<path d="M34.252 10.5242C33.7545 9.37248 33.0373 8.32879 32.1404 7.45157C31.2429 6.57172 30.1846 5.87253 29.0232 5.392C27.819 4.89174 26.5273 4.63567 25.2232 4.63868C23.3938 4.63868 21.6088 5.13965 20.0576 6.08594C19.6865 6.31231 19.334 6.56094 19 6.83184C18.666 6.56094 18.3135 6.31231 17.9424 6.08594C16.3912 5.13965 14.6063 4.63868 12.7768 4.63868C11.4594 4.63868 10.1828 4.89102 8.97676 5.392C7.81152 5.87442 6.76133 6.56836 5.85957 7.45157C4.96151 8.3278 4.24412 9.37174 3.74805 10.5242C3.23223 11.7229 2.96875 12.9957 2.96875 14.3057C2.96875 15.5414 3.22109 16.8291 3.72207 18.1391C4.14141 19.2338 4.74258 20.3693 5.51074 21.516C6.72793 23.3307 8.40156 25.2232 10.4797 27.1418C13.9234 30.3221 17.3338 32.5189 17.4785 32.608L18.358 33.1721C18.7477 33.4207 19.2486 33.4207 19.6383 33.1721L20.5178 32.608C20.6625 32.5152 24.0691 30.3221 27.5166 27.1418C29.5947 25.2232 31.2684 23.3307 32.4855 21.516C33.2537 20.3693 33.8586 19.2338 34.2742 18.1391C34.7752 16.8291 35.0275 15.5414 35.0275 14.3057C35.0313 12.9957 34.7678 11.7229 34.252 10.5242Z" fill="#EC374D"/>
</svg>
