<svg width="58" height="58" viewBox="0 0 58 58" fill="none" xmlns="http://www.w3.org/2000/svg">
<path d="M29 20C28.8325 20.0002 28.6671 19.9645 28.5162 19.8955C28.3654 19.8265 28.233 19.726 28.1292 19.6016L21.2379 11.3235C21.0703 11.1224 20.9863 10.8701 21.0018 10.6144C21.0173 10.3587 21.1313 10.1172 21.3221 9.93548L24.0985 7.30613C24.2016 7.20884 24.3239 7.13172 24.4585 7.07919C24.5931 7.02667 24.7374 6.99976 24.8829 7H33.1171C33.2627 6.99976 33.4069 7.02667 33.5415 7.07919C33.6761 7.13172 33.7984 7.20884 33.9015 7.30613L36.6757 9.93548C36.8675 10.117 36.9822 10.3588 36.9981 10.615C37.014 10.8712 36.9301 11.1241 36.7621 11.3256L29.8708 19.6016C29.767 19.726 29.6346 19.8265 29.4838 19.8955C29.333 19.9645 29.1675 20.0002 29 20ZM23 10.615L29 18L35 10.615L32.6584 8.5H25.3461L23 10.615Z" fill="white"/>
<path fill-rule="evenodd" clip-rule="evenodd" d="M28.5 50.4C36.729 50.4 43.4 43.729 43.4 35.5C43.4 27.271 36.729 20.6 28.5 20.6C20.271 20.6 13.6 27.271 13.6 35.5C13.6 43.729 20.271 50.4 28.5 50.4ZM28.5 52C37.6127 52 45 44.6127 45 35.5C45 26.3873 37.6127 19 28.5 19C19.3873 19 12 26.3873 12 35.5C12 44.6127 19.3873 52 28.5 52Z" fill="white"/>
<path fill-rule="evenodd" clip-rule="evenodd" d="M28.5 44.4C33.4153 44.4 37.4 40.4153 37.4 35.5C37.4 30.5847 33.4153 26.6 28.5 26.6C23.5847 26.6 19.6 30.5847 19.6 35.5C19.6 40.4153 23.5847 44.4 28.5 44.4ZM28.5 46C34.299 46 39 41.299 39 35.5C39 29.701 34.299 25 28.5 25C22.701 25 18 29.701 18 35.5C18 41.299 22.701 46 28.5 46Z" fill="white"/>
</svg>
