<svg width="33" height="48" viewBox="0 0 33 48" fill="none" xmlns="http://www.w3.org/2000/svg">
<path d="M17 13C16.8325 13.0002 16.6671 12.9648 16.5162 12.8955C16.3654 12.8265 16.233 12.726 16.1292 12.6016L9.23786 4.32355C9.07027 4.12239 8.98631 3.87014 9.00182 3.61441C9.01733 3.35868 9.13125 3.11717 9.32206 2.93548L12.0985 0.306131C12.2016 0.208837 12.3239 0.131721 12.4885 0.0791935C12.5931 0.0266657 12.7374 -0.000244378 12.8829 1.67216e-06H21.1171C21.2627 -0.000244378 21.4069 0.0266657 21.5415 0.0791935C21.6761 0.131721 21.7984 0.208837 21.9015 0.306131L24.6757 2.93548C24.8675 3.11702 24.9822 3.35881 24.9981 3.61503C25.014 3.87124 24.9301 4.12409 24.7621 4.32565L17.8708 12.6016C17.767 12.726 17.6346 12.8265 17.4838 12.8955C17.333 12.9648 17.1675 13.0002 17 13ZM11 3.61503L17 11L23 3.61503L20.6584 1.5H13.3461L11 3.61503Z" fill="#9388CC"/>
<path fill-rule="evenodd" clip-rule="evenodd" d="M16.5 43.4C24.729 43.4 31.4 36.729 31.4 28.5C31.4 20.271 24.729 13.6 16.5 13.6C8.27096 13.6 1.6 20.271 1.6 28.5C1.6 36.729 8.27096 43.4 16.5 43.4ZM16.5 48C25.6127 48 33 37.6127 33 28.5C33 19.3873 25.6127 12 16.5 12C7.3873 12 0 19.3873 0 28.5C0 37.6127 7.3873 48 16.5 48Z" fill="#9388CC"/>
<path fill-rule="evenodd" clip-rule="evenodd" d="M16.5 37.4C21.4153 37.4 25.4 33.4153 25.4 28.5C25.4 23.5847 21.4153 19.6 16.5 19.6C11.5847 19.6 7.6 23.5847 7.6 28.5C7.6 33.4153 11.5847 37.4 16.5 37.4ZM16.5 39C22.299 39 27 34.299 27 28.5C27 22.701 22.299 18 16.5 18C10.701 18 6 22.701 6 28.5C6 34.299 10.701 39 16.5 39Z" fill="#9388CC"/>
</svg>
