<svg width="273" height="89" viewBox="0 0 273 89" fill="none" xmlns="http://www.w3.org/2000/svg">
<g clip-path="url(#clip0_1_33)">
<path d="M145.28 75.0573V77.6801C145.28 78.5045 145.274 79.0678 145.265 79.37C145.256 79.6721 145.227 80.0007 145.177 80.3528C145.127 80.7048 145.039 81.0246 144.91 81.3062C144.673 81.8637 144.051 82.4827 143.041 83.1604C142.994 83.178 142.915 83.2279 142.801 83.3041C142.686 83.3804 142.607 83.4303 142.56 83.4479C142.551 83.4567 142.525 83.4626 142.478 83.4626C142.414 83.4626 142.381 83.4391 142.381 83.3951C142.381 83.3599 142.44 83.2983 142.56 83.2161C142.689 83.1516 142.818 83.0548 142.945 82.9286C143.256 82.6264 143.487 82.3477 143.637 82.0896C143.789 81.8343 143.913 81.4089 144.015 80.8192C144.115 80.2296 144.165 79.4257 144.165 78.4077V75.0573C144.165 73.6374 144.156 72.8042 144.139 72.5578C144.121 72.3641 144.071 72.2204 143.995 72.1177C143.919 72.018 143.787 71.9446 143.605 71.8977C143.496 71.8801 143.358 71.8713 143.191 71.8713C143.126 71.8713 143.094 71.8449 143.094 71.7891C143.094 71.7158 143.162 71.6776 143.3 71.6776C143.473 71.6776 143.672 71.6835 143.898 71.6923C144.121 71.7011 144.318 71.707 144.482 71.707L144.717 71.7216C144.725 71.7216 144.807 71.7187 144.963 71.7158C145.118 71.7128 145.297 71.704 145.497 71.6952C145.699 71.6864 145.855 71.6806 145.963 71.6806C146.092 71.6806 146.154 71.7187 146.154 71.7921C146.154 71.8478 146.128 71.8742 146.072 71.8742C146.063 71.8742 145.958 71.883 145.755 71.9006C145.479 71.9651 145.33 72.1881 145.303 72.5724C145.289 72.8189 145.28 73.6491 145.28 75.0573Z" fill="white"/>
<path d="M152.491 80.6608C151.684 80.6608 150.968 80.52 150.341 80.2413C149.713 79.9626 149.217 79.5959 148.85 79.1411C148.483 78.6864 148.211 78.1994 148.026 77.6772C147.844 77.155 147.75 76.621 147.75 76.0695C147.75 75.6851 147.806 75.292 147.923 74.8872C148.038 74.4852 148.219 74.0804 148.472 73.6726C148.724 73.2648 149.032 72.9039 149.393 72.5871C149.754 72.2702 150.211 72.0121 150.76 71.8126C151.312 71.6102 151.91 71.5104 152.561 71.5104C153.952 71.5104 155.099 71.9035 156 72.6927C156.903 73.4819 157.352 74.5468 157.352 75.8934C157.352 77.2312 156.903 78.3578 156 79.279C155.096 80.2031 153.929 80.6608 152.491 80.6608ZM152.834 80.1943C153.063 80.1943 153.298 80.1709 153.535 80.1269C153.773 80.0799 154.052 79.9743 154.366 79.8041C154.683 79.634 154.958 79.414 155.196 79.144C155.434 78.8741 155.639 78.4869 155.806 77.9823C155.976 77.4777 156.061 76.8968 156.061 76.2367C156.061 74.9106 155.712 73.8603 155.011 73.0917C154.31 72.3231 153.465 71.9387 152.476 71.9387C151.461 71.9387 150.631 72.2585 149.988 72.901C149.349 73.5435 149.026 74.4794 149.026 75.7174C149.026 77.064 149.372 78.1466 150.062 78.9651C150.757 79.7836 151.678 80.1943 152.834 80.1943Z" fill="white"/>
<path d="M161.061 75.0573V76.6914C161.061 77.4894 161.128 78.1026 161.266 78.5309C161.404 78.9622 161.612 79.2996 161.897 79.546C162.372 79.9685 162.979 80.1767 163.71 80.1767C164.505 80.1767 165.133 79.9098 165.59 79.3788C166.039 78.8654 166.262 77.909 166.262 76.5095V75.0544C166.262 73.6433 166.253 72.8159 166.236 72.5695C166.227 72.414 166.209 72.2996 166.186 72.2263C166.162 72.1529 166.115 72.0854 166.042 72.0209C165.969 71.9563 165.863 71.9153 165.728 71.8977C165.599 71.8801 165.47 71.8713 165.344 71.8713C165.253 71.8713 165.206 71.8449 165.206 71.7891C165.206 71.7158 165.27 71.6776 165.4 71.6776C165.573 71.6776 165.766 71.6835 165.975 71.6923C166.186 71.7011 166.362 71.707 166.506 71.7128C166.646 71.7187 166.723 71.7187 166.731 71.7187C166.74 71.7187 166.808 71.7158 166.931 71.7128C167.054 71.707 167.198 71.7011 167.362 71.6923C167.527 71.6835 167.664 71.6776 167.776 71.6776C167.905 71.6776 167.967 71.7099 167.967 71.7745C167.967 71.839 167.92 71.8713 167.829 71.8713C167.755 71.8713 167.673 71.8771 167.582 71.8859C167.409 71.9035 167.292 71.9652 167.233 72.0708C167.174 72.1764 167.133 72.3436 167.116 72.5724C167.107 72.8189 167.101 73.6491 167.101 75.0573V76.2807C167.101 78.0116 166.729 79.1969 165.989 79.8394C165.338 80.388 164.502 80.6638 163.475 80.6638C162.357 80.6638 161.501 80.388 160.908 79.8394C160.23 79.2086 159.893 78.1818 159.893 76.7618V75.0603C159.893 73.6403 159.878 72.8071 159.852 72.5607C159.843 72.3495 159.805 72.194 159.743 72.0942C159.679 71.9945 159.547 71.9299 159.344 71.9006C159.236 71.883 159.115 71.8742 158.986 71.8742C158.884 71.8742 158.834 71.8478 158.834 71.7921C158.834 71.7187 158.901 71.6806 159.039 71.6806C159.212 71.6806 159.412 71.6864 159.638 71.6952C159.861 71.704 160.051 71.7099 160.207 71.7158C160.362 71.7216 160.45 71.7216 160.468 71.7216C160.485 71.7216 160.67 71.7158 161.019 71.7011C161.366 71.6864 161.615 71.6806 161.762 71.6806C161.888 71.6806 161.952 71.7128 161.952 71.7774C161.952 71.8419 161.897 71.8742 161.788 71.8742C161.732 71.8742 161.633 71.883 161.486 71.9006C161.33 71.9182 161.228 71.9798 161.178 72.0796C161.125 72.1793 161.093 72.3407 161.075 72.5607C161.066 72.8042 161.061 73.6374 161.061 75.0573Z" fill="white"/>
<path d="M170.622 77.1198V75.0603C170.622 73.6315 170.613 72.7954 170.595 72.546C170.578 72.3436 170.531 72.194 170.457 72.0913C170.384 71.9915 170.246 71.9211 170.047 71.8859C169.935 71.8683 169.827 71.8595 169.718 71.8595C169.615 71.8595 169.565 71.8331 169.565 71.7774C169.565 71.7128 169.618 71.6806 169.73 71.6806C169.838 71.6806 169.964 71.6835 170.099 71.6864C170.237 71.6923 170.366 71.6952 170.493 71.7011C170.616 71.707 170.727 71.707 170.83 71.707C170.93 71.707 171.018 71.707 171.091 71.707L171.188 71.7216C171.205 71.7216 171.414 71.7158 171.813 71.7011C172.212 71.6864 172.485 71.6806 172.631 71.6806C173.638 71.6806 174.389 71.8537 174.884 72.2028C175.433 72.6047 175.709 73.1651 175.709 73.878C175.709 74.8226 175.225 75.6852 174.254 76.4743C175.471 77.9764 176.316 78.968 176.783 79.455C177.258 79.9391 177.745 80.2207 178.238 80.2941C178.367 80.3117 178.508 80.3205 178.663 80.3205C178.766 80.3205 178.816 80.3528 178.816 80.4173C178.816 80.4818 178.733 80.5141 178.569 80.5141H177.607C177.041 80.5141 176.621 80.4584 176.357 80.3498C176.275 80.3146 176.196 80.2736 176.122 80.2266C176.049 80.1826 175.97 80.1181 175.888 80.0418C175.806 79.9655 175.735 79.8951 175.677 79.8364C175.618 79.7778 175.539 79.6868 175.436 79.5695C175.333 79.4521 175.257 79.3553 175.201 79.2878C175.148 79.2203 175.058 79.103 174.934 78.9387C174.811 78.7744 174.717 78.6512 174.653 78.569C174.45 78.3138 174.192 77.9823 173.878 77.5804C173.561 77.1755 173.379 76.9437 173.335 76.8792C173.283 76.8235 173.227 76.797 173.171 76.797L171.757 76.7824C171.71 76.7824 171.69 76.8059 171.69 76.8499V77.0435C171.69 78.4458 171.713 79.3083 171.757 79.6399C171.775 79.7777 171.792 79.8834 171.81 79.9567C171.827 80.0301 171.877 80.1005 171.954 80.1709C172.03 80.2383 172.144 80.2824 172.291 80.3C172.473 80.3176 172.608 80.3264 172.69 80.3264C172.81 80.3264 172.869 80.3528 172.869 80.4085C172.869 80.4818 172.804 80.52 172.678 80.52C172.467 80.52 172.238 80.5171 171.992 80.5141C171.745 80.5083 171.54 80.5024 171.373 80.4936L171.138 80.4789C171.073 80.4789 170.894 80.4848 170.595 80.4995C170.299 80.5141 170.079 80.52 169.941 80.52C169.812 80.52 169.75 80.4848 169.75 80.4085C169.75 80.3528 169.806 80.3264 169.915 80.3264C170.044 80.3264 170.143 80.3176 170.217 80.3C170.419 80.2648 170.539 80.0887 170.575 79.7777C170.604 79.5049 170.622 78.6189 170.622 77.1198ZM171.678 72.2967V76.0313C171.678 76.1135 171.701 76.1692 171.745 76.1956C171.965 76.3159 172.373 76.3746 172.966 76.3746C173.368 76.3746 173.676 76.3071 173.887 76.1692C174.345 75.8759 174.573 75.295 174.573 74.4236C174.573 73.6814 174.392 73.1093 174.031 72.7074C173.67 72.3055 173.177 72.103 172.552 72.103C172.206 72.103 171.939 72.1265 171.757 72.1705C171.707 72.191 171.678 72.2321 171.678 72.2967Z" fill="white"/>
<path d="M179.396 78.7949V72.0795C179.396 71.704 179.446 71.5163 179.549 71.5163C179.584 71.5163 179.728 71.6395 179.974 71.8859C180.057 71.9769 181.374 73.3293 183.929 75.9374C184.296 76.2954 184.827 76.8205 185.522 77.5158C186.217 78.2111 186.622 78.616 186.731 78.7245L186.581 73.0095C186.572 72.634 186.537 72.37 186.479 72.2204C186.42 72.0707 186.3 71.971 186.115 71.9241C185.904 71.8889 185.725 71.8683 185.581 71.8683C185.472 71.8683 185.417 71.8331 185.417 71.7568C185.417 71.7011 185.499 71.6747 185.663 71.6747C185.901 71.6747 186.176 71.6835 186.487 71.7011L186.954 71.7158C186.963 71.7158 187.095 71.7099 187.353 71.6952C187.608 71.6806 187.843 71.6747 188.054 71.6747C188.183 71.6747 188.245 71.7011 188.245 71.7568C188.245 71.8126 188.204 71.8478 188.121 71.8683C188.104 71.8683 188.054 71.8742 187.978 71.883C187.899 71.8918 187.834 71.9006 187.778 71.9094C187.614 71.9446 187.502 72.0297 187.45 72.1558C187.394 72.2849 187.368 72.546 187.368 72.9391L187.341 79.8335C187.341 80.0066 187.338 80.1415 187.335 80.2383C187.329 80.3351 187.324 80.4114 187.315 80.4642C187.306 80.52 187.294 80.5522 187.28 80.5669C187.265 80.5816 187.244 80.5875 187.218 80.5875C187.127 80.5875 186.825 80.3439 186.311 79.8599C186.294 79.8511 186.118 79.6839 185.783 79.3582C185.449 79.0326 185 78.5925 184.437 78.0321C183.873 77.4747 183.445 77.0523 183.152 76.7677C182.198 75.779 181.151 74.6877 180.007 73.4995L180.186 78.8712C180.203 79.367 180.241 79.7132 180.303 79.9098C180.365 80.1063 180.476 80.2237 180.64 80.2589C180.787 80.2941 180.975 80.3146 181.204 80.3146C181.312 80.3146 181.368 80.3469 181.368 80.4114C181.368 80.476 181.295 80.5082 181.148 80.5082C180.928 80.5082 180.717 80.5053 180.511 80.5024C180.306 80.4965 180.142 80.4906 180.024 80.4818C179.904 80.473 179.837 80.4672 179.819 80.4672C179.801 80.4672 179.731 80.4701 179.614 80.473C179.493 80.4789 179.344 80.4848 179.162 80.4936C178.977 80.5024 178.801 80.5082 178.628 80.5082C178.49 80.5082 178.422 80.476 178.422 80.4114C178.422 80.3469 178.487 80.3146 178.613 80.3146C178.777 80.3146 178.921 80.297 179.039 80.2589C179.185 80.2119 179.285 80.0858 179.335 79.8746C179.373 79.6692 179.396 79.3054 179.396 78.7949Z" fill="white"/>
<path d="M194.397 77.1608H191.897C191.833 77.1608 191.789 77.196 191.759 77.2694L191.155 78.9856C191 79.4257 190.92 79.7513 190.92 79.9596C190.92 80.1973 191.073 80.3175 191.372 80.3175H191.469C191.58 80.3175 191.633 80.3498 191.633 80.4144C191.633 80.4789 191.566 80.5112 191.428 80.5112C191.316 80.5112 191.12 80.5053 190.829 80.4906C190.539 80.476 190.378 80.4701 190.342 80.4701C190.334 80.4701 190.169 80.476 189.847 80.4906C189.527 80.5053 189.251 80.5112 189.022 80.5112C188.875 80.5112 188.802 80.4789 188.802 80.4144C188.802 80.3498 188.855 80.3175 188.966 80.3175C189.096 80.3175 189.186 80.3146 189.242 80.3029C189.506 80.2765 189.717 80.1738 189.867 80.0007C190.02 79.8276 190.163 79.5665 190.298 79.2174L193.047 71.9798C193.121 71.7803 193.176 71.6512 193.212 71.5955C193.247 71.5397 193.288 71.5133 193.335 71.5133C193.399 71.5133 193.49 71.66 193.611 71.9534C193.628 72.0003 194.027 73.0008 194.805 74.9605C195.582 76.9203 196.113 78.2375 196.398 78.9152C196.709 79.6663 197.055 80.1093 197.442 80.2471C197.562 80.2941 197.718 80.3146 197.909 80.3146C198.02 80.3146 198.073 80.3469 198.073 80.4114C198.073 80.476 198.005 80.5083 197.867 80.5083C197.09 80.5083 196.392 80.4994 195.779 80.4818C195.55 80.473 195.435 80.4408 195.435 80.385C195.435 80.3381 195.468 80.3088 195.532 80.2882C195.635 80.2413 195.652 80.1415 195.588 79.986L194.502 77.2254C194.479 77.1814 194.441 77.1608 194.397 77.1608ZM192.032 76.6797H194.23C194.277 76.6797 194.288 76.6533 194.271 76.5975L193.188 73.5611C193.141 73.4232 193.091 73.4232 193.036 73.5611L192.006 76.5975C191.979 76.6504 191.988 76.6797 192.032 76.6797Z" fill="white"/>
<path d="M200.878 75.0573V77.1462C200.878 78.6923 200.974 79.5606 201.168 79.7425C201.379 79.9244 201.857 80.0183 202.611 80.0183C202.875 80.0183 203.075 80.0154 203.21 80.0037C203.342 79.9948 203.497 79.9596 203.67 79.901C203.844 79.8423 203.979 79.7513 204.069 79.634C204.207 79.4228 204.292 79.1939 204.331 78.9475C204.348 78.836 204.386 78.7832 204.442 78.7832C204.495 78.7832 204.524 78.8419 204.524 78.9622C204.524 79.367 204.471 79.7777 204.36 80.2002C204.331 80.2912 204.313 80.3498 204.304 80.3733C204.295 80.3968 204.266 80.429 204.216 80.4701C204.166 80.5112 204.096 80.5347 204.011 80.5376C203.926 80.5435 203.8 80.5464 203.632 80.5464C203.357 80.5464 202.858 80.5347 202.127 80.5112C201.4 80.4877 200.787 80.476 200.294 80.476C200.147 80.476 199.95 80.4819 199.704 80.4965C199.458 80.5112 199.249 80.5171 199.085 80.5171C198.938 80.5171 198.865 80.4819 198.865 80.4056C198.865 80.3498 198.915 80.3234 199.015 80.3234C199.161 80.3234 199.273 80.3146 199.343 80.297C199.537 80.2618 199.654 80.0447 199.701 79.6516C199.736 79.4228 199.754 78.5808 199.754 77.1227V75.0632C199.754 73.6521 199.745 72.8247 199.727 72.5783C199.719 72.4316 199.701 72.3172 199.678 72.2351C199.654 72.1529 199.601 72.0796 199.519 72.015C199.437 71.9505 199.323 71.9094 199.176 71.8918C199.123 71.883 199.006 71.8771 198.833 71.8771C198.733 71.8771 198.68 71.8449 198.68 71.7803C198.68 71.7158 198.748 71.6835 198.885 71.6835C198.994 71.6835 199.117 71.6864 199.249 71.6894C199.381 71.6952 199.507 71.6982 199.628 71.704C199.748 71.7099 199.859 71.7099 199.965 71.7099C200.068 71.7099 200.153 71.7099 200.22 71.7099L200.317 71.7246C200.364 71.7246 200.572 71.7187 200.948 71.704C201.323 71.6894 201.585 71.6835 201.731 71.6835C201.849 71.6835 201.91 71.7158 201.91 71.7803C201.91 71.8449 201.857 71.8771 201.758 71.8771C201.693 71.8771 201.57 71.8859 201.385 71.9035C201.203 71.9299 201.077 71.9945 201.015 72.0972C200.951 72.1969 200.91 72.3583 200.892 72.5783C200.883 72.7015 200.878 73.5288 200.878 75.0573Z" fill="white"/>
<path d="M124.691 28.5572C125.486 28.5572 126.216 28.5983 126.882 28.6834C127.143 28.7156 127.404 28.7362 127.663 28.745C128.123 28.745 128.373 28.5103 128.414 28.0409C128.414 27.5803 127.971 27.2722 127.082 27.1168C126.342 27.0111 125.594 26.9613 124.843 26.9613C123.705 26.9613 122.159 27.061 120.208 27.2576C120.155 27.2576 120.129 27.2224 120.129 27.149C120.211 26.618 120.311 26.0987 120.425 25.6C120.498 25.3066 120.566 24.9898 120.627 24.6465C120.627 24.3121 120.472 24.0979 120.158 24.004C120.076 23.9718 119.991 23.9571 119.909 23.9571C119.7 23.9571 119.513 24.0568 119.345 24.2534C119.105 24.5761 118.85 25.465 118.577 26.9143C118.536 27.0903 118.497 27.2224 118.468 27.3045C118.439 27.3896 118.374 27.4453 118.28 27.4776C118.187 27.5099 117.864 27.5656 117.309 27.6507C115.734 27.9118 114.205 28.3196 112.724 28.8711C112.463 28.9445 112.234 29.0853 112.034 29.2936C111.92 29.4403 111.861 29.6016 111.861 29.7777C111.861 29.9332 111.908 30.0769 112.002 30.2001C112.158 30.3791 112.337 30.4671 112.533 30.4671C112.648 30.4671 112.768 30.4348 112.894 30.3732C113.167 30.2383 113.454 30.1268 113.757 30.0446C115.156 29.6369 116.579 29.3405 118.031 29.1528C118.104 29.1528 118.14 29.1851 118.14 29.2467V29.3875C117.878 31.2856 117.688 33.1632 117.565 35.0262C117.5 35.0848 117.435 35.1289 117.374 35.211C117.174 35.4809 117.007 35.7684 116.872 36.0706C116.84 36.1234 116.814 36.1791 116.793 36.2437C116.365 37.2265 115.769 38.3472 115.009 39.6087C114.695 40.2131 114.285 40.7558 113.771 41.2369C113.49 41.4775 113.199 41.5978 112.894 41.5978C112.601 41.5978 112.316 41.4892 112.031 41.2692C111.677 40.967 111.415 40.6003 111.251 40.1749C110.937 39.3417 110.782 38.4909 110.782 37.6225C110.782 37.0475 110.835 36.4754 110.937 35.9004C110.99 35.6071 111.052 35.3107 111.125 35.0086C111.198 34.6947 111.266 34.3778 111.327 34.0551L111.342 33.9289C111.342 33.7617 111.292 33.6033 111.192 33.4507C111.093 33.3011 110.967 33.1838 110.811 33.0987C110.697 33.0371 110.582 33.0048 110.468 33.0048C110.248 33.0048 110.034 33.1046 109.825 33.3011C109.74 33.3745 109.658 33.4683 109.576 33.5828C109.532 33.6649 109.488 33.7089 109.435 33.7089C109.391 33.7089 109.341 33.6766 109.277 33.615C108.995 33.3745 108.678 33.2542 108.323 33.2542L108.121 33.2688C107.37 33.3833 106.669 33.7999 106.023 34.5216C105.378 35.2433 104.853 36.0911 104.457 37.0739C104.06 38.0538 103.861 38.9633 103.861 39.7965C103.861 40.2453 103.928 40.6414 104.063 40.9846C104.333 41.5068 104.7 41.768 105.158 41.768C105.378 41.768 105.607 41.7063 105.847 41.5802C106.149 41.3924 106.407 41.1577 106.616 40.8761C106.95 40.4478 107.252 39.9989 107.522 39.5295L107.648 39.3271L109.104 37.0094C109.124 37.0094 109.142 37.0094 109.151 37.0094C109.159 37.0094 109.171 37.0153 109.18 37.0241L109.165 37.5404C109.165 38.1242 109.221 38.708 109.338 39.2948C109.494 40.4331 109.966 41.4188 110.746 42.252C111.049 42.5454 111.374 42.7742 111.726 42.9415C112.075 43.1087 112.448 43.1908 112.847 43.1908C113.055 43.1908 113.264 43.1703 113.472 43.1292C114.267 42.9415 114.898 42.5249 115.367 41.8765C116.15 40.8409 116.822 39.7437 117.412 38.6024C117.403 39.0982 117.386 39.597 117.386 40.0928C117.386 41.9909 117.465 43.8861 117.62 45.7755C117.664 46.6615 117.808 47.5387 118.057 48.4041C118.151 48.7708 118.333 49.0818 118.606 49.3429C118.762 49.4691 118.926 49.5307 119.093 49.5307C119.228 49.5307 119.354 49.4925 119.469 49.4221C119.689 49.2754 119.797 49.073 119.797 48.8119C119.777 48.6242 119.736 48.4452 119.674 48.2809C119.213 46.8522 118.985 43.9917 118.985 39.7026C118.985 37.8983 119.073 35.9679 119.251 33.9113C119.357 32.4709 119.507 31.0363 119.706 29.6075C119.736 29.3787 119.771 29.2144 119.809 29.1146C119.847 29.0149 119.915 28.9504 120.011 28.9181C120.111 28.8858 120.275 28.8594 120.504 28.8389C121.202 28.7655 121.901 28.701 122.593 28.6423C123.297 28.5866 123.992 28.5572 124.691 28.5572ZM108.458 35.1318C107.863 35.9972 107.293 36.8862 106.754 37.7927C106.378 38.3971 105.997 38.9985 105.609 39.594L105.454 39.7671C105.507 39.2038 105.607 38.6963 105.75 38.2474C106.073 37.1091 106.636 36.1234 107.44 35.2902C107.637 35.0614 107.883 34.8883 108.177 34.7739C108.218 34.7533 108.262 34.7416 108.303 34.7416C108.344 34.7416 108.385 34.768 108.429 34.8208C108.438 34.8325 108.449 34.8472 108.458 34.8677C108.49 34.9088 108.505 34.9558 108.505 35.0086C108.505 35.0379 108.49 35.079 108.458 35.1318Z" fill="white"/>
<path d="M137.262 22.0765C137.177 22.0443 137.095 22.0296 137.01 22.0296C136.728 22.0296 136.493 22.2086 136.305 22.5606L136.165 22.9684C135.757 24.4294 135.449 25.911 135.24 27.4131C134.888 30.0446 134.663 32.5559 134.56 34.9616C134.472 35.0291 134.384 35.0995 134.302 35.211C134.102 35.4809 133.935 35.7684 133.8 36.0706C133.768 36.1234 133.741 36.1791 133.721 36.2437C133.292 37.2265 132.697 38.3472 131.937 39.6087C131.623 40.213 131.212 40.7558 130.699 41.2369C130.417 41.4775 130.127 41.5978 129.822 41.5978C129.528 41.5978 129.244 41.4892 128.959 41.2692C128.604 40.967 128.343 40.6003 128.179 40.1749C127.865 39.3417 127.71 38.4909 127.71 37.6225C127.71 37.0475 127.762 36.4754 127.865 35.9004C127.918 35.607 127.979 35.3107 128.053 35.0086C128.126 34.6946 128.194 34.3778 128.255 34.0551L128.27 33.9289C128.27 33.7617 128.22 33.6033 128.12 33.4507C128.021 33.3011 127.894 33.1838 127.739 33.0987C127.624 33.0371 127.51 33.0048 127.396 33.0048C127.176 33.0048 126.961 33.1045 126.753 33.3011C126.668 33.3745 126.586 33.4683 126.504 33.5828C126.46 33.6649 126.416 33.7089 126.363 33.7089C126.319 33.7089 126.269 33.6766 126.205 33.615C125.923 33.3745 125.606 33.2542 125.251 33.2542L125.049 33.2688C124.298 33.3833 123.596 33.7998 122.951 34.5216C122.306 35.2403 121.78 36.0911 121.384 37.0739C120.988 38.0538 120.789 38.9633 120.789 39.7965C120.789 40.2453 120.856 40.6414 120.991 40.9846C121.261 41.5068 121.628 41.7679 122.086 41.7679C122.306 41.7679 122.534 41.7063 122.775 41.5802C123.077 41.3924 123.335 41.1577 123.544 40.8761C123.878 40.4477 124.18 39.9989 124.45 39.5295L124.576 39.3271L126.031 37.0094C126.052 37.0094 126.07 37.0094 126.078 37.0094C126.087 37.0094 126.099 37.0152 126.108 37.024L126.093 37.5404C126.093 38.1242 126.149 38.708 126.266 39.2948C126.422 40.4331 126.894 41.4188 127.674 42.252C127.977 42.5454 128.302 42.7742 128.654 42.9414C129.003 43.1087 129.376 43.1908 129.775 43.1908C129.983 43.1908 130.191 43.1703 130.4 43.1292C131.195 42.9414 131.826 42.5249 132.295 41.8765C133.14 40.7587 133.87 39.5735 134.492 38.3296C134.504 40.4536 134.58 42.3312 134.724 43.9272C134.777 44.7633 134.912 45.5818 135.129 46.3857C135.223 46.7612 135.405 47.0956 135.678 47.3861C135.824 47.5328 135.992 47.6061 136.179 47.6061C136.273 47.6061 136.367 47.5915 136.461 47.5592C136.743 47.4448 136.889 47.2365 136.898 46.9343V46.8727C136.898 46.7055 136.86 46.55 136.787 46.4033C136.631 45.9221 136.517 45.4322 136.443 44.9335C136.256 43.4314 136.147 41.9176 136.115 40.3949C136.094 39.7172 136.082 39.0337 136.082 38.3442C136.082 36.3728 136.162 34.3983 136.317 32.4268C136.505 30.1209 136.781 27.8208 137.147 25.5237C137.23 25.0866 137.326 24.6465 137.429 24.2094C137.535 23.8339 137.623 23.4525 137.696 23.0682L137.725 22.8012C137.731 22.4521 137.576 22.2115 137.262 22.0765ZM125.38 35.1318C124.785 35.9972 124.215 36.8862 123.676 37.7927C123.3 38.3971 122.919 38.9985 122.531 39.594L122.376 39.7671C122.429 39.2038 122.529 38.6963 122.672 38.2474C122.995 37.1091 123.558 36.1234 124.362 35.2902C124.559 35.0614 124.805 34.8883 125.098 34.7739C125.14 34.7533 125.184 34.7416 125.225 34.7416C125.266 34.7416 125.307 34.768 125.351 34.8208C125.36 34.8325 125.371 34.8472 125.38 34.8677C125.412 34.9088 125.427 34.9558 125.427 35.0086C125.427 35.0379 125.412 35.079 125.38 35.1318Z" fill="white"/>
<path d="M165.47 34.8648C165.364 34.812 165.262 34.7856 165.156 34.7856C164.907 34.7856 164.675 34.9264 164.467 35.2081C164.267 35.478 164.1 35.7655 163.965 36.0677C163.933 36.1205 163.906 36.1762 163.886 36.2407C163.457 37.2236 162.862 38.3443 162.102 39.6058C161.788 40.2101 161.377 40.7529 160.864 41.234C160.582 41.4746 160.292 41.5949 159.987 41.5949C159.693 41.5949 159.409 41.4863 159.124 41.2663C158.769 40.9641 158.508 40.5974 158.344 40.172C158.03 39.3388 157.874 38.488 157.874 37.6196C157.874 37.0446 157.927 36.4725 158.03 35.8975C158.083 35.6041 158.144 35.3078 158.218 35.0056C158.291 34.6917 158.359 34.3749 158.42 34.0522L158.435 33.926C158.435 33.7588 158.385 33.6004 158.285 33.4478C158.185 33.2982 158.059 33.1808 157.904 33.0958C157.789 33.0341 157.675 33.0019 157.561 33.0019C157.34 33.0019 157.126 33.1016 156.918 33.2982C156.833 33.3715 156.751 33.4654 156.669 33.5798C156.625 33.662 156.581 33.706 156.528 33.706C156.484 33.706 156.434 33.6737 156.369 33.6121C156.088 33.3715 155.771 33.2512 155.416 33.2512L155.214 33.2659C154.462 33.3803 153.761 33.7969 153.116 34.5186C152.987 34.6624 152.884 34.8384 152.764 34.9939C151.781 35.434 150.857 35.9767 150 36.6339C149.226 37.1972 148.46 37.8015 147.697 38.4499L147.542 38.576C147.521 38.4499 147.504 37.9541 147.495 37.0886C147.495 35.7625 147.533 34.7005 147.606 33.8967C147.606 33.6268 147.492 33.4155 147.263 33.2688C147.149 33.2072 147.034 33.175 146.92 33.175C146.533 33.175 146.183 33.5035 145.872 34.1607L144.385 37.071C144.021 37.822 143.546 38.4997 142.962 39.107C142.722 39.3769 142.428 39.5764 142.085 39.7026C142.012 39.7231 141.944 39.7349 141.883 39.7349C141.621 39.7349 141.463 39.3975 141.413 38.7168L141.398 38.2621C141.398 37.3644 141.577 36.2583 141.932 34.944L141.994 34.7093C142.079 34.2927 142.249 33.9055 142.51 33.5505C142.616 33.4243 142.669 33.2835 142.669 33.128C142.669 32.9403 142.598 32.7672 142.458 32.6117C142.317 32.4562 142.144 32.377 141.935 32.377C141.809 32.377 141.683 32.4034 141.56 32.4562C141.29 32.6117 141.105 32.8376 141.011 33.128C140.53 34.2986 140.172 35.4985 139.932 36.7278C139.838 37.2177 139.791 37.7106 139.791 38.2005C139.791 39.5354 140.111 40.4507 140.744 40.9406C141.067 41.2017 141.448 41.3308 141.888 41.3308C142.085 41.3308 142.284 41.3044 142.484 41.2516C143.068 41.0844 143.569 40.7822 143.986 40.3451C144.725 39.6351 145.274 38.8958 145.629 38.1213C145.735 37.8925 145.808 37.778 145.849 37.778C145.902 37.8103 145.928 38.0245 145.928 38.4205C145.949 38.5672 145.96 38.7755 145.96 39.0454V39.2478L145.975 39.685C145.975 39.9344 145.89 40.128 145.726 40.2629C143.094 42.8094 141.076 45.7784 139.668 49.1698C139.095 50.5164 138.805 51.8572 138.805 53.192L138.823 53.7084C138.852 54.5122 139.098 55.2427 139.559 55.8999C140.131 56.7037 140.867 57.1056 141.765 57.1056C141.921 57.1056 142.085 57.091 142.252 57.0587C142.95 56.912 143.54 56.5834 144.021 56.073C145.377 54.7176 146.354 53.1363 146.949 51.3291C147.439 49.6275 147.685 47.8995 147.685 46.1481L147.703 44.91C147.703 44.555 147.677 43.229 147.624 40.9348C147.624 40.8291 147.63 40.7529 147.639 40.7001C147.65 40.6473 147.68 40.6003 147.732 40.5592C148.862 39.509 150.076 38.579 151.338 37.7076C151.097 38.4469 150.974 39.1422 150.974 39.7935C150.974 40.2424 151.042 40.6385 151.177 40.9817C151.447 41.5039 151.813 41.765 152.271 41.765C152.491 41.765 152.72 41.7034 152.96 41.5773C153.263 41.3895 153.521 41.1548 153.729 40.8732C154.063 40.4448 154.366 39.996 154.636 39.5266L154.762 39.3241L156.217 37.0065C156.237 37.0065 156.255 37.0065 156.264 37.0065C156.273 37.0065 156.284 37.0123 156.293 37.0211L156.278 37.5375C156.278 38.1213 156.334 38.7051 156.452 39.2919C156.607 40.4302 157.079 41.4159 157.86 42.2491C158.162 42.5425 158.488 42.7713 158.84 42.9385C159.189 43.1057 159.561 43.1879 159.96 43.1879C160.169 43.1879 160.377 43.1674 160.585 43.1263C161.38 42.9385 162.011 42.5219 162.48 41.8736C163.358 40.7147 164.115 39.4884 164.751 38.1946C164.763 38.1624 164.778 38.133 164.798 38.1007C164.827 38.0479 164.86 37.9922 164.892 37.9277C165.32 37.1033 165.611 36.4285 165.769 35.9092C165.831 35.7537 165.863 35.6129 165.863 35.4868C165.848 35.211 165.722 34.9998 165.47 34.8648ZM146.078 45.62C146.078 47.4154 145.899 49.0231 145.544 50.4401C145.083 52.0684 144.271 53.4971 143.103 54.7293C142.622 55.2398 142.173 55.495 141.756 55.495C141.307 55.495 140.944 55.2251 140.662 54.6824C140.483 54.2335 140.395 53.77 140.395 53.2888C140.457 51.91 140.735 50.6543 141.225 49.516C142.372 46.8756 143.913 44.5051 145.843 42.4104C145.884 42.3576 145.922 42.3019 145.955 42.2374L146.081 42.2843V45.62H146.078ZM155.548 35.1318C154.952 35.9972 154.383 36.8862 153.843 37.7927C153.468 38.3971 153.087 38.9985 152.699 39.594L152.544 39.7671C152.597 39.2038 152.696 38.6963 152.84 38.2474C153.081 37.3996 153.456 36.6368 153.964 35.9562C154.002 35.9122 154.046 35.8682 154.072 35.8271C154.216 35.6423 154.366 35.4604 154.53 35.2902C154.727 35.0614 154.973 34.8883 155.266 34.7739C155.307 34.7533 155.351 34.7416 155.392 34.7416C155.434 34.7416 155.475 34.768 155.519 34.8208C155.527 34.8325 155.539 34.8472 155.548 34.8677C155.58 34.9088 155.595 34.9558 155.595 35.0086C155.595 35.0379 155.58 35.079 155.548 35.1318Z" fill="white"/>
<path d="M213.921 19.4772C213.836 19.445 213.754 19.4303 213.669 19.4303C213.387 19.4303 213.152 19.6093 212.965 19.9613L212.824 20.3691C212.416 21.8301 212.108 23.3117 211.9 24.8137C211.41 28.4663 211.157 31.9017 211.149 35.1142C211.149 37.5052 211.228 39.5764 211.383 41.3279C211.436 42.164 211.571 42.9825 211.788 43.7864C211.882 44.1619 212.064 44.4963 212.337 44.7868C212.483 44.9335 212.651 45.0068 212.838 45.0068C212.932 45.0068 213.026 44.9922 213.12 44.9599C213.402 44.8455 213.548 44.6372 213.557 44.335V44.2734C213.557 44.1062 213.519 43.9507 213.446 43.804C213.29 43.3228 213.176 42.8329 213.102 42.3342C212.915 40.8321 212.806 39.3183 212.774 37.7956C212.753 37.1179 212.742 36.4344 212.742 35.7449C212.742 33.7734 212.821 31.799 212.976 29.8275C213.164 27.5216 213.44 25.2215 213.807 22.9244C213.889 22.4873 213.986 22.0472 214.088 21.6101C214.194 21.2346 214.282 20.8532 214.355 20.4688L214.385 20.2019C214.39 19.8528 214.235 19.6151 213.921 19.4772Z" fill="white"/>
<path d="M257.581 31.9692C257.476 31.9164 257.367 31.89 257.253 31.89C257 31.89 256.783 32.0924 256.595 32.5002C256.417 32.7496 256.261 33.0283 256.126 33.3305C255.522 34.4688 254.812 35.5836 253.996 36.6808C253.726 37.0886 253.365 37.3849 252.917 37.5727C252.738 37.646 252.562 37.6812 252.386 37.6812C252.157 37.6812 251.931 37.602 251.714 37.4465C251.412 37.206 251.159 36.9243 250.963 36.6016C250.608 35.9855 250.332 35.3401 250.132 34.6594C250.112 34.5861 250.085 34.5098 250.053 34.4247C250.033 34.3837 250.015 34.3367 250.006 34.2839C249.912 33.97 249.78 33.6678 249.616 33.3774C249.323 32.9491 248.968 32.7349 248.551 32.7349C248.311 32.7349 248.07 32.8082 247.832 32.9549C247.457 33.2043 247.143 33.5182 246.894 33.8937C246.122 34.9382 245.471 36.0501 244.937 37.2294C244.925 37.25 244.922 37.2676 244.922 37.2764C244.893 37.3702 244.834 37.4553 244.749 37.5257C244.664 37.3262 244.614 37.1297 244.593 36.9302C244.415 35.7625 244.326 34.589 244.326 33.4097V32.8464C244.326 32.3975 244.285 31.9428 244.2 31.4851C243.98 30.7663 243.602 30.4055 243.059 30.4055C242.798 30.4055 242.516 30.4994 242.214 30.6871C241.745 31.0099 241.358 31.4118 241.055 31.8929C240.284 33.04 239.662 34.2722 239.192 35.5865C239.025 36.0471 238.87 36.5165 238.723 36.9947C238.638 37.2881 238.55 37.5727 238.456 37.8572C238.456 36.0735 238.57 34.2869 238.799 32.5031V32.4562C238.811 32.4239 238.82 32.3917 238.829 32.3535C238.84 32.3154 238.861 32.289 238.89 32.2684C239.119 32.1012 239.233 31.9046 239.233 31.6729C239.233 31.5174 239.204 31.356 239.14 31.1859C239.055 30.8309 238.846 30.6226 238.512 30.561H238.403C238.245 30.561 238.11 30.6021 237.995 30.6871C237.881 30.7722 237.781 30.8808 237.699 31.0157C237.573 31.2358 237.497 31.4734 237.464 31.7345C237.412 31.9721 237.373 32.2068 237.327 32.4445C237.315 32.4503 237.303 32.4474 237.291 32.4533C237.271 32.465 237.256 32.4738 237.244 32.4855C236.942 32.6645 236.617 32.7877 236.273 32.8611C235.868 32.9344 235.469 32.9696 235.085 32.9696C234.052 32.9696 233.049 32.7554 232.081 32.3271C231.967 32.2743 231.899 32.1922 231.879 32.0777C231.764 31.6611 231.585 31.2739 231.348 30.9189C230.887 30.2001 230.236 29.8129 229.391 29.7601H229.344C228.675 29.7601 228.332 30.0945 228.311 30.7634L228.326 30.9512C228.326 30.9717 228.32 30.9893 228.311 31.0069C228.299 31.0216 228.282 31.0304 228.249 31.0304C227.98 31.0832 227.774 31.1976 227.639 31.3736C227.504 31.5497 227.387 31.7492 227.296 31.9692C227.226 32.1217 227.173 32.2802 227.108 32.4357C227.082 32.4474 227.055 32.4415 227.029 32.4562C227.009 32.4679 226.994 32.4767 226.982 32.4885C226.68 32.6674 226.354 32.7906 226.011 32.864C225.606 32.9373 225.207 32.9725 224.823 32.9725C223.79 32.9725 222.787 32.7584 221.819 32.33C221.704 32.2772 221.637 32.1951 221.616 32.0807C221.502 31.6641 221.323 31.2768 221.085 30.9218C220.625 30.2031 219.973 29.8158 219.128 29.763H219.081C218.413 29.763 218.069 30.0975 218.049 30.7664L218.063 30.9541C218.063 30.9746 218.058 30.9922 218.049 31.0099C218.037 31.0245 218.019 31.0333 217.987 31.0333C217.717 31.0861 217.512 31.2005 217.377 31.3766C217.242 31.5526 217.125 31.7521 217.034 31.9721C216.283 33.5886 215.907 35.2755 215.907 37.027C215.907 37.3086 215.919 37.5903 215.939 37.8719C215.96 38.6963 216.174 39.4796 216.582 40.2189C216.999 40.8878 217.579 41.2193 218.319 41.2193L218.568 41.2047C219.445 41.0903 220.076 40.6355 220.463 39.8434C221.079 38.7256 221.481 37.5463 221.669 36.3053C221.751 35.7303 221.804 35.1523 221.825 34.5685L221.854 34.0668L222.168 34.1607C223.033 34.4218 223.91 34.5509 224.796 34.5509C225.327 34.5509 225.867 34.4981 226.41 34.3954C226.433 34.3925 226.454 34.3778 226.477 34.3749C226.278 35.2403 226.175 36.1234 226.175 37.0241C226.175 37.3057 226.187 37.5873 226.208 37.869C226.228 38.6934 226.442 39.4767 226.85 40.216C227.267 40.8849 227.848 41.2164 228.587 41.2164L228.836 41.2017C229.713 41.0873 230.344 40.6326 230.731 39.8405C231.348 38.7227 231.749 37.5433 231.937 36.3024C232.019 35.7273 232.072 35.1494 232.093 34.5656L232.122 34.0639L232.436 34.1578C233.301 34.4189 234.179 34.548 235.065 34.548C235.596 34.548 236.135 34.4952 236.678 34.3925C236.81 34.3719 236.922 34.3133 237.048 34.2781C236.922 35.3195 236.851 36.364 236.851 37.4142C236.851 38.1565 236.884 38.9017 236.945 39.6527C236.977 40.2483 237.133 40.7998 237.415 41.3132C237.664 41.6359 237.946 41.7973 238.259 41.7973C238.553 41.7973 238.82 41.6623 239.057 41.3895C239.204 41.2017 239.313 40.9876 239.386 40.747C239.542 40.2776 239.674 39.8023 239.776 39.3212C240.196 37.3174 240.888 35.4134 241.859 33.6062C242.079 33.1779 242.361 32.7877 242.704 32.4327C242.725 32.6322 242.733 32.8346 242.733 33.0429C242.733 34.325 242.813 35.6041 242.968 36.8774C243.03 37.5463 243.229 38.1682 243.564 38.7403C243.907 39.2009 244.294 39.4297 244.723 39.4297C245.13 39.4297 245.506 39.2332 245.849 38.8342C245.996 38.6582 246.113 38.4587 246.21 38.2386C246.679 37.1942 247.237 36.1938 247.885 35.2315C247.914 35.1787 247.953 35.1259 247.994 35.076C248.099 34.8971 248.24 34.7269 248.416 34.5597L248.542 34.9206C248.73 35.4956 248.944 36.0647 249.185 36.628C249.508 37.3908 249.983 38.0479 250.608 38.5995C251.162 39.0484 251.752 39.2743 252.377 39.2743C252.741 39.2743 253.113 39.2009 253.489 39.0542C254.292 38.711 254.938 38.177 255.431 37.4583C255.795 36.936 256.135 36.408 256.446 35.877C257.021 34.947 257.505 33.9788 257.904 32.9667C257.945 32.8317 257.966 32.7114 257.966 32.6058C257.957 32.33 257.834 32.1159 257.581 31.9692ZM220.214 34.3338C220.214 35.8799 219.885 37.3497 219.228 38.7491C219.134 38.9779 219.008 39.1833 218.853 39.3593C218.685 39.5383 218.518 39.6263 218.351 39.6263C218.131 39.6263 217.955 39.4796 217.82 39.1892C217.612 38.6376 217.506 38.0685 217.506 37.4817V37.1678C217.506 35.7273 217.735 34.3133 218.195 32.9256C218.237 32.82 218.292 32.7408 218.36 32.6821C218.427 32.6234 218.498 32.5706 218.571 32.5178C218.685 32.4562 218.779 32.377 218.853 32.2831L218.9 32.2508C218.908 32.2508 218.923 32.2596 218.938 32.2743C218.952 32.289 218.967 32.3036 218.976 32.3124L218.991 32.3271C219.346 32.641 219.709 32.9315 220.085 33.2043C220.138 33.2366 220.17 33.2747 220.188 33.3217C220.202 33.3686 220.211 33.4185 220.211 33.4713V34.3338H220.214ZM230.482 34.3338C230.482 35.8799 230.154 37.3497 229.496 38.7491C229.402 38.9779 229.276 39.1833 229.121 39.3593C228.954 39.5383 228.786 39.6263 228.619 39.6263C228.399 39.6263 228.223 39.4796 228.088 39.1892C227.88 38.6376 227.774 38.0685 227.774 37.4817V37.1678C227.774 35.7273 228.003 34.3133 228.464 32.9256C228.505 32.82 228.56 32.7408 228.628 32.6821C228.695 32.6234 228.766 32.5706 228.839 32.5178C228.954 32.4562 229.047 32.377 229.121 32.2831L229.168 32.2508C229.177 32.2508 229.191 32.2596 229.206 32.2743C229.221 32.289 229.235 32.3036 229.244 32.3124L229.259 32.3271C229.614 32.641 229.977 32.9315 230.353 33.2043C230.406 33.2366 230.438 33.2747 230.456 33.3217C230.47 33.3686 230.479 33.4185 230.479 33.4713V34.3338H230.482Z" fill="white"/>
<path d="M260.175 24.4382C260.081 24.3913 259.987 24.3678 259.893 24.3678C259.714 24.3678 259.55 24.447 259.4 24.6084C259.054 24.9927 258.758 25.4063 258.514 25.8493C258.429 26.0107 258.388 26.1603 258.388 26.3011C258.388 26.527 258.488 26.7089 258.684 26.8498C258.799 26.926 258.916 26.9612 259.036 26.9612C259.271 26.9612 259.485 26.838 259.685 26.5945C259.694 26.5769 259.702 26.5623 259.714 26.5505C259.723 26.5241 259.738 26.4977 259.755 26.4801L260.433 25.465C260.527 25.333 260.574 25.1922 260.574 25.0426C260.568 24.7727 260.436 24.5702 260.175 24.4382Z" fill="white"/>
<path d="M271.995 33.3568C271.845 33.1603 271.657 33.0605 271.432 33.0605C271.338 33.0605 271.241 33.0781 271.135 33.1163C270.93 33.2014 270.73 33.3128 270.546 33.4537C269.727 34.0844 268.996 34.7973 268.348 35.5953C267.371 36.7512 266.462 37.9482 265.614 39.1892C265.558 39.2742 265.505 39.3153 265.458 39.3153C265.411 39.3153 265.359 39.286 265.303 39.2302C264.919 38.8723 264.52 38.5349 264.106 38.2152C263.308 37.5404 262.909 36.7923 262.909 35.9738V35.8476C262.918 34.9176 263.059 34.1196 263.331 33.4537C263.549 32.8728 263.88 32.3594 264.332 31.9193L264.361 31.8929C264.37 31.8753 264.385 31.8577 264.402 31.843C264.42 31.8284 264.446 31.8225 264.473 31.8225H264.502C264.528 31.8489 264.543 31.8841 264.543 31.9222V32.022C264.534 32.4738 264.434 32.8992 264.247 33.304C264.173 33.4742 264.121 33.6473 264.094 33.8263V33.9113C264.094 34.2135 264.253 34.4247 264.572 34.545L264.743 34.5714C264.968 34.5714 265.156 34.4394 265.306 34.1783L265.335 34.0932C265.543 33.662 265.702 33.2014 265.816 32.7114C265.872 32.4474 265.901 32.1892 265.901 31.9369C265.901 31.6171 265.834 31.3091 265.705 31.0069C265.441 30.5199 265.086 30.2735 264.634 30.2735C264.464 30.2735 264.291 30.3116 264.112 30.3879C263.548 30.6402 263.094 31.0362 262.745 31.5702C262.079 32.5266 261.674 33.5945 261.533 34.768C261.486 35.079 261.463 35.3841 261.463 35.6833C261.463 36.4256 261.609 37.1121 261.906 37.7399C262.202 38.3677 262.677 38.9339 263.334 39.4297C263.739 39.7407 264.129 40.0722 264.505 40.4301C264.59 40.5064 264.631 40.5856 264.631 40.6707C264.631 40.7265 264.613 40.7939 264.575 40.8673C264.153 41.5714 263.851 42.3283 263.675 43.1351C263.637 43.361 263.619 43.5751 263.619 43.7834C263.619 44.0944 263.666 44.3907 263.76 44.6724C263.854 44.954 264.009 45.221 264.226 45.4762C264.534 45.8048 264.877 45.9691 265.253 45.9691C265.573 45.9691 265.887 45.8429 266.198 45.5877C266.45 45.3618 266.647 45.089 266.787 44.7692C267.04 44.1678 267.169 43.5751 267.169 42.9943C267.169 42.252 266.966 41.5186 266.564 40.7969C266.517 40.7118 266.494 40.6267 266.494 40.5446C266.494 40.4712 266.52 40.3891 266.579 40.304C267.18 39.4297 267.811 38.576 268.468 37.7399C269.237 36.6955 270.103 35.7449 271.059 34.8795C271.191 34.7651 271.323 34.6594 271.452 34.5568C271.575 34.4541 271.701 34.3455 271.833 34.234C272.012 34.0639 272.1 33.8849 272.1 33.6972C272.095 33.5827 272.059 33.4713 271.995 33.3568ZM265.388 44.332C265.388 44.3408 265.382 44.3497 265.373 44.3614C265.364 44.379 265.35 44.3995 265.329 44.4171C265.312 44.4347 265.288 44.4435 265.259 44.4435C265.23 44.4435 265.212 44.4347 265.203 44.4171C265.194 44.3995 265.186 44.379 265.174 44.3614C265.174 44.3438 265.168 44.3291 265.162 44.3174C265.086 44.1384 265.048 43.9595 265.048 43.7805L265.077 43.4695C265.162 43.0001 265.326 42.5219 265.57 42.032C265.675 42.3694 265.725 42.6979 265.725 43.0177C265.725 43.4725 265.611 43.9096 265.388 44.332Z" fill="white"/>
<path d="M115.388 12.1516C115.414 12.1634 115.35 12.2807 115.267 12.4274C114.965 12.9731 114.66 13.5188 114.367 14.0703C108.752 24.6377 103.128 35.1993 97.5123 45.7667C96.6087 47.4682 95.7022 49.1669 94.646 50.7746C94.0211 51.7339 93.2173 52.7373 92.0878 52.884C91.0199 53.016 89.9931 52.3119 89.4357 51.3936C88.8871 50.4724 88.6318 49.3899 88.6084 48.3161C88.4382 40.6913 88.6582 34.3045 89.3799 25.911C84.1021 38.1008 81.5673 51.0592 78.9387 64.0851C78.704 64.132 79.1558 60.6203 79.1851 60.412C79.631 57.4665 80.2002 54.5357 80.8016 51.6195C81.849 46.5353 82.8934 41.5098 84.2371 36.4989C85.302 32.5325 86.5723 28.5367 87.9893 24.6788C88.2358 24.0099 88.4822 23.3439 88.755 22.6868C89.1218 21.8037 89.4738 20.903 89.9051 20.0464C90.1633 19.533 90.7089 18.6499 91.372 19.1663C91.8296 19.5242 91.7533 20.243 91.7357 20.7534C91.7093 21.5074 91.7005 22.2614 91.6741 23.0154C91.6155 24.7756 91.5098 26.5329 91.3837 28.2873C91.1343 31.8049 90.8087 35.3137 90.6385 38.8371C90.5886 39.8962 90.5505 40.9524 90.5358 42.0115C90.4977 44.4729 90.5681 46.9402 90.8175 49.3899C90.8791 50.0382 91.0258 50.7805 91.5979 51.0826C92.5337 51.5696 93.4696 50.4636 93.9566 49.5366C100.578 36.7864 107.745 24.3179 115.388 12.1516Z" fill="white"/>
<path d="M35.7802 34.0375C36.8481 31.5233 37.8426 28.9797 38.6582 26.3217C39.7114 22.8863 40.4448 19.2367 40.3216 15.5196C40.1779 11.248 37.9189 7.33441 34.1402 7.33441C28.0233 7.33441 24.0862 17.3239 22.0824 21.8037C18.6705 29.4286 16.1269 37.4025 13.8151 45.4176C9.91613 58.9393 8.64581 68.7879 6.18439 83.3804C9.97774 79.2497 15.5167 77.1579 20.5921 75.0632C25.7731 72.9245 31.1976 71.4605 36.4461 69.5067C44.869 66.3734 51.5169 59.5671 53.6702 50.7013C55.0286 45.1095 54.166 36.7776 49.1992 33.0342C47.2952 31.5966 44.9423 31.3238 42.6393 31.6993C41.4189 31.8988 40.2307 32.2626 39.0689 32.6821C38.5232 32.8787 35.9973 33.5241 35.7802 34.0375Z" fill="#EEC6D4"/>
<path d="M57.0059 18.0016C57.0411 18.0162 56.9531 18.1746 56.8446 18.3712C56.4397 19.0988 56.0319 19.8264 55.6417 20.5627C48.143 34.6712 40.6385 48.7679 33.1398 62.8764C31.934 65.1471 30.7253 67.4178 29.3112 69.5624C28.4751 70.8415 27.4013 72.1822 25.8963 72.3788C24.4734 72.5548 23.1004 71.616 22.3582 70.3868C21.6248 69.1575 21.2874 67.7112 21.2551 66.2795C21.0263 56.0994 21.3197 47.5739 22.2849 36.3698C15.238 52.6405 11.8553 69.9408 8.34657 87.3263C8.03266 87.3879 8.63408 82.7027 8.67808 82.424C9.27364 78.4898 10.0335 74.5821 10.8373 70.686C12.2367 63.8973 13.6273 57.1937 15.4228 50.5018C16.8427 45.2063 18.5385 39.8727 20.4307 34.7211C20.7593 33.8292 21.0879 32.9403 21.4546 32.0631C21.9445 30.8837 22.4139 29.6809 22.989 28.5396C23.3322 27.8561 24.0627 26.6767 24.9458 27.3632C25.5589 27.8385 25.4533 28.8007 25.4328 29.4814C25.4005 30.4876 25.3858 31.4939 25.3536 32.5002C25.2744 34.8501 25.1335 37.1942 24.9663 39.5412C24.6319 44.2352 24.1977 48.9234 23.9718 53.6233C23.9043 55.0344 23.8544 56.4485 23.8339 57.8626C23.784 61.1484 23.875 64.44 24.2094 67.7112C24.2916 68.5767 24.4881 69.5683 25.2509 69.9702C26.5007 70.6215 27.7475 69.1458 28.3988 67.9078C37.2382 50.8861 46.8023 34.2429 57.0059 18.0016Z" fill="white"/>
<path d="M35.7566 31.7961C35.9033 31.7198 35.698 31.9428 35.7566 31.7961Z" fill="white"/>
<path d="M56.3604 31.5291C54.6383 29.7923 52.0302 28.7743 48.982 28.5983C48.8794 28.5836 48.7913 28.5836 48.7033 28.5836C48.6153 28.569 48.5273 28.569 48.4246 28.569H48.011C47.8056 28.569 47.5826 28.569 47.3773 28.5836C46.9049 28.5983 46.4355 28.6276 45.9192 28.6863C45.8312 28.701 45.7138 28.7156 45.6111 28.7156C45.5085 28.7303 45.3911 28.745 45.2884 28.7743C43.7277 28.9797 42.0789 29.364 40.3685 29.9244L39.3388 30.2471L39.7671 29.276C40.7382 27.0669 41.6212 24.8578 42.3869 22.7073C43.2113 20.4542 43.8744 18.2891 44.42 16.2853C45.1857 13.4132 45.6581 10.321 45.6581 7.27279C45.6434 4.88764 45.4967 1.6165 43.0206 0.36672C42.5483 0.132019 42.0056 0 41.4305 0H41.2692C39.4737 0.073344 37.558 1.28205 36.0852 2.32647C34.8178 3.20953 33.6121 4.25689 32.4914 5.41866C32.019 5.92033 31.5496 6.41907 31.1213 6.93541C27.6419 11.1336 25.198 15.3318 22.7249 20.1461C22.4902 20.6038 21.9152 22.1059 22.8276 22.2379C23.0183 22.2672 23.2089 22.1792 23.3732 22.0472C23.8456 21.6482 24.0069 20.9881 24.1683 20.3838C24.714 18.2773 25.5677 16.2442 26.5974 14.3608C28.1289 11.5766 30.0299 9.07412 32.2831 6.77699C34.0932 4.95219 36.3463 2.90442 38.9104 2.24139C43.7541 0.944671 43.5634 6.96768 43.1086 9.95718C42.7566 12.2396 42.1669 14.4928 41.5332 16.7019C40.1485 21.5778 38.2357 27.0845 35.7596 31.7961C35.9063 31.7227 35.7009 31.9428 35.7596 31.7961C35.5102 31.9428 34.5069 32.4738 34.2428 32.6205C33.7118 32.9285 33.1837 33.2542 32.6527 33.5916C31.1976 34.5656 29.7483 35.5836 28.5279 36.8539C27.4394 37.9893 26.0459 39.7026 26.6268 41.3836C26.8761 42.1053 27.4072 42.6657 28.1582 42.871C29.6456 43.2847 31.001 42.2814 31.9574 41.2663C34.1079 38.9985 35.7273 36.452 37.4641 33.8439C39.0249 33.1222 41.1606 32.1951 43.3844 31.6641C43.5018 31.6347 43.6191 31.6201 43.7218 31.5761C43.8392 31.5614 43.9418 31.5321 44.0592 31.5174C44.9569 31.3267 45.8693 31.2093 46.7993 31.18H47.3743C48.1694 31.18 48.9351 31.2533 49.6568 31.4C52.661 32.0044 57.8449 34.3309 58.772 43.0647C59.9367 54.0369 52.5583 68.0104 33.4419 74.4764C29.7747 75.7145 25.9461 76.5389 22.2496 77.3339C20.5392 77.7036 18.8259 78.0732 17.1243 78.484C16.8222 78.5573 16.52 78.6306 16.2207 78.7069C16.0359 78.7539 15.2673 78.8536 15.59 79.1998C15.766 79.3876 16.1298 79.2497 16.3351 79.1998C16.6667 79.1235 16.9952 79.0296 17.3268 78.9534C18.1717 78.7568 19.0225 78.5749 19.8733 78.4047C21.4311 78.0938 22.9948 77.8151 24.5614 77.5393C28.833 76.7882 32.8522 76.0812 36.3581 74.7698C43.2495 72.1793 48.8031 68.6001 52.881 64.1085C55.8412 60.8843 58.109 56.9795 59.4644 52.8429C60.4354 49.9267 60.9224 46.8786 60.9371 43.845C60.9547 38.7902 59.3793 34.5333 56.3604 31.5291ZM33.1368 37.4935C32.2097 38.7608 31.0597 40.2043 29.6896 41.014C29.3522 41.2193 28.9239 41.3367 28.5543 41.19C26.1544 40.2776 31.5878 36.0207 32.2948 35.5953C32.8845 35.2433 34.4159 34.2839 35.2256 33.9612C34.6535 35.1376 33.9318 36.3904 33.1368 37.4935Z" fill="white"/>
<path d="M12.976 79.8716C12.976 79.5225 12.5213 79.7308 12.3453 79.7836C12.1399 79.8482 11.9345 79.9127 11.7292 79.9802C11.3184 80.1122 10.9106 80.2501 10.5028 80.3909C9.6902 80.6755 8.88341 80.9806 8.08837 81.315C8.0737 81.3209 8.05609 81.3297 8.04143 81.3356C5.56827 82.3946 3.63785 83.574 2.22378 84.9441C2.1211 85.0174 2.03308 85.1201 1.94507 85.2081C1.84239 85.2961 1.75438 85.3988 1.66636 85.5015C1.12068 86.1059 0.665952 86.7249 0.296298 87.3879C0.0762661 87.8016 -0.0410843 88.2563 0.0175909 88.5526C0.0175909 88.582 0.0175909 88.6113 0.0322597 88.626C0.0762661 88.7433 0.120272 88.802 0.222954 88.8607C0.26696 88.8753 0.325636 88.89 0.369642 88.89C0.486993 88.89 0.841978 88.802 1.39939 88.0656C1.42873 88.0216 1.47274 87.9776 1.51674 87.9189C1.56075 87.8602 1.60476 87.8016 1.64876 87.7429C1.72211 87.6109 1.82479 87.5082 1.9128 87.3908C2.75479 86.2672 3.76694 85.258 4.85536 84.372C5.93499 83.4948 7.10849 82.7408 8.33774 82.0925C9.58752 81.4324 10.896 80.8838 12.2279 80.4114C12.3687 80.3616 12.5125 80.3117 12.6533 80.2647C12.7941 80.2178 12.9379 80.0916 12.9701 79.9332C12.9731 79.9098 12.976 79.8892 12.976 79.8716Z" fill="white"/>
<path d="M192.678 30.6549C192.772 30.6079 192.64 30.7517 192.678 30.6549Z" fill="white"/>
<path d="M205.959 30.4847C204.847 29.364 203.169 28.7098 201.203 28.5954C201.136 28.5866 201.08 28.5866 201.024 28.5866C200.968 28.5778 200.91 28.5778 200.845 28.5778H200.578C200.446 28.5778 200.302 28.5778 200.17 28.5866C199.865 28.5954 199.563 28.6159 199.232 28.654C199.176 28.6628 199.1 28.6716 199.032 28.6716C198.965 28.6804 198.888 28.6892 198.824 28.7098C197.818 28.8418 196.756 29.0882 195.652 29.4491L194.987 29.6574L195.262 29.0296C195.89 27.6067 196.459 26.1809 196.952 24.7961C197.483 23.3439 197.911 21.9475 198.264 20.6566C198.756 18.8054 199.062 16.8104 199.062 14.8478C199.053 13.3105 198.956 11.2011 197.363 10.3943C197.058 10.2418 196.709 10.1567 196.339 10.1567H196.233C195.075 10.2036 193.842 10.984 192.892 11.6558C192.076 12.225 191.296 12.8997 190.574 13.6508C190.269 13.9735 189.967 14.2962 189.691 14.6277C187.45 17.3327 185.874 20.0405 184.278 23.1444C184.126 23.4378 183.756 24.406 184.346 24.494C184.469 24.5116 184.592 24.4558 184.698 24.3707C185.003 24.1155 185.106 23.6872 185.211 23.297C185.563 21.9387 186.112 20.6302 186.778 19.4127C187.767 17.6172 188.99 16.0037 190.442 14.5221C191.61 13.3457 193.062 12.0255 194.714 11.5972C197.838 10.761 197.715 14.6453 197.419 16.5728C197.19 18.0456 196.811 19.4978 196.404 20.9206C195.512 24.0627 194.277 27.6126 192.684 30.6519C192.777 30.605 192.645 30.7458 192.684 30.6519C192.522 30.7458 191.877 31.0891 191.707 31.1829C191.363 31.3824 191.023 31.5907 190.68 31.8108C189.741 32.4386 188.805 33.0957 188.022 33.9143C187.321 34.6448 186.423 35.7508 186.798 36.8334C186.96 37.2998 187.303 37.6607 187.787 37.7927C188.746 38.0597 189.621 37.4142 190.237 36.7571C191.621 35.2961 192.666 33.6532 193.787 31.9721C194.793 31.5057 196.169 30.9101 197.603 30.5668C197.68 30.5492 197.756 30.5375 197.821 30.5111C197.897 30.5023 197.964 30.4818 198.038 30.473C198.616 30.3497 199.205 30.2735 199.804 30.2559H200.173C200.687 30.2559 201.18 30.3028 201.646 30.3996C203.582 30.7898 206.924 32.289 207.522 37.9189C208.274 44.9921 203.515 54.0017 191.193 58.1677C188.829 58.9656 186.361 59.4967 183.979 60.0101C182.876 60.2477 181.773 60.4853 180.676 60.7523C180.482 60.7992 180.285 60.8462 180.092 60.8961C179.974 60.9254 179.476 60.9899 179.684 61.2129C179.798 61.3332 180.03 61.2452 180.165 61.2129C180.379 61.163 180.591 61.1044 180.805 61.0545C181.35 60.9283 181.896 60.811 182.448 60.7024C183.451 60.5 184.46 60.321 185.469 60.145C188.221 59.6609 190.815 59.2062 193.074 58.3613C197.515 56.689 201.095 54.3831 203.726 51.4875C205.633 49.4075 207.097 46.8932 207.971 44.2235C208.599 42.343 208.91 40.3773 208.922 38.4235C208.922 35.1641 207.907 32.421 205.959 30.4847ZM190.988 34.3279C190.389 35.1435 189.65 36.0735 188.767 36.5957C188.55 36.7277 188.274 36.804 188.036 36.7101C186.49 36.1205 189.993 33.3774 190.448 33.1016C190.826 32.8728 191.815 32.2567 192.337 32.0484C191.965 32.8112 191.501 33.618 190.988 34.3279Z" fill="white"/>
<path d="M185.22 55.8617C185.229 55.8559 185.238 55.8471 185.246 55.8383C185.557 55.5361 185.414 54.477 185.387 54.0135C185.07 48.8354 185.32 43.5487 185.554 38.4557C185.663 36.1586 185.769 33.7823 185.827 31.4558C185.839 31.0157 185.813 29.9361 185.487 29.8041C185.314 29.7366 185.176 29.9068 185.062 30.1649C184.924 30.4788 184.956 31.5262 184.924 31.9487C184.868 32.6704 184.812 33.3921 184.754 34.1138C184.645 35.4897 184.539 36.8627 184.454 38.2416C184.275 41.1401 184.155 44.0475 184.061 46.9548C184.003 48.7298 183.97 50.5194 184.126 52.2855C184.196 53.0981 184.278 53.9167 184.437 54.7C184.525 55.1488 184.839 56.1727 185.22 55.8617Z" fill="white"/>
</g>
<defs>
<clipPath id="clip0_1_33">
<rect width="272.095" height="88.89" fill="white"/>
</clipPath>
</defs>
</svg>
