<svg width="341" height="82" viewBox="0 0 341 82" fill="none" xmlns="http://www.w3.org/2000/svg">
<g clip-path="url(#clip0_24_91)">
<path d="M29.8439 36.9174C30.7212 34.8544 31.5373 32.7689 32.2057 30.587C33.0701 27.7689 33.671 24.774 33.5682 21.7214C33.4493 18.2156 31.5952 15.0054 28.4975 15.0054C23.4782 15.0054 20.2488 23.2027 18.6035 26.8756C15.8015 33.132 13.716 39.6744 11.8201 46.249C8.62282 57.3415 7.57848 65.4231 5.56049 77.3962C8.67103 74.006 13.2179 72.2901 17.3825 70.571C21.6338 68.8165 26.0843 67.6147 30.3934 66.0112C37.3053 63.4405 42.7584 57.8557 44.5258 50.5806C45.6408 45.9919 44.9339 39.1571 40.8561 36.0851C39.2944 34.9058 37.3632 34.6841 35.4737 34.9893C34.4712 35.1532 33.4975 35.4521 32.5463 35.7959C32.0965 35.9662 30.0239 36.4964 29.8439 36.9174Z" fill="#EEC6D4"/>
<path d="M47.2603 23.7618C47.2893 23.7747 47.2186 23.9032 47.1286 24.0639C46.7976 24.6616 46.4634 25.2593 46.1421 25.8634C39.9917 37.4379 33.8317 49.0061 27.6813 60.5806C26.6916 62.4444 25.6986 64.3049 24.5418 66.0658C23.8574 67.1166 22.9769 68.2156 21.7398 68.3762C20.5701 68.5208 19.4454 67.7496 18.8349 66.7438C18.234 65.7348 17.9544 64.5491 17.9287 63.373C17.7423 55.0215 17.9834 48.026 18.7738 38.8325C12.993 52.1841 10.2166 66.3775 7.33747 80.6449C7.0804 80.6963 7.57525 76.8499 7.60739 76.6217C8.09582 73.3955 8.71921 70.1854 9.37795 66.9913C10.5251 61.4225 11.6691 55.918 13.1408 50.4296C14.3073 46.0851 15.6986 41.7085 17.2507 37.4829C17.5206 36.7503 17.7906 36.0208 18.0894 35.301C18.4911 34.3338 18.8767 33.3473 19.349 32.409C19.6318 31.8467 20.2295 30.8794 20.9557 31.445C21.457 31.837 21.3735 32.6243 21.3542 33.1834C21.3253 34.0093 21.3156 34.8351 21.2867 35.6609C21.2224 37.589 21.1067 39.5138 20.9686 41.4354C20.6954 45.2882 20.3388 49.1314 20.1524 52.9906C20.0977 54.1507 20.056 55.3075 20.0399 56.4675C19.9981 59.1635 20.0753 61.8659 20.3484 64.5491C20.4159 65.2593 20.5765 66.0722 21.2031 66.4032C22.2282 66.9366 23.2533 65.7252 23.7867 64.7098C31.0393 50.7413 38.8895 37.0845 47.2603 23.7618Z" fill="#070A08"/>
<path d="M29.8246 35.0793C29.9467 35.0183 29.7764 35.1982 29.8246 35.0793Z" fill="#070A08"/>
<path d="M46.7302 34.8608C45.3163 33.4341 43.1762 32.6018 40.6762 32.4572C40.5926 32.4444 40.5187 32.4444 40.448 32.4444C40.3741 32.4315 40.3034 32.4315 40.2199 32.4315H39.8825C39.7122 32.4315 39.5322 32.4315 39.3619 32.4444C38.9763 32.4572 38.5875 32.4797 38.1665 32.5279C38.0926 32.5408 37.9962 32.5536 37.9127 32.5536C37.8291 32.5665 37.7327 32.5793 37.646 32.6018C36.3638 32.7721 35.011 33.0838 33.61 33.5433L32.7649 33.81L33.1151 33.0131C33.912 31.2008 34.6383 29.3884 35.2649 27.6243C35.9429 25.7766 36.4859 23.9996 36.9326 22.3576C37.5624 20.0022 37.948 17.4636 37.948 14.9636C37.9352 13.0067 37.8163 10.3235 35.7854 9.29526C35.3998 9.10246 34.9532 8.9932 34.4808 8.9932H34.349C32.8741 9.05426 31.3028 10.044 30.0946 10.9019C29.0566 11.6282 28.0637 12.4861 27.1447 13.4405C26.7591 13.8518 26.3703 14.2631 26.02 14.6841C23.1697 18.1288 21.1614 21.5703 19.1338 25.5228C18.941 25.8987 18.4686 27.1294 19.2173 27.2387C19.3748 27.2644 19.5322 27.1905 19.664 27.0812C20.0496 26.7535 20.1845 26.2104 20.3163 25.7156C20.7629 23.9868 21.4634 22.319 22.3086 20.7734C23.565 18.4887 25.1235 16.4354 26.9712 14.5491C28.4589 13.0517 30.3066 11.3711 32.4082 10.828C36.3831 9.76441 36.2257 14.7066 35.8529 17.1584C35.5637 19.0318 35.0785 20.8794 34.5611 22.6918C33.4268 26.6924 31.8555 31.2104 29.8246 35.0761C29.9467 35.0151 29.7764 35.1982 29.8246 35.0761C29.619 35.1982 28.7964 35.632 28.5811 35.7541C28.1472 36.008 27.7102 36.2747 27.2764 36.551C26.0843 37.3512 24.8921 38.1866 23.8927 39.2278C22.9994 40.1597 21.8555 41.5671 22.3343 42.9424C22.5399 43.5337 22.9737 43.9932 23.5907 44.1635C24.8118 44.5009 25.9236 43.6815 26.7077 42.846C28.4718 40.9855 29.8021 38.8936 31.2257 36.7567C32.5078 36.1654 34.2591 35.4039 36.0843 34.9669C36.1807 34.9411 36.2771 34.9315 36.3638 34.8929C36.4602 34.8801 36.5438 34.8576 36.6402 34.8447C37.376 34.6873 38.128 34.5909 38.8863 34.5684H39.3587C40.011 34.5684 40.6408 34.6294 41.2321 34.7483C43.6967 35.2432 47.9512 37.1519 48.7128 44.3178C49.6672 53.3184 43.6132 64.7869 27.9287 70.0922C24.921 71.1076 21.7784 71.7824 18.7449 72.4347C17.3407 72.7368 15.9365 73.042 14.5419 73.3795C14.2944 73.4405 14.047 73.5016 13.7996 73.5626C13.6485 73.6012 13.0155 73.6815 13.2822 73.9675C13.4268 74.1217 13.7257 74.0093 13.896 73.9675C14.1691 73.9032 14.4358 73.8293 14.7089 73.7651C15.403 73.6044 16.1003 73.4566 16.7976 73.3152C18.0766 73.0581 19.3587 72.83 20.644 72.605C24.1466 71.9881 27.4467 71.4097 30.3227 70.3332C35.9782 68.2059 40.5316 65.2689 43.8799 61.5864C46.3092 58.9386 48.1697 55.7381 49.2816 52.3415C50.0785 49.9476 50.4769 47.4476 50.4898 44.9572C50.4994 40.8184 49.2077 37.3255 46.7302 34.8608ZM27.6749 39.7548C26.9133 40.7927 25.9718 41.9784 24.8471 42.6436C24.5708 42.8139 24.2173 42.9103 23.9152 42.7882C21.9455 42.0395 26.4056 38.5465 26.984 38.1963C27.466 37.9071 28.7224 37.1198 29.3876 36.8563C28.9185 37.8203 28.3272 38.8486 27.6749 39.7548Z" fill="#070A08"/>
<path d="M11.1325 74.5234C11.1325 74.2374 10.7597 74.4077 10.6151 74.4527C10.4448 74.5041 10.2777 74.5587 10.1074 74.6134C9.77 74.7226 9.43581 74.8351 9.10162 74.9508C8.43324 75.1854 7.77449 75.436 7.12218 75.7091C7.10933 75.7156 7.09647 75.7188 7.08362 75.7252C5.05277 76.596 3.4718 77.5632 2.31177 78.6847C2.22822 78.7458 2.15432 78.8293 2.08362 78.9032C2.00007 78.9771 1.92617 79.0607 1.85547 79.1442C1.40881 79.6391 1.03285 80.1468 0.730793 80.6899C0.550845 81.0273 0.454444 81.4032 0.502644 81.6442C0.502644 81.6699 0.502644 81.6924 0.515498 81.7053C0.550845 81.8017 0.589405 81.8499 0.672953 81.8981C0.7083 81.9109 0.7565 81.9238 0.795061 81.9238C0.891462 81.9238 1.18066 81.8499 1.64018 81.2458C1.66588 81.2104 1.70123 81.1719 1.73658 81.1237C1.77192 81.0755 1.81048 81.0273 1.84583 80.9791C1.90689 80.8698 1.99043 80.7863 2.06434 80.6899C2.75521 79.7676 3.58426 78.9386 4.47758 78.2123C5.36126 77.4926 6.32527 76.8724 7.33426 76.3422C8.35933 75.8023 9.43259 75.3492 10.5251 74.9636C10.6408 74.9219 10.7597 74.8833 10.8754 74.8415C10.9911 74.803 11.1068 74.7001 11.1357 74.5716C11.1325 74.5555 11.1325 74.5395 11.1325 74.5234Z" fill="#070A08"/>
</g>
<g clip-path="url(#clip1_24_91)">
<path d="M132.659 20.9371C133.564 20.9371 134.396 20.9839 135.154 21.0808C135.452 21.1175 135.749 21.1409 136.043 21.1509C136.567 21.1509 136.851 20.8837 136.898 20.3492C136.898 19.8248 136.393 19.4741 135.381 19.297C134.54 19.1768 133.688 19.12 132.833 19.12C131.537 19.12 129.776 19.2336 127.555 19.4574C127.495 19.4574 127.465 19.4173 127.465 19.3338C127.558 18.7292 127.672 18.1379 127.802 17.5701C127.886 17.236 127.963 16.8753 128.033 16.4845C128.033 16.1037 127.856 15.8598 127.498 15.7529C127.405 15.7162 127.308 15.6995 127.214 15.6995C126.977 15.6995 126.763 15.8131 126.573 16.0369C126.299 16.4043 126.008 17.4164 125.698 19.0665C125.651 19.267 125.608 19.4173 125.574 19.5108C125.541 19.6077 125.467 19.6711 125.36 19.7079C125.254 19.7446 124.886 19.8081 124.255 19.905C122.461 20.2023 120.721 20.6666 119.034 21.2945C118.737 21.378 118.476 21.5384 118.249 21.7755C118.119 21.9426 118.052 22.1263 118.052 22.3267C118.052 22.5037 118.105 22.6674 118.212 22.8077C118.389 23.0115 118.593 23.1117 118.817 23.1117C118.947 23.1117 119.084 23.0749 119.228 23.0048C119.538 22.8511 119.866 22.7242 120.21 22.6307C121.803 22.1664 123.423 21.829 125.076 21.6152C125.16 21.6152 125.2 21.6519 125.2 21.7221V21.8824C124.903 24.0436 124.686 26.1814 124.545 28.3025C124.472 28.3693 124.398 28.4194 124.328 28.513C124.101 28.8203 123.911 29.1476 123.757 29.4917C123.72 29.5518 123.69 29.6153 123.667 29.6888C123.179 30.8078 122.501 32.0838 121.636 33.5201C121.279 34.2082 120.811 34.8262 120.226 35.374C119.906 35.6479 119.575 35.7848 119.228 35.7848C118.894 35.7848 118.57 35.6612 118.246 35.4107C117.841 35.0667 117.544 34.6491 117.357 34.1648C117 33.2161 116.823 32.2474 116.823 31.2587C116.823 30.604 116.883 29.9526 117 29.2979C117.06 28.9639 117.13 28.6265 117.213 28.2825C117.297 27.9251 117.374 27.5643 117.444 27.1969L117.461 27.0532C117.461 26.8628 117.404 26.6825 117.29 26.5088C117.177 26.3384 117.033 26.2048 116.856 26.1079C116.726 26.0378 116.595 26.001 116.465 26.001C116.215 26.001 115.971 26.1146 115.734 26.3384C115.637 26.4219 115.543 26.5288 115.45 26.6591C115.4 26.7526 115.349 26.8027 115.289 26.8027C115.239 26.8027 115.182 26.766 115.109 26.6958C114.788 26.4219 114.428 26.285 114.023 26.285L113.793 26.3017C112.938 26.4319 112.139 26.9063 111.405 27.728C110.67 28.5464 110.072 29.5151 109.621 30.6341C109.17 31.7497 108.943 32.7852 108.943 33.7339C108.943 34.2449 109.02 34.6959 109.173 35.0867C109.481 35.6813 109.898 35.9786 110.419 35.9786C110.67 35.9786 110.93 35.9084 111.204 35.7648C111.548 35.551 111.842 35.2838 112.079 34.9631C112.46 34.4754 112.804 33.9644 113.111 33.4299L113.255 33.1994L114.912 30.5606C114.935 30.5606 114.955 30.5606 114.965 30.5606C114.975 30.5606 114.989 30.5673 114.999 30.5773L114.982 31.1652C114.982 31.8299 115.046 32.4946 115.179 33.1627C115.356 34.4587 115.894 35.5811 116.782 36.5297C117.127 36.8638 117.497 37.1243 117.898 37.3147C118.296 37.5051 118.72 37.5986 119.174 37.5986C119.411 37.5986 119.648 37.5752 119.886 37.5285C120.791 37.3147 121.509 36.8404 122.043 36.1022C122.935 34.923 123.7 33.6738 124.372 32.3744C124.362 32.9389 124.342 33.5067 124.342 34.0712C124.342 36.2324 124.432 38.3903 124.609 40.5414C124.659 41.5502 124.823 42.549 125.107 43.5344C125.213 43.9519 125.421 44.306 125.731 44.6033C125.908 44.7469 126.095 44.8171 126.286 44.8171C126.439 44.8171 126.583 44.7736 126.713 44.6935C126.964 44.5264 127.087 44.296 127.087 43.9987C127.064 43.7849 127.017 43.5811 126.947 43.3941C126.423 41.7673 126.162 38.5105 126.162 33.627C126.162 31.5727 126.262 29.3748 126.466 27.0332C126.586 25.3931 126.757 23.7597 126.984 22.133C127.017 21.8724 127.057 21.6854 127.101 21.5718C127.144 21.4582 127.221 21.3847 127.331 21.348C127.445 21.3112 127.632 21.2812 127.892 21.2578C128.687 21.1743 129.482 21.1008 130.271 21.034C131.069 20.9705 131.864 20.9371 132.659 20.9371ZM114.177 28.4228C113.499 29.4082 112.851 30.4203 112.236 31.4524C111.809 32.1405 111.374 32.8253 110.934 33.5034L110.757 33.7005C110.817 33.0591 110.93 32.4813 111.094 31.9702C111.461 30.6741 112.103 29.5518 113.018 28.6032C113.242 28.3426 113.522 28.1455 113.856 28.0153C113.903 27.9919 113.953 27.9785 114 27.9785C114.047 27.9785 114.094 28.0086 114.144 28.0687C114.154 28.0821 114.167 28.0988 114.177 28.1221C114.214 28.1689 114.23 28.2224 114.23 28.2825C114.23 28.3159 114.21 28.366 114.177 28.4228Z" fill="#070A08"/>
<path d="M146.972 13.5584C146.875 13.5216 146.782 13.5049 146.685 13.5049C146.364 13.5049 146.097 13.7087 145.883 14.1095L145.723 14.5738C145.259 16.2373 144.908 17.9242 144.671 19.6344C144.27 22.6307 144.013 25.49 143.896 28.229C143.796 28.3059 143.695 28.386 143.602 28.513C143.375 28.8203 143.184 29.1476 143.031 29.4917C142.994 29.5518 142.964 29.6153 142.94 29.6888C142.453 30.8078 141.775 32.0838 140.91 33.5201C140.552 34.2082 140.085 34.8262 139.5 35.374C139.179 35.6479 138.849 35.7848 138.501 35.7848C138.167 35.7848 137.843 35.6612 137.519 35.4107C137.115 35.0667 136.818 34.6491 136.631 34.1648C136.273 33.2161 136.096 32.2474 136.096 31.2587C136.096 30.604 136.156 29.9526 136.273 29.2979C136.333 28.9639 136.403 28.6265 136.487 28.2825C136.571 27.9251 136.647 27.5643 136.717 27.1969L136.734 27.0532C136.734 26.8628 136.677 26.6825 136.564 26.5088C136.45 26.3384 136.307 26.2048 136.13 26.1079C135.999 26.0378 135.869 26.001 135.739 26.001C135.488 26.001 135.244 26.1146 135.007 26.3384C134.91 26.4219 134.817 26.5288 134.723 26.6591C134.673 26.7526 134.623 26.8027 134.563 26.8027C134.513 26.8027 134.456 26.766 134.383 26.6958C134.062 26.4219 133.701 26.285 133.297 26.285L133.067 26.3017C132.211 26.4319 131.413 26.9063 130.678 27.728C129.943 28.5464 129.345 29.5151 128.894 30.6341C128.444 31.7497 128.216 32.7852 128.216 33.7339C128.216 34.2449 128.293 34.6959 128.447 35.0867C128.754 35.6813 129.172 35.9786 129.693 35.9786C129.943 35.9786 130.204 35.9084 130.478 35.7648C130.822 35.551 131.116 35.2838 131.353 34.9631C131.734 34.4754 132.078 33.9644 132.385 33.4299L132.529 33.1994L134.186 30.5606C134.209 30.5606 134.229 30.5606 134.239 30.5606C134.249 30.5606 134.262 30.5673 134.272 30.5773L134.256 31.1652C134.256 31.8299 134.319 32.4946 134.453 33.1627C134.63 34.4587 135.168 35.5811 136.056 36.5297C136.4 36.8638 136.771 37.1243 137.172 37.3147C137.569 37.5051 137.993 37.5986 138.448 37.5986C138.685 37.5986 138.922 37.5752 139.159 37.5285C140.064 37.3147 140.783 36.8404 141.317 36.1022C142.279 34.8295 143.111 33.48 143.819 32.0637C143.832 34.4821 143.919 36.6199 144.083 38.437C144.143 39.389 144.297 40.321 144.544 41.2362C144.651 41.6638 144.858 42.0446 145.168 42.3753C145.335 42.5423 145.526 42.6258 145.74 42.6258C145.847 42.6258 145.953 42.6091 146.06 42.5724C146.381 42.4421 146.548 42.2049 146.558 41.8609V41.7907C146.558 41.6003 146.515 41.4233 146.431 41.2563C146.254 40.7085 146.124 40.1506 146.04 39.5828C145.827 37.8725 145.703 36.1489 145.666 34.4153C145.643 33.6437 145.629 32.8654 145.629 32.0804C145.629 29.8357 145.72 27.5877 145.897 25.343C146.11 22.7175 146.424 20.0987 146.842 17.4832C146.936 16.9855 147.046 16.4845 147.163 15.9868C147.283 15.5592 147.383 15.125 147.467 14.6874L147.5 14.3834C147.507 13.9859 147.33 13.712 146.972 13.5584ZM133.444 28.4228C132.766 29.4082 132.118 30.4203 131.503 31.4524C131.076 32.1405 130.641 32.8253 130.201 33.5034L130.023 33.7005C130.084 33.0591 130.197 32.4813 130.361 31.9702C130.728 30.6741 131.37 29.5518 132.285 28.6032C132.509 28.3426 132.789 28.1455 133.123 28.0153C133.17 27.9919 133.22 27.9785 133.267 27.9785C133.314 27.9785 133.36 28.0086 133.411 28.0687C133.421 28.0821 133.434 28.0988 133.444 28.1221C133.481 28.1689 133.497 28.2224 133.497 28.2825C133.497 28.3159 133.481 28.366 133.444 28.4228Z" fill="#070A08"/>
<path d="M179.089 28.1221C178.969 28.062 178.852 28.032 178.732 28.032C178.448 28.032 178.184 28.1923 177.947 28.513C177.72 28.8203 177.529 29.1476 177.376 29.4917C177.339 29.5518 177.309 29.6153 177.286 29.6888C176.798 30.8078 176.12 32.0838 175.255 33.5201C174.897 34.2082 174.43 34.8262 173.845 35.374C173.524 35.6479 173.194 35.7848 172.846 35.7848C172.512 35.7848 172.188 35.6612 171.864 35.4107C171.46 35.0667 171.163 34.6491 170.976 34.1648C170.618 33.2161 170.441 32.2474 170.441 31.2587C170.441 30.604 170.501 29.9526 170.618 29.2979C170.679 28.9639 170.749 28.6265 170.832 28.2825C170.916 27.9251 170.992 27.5643 171.063 27.1969L171.079 27.0532C171.079 26.8628 171.023 26.6825 170.909 26.5088C170.795 26.3384 170.652 26.2048 170.475 26.1079C170.344 26.0378 170.214 26.001 170.084 26.001C169.833 26.001 169.59 26.1146 169.352 26.3384C169.256 26.4219 169.162 26.5288 169.068 26.6591C169.018 26.7526 168.968 26.8027 168.908 26.8027C168.858 26.8027 168.801 26.766 168.728 26.6958C168.407 26.4219 168.046 26.285 167.642 26.285L167.412 26.3017C166.557 26.4319 165.758 26.9063 165.023 27.728C164.876 27.8917 164.759 28.0921 164.623 28.2691C163.504 28.7702 162.451 29.3881 161.476 30.1364C160.594 30.7777 159.722 31.4658 158.854 32.204L158.677 32.3476C158.653 32.204 158.633 31.6395 158.623 30.6541C158.623 29.1443 158.667 27.9351 158.75 27.0198C158.75 26.7125 158.62 26.472 158.359 26.305C158.229 26.2349 158.099 26.1981 157.969 26.1981C157.528 26.1981 157.13 26.5722 156.776 27.3205L155.083 30.6341C154.668 31.4892 154.127 32.2608 153.463 32.9522C153.189 33.2596 152.855 33.4867 152.464 33.6303C152.38 33.6537 152.303 33.6671 152.233 33.6671C151.936 33.6671 151.756 33.2829 151.699 32.508L151.682 31.9902C151.682 30.9681 151.886 29.7088 152.29 28.2123L152.36 27.9451C152.457 27.4708 152.651 27.0299 152.948 26.6257C153.068 26.482 153.128 26.3217 153.128 26.1447C153.128 25.9309 153.048 25.7338 152.888 25.5568C152.728 25.3797 152.531 25.2896 152.293 25.2896C152.15 25.2896 152.006 25.3196 151.866 25.3797C151.559 25.5568 151.348 25.814 151.241 26.1447C150.693 27.4775 150.286 28.8437 150.012 30.2432C149.905 30.8011 149.852 31.3622 149.852 31.9201C149.852 33.4399 150.216 34.4821 150.937 35.0399C151.305 35.3372 151.739 35.4842 152.24 35.4842C152.464 35.4842 152.691 35.4541 152.918 35.394C153.583 35.2036 154.154 34.8596 154.628 34.3619C155.47 33.5535 156.095 32.7117 156.499 31.8299C156.619 31.5694 156.703 31.4391 156.749 31.4391C156.81 31.4758 156.84 31.7197 156.84 32.1706C156.863 32.3376 156.876 32.5748 156.876 32.8821V33.1126L156.893 33.6103C156.893 33.8942 156.796 34.1147 156.609 34.2683C153.613 37.1677 151.315 40.5481 149.711 44.4095C149.06 45.9427 148.729 47.4693 148.729 48.9891L148.749 49.577C148.783 50.4922 149.063 51.324 149.588 52.0722C150.239 52.9875 151.078 53.4451 152.1 53.4451C152.277 53.4451 152.464 53.4284 152.654 53.3916C153.449 53.2246 154.121 52.8505 154.668 52.2693C156.212 50.7261 157.324 48.9256 158.002 46.868C158.56 44.9306 158.84 42.9632 158.84 40.969L158.86 39.5594C158.86 39.1552 158.83 37.6454 158.77 35.0333C158.77 34.913 158.777 34.8262 158.787 34.766C158.8 34.7059 158.834 34.6525 158.894 34.6057C160.18 33.4099 161.563 32.351 162.999 31.3589C162.725 32.2007 162.585 32.9923 162.585 33.7339C162.585 34.2449 162.662 34.6959 162.815 35.0867C163.123 35.6813 163.54 35.9786 164.061 35.9786C164.312 35.9786 164.572 35.9084 164.846 35.7648C165.19 35.551 165.484 35.2838 165.721 34.9631C166.102 34.4754 166.446 33.9644 166.754 33.4299L166.897 33.1994L168.554 30.5606C168.577 30.5606 168.597 30.5606 168.608 30.5606C168.618 30.5606 168.631 30.5673 168.641 30.5773L168.624 31.1652C168.624 31.8299 168.688 32.4946 168.821 33.1627C168.998 34.4587 169.536 35.5811 170.425 36.5297C170.769 36.8638 171.139 37.1243 171.54 37.3147C171.938 37.5051 172.362 37.5986 172.816 37.5986C173.053 37.5986 173.291 37.5752 173.528 37.5285C174.433 37.3147 175.151 36.8404 175.686 36.1022C176.684 34.7827 177.546 33.3865 178.271 31.9134C178.284 31.8767 178.301 31.8433 178.324 31.8065C178.358 31.7464 178.395 31.6829 178.431 31.6094C178.919 30.6708 179.25 29.9025 179.43 29.3113C179.5 29.1343 179.537 28.9739 179.537 28.8303C179.517 28.513 179.377 28.2758 179.089 28.1221ZM157.007 40.3644C157.007 42.4087 156.803 44.2392 156.399 45.8525C155.874 47.7064 154.949 49.3332 153.62 50.7361C153.072 51.3173 152.561 51.6079 152.086 51.6079C151.575 51.6079 151.161 51.3006 150.84 50.6826C150.637 50.1716 150.536 49.6438 150.536 49.096C150.607 47.526 150.924 46.0964 151.482 44.8003C152.788 41.7941 154.541 39.0951 156.739 36.7101C156.786 36.65 156.83 36.5865 156.866 36.513L157.01 36.5665V40.3644H157.007ZM167.789 28.4228C167.111 29.4082 166.463 30.4203 165.848 31.4524C165.421 32.1405 164.987 32.8253 164.546 33.5034L164.369 33.7005C164.429 33.0591 164.542 32.4813 164.706 31.9702C164.98 31.0048 165.407 30.1364 165.985 29.3614C166.029 29.3113 166.079 29.2612 166.109 29.2144C166.273 29.004 166.443 28.7969 166.63 28.6031C166.854 28.3426 167.134 28.1455 167.468 28.0153C167.515 27.9919 167.565 27.9785 167.612 27.9785C167.659 27.9785 167.706 28.0086 167.756 28.0687C167.766 28.0821 167.779 28.0988 167.789 28.1221C167.826 28.1689 167.843 28.2224 167.843 28.2825C167.843 28.3159 167.826 28.366 167.789 28.4228Z" fill="#070A08"/>
<path d="M234.255 10.6022C234.158 10.5654 234.064 10.5487 233.967 10.5487C233.647 10.5487 233.38 10.7525 233.166 11.1533L233.005 11.6176C232.541 13.2811 232.19 14.968 231.953 16.6782C231.395 20.8369 231.108 24.7484 231.098 28.4061C231.098 31.1284 231.188 33.4867 231.365 35.4809C231.425 36.4329 231.579 37.3648 231.826 38.28C231.933 38.7076 232.14 39.0884 232.451 39.4191C232.618 39.5861 232.808 39.6696 233.022 39.6696C233.129 39.6696 233.236 39.6529 233.343 39.6162C233.663 39.4859 233.831 39.2487 233.841 38.9047V38.8345C233.841 38.6441 233.797 38.4671 233.714 38.3001C233.537 37.7523 233.406 37.1944 233.323 36.6266C233.109 34.9164 232.985 33.1927 232.949 31.4591C232.925 30.6875 232.912 29.9092 232.912 29.1242C232.912 26.8795 233.002 24.6315 233.179 22.3868C233.393 19.7613 233.707 17.1425 234.124 14.5271C234.218 14.0293 234.328 13.5283 234.445 13.0306C234.565 12.603 234.666 12.1688 234.749 11.7312L234.783 11.4272C234.789 11.0297 234.609 10.7558 234.255 10.6022Z" fill="#070A08"/>
<path d="M283.962 24.8252C283.842 24.7651 283.718 24.7351 283.588 24.7351C283.301 24.7351 283.053 24.9655 282.84 25.4298C282.636 25.7138 282.459 26.0311 282.305 26.3752C281.617 27.6712 280.809 28.9405 279.88 30.1898C279.573 30.6541 279.162 30.9915 278.651 31.2053C278.447 31.2888 278.247 31.3288 278.046 31.3288C277.786 31.3288 277.529 31.2387 277.281 31.0616C276.937 30.7877 276.65 30.467 276.426 30.0996C276.022 29.3981 275.708 28.6633 275.481 27.8883C275.458 27.8048 275.428 27.718 275.391 27.6211C275.367 27.5743 275.347 27.5209 275.337 27.4608C275.23 27.1033 275.08 26.7593 274.893 26.4286C274.559 25.9409 274.155 25.6971 273.681 25.6971C273.407 25.6971 273.133 25.7806 272.862 25.9476C272.435 26.2315 272.077 26.5889 271.793 27.0165C270.915 28.2057 270.173 29.4716 269.565 30.8144C269.552 30.8378 269.549 30.8579 269.549 30.8679C269.515 30.9748 269.448 31.0716 269.351 31.1518C269.255 30.9247 269.198 30.7009 269.174 30.4737C268.971 29.1443 268.87 27.8082 268.87 26.4653V25.824C268.87 25.3129 268.824 24.7952 268.727 24.2741C268.476 23.4557 268.045 23.0449 267.427 23.0449C267.13 23.0449 266.81 23.1518 266.465 23.3655C265.931 23.733 265.49 24.1906 265.146 24.7384C264.268 26.0445 263.559 27.4474 263.025 28.9439C262.835 29.4683 262.657 30.0027 262.49 30.5472C262.394 30.8812 262.293 31.2053 262.187 31.5293C262.187 29.4984 262.317 27.4641 262.577 25.4332V25.3764C262.591 25.3397 262.601 25.3029 262.611 25.2595C262.624 25.2161 262.647 25.186 262.681 25.1626C262.941 24.9722 263.072 24.7484 263.072 24.4845C263.072 24.3075 263.038 24.1238 262.965 23.93C262.868 23.5259 262.631 23.2887 262.25 23.2186H262.126C261.946 23.2186 261.792 23.2653 261.662 23.3622C261.532 23.4557 261.418 23.5827 261.325 23.7363C261.181 23.9868 261.094 24.2574 261.057 24.5547C260.997 24.8253 260.954 25.0925 260.9 25.363C260.887 25.3697 260.874 25.3664 260.86 25.3731C260.837 25.3864 260.82 25.3964 260.807 25.4098C260.463 25.6136 260.092 25.7539 259.701 25.8374C259.24 25.9209 258.786 25.961 258.348 25.961C257.173 25.961 256.03 25.7171 254.928 25.2294C254.798 25.1693 254.721 25.0758 254.697 24.9455C254.567 24.4712 254.363 24.0303 254.093 23.6261C253.568 22.8077 252.827 22.3668 251.865 22.3067H251.811C251.05 22.3067 250.659 22.6874 250.636 23.449L250.652 23.6628C250.652 23.6862 250.646 23.7062 250.636 23.7263C250.622 23.743 250.602 23.753 250.566 23.753C250.258 23.8131 250.024 23.9434 249.871 24.1438C249.717 24.3442 249.583 24.5714 249.48 24.8219C249.4 24.9956 249.34 25.176 249.266 25.353C249.236 25.3664 249.206 25.3597 249.176 25.3764C249.153 25.3898 249.136 25.3998 249.123 25.4131C248.778 25.6169 248.408 25.7572 248.017 25.8407C247.556 25.9242 247.102 25.9643 246.664 25.9643C245.488 25.9643 244.346 25.7205 243.244 25.2328C243.113 25.1726 243.036 25.0791 243.013 24.9488C242.883 24.4745 242.679 24.0336 242.408 23.6294C241.884 22.811 241.142 22.3701 240.18 22.31H240.127C239.365 22.31 238.975 22.6908 238.951 23.4524L238.968 23.6662C238.968 23.6895 238.961 23.7096 238.951 23.7296C238.938 23.7463 238.918 23.7563 238.881 23.7563C238.574 23.8165 238.34 23.9467 238.186 24.1472C238.033 24.3476 237.899 24.5747 237.795 24.8252C236.94 26.6658 236.513 28.5864 236.513 30.5806C236.513 30.9013 236.526 31.222 236.55 31.5426C236.573 32.4813 236.817 33.3731 237.281 34.2149C237.755 34.9765 238.417 35.3539 239.259 35.3539L239.542 35.3372C240.541 35.207 241.259 34.6892 241.7 33.7873C242.402 32.5147 242.859 31.1719 243.073 29.7589C243.167 29.1042 243.227 28.4462 243.25 27.7814L243.284 27.2102L243.641 27.3171C244.626 27.6144 245.625 27.7614 246.634 27.7614C247.239 27.7614 247.853 27.7013 248.471 27.5844C248.498 27.581 248.521 27.5643 248.548 27.561C248.321 28.5464 248.204 29.5518 248.204 30.5773C248.204 30.8979 248.217 31.2186 248.241 31.5393C248.264 32.4779 248.508 33.3698 248.972 34.2115C249.447 34.9731 250.108 35.3506 250.95 35.3506L251.234 35.3339C252.232 35.2036 252.951 34.6859 253.391 33.784C254.093 32.5113 254.551 31.1685 254.764 29.7556C254.858 29.1009 254.918 28.4428 254.941 27.7781L254.975 27.2069L255.332 27.3138C256.318 27.6111 257.316 27.758 258.325 27.758C258.93 27.758 259.544 27.6979 260.162 27.581C260.313 27.5576 260.44 27.4908 260.583 27.4507C260.44 28.6366 260.359 29.8257 260.359 31.0215C260.359 31.8666 260.396 32.7151 260.466 33.5702C260.503 34.2483 260.68 34.8763 261.001 35.4608C261.285 35.8283 261.605 36.012 261.963 36.012C262.297 36.012 262.601 35.8583 262.871 35.5477C263.038 35.3339 263.162 35.09 263.245 34.8161C263.422 34.2817 263.573 33.7406 263.69 33.1927C264.167 30.9113 264.956 28.7434 266.061 26.6858C266.312 26.1981 266.632 25.7539 267.023 25.3497C267.047 25.5768 267.057 25.8073 267.057 26.0445C267.057 27.5042 267.147 28.9606 267.324 30.4103C267.394 31.1719 267.621 31.88 268.002 32.5314C268.393 33.0558 268.834 33.3163 269.321 33.3163C269.786 33.3163 270.213 33.0925 270.604 32.6383C270.771 32.4378 270.905 32.2107 271.015 31.9602C271.549 30.771 272.184 29.632 272.922 28.5363C272.956 28.4762 272.999 28.4161 273.046 28.3593C273.166 28.1555 273.326 27.9618 273.527 27.7714L273.671 28.1823C273.884 28.837 274.128 29.485 274.402 30.1263C274.769 30.9948 275.311 31.743 276.022 32.371C276.653 32.8821 277.325 33.1393 278.036 33.1393C278.45 33.1393 278.875 33.0558 279.302 32.8888C280.218 32.498 280.952 31.89 281.514 31.0716C281.928 30.4771 282.315 29.8758 282.669 29.2712C283.324 28.2123 283.875 27.11 284.329 25.9576C284.376 25.804 284.4 25.667 284.4 25.5468C284.39 25.2328 284.249 24.9923 283.962 24.8252ZM241.42 27.5142C241.42 29.2746 241.046 30.9481 240.297 32.5414C240.191 32.8019 240.047 33.0358 239.87 33.2362C239.679 33.4399 239.489 33.5401 239.299 33.5401C239.048 33.5401 238.848 33.3731 238.694 33.0424C238.457 32.4145 238.337 31.7664 238.337 31.0984V30.741C238.337 29.1009 238.597 27.4908 239.122 25.9109C239.168 25.7906 239.232 25.7004 239.309 25.6336C239.385 25.5668 239.466 25.5067 239.549 25.4465C239.679 25.3764 239.786 25.2862 239.87 25.1793L239.923 25.1426C239.933 25.1426 239.95 25.1526 239.967 25.1693C239.983 25.186 240 25.2027 240.01 25.2127L240.027 25.2294C240.431 25.5868 240.845 25.9175 241.273 26.2282C241.333 26.2649 241.37 26.3084 241.39 26.3618C241.406 26.4152 241.416 26.472 241.416 26.5322V27.5142H241.42ZM253.111 27.5142C253.111 29.2746 252.737 30.9481 251.989 32.5414C251.882 32.8019 251.738 33.0358 251.561 33.2362C251.371 33.4399 251.18 33.5401 250.99 33.5401C250.739 33.5401 250.539 33.3731 250.385 33.0424C250.148 32.4145 250.028 31.7664 250.028 31.0984V30.741C250.028 29.1009 250.288 27.4908 250.813 25.9109C250.859 25.7906 250.923 25.7004 251 25.6336C251.077 25.5668 251.157 25.5067 251.24 25.4465C251.371 25.3764 251.477 25.2862 251.561 25.1793L251.614 25.1426C251.624 25.1426 251.641 25.1526 251.658 25.1693C251.675 25.186 251.691 25.2027 251.701 25.2127L251.718 25.2294C252.122 25.5868 252.536 25.9175 252.964 26.2282C253.024 26.2649 253.061 26.3084 253.081 26.3618C253.097 26.4152 253.108 26.472 253.108 26.5322V27.5142H253.111Z" fill="#070A08"/>
<path d="M286.915 16.2507C286.808 16.1972 286.701 16.1705 286.594 16.1705C286.39 16.1705 286.203 16.2607 286.033 16.4444C285.639 16.882 285.301 17.353 285.024 17.8573C284.927 18.0411 284.881 18.2114 284.881 18.3718C284.881 18.629 284.994 18.8361 285.218 18.9964C285.348 19.0832 285.482 19.1233 285.619 19.1233C285.886 19.1233 286.13 18.983 286.357 18.7058C286.367 18.6857 286.377 18.669 286.39 18.6557C286.4 18.6256 286.417 18.5956 286.437 18.5755L287.209 17.4198C287.316 17.2695 287.369 17.1091 287.369 16.9388C287.366 16.6281 287.215 16.401 286.915 16.2507Z" fill="#070A08"/>
<path d="M300.376 26.4052C300.206 26.1814 299.992 26.0678 299.735 26.0678C299.628 26.0678 299.518 26.0879 299.398 26.1313C299.164 26.2282 298.937 26.3551 298.726 26.5155C297.794 27.2336 296.963 28.0453 296.224 28.9539C295.112 30.27 294.077 31.6328 293.111 33.0458C293.048 33.1426 292.988 33.1894 292.934 33.1894C292.881 33.1894 292.821 33.156 292.757 33.0925C292.32 32.685 291.865 32.3009 291.394 31.9368C290.486 31.1685 290.031 30.3167 290.031 29.3848V29.2411C290.041 28.1823 290.202 27.2737 290.512 26.5155C290.76 25.8541 291.137 25.2695 291.651 24.7685L291.685 24.7384C291.695 24.7184 291.712 24.6983 291.732 24.6816C291.752 24.6649 291.782 24.6582 291.812 24.6582H291.845C291.875 24.6883 291.892 24.7284 291.892 24.7718V24.8854C291.882 25.3998 291.768 25.8841 291.555 26.3451C291.471 26.5388 291.411 26.7359 291.381 26.9397V27.0365C291.381 27.3806 291.561 27.6211 291.925 27.758L292.119 27.7881C292.376 27.7881 292.59 27.6378 292.76 27.3405L292.794 27.2436C293.031 26.7526 293.211 26.2282 293.342 25.6703C293.405 25.3697 293.439 25.0758 293.439 24.7885C293.439 24.4244 293.362 24.0737 293.215 23.7296C292.914 23.1751 292.51 22.8945 291.996 22.8945C291.802 22.8945 291.605 22.938 291.401 23.0248C290.76 23.3121 290.242 23.763 289.844 24.371C289.086 25.4599 288.625 26.6758 288.465 28.0119C288.411 28.366 288.385 28.7134 288.385 29.0541C288.385 29.8992 288.552 30.6808 288.889 31.3957C289.226 32.1105 289.768 32.7552 290.516 33.3197C290.977 33.6738 291.421 34.0512 291.849 34.4587C291.945 34.5456 291.992 34.6358 291.992 34.7326C291.992 34.7961 291.972 34.8729 291.929 34.9564C291.448 35.7581 291.104 36.6199 290.903 37.5385C290.86 37.7957 290.84 38.0395 290.84 38.2767C290.84 38.6308 290.893 38.9682 291 39.2888C291.107 39.6095 291.284 39.9135 291.531 40.2041C291.882 40.5782 292.273 40.7652 292.7 40.7652C293.064 40.7652 293.422 40.6216 293.776 40.331C294.063 40.0738 294.287 39.7632 294.447 39.3991C294.735 38.7143 294.882 38.0395 294.882 37.3782C294.882 36.5331 294.651 35.698 294.193 34.8763C294.14 34.7794 294.113 34.6825 294.113 34.589C294.113 34.5055 294.143 34.412 294.21 34.3151C294.895 33.3197 295.613 32.3476 296.361 31.3957C297.236 30.2065 298.222 29.1242 299.311 28.1388C299.461 28.0086 299.611 27.8883 299.758 27.7714C299.899 27.6545 300.042 27.5309 300.193 27.404C300.396 27.2102 300.497 27.0065 300.497 26.7927C300.487 26.6591 300.45 26.5322 300.376 26.4052ZM292.851 38.898C292.851 38.908 292.844 38.918 292.834 38.9314C292.824 38.9515 292.807 38.9748 292.784 38.9949C292.764 39.0149 292.737 39.0249 292.704 39.0249C292.67 39.0249 292.65 39.0149 292.64 38.9949C292.63 38.9748 292.62 38.9515 292.607 38.9314C292.607 38.9114 292.6 38.8947 292.593 38.8813C292.507 38.6775 292.463 38.4738 292.463 38.27L292.497 37.916C292.593 37.3815 292.78 36.837 293.058 36.2792C293.178 36.6633 293.235 37.0375 293.235 37.4015C293.235 37.9226 293.108 38.417 292.851 38.898Z" fill="#070A08"/>
<path d="M122.067 2.25807C122.097 2.27143 122.023 2.40504 121.93 2.57206C121.586 3.19336 121.238 3.81465 120.904 4.44263C114.511 16.4745 108.108 28.4996 101.714 40.5314C100.685 42.4688 99.6533 44.4029 98.4508 46.2334C97.7393 47.3256 96.8241 48.468 95.538 48.635C94.3222 48.7854 93.1531 47.9837 92.5184 46.9382C91.8938 45.8893 91.6032 44.6567 91.5764 43.4342C91.3827 34.7527 91.6332 27.4808 92.4549 17.9242C86.439 31.8065 83.5563 46.5607 80.5634 61.3917C80.2962 61.4452 80.8106 57.4468 80.844 57.2096C81.3517 53.856 81.9997 50.519 82.6845 47.1987C83.877 41.4099 85.0662 35.688 86.596 29.9827C87.8086 25.4666 89.2549 20.9171 90.8683 16.5246C91.1489 15.763 91.4295 15.0047 91.7401 14.2565C92.1576 13.2511 92.5585 12.2256 93.0495 11.2502C93.3435 10.6656 93.9648 9.66021 94.7197 10.2481C95.2408 10.6556 95.1539 11.474 95.1339 12.0552C95.1038 12.9137 95.0938 13.7721 95.0637 14.6306C94.9969 16.6348 94.8767 18.6356 94.733 20.6332C94.4491 24.6382 94.0783 28.6332 93.8846 32.6449C93.8278 33.8508 93.7844 35.0533 93.7677 36.2592C93.7243 39.0617 93.8044 41.8709 94.0883 44.6601C94.1585 45.3983 94.3255 46.2434 94.9769 46.5874C96.0424 47.1419 97.108 45.8826 97.6625 44.8271C105.205 30.3067 113.362 16.1104 122.067 2.25807Z" fill="#070A08"/>
<path d="M210.068 23.3288C210.174 23.272 210.024 23.4357 210.068 23.3288Z" fill="#070A08"/>
<path d="M225.189 23.1317C223.923 21.8557 222.013 21.1108 219.774 20.9805C219.698 20.9705 219.634 20.9705 219.571 20.9705C219.507 20.9605 219.44 20.9605 219.367 20.9605H219.063C218.913 20.9605 218.749 20.9605 218.599 20.9705C218.251 20.9805 217.907 21.0039 217.53 21.0474C217.466 21.0574 217.379 21.0674 217.303 21.0674C217.226 21.0774 217.139 21.0874 217.065 21.1108C215.92 21.2611 214.711 21.5417 213.455 21.9526L212.696 22.1897L213.01 21.4749C213.725 19.8549 214.373 18.2315 214.934 16.6548C215.539 15.0014 216.027 13.4114 216.427 11.9416C216.989 9.8339 217.336 7.56249 217.336 5.32782C217.326 3.57749 217.216 1.1758 215.402 0.257216C215.048 0.0868594 214.65 -0.0100098 214.226 -0.0100098H214.106C212.787 0.0434353 211.384 0.93196 210.301 1.69689C209.373 2.34491 208.484 3.11319 207.663 3.96831C207.315 4.33574 206.971 4.70318 206.657 5.08063C204.105 8.16041 202.311 11.2435 200.494 14.7776C200.32 15.1116 199.9 16.2139 200.571 16.3141C200.711 16.3342 200.852 16.2707 200.972 16.1738C201.319 15.8832 201.436 15.3955 201.556 14.9513C201.957 13.4047 202.582 11.9149 203.34 10.5287C204.466 8.48442 205.859 6.64724 207.512 4.96038C208.842 3.62092 210.495 2.11777 212.376 1.63009C215.933 0.678096 215.793 5.10068 215.455 7.29526C215.195 8.9721 214.764 10.6256 214.3 12.2456C213.284 15.8231 211.878 19.8649 210.064 23.3254C210.171 23.272 210.021 23.4323 210.064 23.3254C209.88 23.4323 209.146 23.8232 208.952 23.93C208.561 24.1572 208.174 24.3943 207.783 24.6449C206.714 25.3597 205.648 26.1079 204.756 27.0399C203.958 27.8716 202.936 29.1309 203.364 30.3635C203.547 30.8946 203.938 31.3055 204.489 31.4558C205.581 31.7597 206.577 31.0249 207.278 30.2766C208.855 28.6132 210.044 26.7426 211.32 24.8286C212.466 24.2975 214.032 23.6194 215.666 23.2286C215.753 23.2085 215.84 23.1952 215.913 23.1651C216 23.1551 216.077 23.1317 216.16 23.1217C216.818 22.9814 217.49 22.8945 218.171 22.8745H218.592C219.177 22.8745 219.738 22.9279 220.269 23.0382C222.473 23.4824 226.278 25.1893 226.96 31.5994C227.815 39.6529 222.397 49.911 208.367 54.6543C205.675 55.5628 202.866 56.1674 200.153 56.752C198.898 57.0226 197.642 57.2931 196.392 57.5971C196.172 57.6505 195.948 57.704 195.728 57.7608C195.594 57.7942 195.026 57.8677 195.263 58.1215C195.394 58.2585 195.657 58.1583 195.811 58.1215C196.055 58.0647 196.295 57.9979 196.539 57.9412C197.161 57.7975 197.782 57.6639 198.41 57.5403C199.552 57.3098 200.701 57.1061 201.85 56.9057C204.984 56.3545 207.936 55.8368 210.508 54.8747C215.566 52.9708 219.641 50.3453 222.637 47.0484C224.808 44.6801 226.475 41.8174 227.471 38.7778C228.185 36.6366 228.539 34.3986 228.553 32.1739C228.56 28.4629 227.404 25.3363 225.189 23.1317ZM208.144 27.5109C207.462 28.4395 206.62 29.4984 205.615 30.0929C205.368 30.2432 205.054 30.3301 204.783 30.2232C203.023 29.5518 207.011 26.4286 207.529 26.1146C207.96 25.8541 209.085 25.1526 209.68 24.9154C209.256 25.7806 208.725 26.6992 208.144 27.5109Z" fill="#070A08"/>
<path d="M201.573 52.0255C201.583 52.0188 201.593 52.0088 201.603 51.9987C201.957 51.6547 201.794 50.4488 201.763 49.9211C201.403 44.0254 201.687 38.0061 201.954 32.2074C202.077 29.5919 202.198 26.8862 202.265 24.2374C202.278 23.7363 202.248 22.5071 201.877 22.3568C201.68 22.2799 201.523 22.4737 201.393 22.7676C201.236 23.125 201.272 24.3175 201.236 24.7985C201.172 25.6202 201.109 26.442 201.042 27.2637C200.918 28.8303 200.798 30.3936 200.701 31.9635C200.498 35.2637 200.361 38.574 200.254 41.8843C200.187 43.9051 200.15 45.9427 200.327 47.9536C200.407 48.8789 200.501 49.8108 200.681 50.7027C200.781 51.2138 201.139 52.3795 201.573 52.0255Z" fill="#070A08"/>
</g>
<g clip-path="url(#clip2_24_91)">
<path d="M264.218 51.5528V54.9296C264.218 55.9909 264.211 56.7161 264.2 57.1052C264.188 57.4942 264.15 57.9173 264.086 58.3705C264.022 58.8238 263.909 59.2355 263.742 59.5981C263.437 60.3158 262.636 61.1127 261.336 61.9853C261.276 62.0079 261.174 62.0721 261.027 62.1703C260.879 62.2686 260.777 62.3328 260.717 62.3554C260.706 62.3668 260.672 62.3743 260.611 62.3743C260.528 62.3743 260.487 62.3441 260.487 62.2874C260.487 62.2421 260.562 62.1628 260.717 62.057C260.883 61.9739 261.049 61.8493 261.212 61.6869C261.612 61.2978 261.911 60.939 262.103 60.6066C262.3 60.278 262.458 59.7303 262.59 58.9711C262.719 58.2119 262.783 57.177 262.783 55.8663V51.5528C262.783 49.7246 262.772 48.6519 262.749 48.3347C262.726 48.0854 262.666 47.8965 262.564 47.7681C262.466 47.6397 262.296 47.5452 262.062 47.4848C261.922 47.4621 261.744 47.4508 261.529 47.4508C261.446 47.4508 261.404 47.4168 261.404 47.345C261.404 47.2506 261.491 47.2015 261.669 47.2015C261.892 47.2015 262.149 47.2091 262.439 47.2204C262.73 47.2317 262.979 47.2393 263.191 47.2393L263.493 47.2582C263.505 47.2582 263.61 47.2544 263.81 47.2506C264.011 47.2431 264.241 47.2355 264.498 47.2242C264.759 47.2128 264.959 47.2053 265.098 47.2053C265.265 47.2053 265.344 47.2544 265.344 47.3488C265.344 47.4206 265.31 47.4546 265.238 47.4546C265.227 47.4546 265.091 47.4659 264.83 47.4886C264.475 47.5717 264.283 47.8587 264.249 48.3535C264.23 48.6708 264.218 49.736 264.218 51.5528Z" fill="#070A08"/>
<path d="M273.503 58.7671C272.464 58.7671 271.542 58.5858 270.734 58.227C269.926 57.8682 269.287 57.396 268.815 56.8106C268.343 56.2251 267.992 55.5981 267.754 54.9258C267.52 54.2534 267.399 53.566 267.399 52.8559C267.399 52.3611 267.471 51.855 267.622 51.3337C267.769 50.8162 268.003 50.295 268.328 49.77C268.653 49.2449 269.049 48.7804 269.514 48.3724C269.979 47.9645 270.568 47.6321 271.274 47.3753C271.98 47.1222 272.755 46.99 273.593 46.99C275.384 46.99 276.86 47.4961 278.02 48.5122C279.183 49.5282 279.761 50.8993 279.761 52.633C279.761 54.3554 279.183 55.8059 278.02 56.9919C276.86 58.1741 275.353 58.7671 273.503 58.7671ZM273.945 58.1666C274.239 58.1666 274.541 58.1364 274.847 58.0797C275.153 58.0193 275.512 57.8833 275.916 57.6642C276.324 57.4451 276.679 57.1619 276.985 56.8144C277.291 56.4669 277.555 55.9683 277.771 55.3186C277.99 54.6689 278.099 53.9211 278.099 53.0712C278.099 51.3639 277.65 50.0117 276.747 49.0221C275.844 48.0325 274.757 47.5377 273.484 47.5377C272.177 47.5377 271.108 47.9494 270.281 48.7766C269.457 49.6038 269.042 50.8087 269.042 52.4026C269.042 54.1364 269.488 55.5301 270.375 56.5839C271.27 57.6378 272.46 58.1666 273.945 58.1666Z" fill="#070A08"/>
<path d="M284.536 51.5528V53.6567C284.536 54.684 284.623 55.4735 284.8 56.0249C284.978 56.5802 285.246 57.0145 285.612 57.3318C286.224 57.8757 287.006 58.1439 287.946 58.1439C288.97 58.1439 289.778 57.8002 290.368 57.1165C290.945 56.4555 291.233 55.2242 291.233 53.4225V51.549C291.233 49.7322 291.221 48.667 291.199 48.3498C291.187 48.1496 291.165 48.0023 291.134 47.9078C291.104 47.8134 291.044 47.7265 290.949 47.6434C290.855 47.5603 290.719 47.5075 290.545 47.4848C290.379 47.4621 290.213 47.4508 290.05 47.4508C289.933 47.4508 289.873 47.4168 289.873 47.345C289.873 47.2506 289.956 47.2015 290.122 47.2015C290.345 47.2015 290.594 47.2091 290.862 47.2204C291.134 47.2317 291.361 47.2393 291.546 47.2468C291.727 47.2544 291.826 47.2544 291.837 47.2544C291.848 47.2544 291.935 47.2506 292.094 47.2468C292.252 47.2393 292.437 47.2317 292.649 47.2204C292.861 47.2091 293.038 47.2015 293.182 47.2015C293.348 47.2015 293.427 47.2431 293.427 47.3262C293.427 47.4093 293.367 47.4508 293.25 47.4508C293.155 47.4508 293.049 47.4584 292.932 47.4697C292.709 47.4924 292.558 47.5717 292.483 47.7076C292.407 47.8436 292.354 48.0589 292.332 48.3535C292.32 48.6708 292.313 49.7398 292.313 51.5528V53.1279C292.313 55.3564 291.833 56.8823 290.881 57.7095C290.043 58.4159 288.966 58.7709 287.644 58.7709C286.205 58.7709 285.102 58.4159 284.339 57.7095C283.467 56.8975 283.032 55.5754 283.032 53.7473V51.5566C283.032 49.7284 283.013 48.6557 282.979 48.3384C282.968 48.0665 282.919 47.8663 282.84 47.7379C282.757 47.6094 282.587 47.5263 282.326 47.4886C282.186 47.4659 282.031 47.4546 281.865 47.4546C281.733 47.4546 281.669 47.4206 281.669 47.3488C281.669 47.2544 281.756 47.2053 281.933 47.2053C282.156 47.2053 282.413 47.2128 282.704 47.2242C282.991 47.2355 283.236 47.2431 283.437 47.2506C283.64 47.2544 283.754 47.2544 283.776 47.2544C283.799 47.2544 284.037 47.2468 284.487 47.228C284.932 47.2091 285.253 47.2015 285.442 47.2015C285.605 47.2015 285.688 47.2431 285.688 47.3262C285.688 47.4093 285.616 47.4508 285.476 47.4508C285.404 47.4508 285.276 47.4621 285.087 47.4848C284.887 47.5075 284.755 47.5868 284.691 47.7152C284.623 47.8436 284.581 48.0514 284.558 48.3347C284.543 48.6519 284.536 49.7246 284.536 51.5528Z" fill="#070A08"/>
<path d="M296.845 54.2043V51.5528C296.845 49.7133 296.834 48.6368 296.811 48.3158C296.789 48.0551 296.728 47.8625 296.634 47.7303C296.539 47.6019 296.362 47.5112 296.105 47.4659C295.962 47.4432 295.822 47.4319 295.682 47.4319C295.55 47.4319 295.486 47.3979 295.486 47.3262C295.486 47.2431 295.554 47.2015 295.697 47.2015C295.837 47.2015 295.999 47.2053 296.173 47.2091C296.351 47.2166 296.517 47.2204 296.679 47.228C296.838 47.2355 296.981 47.2355 297.114 47.2355C297.242 47.2355 297.355 47.2355 297.45 47.2355L297.574 47.2544C297.597 47.2544 297.865 47.2468 298.379 47.228C298.893 47.2091 299.244 47.2015 299.433 47.2015C300.728 47.2015 301.695 47.4244 302.334 47.8738C303.04 48.3913 303.395 49.1127 303.395 50.0306C303.395 51.2468 302.772 52.3573 301.522 53.3734C303.089 55.3073 304.177 56.5839 304.777 57.211C305.389 57.8342 306.016 58.1968 306.651 58.2912C306.817 58.3139 306.998 58.3252 307.199 58.3252C307.331 58.3252 307.395 58.3668 307.395 58.4499C307.395 58.533 307.289 58.5745 307.078 58.5745H305.839C305.11 58.5745 304.57 58.5027 304.23 58.363C304.124 58.3177 304.022 58.2648 303.928 58.2043C303.833 58.1477 303.731 58.0646 303.625 57.9664C303.52 57.8682 303.429 57.7775 303.353 57.702C303.278 57.6264 303.176 57.5093 303.044 57.3583C302.912 57.2034 302.813 57.0825 302.742 56.9957C302.674 56.9088 302.556 56.7577 302.398 56.5462C302.239 56.3347 302.118 56.176 302.035 56.0703C301.775 55.7416 301.442 55.3148 301.038 54.7974C300.63 54.2761 300.396 53.9777 300.339 53.8946C300.271 53.8229 300.2 53.7889 300.128 53.7889L298.307 53.77C298.247 53.77 298.22 53.8002 298.22 53.8568V54.1061C298.22 55.9116 298.251 57.0221 298.307 57.4489C298.33 57.6264 298.353 57.7624 298.375 57.8568C298.398 57.9513 298.462 58.0419 298.56 58.1326C298.658 58.2195 298.806 58.2761 298.995 58.2988C299.229 58.3214 299.403 58.3328 299.508 58.3328C299.663 58.3328 299.739 58.3668 299.739 58.4385C299.739 58.533 299.656 58.5821 299.493 58.5821C299.221 58.5821 298.927 58.5783 298.609 58.5745C298.292 58.567 298.028 58.5594 297.812 58.5481L297.51 58.5292C297.427 58.5292 297.197 58.5367 296.811 58.5556C296.43 58.5745 296.147 58.5821 295.969 58.5821C295.803 58.5821 295.724 58.5367 295.724 58.4385C295.724 58.3668 295.795 58.3328 295.935 58.3328C296.101 58.3328 296.23 58.3214 296.324 58.2988C296.585 58.2534 296.74 58.0268 296.785 57.6264C296.823 57.2752 296.845 56.1382 296.845 54.2043ZM298.209 47.9985V52.8068C298.209 52.9126 298.239 52.9843 298.296 53.0183C298.579 53.1732 299.104 53.2487 299.867 53.2487C300.385 53.2487 300.781 53.1619 301.053 52.9843C301.642 52.6066 301.937 51.8587 301.937 50.7369C301.937 49.7813 301.703 49.0448 301.238 48.5273C300.774 48.0098 300.139 47.7492 299.335 47.7492C298.889 47.7492 298.545 47.7794 298.311 47.8361C298.243 47.8625 298.209 47.9154 298.209 47.9985Z" fill="#070A08"/>
<path d="M308.147 56.3611V47.7152C308.147 47.2317 308.211 46.99 308.343 46.99C308.388 46.99 308.573 47.1486 308.891 47.4659C308.997 47.583 310.692 49.3243 313.982 52.6822C314.454 53.143 315.138 53.8191 316.033 54.7143C316.929 55.6094 317.45 56.1307 317.59 56.2704L317.393 48.9163C317.382 48.4329 317.336 48.0929 317.261 47.9003C317.185 47.7076 317.031 47.5792 316.793 47.5188C316.521 47.4735 316.29 47.447 316.105 47.447C315.965 47.447 315.894 47.4017 315.894 47.3035C315.894 47.2317 315.999 47.1977 316.211 47.1977C316.517 47.1977 316.872 47.2091 317.272 47.2317L317.873 47.2506C317.884 47.2506 318.054 47.2431 318.386 47.2242C318.715 47.2053 319.017 47.1977 319.289 47.1977C319.455 47.1977 319.535 47.2317 319.535 47.3035C319.535 47.3753 319.482 47.4206 319.376 47.447C319.353 47.447 319.289 47.4546 319.191 47.4659C319.089 47.4772 319.006 47.4886 318.934 47.4999C318.723 47.5452 318.579 47.6548 318.511 47.8172C318.443 47.9796 318.405 48.3195 318.405 48.8257L318.371 57.702C318.371 57.9248 318.368 58.0986 318.364 58.2232C318.356 58.3479 318.349 58.4461 318.337 58.5141C318.326 58.5858 318.311 58.6274 318.292 58.6463C318.273 58.6652 318.247 58.6727 318.213 58.6727C318.096 58.6727 317.707 58.3592 317.046 57.736C317.023 57.7246 316.796 57.5093 316.366 57.0901C315.935 56.6708 315.357 56.1042 314.632 55.3828C313.907 54.6652 313.355 54.1212 312.978 53.7549C311.75 52.482 310.402 51.0769 308.929 49.5471L309.159 56.4631C309.182 57.1014 309.231 57.5471 309.31 57.8002C309.386 58.0533 309.533 58.2043 309.744 58.2497C309.933 58.295 310.175 58.3214 310.47 58.3214C310.609 58.3214 310.681 58.363 310.681 58.4461C310.681 58.5292 310.587 58.5707 310.398 58.5707C310.115 58.5707 309.843 58.5669 309.578 58.5632C309.314 58.5556 309.102 58.5481 308.951 58.5367C308.796 58.5254 308.709 58.5178 308.687 58.5178C308.664 58.5178 308.573 58.5216 308.422 58.5254C308.268 58.533 308.075 58.5405 307.841 58.5518C307.603 58.5632 307.376 58.5707 307.153 58.5707C306.976 58.5707 306.889 58.5292 306.889 58.4461C306.889 58.363 306.972 58.3214 307.134 58.3214C307.346 58.3214 307.531 58.2988 307.682 58.2497C307.871 58.1892 307.999 58.0268 308.064 57.7549C308.113 57.4905 308.147 57.0221 308.147 56.3611Z" fill="#070A08"/>
<path d="M327.455 54.2572H324.237C324.154 54.2572 324.098 54.3025 324.06 54.397L323.282 56.6066C323.081 57.1732 322.979 57.5924 322.979 57.8606C322.979 58.1666 323.176 58.3214 323.561 58.3214H323.686C323.829 58.3214 323.897 58.363 323.897 58.4461C323.897 58.5292 323.81 58.5707 323.633 58.5707C323.489 58.5707 323.236 58.5632 322.862 58.5443C322.488 58.5254 322.281 58.5178 322.235 58.5178C322.224 58.5178 322.013 58.5254 321.597 58.5443C321.185 58.5632 320.83 58.5707 320.536 58.5707C320.347 58.5707 320.252 58.5292 320.252 58.4461C320.252 58.363 320.32 58.3214 320.464 58.3214C320.63 58.3214 320.747 58.3177 320.819 58.3026C321.159 58.2686 321.431 58.1364 321.623 57.9135C321.82 57.6907 322.005 57.3545 322.179 56.905L325.718 47.5868C325.812 47.3299 325.884 47.1637 325.929 47.092C325.982 47.024 326.035 46.99 326.092 46.99C326.175 46.99 326.292 47.1788 326.447 47.5566C326.47 47.617 326.983 48.905 327.984 51.4281C328.985 53.9513 329.669 55.6472 330.035 56.5197C330.436 57.4867 330.881 58.057 331.38 58.2346C331.535 58.295 331.735 58.3214 331.98 58.3214C332.124 58.3214 332.192 58.363 332.192 58.4461C332.192 58.5292 332.105 58.5707 331.928 58.5707C330.927 58.5707 330.028 58.5594 329.238 58.5367C328.944 58.5254 328.796 58.4839 328.796 58.4121C328.796 58.3517 328.838 58.3139 328.921 58.2874C329.053 58.227 329.076 58.0986 328.993 57.8984L327.595 54.3441C327.561 54.2874 327.516 54.2572 327.455 54.2572ZM324.415 53.6378H327.244C327.304 53.6378 327.319 53.6038 327.297 53.532L325.903 49.6227C325.843 49.4451 325.778 49.4451 325.707 49.6227L324.381 53.532C324.343 53.6038 324.354 53.6378 324.415 53.6378Z" fill="#070A08"/>
<path d="M335.803 51.5528V54.2421C335.803 56.2364 335.928 57.3507 336.177 57.5849C336.449 57.8191 337.064 57.9399 338.035 57.9399C338.375 57.9399 338.632 57.9362 338.806 57.9211C338.976 57.9097 339.176 57.8644 339.399 57.7889C339.622 57.7133 339.795 57.5962 339.912 57.4451C340.09 57.1732 340.199 56.8786 340.249 56.5613C340.271 56.4178 340.32 56.3498 340.392 56.3498C340.46 56.3498 340.498 56.4253 340.498 56.5802C340.498 57.1014 340.43 57.6302 340.286 58.1741C340.249 58.2912 340.226 58.3668 340.215 58.397C340.203 58.4272 340.166 58.4687 340.101 58.5216C340.037 58.5745 339.946 58.6047 339.837 58.6085C339.727 58.6161 339.565 58.6198 339.35 58.6198C338.995 58.6198 338.352 58.6047 337.412 58.5745C336.475 58.5443 335.686 58.5292 335.051 58.5292C334.862 58.5292 334.609 58.5367 334.292 58.5556C333.975 58.5745 333.707 58.5821 333.495 58.5821C333.306 58.5821 333.212 58.5367 333.212 58.4385C333.212 58.3668 333.276 58.3328 333.404 58.3328C333.593 58.3328 333.737 58.3214 333.827 58.2988C334.077 58.2534 334.228 57.9739 334.288 57.4678C334.334 57.1732 334.356 56.0891 334.356 54.2119V51.5603C334.356 49.7435 334.345 48.6784 334.322 48.3611C334.311 48.1722 334.288 48.0249 334.258 47.9192C334.228 47.8134 334.16 47.719 334.054 47.6359C333.948 47.5528 333.801 47.4999 333.612 47.4772C333.544 47.4659 333.393 47.4584 333.17 47.4584C333.042 47.4584 332.974 47.4168 332.974 47.3337C332.974 47.2506 333.061 47.2091 333.238 47.2091C333.378 47.2091 333.537 47.2128 333.707 47.2166C333.877 47.2242 334.039 47.228 334.194 47.2355C334.349 47.2431 334.492 47.2431 334.628 47.2431C334.76 47.2431 334.87 47.2431 334.957 47.2431L335.081 47.2619C335.142 47.2619 335.41 47.2544 335.894 47.2355C336.377 47.2166 336.713 47.2091 336.902 47.2091C337.053 47.2091 337.132 47.2506 337.132 47.3337C337.132 47.4168 337.064 47.4584 336.936 47.4584C336.853 47.4584 336.694 47.4697 336.456 47.4924C336.222 47.5263 336.06 47.6094 335.98 47.7416C335.901 47.8738 335.844 48.0778 335.822 48.3611C335.807 48.516 335.803 49.5849 335.803 51.5528Z" fill="#070A08"/>
</g>
<defs>
<clipPath id="clip0_24_91">
<rect width="50" height="72.9338" fill="white" transform="translate(0.486572 8.98999)"/>
</clipPath>
<clipPath id="clip1_24_91">
<rect width="220" height="61.4017" fill="white" transform="translate(80.4866 -0.0100098)"/>
</clipPath>
<clipPath id="clip2_24_91">
<rect width="80" height="15.3843" fill="white" transform="translate(260.487 46.99)"/>
</clipPath>
</defs>
</svg>
