<svg width="273" height="90" viewBox="0 0 273 90" fill="none" xmlns="http://www.w3.org/2000/svg">
<path d="M145.277 75.8642V78.487C145.277 79.3114 145.271 79.8746 145.263 80.1768C145.254 80.479 145.224 80.8076 145.175 81.1596C145.125 81.5117 145.037 81.8315 144.908 82.1131C144.67 82.6705 144.048 83.2895 143.039 83.9672C142.992 83.9848 142.913 84.0347 142.798 84.111C142.684 84.1873 142.605 84.2371 142.558 84.2547C142.549 84.2635 142.522 84.2694 142.476 84.2694C142.411 84.2694 142.379 84.2459 142.379 84.2019C142.379 84.1667 142.437 84.1051 142.558 84.023C142.687 83.9584 142.816 83.8616 142.942 83.7355C143.253 83.4333 143.485 83.1546 143.634 82.8964C143.787 82.6412 143.91 82.2158 144.013 81.6261C144.113 81.0364 144.162 80.2326 144.162 79.2145V75.8642C144.162 74.4442 144.154 73.6111 144.136 73.3646C144.118 73.171 144.069 73.0272 143.992 72.9246C143.916 72.8248 143.784 72.7515 143.602 72.7045C143.494 72.6869 143.356 72.6781 143.188 72.6781C143.124 72.6781 143.092 72.6517 143.092 72.596C143.092 72.5226 143.159 72.4845 143.297 72.4845C143.47 72.4845 143.67 72.4904 143.895 72.4992C144.118 72.508 144.315 72.5138 144.479 72.5138L144.714 72.5285C144.723 72.5285 144.805 72.5256 144.96 72.5226C145.116 72.5197 145.295 72.5109 145.494 72.5021C145.697 72.4933 145.852 72.4874 145.961 72.4874C146.09 72.4874 146.152 72.5256 146.152 72.5989C146.152 72.6547 146.125 72.6811 146.069 72.6811C146.061 72.6811 145.955 72.6899 145.753 72.7075C145.477 72.772 145.327 72.995 145.301 73.3793C145.286 73.6257 145.277 74.456 145.277 75.8642Z" fill="#070A08"/>
<path d="M152.488 81.4677C151.682 81.4677 150.966 81.3268 150.338 81.0481C149.71 80.7694 149.214 80.4027 148.848 79.948C148.481 79.4932 148.208 79.0062 148.023 78.484C147.841 77.9618 147.747 77.4279 147.747 76.8763C147.747 76.492 147.803 76.0989 147.921 75.694C148.035 75.2921 148.217 74.8872 148.469 74.4794C148.721 74.0716 149.029 73.7108 149.39 73.394C149.751 73.0771 150.209 72.8189 150.757 72.6194C151.309 72.417 151.908 72.3173 152.559 72.3173C153.949 72.3173 155.097 72.7104 155.997 73.4996C156.901 74.2887 157.35 75.3537 157.35 76.7003C157.35 78.0381 156.901 79.1647 155.997 80.0859C155.094 81.01 153.926 81.4677 152.488 81.4677ZM152.832 81.0012C153.06 81.0012 153.295 80.9777 153.533 80.9337C153.77 80.8868 154.049 80.7812 154.363 80.611C154.68 80.4408 154.956 80.2208 155.193 79.9509C155.431 79.681 155.636 79.2937 155.804 78.7891C155.974 78.2845 156.059 77.7036 156.059 77.0435C156.059 75.7175 155.71 74.6672 155.008 73.8986C154.307 73.1299 153.462 72.7456 152.474 72.7456C151.459 72.7456 150.628 73.0654 149.986 73.7079C149.346 74.3504 149.024 75.2862 149.024 76.5243C149.024 77.8709 149.37 78.9534 150.059 79.7719C150.755 80.5905 151.676 81.0012 152.832 81.0012Z" fill="#070A08"/>
<path d="M161.058 75.8642V77.4983C161.058 78.2963 161.125 78.9094 161.263 79.3378C161.401 79.769 161.609 80.1064 161.894 80.3528C162.369 80.7753 162.977 80.9836 163.707 80.9836C164.502 80.9836 165.13 80.7166 165.588 80.1856C166.037 79.6722 166.259 78.7158 166.259 77.3164V75.8613C166.259 74.4501 166.251 73.6228 166.233 73.3764C166.224 73.2209 166.207 73.1065 166.183 73.0331C166.16 72.9598 166.113 72.8923 166.039 72.8277C165.966 72.7632 165.86 72.7221 165.726 72.7045C165.596 72.6869 165.467 72.6781 165.341 72.6781C165.25 72.6781 165.203 72.6517 165.203 72.596C165.203 72.5226 165.268 72.4845 165.397 72.4845C165.57 72.4845 165.764 72.4904 165.972 72.4992C166.183 72.508 166.359 72.5138 166.503 72.5197C166.644 72.5256 166.72 72.5256 166.729 72.5256C166.738 72.5256 166.805 72.5226 166.928 72.5197C167.052 72.5138 167.195 72.508 167.36 72.4992C167.524 72.4904 167.662 72.4845 167.773 72.4845C167.902 72.4845 167.964 72.5168 167.964 72.5813C167.964 72.6458 167.917 72.6781 167.826 72.6781C167.753 72.6781 167.671 72.684 167.58 72.6928C167.407 72.7104 167.289 72.772 167.231 72.8776C167.172 72.9832 167.131 73.1505 167.113 73.3793C167.104 73.6257 167.099 74.456 167.099 75.8642V77.0876C167.099 78.8185 166.726 80.0037 165.987 80.6462C165.335 81.1948 164.499 81.4706 163.472 81.4706C162.355 81.4706 161.498 81.1948 160.905 80.6462C160.228 80.0155 159.89 78.9886 159.89 77.5687V75.8671C159.89 74.4472 159.876 73.614 159.849 73.3676C159.84 73.1563 159.802 73.0008 159.741 72.9011C159.676 72.8013 159.544 72.7368 159.342 72.7075C159.233 72.6899 159.113 72.6811 158.984 72.6811C158.881 72.6811 158.831 72.6547 158.831 72.5989C158.831 72.5256 158.899 72.4874 159.037 72.4874C159.21 72.4874 159.409 72.4933 159.635 72.5021C159.858 72.5109 160.049 72.5168 160.204 72.5226C160.36 72.5285 160.448 72.5285 160.465 72.5285C160.483 72.5285 160.668 72.5226 161.017 72.508C161.363 72.4933 161.612 72.4874 161.759 72.4874C161.885 72.4874 161.95 72.5197 161.95 72.5842C161.95 72.6488 161.894 72.6811 161.785 72.6811C161.73 72.6811 161.63 72.6899 161.483 72.7075C161.328 72.7251 161.225 72.7867 161.175 72.8864C161.122 72.9862 161.09 73.1475 161.073 73.3676C161.064 73.6111 161.058 74.4442 161.058 75.8642Z" fill="#070A08"/>
<path d="M170.619 77.9266V75.8672C170.619 74.4384 170.61 73.6023 170.593 73.3529C170.575 73.1505 170.528 73.0009 170.455 72.8982C170.381 72.7984 170.244 72.728 170.044 72.6928C169.933 72.6752 169.824 72.6664 169.715 72.6664C169.613 72.6664 169.563 72.64 169.563 72.5843C169.563 72.5197 169.616 72.4875 169.727 72.4875C169.836 72.4875 169.962 72.4904 170.097 72.4933C170.235 72.4992 170.364 72.5021 170.49 72.508C170.613 72.5139 170.725 72.5139 170.827 72.5139C170.927 72.5139 171.015 72.5139 171.088 72.5139L171.185 72.5285C171.203 72.5285 171.411 72.5227 171.81 72.508C172.209 72.4933 172.482 72.4875 172.629 72.4875C173.635 72.4875 174.386 72.6605 174.882 73.0097C175.43 73.4116 175.706 73.9719 175.706 74.6848C175.706 75.6295 175.222 76.492 174.251 77.2812C175.469 78.7833 176.314 79.7749 176.78 80.2619C177.255 80.746 177.742 81.0276 178.235 81.101C178.364 81.1186 178.505 81.1274 178.661 81.1274C178.763 81.1274 178.813 81.1596 178.813 81.2242C178.813 81.2887 178.731 81.321 178.567 81.321H177.604C177.038 81.321 176.619 81.2653 176.355 81.1567C176.272 81.1215 176.193 81.0804 176.12 81.0335C176.047 80.9895 175.967 80.9249 175.885 80.8487C175.803 80.7724 175.733 80.702 175.674 80.6433C175.615 80.5846 175.536 80.4937 175.433 80.3763C175.331 80.259 175.254 80.1622 175.199 80.0947C175.146 80.0272 175.055 79.9099 174.932 79.7456C174.809 79.5813 174.715 79.4581 174.65 79.3759C174.448 79.1207 174.189 78.7892 173.876 78.3872C173.559 77.9824 173.377 77.7506 173.333 77.6861C173.28 77.6303 173.224 77.6039 173.169 77.6039L171.754 77.5893C171.708 77.5893 171.687 77.6127 171.687 77.6567V77.8504C171.687 79.2527 171.71 80.1152 171.754 80.4467C171.772 80.5846 171.79 80.6903 171.807 80.7636C171.825 80.8369 171.875 80.9073 171.951 80.9778C172.027 81.0452 172.142 81.0892 172.288 81.1068C172.47 81.1244 172.605 81.1332 172.687 81.1332C172.808 81.1332 172.866 81.1596 172.866 81.2154C172.866 81.2887 172.802 81.3269 172.676 81.3269C172.464 81.3269 172.236 81.3239 171.989 81.321C171.743 81.3151 171.537 81.3093 171.37 81.3005L171.135 81.2858C171.071 81.2858 170.892 81.2917 170.593 81.3063C170.296 81.321 170.076 81.3269 169.938 81.3269C169.809 81.3269 169.748 81.2917 169.748 81.2154C169.748 81.1596 169.803 81.1332 169.912 81.1332C170.041 81.1332 170.141 81.1244 170.214 81.1068C170.417 81.0716 170.537 80.8956 170.572 80.5846C170.601 80.3118 170.619 79.4258 170.619 77.9266ZM171.675 73.1035V76.8382C171.675 76.9204 171.699 76.9761 171.743 77.0025C171.963 77.1228 172.371 77.1815 172.963 77.1815C173.365 77.1815 173.673 77.114 173.884 76.9761C174.342 76.6827 174.571 76.1018 174.571 75.2305C174.571 74.4883 174.389 73.9162 174.028 73.5143C173.667 73.1123 173.174 72.9099 172.549 72.9099C172.203 72.9099 171.936 72.9334 171.754 72.9774C171.705 72.9979 171.675 73.039 171.675 73.1035Z" fill="#070A08"/>
<path d="M179.394 79.6019V72.8865C179.394 72.511 179.444 72.3232 179.546 72.3232C179.582 72.3232 179.725 72.4464 179.972 72.6929C180.054 72.7838 181.371 74.1363 183.927 76.7444C184.293 77.1023 184.824 77.6274 185.52 78.3228C186.215 79.0181 186.62 79.4229 186.728 79.5315L186.579 73.8165C186.57 73.441 186.535 73.1769 186.476 73.0273C186.417 72.8777 186.297 72.7779 186.112 72.731C185.901 72.6958 185.722 72.6753 185.578 72.6753C185.47 72.6753 185.414 72.6401 185.414 72.5638C185.414 72.508 185.496 72.4816 185.66 72.4816C185.898 72.4816 186.174 72.4904 186.485 72.508L186.951 72.5227C186.96 72.5227 187.092 72.5168 187.35 72.5022C187.606 72.4875 187.84 72.4816 188.051 72.4816C188.181 72.4816 188.242 72.508 188.242 72.5638C188.242 72.6195 188.201 72.6547 188.119 72.6753C188.101 72.6753 188.051 72.6811 187.975 72.6899C187.896 72.6987 187.831 72.7075 187.776 72.7163C187.611 72.7515 187.5 72.8366 187.447 72.9628C187.391 73.0919 187.365 73.353 187.365 73.7461L187.339 80.6404C187.339 80.8135 187.336 80.9485 187.333 81.0453C187.327 81.1421 187.321 81.2184 187.312 81.2712C187.303 81.3269 187.292 81.3592 187.277 81.3739C187.262 81.3885 187.242 81.3944 187.215 81.3944C187.124 81.3944 186.822 81.1509 186.309 80.6668C186.291 80.658 186.115 80.4908 185.781 80.1652C185.446 79.8395 184.997 79.3994 184.434 78.8391C183.871 78.2817 183.443 77.8592 183.149 77.5746C182.196 76.586 181.148 75.4946 180.004 74.3064L180.183 79.6781C180.201 80.174 180.239 80.5201 180.3 80.7167C180.362 80.9133 180.474 81.0306 180.638 81.0658C180.785 81.101 180.972 81.1216 181.201 81.1216C181.31 81.1216 181.365 81.1538 181.365 81.2184C181.365 81.2829 181.292 81.3152 181.145 81.3152C180.925 81.3152 180.714 81.3123 180.509 81.3093C180.303 81.3034 180.139 81.2976 180.022 81.2888C179.901 81.28 179.834 81.2741 179.816 81.2741C179.799 81.2741 179.728 81.277 179.611 81.28C179.491 81.2858 179.341 81.2917 179.159 81.3005C178.974 81.3093 178.798 81.3152 178.625 81.3152C178.487 81.3152 178.42 81.2829 178.42 81.2184C178.42 81.1538 178.484 81.1216 178.611 81.1216C178.775 81.1216 178.919 81.104 179.036 81.0658C179.183 81.0189 179.282 80.8927 179.332 80.6815C179.37 80.4761 179.394 80.1123 179.394 79.6019Z" fill="#070A08"/>
<path d="M194.394 77.9677H191.895C191.83 77.9677 191.786 78.0029 191.757 78.0763L191.152 79.7925C190.997 80.2326 190.918 80.5582 190.918 80.7665C190.918 81.0041 191.07 81.1244 191.37 81.1244H191.466C191.578 81.1244 191.631 81.1567 191.631 81.2213C191.631 81.2858 191.563 81.3181 191.425 81.3181C191.314 81.3181 191.117 81.3122 190.827 81.2975C190.536 81.2829 190.375 81.277 190.34 81.277C190.331 81.277 190.167 81.2829 189.844 81.2975C189.524 81.3122 189.248 81.3181 189.02 81.3181C188.873 81.3181 188.8 81.2858 188.8 81.2213C188.8 81.1567 188.852 81.1244 188.964 81.1244C189.093 81.1244 189.184 81.1215 189.24 81.1098C189.504 81.0834 189.715 80.9807 189.865 80.8076C190.017 80.6345 190.161 80.3734 190.296 80.0243L193.045 72.7867C193.118 72.5872 193.174 72.4581 193.209 72.4024C193.244 72.3466 193.285 72.3202 193.332 72.3202C193.397 72.3202 193.488 72.4669 193.608 72.7603C193.626 72.8072 194.025 73.8076 194.802 75.7674C195.579 77.7271 196.11 79.0444 196.395 79.7221C196.706 80.4731 197.052 80.9161 197.439 81.054C197.56 81.101 197.715 81.1215 197.906 81.1215C198.017 81.1215 198.07 81.1538 198.07 81.2183C198.07 81.2829 198.003 81.3151 197.865 81.3151C197.087 81.3151 196.389 81.3063 195.776 81.2887C195.547 81.2799 195.433 81.2477 195.433 81.1919C195.433 81.145 195.465 81.1156 195.53 81.0951C195.632 81.0482 195.65 80.9484 195.585 80.7929L194.5 78.0323C194.476 77.9883 194.438 77.9677 194.394 77.9677ZM192.03 77.4866H194.227C194.274 77.4866 194.286 77.4602 194.268 77.4044L193.186 74.368C193.139 74.2301 193.089 74.2301 193.033 74.368L192.003 77.4044C191.977 77.4572 191.986 77.4866 192.03 77.4866Z" fill="#070A08"/>
<path d="M200.875 75.8642V77.953C200.875 79.4991 200.972 80.3675 201.165 80.5494C201.377 80.7313 201.855 80.8252 202.609 80.8252C202.873 80.8252 203.072 80.8223 203.207 80.8105C203.339 80.8017 203.495 80.7665 203.668 80.7079C203.841 80.6492 203.976 80.5582 204.067 80.4409C204.205 80.2296 204.29 80.0008 204.328 79.7544C204.346 79.6429 204.384 79.5901 204.439 79.5901C204.492 79.5901 204.522 79.6488 204.522 79.769C204.522 80.1739 204.469 80.5846 204.357 81.0071C204.328 81.098 204.31 81.1567 204.302 81.1802C204.293 81.2037 204.263 81.2359 204.214 81.277C204.164 81.3181 204.093 81.3415 204.008 81.3445C203.923 81.3503 203.797 81.3533 203.63 81.3533C203.354 81.3533 202.855 81.3415 202.125 81.3181C201.397 81.2946 200.784 81.2829 200.291 81.2829C200.144 81.2829 199.948 81.2887 199.701 81.3034C199.455 81.3181 199.247 81.3239 199.082 81.3239C198.936 81.3239 198.862 81.2887 198.862 81.2125C198.862 81.1567 198.912 81.1303 199.012 81.1303C199.159 81.1303 199.27 81.1215 199.341 81.1039C199.534 81.0687 199.652 80.8516 199.699 80.4585C199.734 80.2296 199.751 79.3877 199.751 77.9296V75.8701C199.751 74.4589 199.743 73.6316 199.725 73.3852C199.716 73.2385 199.699 73.1241 199.675 73.0419C199.652 72.9598 199.599 72.8864 199.517 72.8219C199.434 72.7574 199.32 72.7163 199.173 72.6987C199.121 72.6899 199.003 72.684 198.83 72.684C198.73 72.684 198.678 72.6517 198.678 72.5872C198.678 72.5227 198.745 72.4904 198.883 72.4904C198.991 72.4904 199.115 72.4933 199.247 72.4963C199.379 72.5021 199.505 72.5051 199.625 72.5109C199.745 72.5168 199.857 72.5168 199.963 72.5168C200.065 72.5168 200.15 72.5168 200.218 72.5168L200.315 72.5315C200.362 72.5315 200.57 72.5256 200.945 72.5109C201.321 72.4963 201.582 72.4904 201.729 72.4904C201.846 72.4904 201.908 72.5227 201.908 72.5872C201.908 72.6517 201.855 72.684 201.755 72.684C201.691 72.684 201.567 72.6928 201.382 72.7104C201.201 72.7368 201.074 72.8014 201.013 72.904C200.948 73.0038 200.907 73.1652 200.89 73.3852C200.881 73.5084 200.875 74.3357 200.875 75.8642Z" fill="#070A08"/>
<path d="M124.688 29.3641C125.483 29.3641 126.214 29.4052 126.88 29.4902C127.141 29.5225 127.402 29.543 127.66 29.5518C128.121 29.5518 128.37 29.3171 128.411 28.8477C128.411 28.3871 127.968 28.0791 127.079 27.9236C126.34 27.818 125.592 27.7681 124.841 27.7681C123.702 27.7681 122.156 27.8679 120.205 28.0644C120.153 28.0644 120.126 28.0292 120.126 27.9559C120.208 27.4249 120.308 26.9056 120.422 26.4069C120.496 26.1135 120.563 25.7966 120.625 25.4534C120.625 25.1189 120.469 24.9048 120.155 24.8109C120.073 24.7786 119.988 24.7639 119.906 24.7639C119.698 24.7639 119.51 24.8637 119.343 25.0603C119.102 25.383 118.847 26.2719 118.574 27.7212C118.533 27.8972 118.495 28.0292 118.466 28.1114C118.436 28.1964 118.372 28.2522 118.278 28.2845C118.184 28.3167 117.861 28.3725 117.307 28.4575C115.731 28.7187 114.203 29.1264 112.721 29.678C112.46 29.7513 112.231 29.8922 112.032 30.1005C111.917 30.2471 111.859 30.4085 111.859 30.5845C111.859 30.74 111.906 30.8838 112 31.007C112.155 31.1859 112.334 31.274 112.531 31.274C112.645 31.274 112.765 31.2417 112.891 31.1801C113.164 31.0451 113.452 30.9336 113.754 30.8515C115.153 30.4437 116.576 30.1474 118.028 29.9596C118.102 29.9596 118.137 29.9919 118.137 30.0535V30.1943C117.876 32.0925 117.685 33.9701 117.562 35.833C117.497 35.8917 117.433 35.9357 117.371 36.0178C117.172 36.2878 117.005 36.5753 116.87 36.8774C116.837 36.9302 116.811 36.986 116.79 37.0505C116.362 38.0333 115.767 39.154 115.007 40.4156C114.693 41.0199 114.282 41.5627 113.769 42.0438C113.487 42.2844 113.197 42.4046 112.891 42.4046C112.598 42.4046 112.314 42.2961 112.029 42.0761C111.674 41.7739 111.413 41.4072 111.249 40.9818C110.935 40.1486 110.779 39.2978 110.779 38.4294C110.779 37.8544 110.832 37.2823 110.935 36.7073C110.987 36.4139 111.049 36.1176 111.122 35.8154C111.196 35.5015 111.263 35.1847 111.325 34.8619L111.34 34.7358C111.34 34.5686 111.29 34.4101 111.19 34.2576C111.09 34.108 110.964 33.9906 110.809 33.9055C110.694 33.8439 110.58 33.8117 110.465 33.8117C110.245 33.8117 110.031 33.9114 109.823 34.108C109.738 34.1813 109.656 34.2752 109.573 34.3896C109.529 34.4718 109.485 34.5158 109.433 34.5158C109.389 34.5158 109.339 34.4835 109.274 34.4219C108.993 34.1813 108.676 34.061 108.321 34.061L108.118 34.0757C107.367 34.1901 106.666 34.6067 106.021 35.3284C105.375 36.0501 104.85 36.898 104.454 37.8808C104.058 38.8607 103.858 39.7701 103.858 40.6033C103.858 41.0522 103.926 41.4482 104.061 41.7915C104.331 42.3137 104.697 42.5748 105.155 42.5748C105.375 42.5748 105.604 42.5132 105.845 42.387C106.147 42.1993 106.405 41.9646 106.613 41.6829C106.948 41.2546 107.25 40.8057 107.52 40.3363L107.646 40.1339L109.101 37.8162C109.122 37.8162 109.139 37.8162 109.148 37.8162C109.157 37.8162 109.169 37.8221 109.177 37.8309L109.163 38.3473C109.163 38.9311 109.218 39.5149 109.336 40.1016C109.491 41.2399 109.964 42.2257 110.744 43.0589C111.046 43.3522 111.372 43.5811 111.724 43.7483C112.073 43.9155 112.446 43.9977 112.845 43.9977C113.053 43.9977 113.261 43.9771 113.469 43.9361C114.264 43.7483 114.895 43.3317 115.365 42.6834C116.148 41.6477 116.82 40.5505 117.409 39.4093C117.401 39.9051 117.383 40.4038 117.383 40.8996C117.383 42.7978 117.462 44.693 117.618 46.5823C117.662 47.4683 117.806 48.3455 118.055 49.211C118.149 49.5777 118.331 49.8887 118.604 50.1498C118.759 50.2759 118.923 50.3375 119.091 50.3375C119.225 50.3375 119.352 50.2994 119.466 50.229C119.686 50.0823 119.795 49.8799 119.795 49.6188C119.774 49.431 119.733 49.252 119.671 49.0878C119.211 47.659 118.982 44.7986 118.982 40.5094C118.982 38.7052 119.07 36.7748 119.249 34.7182C119.355 33.2777 119.504 31.8431 119.704 30.4144C119.733 30.1855 119.768 30.0212 119.806 29.9215C119.844 29.8217 119.912 29.7572 120.009 29.7249C120.109 29.6927 120.273 29.6663 120.502 29.6457C121.2 29.5724 121.898 29.5078 122.59 29.4492C123.295 29.3934 123.99 29.3641 124.688 29.3641ZM108.456 35.9386C107.86 36.8041 107.291 37.693 106.751 38.5996C106.376 39.2039 105.994 39.8053 105.607 40.4009L105.451 40.574C105.504 40.0107 105.604 39.5032 105.748 39.0543C106.07 37.916 106.634 36.9302 107.438 36.0971C107.634 35.8682 107.881 35.6951 108.174 35.5807C108.215 35.5602 108.259 35.5484 108.3 35.5484C108.341 35.5484 108.382 35.5749 108.426 35.6277C108.435 35.6394 108.447 35.6541 108.456 35.6746C108.488 35.7157 108.503 35.7626 108.503 35.8154C108.503 35.8448 108.488 35.8858 108.456 35.9386Z" fill="#070A08"/>
<path d="M137.259 22.8835C137.174 22.8512 137.092 22.8365 137.007 22.8365C136.725 22.8365 136.491 23.0155 136.303 23.3675L136.162 23.7753C135.754 25.2363 135.446 26.7179 135.238 28.22C134.886 30.8516 134.66 33.3628 134.557 35.7685C134.469 35.836 134.381 35.9064 134.299 36.0179C134.1 36.2878 133.932 36.5753 133.797 36.8775C133.765 36.9303 133.739 36.986 133.718 37.0506C133.29 38.0334 132.694 39.1541 131.935 40.4156C131.621 41.02 131.21 41.5627 130.696 42.0438C130.415 42.2844 130.124 42.4047 129.819 42.4047C129.526 42.4047 129.241 42.2961 128.957 42.0761C128.602 41.7739 128.341 41.4072 128.176 40.9818C127.862 40.1486 127.707 39.2978 127.707 38.4295C127.707 37.8544 127.76 37.2824 127.862 36.7073C127.915 36.414 127.977 36.1177 128.05 35.8155C128.124 35.5016 128.191 35.1847 128.253 34.862L128.267 34.7358C128.267 34.5686 128.217 34.4102 128.118 34.2576C128.018 34.108 127.892 33.9907 127.736 33.9056C127.622 33.844 127.507 33.8117 127.393 33.8117C127.173 33.8117 126.959 33.9115 126.751 34.108C126.665 34.1814 126.583 34.2752 126.501 34.3897C126.457 34.4718 126.413 34.5158 126.36 34.5158C126.316 34.5158 126.266 34.4835 126.202 34.4219C125.92 34.1814 125.603 34.0611 125.248 34.0611L125.046 34.0758C124.295 34.1902 123.594 34.6068 122.948 35.3285C122.303 36.0472 121.778 36.898 121.382 37.8808C120.986 38.8607 120.786 39.7702 120.786 40.6034C120.786 41.0522 120.854 41.4483 120.989 41.7915C121.259 42.3138 121.625 42.5749 122.083 42.5749C122.303 42.5749 122.532 42.5132 122.772 42.3871C123.075 42.1993 123.333 41.9646 123.541 41.683C123.875 41.2547 124.178 40.8058 124.448 40.3364L124.574 40.134L126.029 37.8163C126.049 37.8163 126.067 37.8163 126.076 37.8163C126.085 37.8163 126.096 37.8222 126.105 37.831L126.09 38.3473C126.09 38.9311 126.146 39.5149 126.264 40.1017C126.419 41.24 126.891 42.2257 127.672 43.0589C127.974 43.3523 128.3 43.5811 128.652 43.7484C129.001 43.9156 129.373 43.9977 129.772 43.9977C129.981 43.9977 130.189 43.9772 130.397 43.9361C131.192 43.7484 131.823 43.3318 132.292 42.6834C133.137 41.5656 133.868 40.3804 134.49 39.1365C134.502 41.2605 134.578 43.1381 134.722 44.7341C134.774 45.5702 134.909 46.3887 135.126 47.1926C135.22 47.5681 135.402 47.9026 135.675 48.193C135.822 48.3397 135.989 48.413 136.177 48.413C136.271 48.413 136.364 48.3984 136.458 48.3661C136.74 48.2517 136.887 48.0434 136.896 47.7412V47.6796C136.896 47.5124 136.857 47.3569 136.784 47.2102C136.629 46.7291 136.514 46.2391 136.441 45.7404C136.253 44.2383 136.144 42.7245 136.112 41.2019C136.092 40.5242 136.08 39.8406 136.08 39.1512C136.08 37.1797 136.159 35.2053 136.315 33.2338C136.502 30.9278 136.778 28.6278 137.145 26.3306C137.227 25.8935 137.324 25.4534 137.427 25.0163C137.532 24.6408 137.62 24.2594 137.693 23.8751L137.723 23.6081C137.729 23.259 137.573 23.0184 137.259 22.8835ZM125.378 35.9387C124.782 36.8041 124.213 37.6931 123.673 38.5996C123.298 39.204 122.916 39.8054 122.529 40.4009L122.373 40.574C122.426 40.0108 122.526 39.5032 122.67 39.0543C122.992 37.916 123.556 36.9303 124.36 36.0971C124.556 35.8683 124.803 35.6952 125.096 35.5808C125.137 35.5602 125.181 35.5485 125.222 35.5485C125.263 35.5485 125.304 35.5749 125.348 35.6277C125.357 35.6394 125.369 35.6541 125.378 35.6747C125.41 35.7157 125.424 35.7627 125.424 35.8155C125.424 35.8448 125.41 35.8859 125.378 35.9387Z" fill="#070A08"/>
<path d="M165.467 35.6717C165.362 35.6189 165.259 35.5925 165.153 35.5925C164.904 35.5925 164.672 35.7333 164.464 36.0149C164.264 36.2848 164.097 36.5723 163.962 36.8745C163.93 36.9273 163.904 36.9831 163.883 37.0476C163.455 38.0304 162.859 39.1511 162.099 40.4126C161.785 41.017 161.375 41.5597 160.861 42.0409C160.58 42.2814 160.289 42.4017 159.984 42.4017C159.691 42.4017 159.406 42.2932 159.122 42.0731C158.767 41.771 158.506 41.4042 158.341 40.9788C158.027 40.1456 157.872 39.2949 157.872 38.4265C157.872 37.8514 157.925 37.2794 158.027 36.7043C158.08 36.411 158.142 36.1147 158.215 35.8125C158.288 35.4986 158.356 35.1817 158.418 34.859L158.432 34.7329C158.432 34.5656 158.382 34.4072 158.283 34.2547C158.183 34.105 158.057 33.9877 157.901 33.9026C157.787 33.841 157.672 33.8087 157.558 33.8087C157.338 33.8087 157.124 33.9085 156.915 34.105C156.83 34.1784 156.748 34.2723 156.666 34.3867C156.622 34.4688 156.578 34.5128 156.525 34.5128C156.481 34.5128 156.431 34.4806 156.367 34.419C156.085 34.1784 155.768 34.0581 155.413 34.0581L155.211 34.0728C154.46 34.1872 153.759 34.6038 153.113 35.3255C152.984 35.4692 152.882 35.6453 152.761 35.8008C151.778 36.2408 150.854 36.7836 149.998 37.4407C149.223 38.004 148.457 38.6084 147.695 39.2567L147.539 39.3829C147.519 39.2567 147.501 38.7609 147.492 37.8955C147.492 36.5694 147.53 35.5074 147.604 34.7035C147.604 34.4336 147.489 34.2224 147.26 34.0757C147.146 34.0141 147.032 33.9818 146.917 33.9818C146.53 33.9818 146.181 34.3104 145.87 34.9676L144.382 37.8779C144.019 38.6289 143.543 39.3066 142.96 39.9139C142.719 40.1838 142.426 40.3833 142.082 40.5094C142.009 40.53 141.942 40.5417 141.88 40.5417C141.619 40.5417 141.46 40.2043 141.411 39.5237L141.396 39.069C141.396 38.1712 141.575 37.0652 141.93 35.7509L141.991 35.5162C142.076 35.0996 142.247 34.7123 142.508 34.3573C142.613 34.2312 142.666 34.0904 142.666 33.9349C142.666 33.7471 142.596 33.574 142.455 33.4185C142.314 33.2631 142.141 33.1838 141.933 33.1838C141.807 33.1838 141.68 33.2102 141.557 33.263C141.287 33.4185 141.102 33.6444 141.009 33.9349C140.527 35.1054 140.17 36.3054 139.929 37.5346C139.835 38.0245 139.788 38.5174 139.788 39.0074C139.788 40.3422 140.108 41.2575 140.742 41.7475C141.064 42.0086 141.446 42.1377 141.886 42.1377C142.082 42.1377 142.282 42.1113 142.481 42.0585C143.065 41.8912 143.567 41.5891 143.983 41.1519C144.723 40.442 145.271 39.7027 145.626 38.9281C145.732 38.6993 145.805 38.5849 145.846 38.5849C145.899 38.6172 145.926 38.8313 145.926 39.2274C145.946 39.3741 145.958 39.5824 145.958 39.8523V40.0547L145.973 40.4918C145.973 40.7412 145.887 40.9348 145.723 41.0698C143.092 43.6163 141.073 46.5853 139.665 49.9767C139.093 51.3233 138.802 52.664 138.802 53.9989L138.82 54.5152C138.849 55.3191 139.096 56.0496 139.556 56.7067C140.128 57.5106 140.865 57.9125 141.763 57.9125C141.918 57.9125 142.082 57.8978 142.25 57.8656C142.948 57.7189 143.537 57.3903 144.019 56.8798C145.374 55.5244 146.351 53.9431 146.947 52.1359C147.436 50.4343 147.683 48.7064 147.683 46.9549L147.7 45.7169C147.7 45.3619 147.674 44.0358 147.621 41.7416C147.621 41.636 147.627 41.5597 147.636 41.5069C147.648 41.4541 147.677 41.4072 147.73 41.3661C148.859 40.3158 150.074 39.3858 151.335 38.5145C151.095 39.2538 150.972 39.9491 150.972 40.6004C150.972 41.0492 151.039 41.4453 151.174 41.7886C151.444 42.3108 151.811 42.5719 152.268 42.5719C152.488 42.5719 152.717 42.5103 152.958 42.3841C153.26 42.1963 153.518 41.9616 153.726 41.68C154.061 41.2517 154.363 40.8028 154.633 40.3334L154.759 40.131L156.214 37.8133C156.235 37.8133 156.252 37.8133 156.261 37.8133C156.27 37.8133 156.282 37.8192 156.291 37.828L156.276 38.3443C156.276 38.9281 156.332 39.512 156.449 40.0987C156.604 41.237 157.077 42.2228 157.857 43.0559C158.159 43.3493 158.485 43.5781 158.837 43.7454C159.186 43.9126 159.559 43.9947 159.958 43.9947C160.166 43.9947 160.374 43.9742 160.583 43.9331C161.378 43.7454 162.008 43.3288 162.478 42.6804C163.355 41.5216 164.112 40.2953 164.749 39.0015C164.76 38.9692 164.775 38.9399 164.796 38.9076C164.825 38.8548 164.857 38.7991 164.889 38.7345C165.318 37.9101 165.608 37.2354 165.767 36.7161C165.828 36.5606 165.86 36.4198 165.86 36.2936C165.846 36.0178 165.72 35.8066 165.467 35.6717ZM146.075 46.4268C146.075 48.2223 145.896 49.83 145.541 51.247C145.081 52.8752 144.268 54.304 143.1 55.5362C142.619 56.0466 142.17 56.3019 141.754 56.3019C141.305 56.3019 140.941 56.032 140.659 55.4892C140.481 55.0403 140.392 54.5768 140.392 54.0957C140.454 52.7168 140.733 51.4612 141.223 50.3229C142.37 47.6825 143.91 45.312 145.84 43.2173C145.882 43.1645 145.92 43.1087 145.952 43.0442L146.078 43.0911V46.4268H146.075ZM155.545 35.9386C154.95 36.8041 154.381 37.693 153.841 38.5996C153.465 39.2039 153.084 39.8053 152.697 40.4009L152.541 40.574C152.594 40.0107 152.694 39.5032 152.837 39.0543C153.078 38.2064 153.454 37.4437 153.961 36.763C153.999 36.719 154.043 36.675 154.07 36.6339C154.213 36.4491 154.363 36.2672 154.527 36.0971C154.724 35.8682 154.97 35.6951 155.264 35.5807C155.305 35.5602 155.349 35.5484 155.39 35.5484C155.431 35.5484 155.472 35.5749 155.516 35.6277C155.525 35.6394 155.537 35.6541 155.545 35.6746C155.578 35.7157 155.592 35.7626 155.592 35.8154C155.592 35.8448 155.578 35.8858 155.545 35.9386Z" fill="#070A08"/>
<path d="M213.918 20.2841C213.833 20.2518 213.751 20.2372 213.666 20.2372C213.384 20.2372 213.15 20.4161 212.962 20.7682L212.821 21.176C212.413 22.637 212.105 24.1185 211.897 25.6206C211.407 29.2731 211.155 32.7086 211.146 35.921C211.146 38.312 211.225 40.3833 211.381 42.1347C211.434 42.9709 211.568 43.7894 211.786 44.5932C211.879 44.9687 212.061 45.3032 212.334 45.5936C212.481 45.7403 212.648 45.8137 212.836 45.8137C212.93 45.8137 213.024 45.799 213.117 45.7667C213.399 45.6523 213.546 45.444 213.555 45.1418V45.0802C213.555 44.913 213.516 44.7575 213.443 44.6108C213.288 44.1297 213.173 43.6398 213.1 43.141C212.912 41.6389 212.804 40.1251 212.771 38.6025C212.751 37.9248 212.739 37.2412 212.739 36.5518C212.739 34.5803 212.818 32.6059 212.974 30.6344C213.162 28.3285 213.437 26.0284 213.804 23.7313C213.886 23.2941 213.983 22.8541 214.086 22.4169C214.191 22.0414 214.279 21.66 214.353 21.2757L214.382 21.0087C214.388 20.6596 214.232 20.422 213.918 20.2841Z" fill="#070A08"/>
<path d="M257.579 32.7761C257.473 32.7233 257.364 32.6969 257.25 32.6969C256.998 32.6969 256.781 32.8993 256.593 33.3071C256.414 33.5565 256.258 33.8352 256.123 34.1374C255.519 35.2757 254.809 36.3905 253.994 37.4877C253.724 37.8955 253.363 38.1918 252.914 38.3796C252.735 38.4529 252.559 38.4881 252.383 38.4881C252.154 38.4881 251.928 38.4089 251.711 38.2534C251.409 38.0129 251.157 37.7312 250.96 37.4085C250.605 36.7924 250.329 36.147 250.13 35.4664C250.109 35.393 250.083 35.3167 250.051 35.2317C250.03 35.1906 250.012 35.1437 250.004 35.0908C249.91 34.7769 249.778 34.4748 249.613 34.1843C249.32 33.756 248.965 33.5418 248.548 33.5418C248.308 33.5418 248.067 33.6152 247.83 33.7619C247.454 34.0112 247.14 34.3251 246.891 34.7007C246.119 35.7451 245.468 36.857 244.934 38.0363C244.922 38.0569 244.919 38.0745 244.919 38.0833C244.89 38.1772 244.831 38.2622 244.746 38.3327C244.661 38.1332 244.611 37.9366 244.591 37.7371C244.412 36.5695 244.324 35.396 244.324 34.2166V33.6533C244.324 33.2044 244.283 32.7497 244.198 32.292C243.978 31.5733 243.599 31.2124 243.056 31.2124C242.795 31.2124 242.514 31.3063 242.212 31.4941C241.742 31.8168 241.355 32.2187 241.053 32.6998C240.281 33.8469 239.659 35.0791 239.19 36.3934C239.023 36.854 238.867 37.3234 238.72 37.8016C238.635 38.095 238.547 38.3796 238.453 38.6642C238.453 36.8804 238.568 35.0938 238.797 33.3101V33.2631C238.808 33.2308 238.817 33.1986 238.826 33.1604C238.838 33.1223 238.858 33.0959 238.888 33.0754C239.116 32.9081 239.231 32.7116 239.231 32.4798C239.231 32.3243 239.202 32.163 239.137 31.9928C239.052 31.6378 238.844 31.4295 238.509 31.3679H238.401C238.242 31.3679 238.107 31.409 237.993 31.4941C237.878 31.5791 237.779 31.6877 237.697 31.8226C237.57 32.0427 237.494 32.2803 237.462 32.5414C237.409 32.779 237.371 33.0137 237.324 33.2514C237.312 33.2572 237.3 33.2543 237.289 33.2602C237.268 33.2719 237.254 33.2807 237.242 33.2924C236.94 33.4714 236.614 33.5946 236.271 33.668C235.866 33.7413 235.467 33.7765 235.083 33.7765C234.05 33.7765 233.047 33.5624 232.078 33.134C231.964 33.0812 231.896 32.9991 231.876 32.8847C231.762 32.4681 231.583 32.0808 231.345 31.7258C230.884 31.007 230.233 30.6198 229.388 30.567H229.341C228.672 30.567 228.329 30.9014 228.308 31.5703L228.323 31.7581C228.323 31.7786 228.317 31.7962 228.308 31.8138C228.297 31.8285 228.279 31.8373 228.247 31.8373C227.977 31.8901 227.772 32.0045 227.637 32.1806C227.502 32.3566 227.384 32.5561 227.293 32.7761C227.223 32.9287 227.17 33.0871 227.106 33.2426C227.079 33.2543 227.053 33.2484 227.026 33.2631C227.006 33.2748 226.991 33.2836 226.979 33.2954C226.677 33.4743 226.352 33.5976 226.008 33.6709C225.604 33.7442 225.205 33.7795 224.82 33.7795C223.788 33.7795 222.784 33.5653 221.816 33.137C221.702 33.0842 221.634 33.002 221.614 32.8876C221.499 32.471 221.32 32.0837 221.083 31.7288C220.622 31.01 219.971 30.6227 219.126 30.5699H219.079C218.41 30.5699 218.067 30.9044 218.046 31.5733L218.061 31.761C218.061 31.7816 218.055 31.7992 218.046 31.8168C218.034 31.8314 218.017 31.8402 217.985 31.8402C217.715 31.893 217.509 32.0075 217.374 32.1835C217.239 32.3595 217.122 32.559 217.031 32.779C216.28 34.3955 215.905 36.0825 215.905 37.8339C215.905 38.1156 215.916 38.3972 215.937 38.6788C215.957 39.5032 216.172 40.2865 216.579 41.0258C216.996 41.6947 217.577 42.0263 218.316 42.0263L218.565 42.0116C219.443 41.8972 220.073 41.4424 220.461 40.6503C221.077 39.5326 221.479 38.3532 221.666 37.1122C221.749 36.5372 221.801 35.9592 221.822 35.3754L221.851 34.8737L222.165 34.9676C223.031 35.2287 223.908 35.3578 224.794 35.3578C225.325 35.3578 225.865 35.305 226.407 35.2023C226.431 35.1994 226.451 35.1847 226.475 35.1818C226.275 36.0472 226.173 36.9303 226.173 37.831C226.173 38.1126 226.184 38.3943 226.205 38.6759C226.226 39.5003 226.44 40.2836 226.847 41.0229C227.264 41.6918 227.845 42.0233 228.584 42.0233L228.834 42.0087C229.711 41.8942 230.342 41.4395 230.729 40.6474C231.345 39.5296 231.747 38.3503 231.935 37.1093C232.017 36.5343 232.07 35.9563 232.09 35.3725L232.119 34.8708L232.433 34.9647C233.299 35.2258 234.176 35.3549 235.062 35.3549C235.593 35.3549 236.133 35.3021 236.676 35.1994C236.808 35.1789 236.919 35.1202 237.045 35.085C236.919 36.1265 236.849 37.1709 236.849 38.2212C236.849 38.9634 236.881 39.7086 236.943 40.4596C236.975 41.0552 237.13 41.6067 237.412 42.1201C237.661 42.4429 237.943 42.6042 238.257 42.6042C238.55 42.6042 238.817 42.4693 239.055 42.1964C239.202 42.0087 239.31 41.7945 239.383 41.5539C239.539 41.0845 239.671 40.6092 239.774 40.1281C240.193 38.1244 240.886 36.2203 241.857 34.4131C242.077 33.9848 242.358 33.5946 242.702 33.2396C242.722 33.4391 242.731 33.6416 242.731 33.8499C242.731 35.1319 242.81 36.411 242.966 37.6843C243.027 38.3532 243.227 38.9751 243.561 39.5472C243.904 40.0078 244.292 40.2367 244.72 40.2367C245.128 40.2367 245.503 40.0401 245.846 39.6411C245.993 39.4651 246.111 39.2656 246.207 39.0456C246.677 38.0011 247.234 37.0007 247.883 36.0384C247.912 35.9856 247.95 35.9328 247.991 35.883C248.097 35.704 248.238 35.5338 248.414 35.3666L248.54 35.7275C248.727 36.3025 248.942 36.8716 249.182 37.4349C249.505 38.1977 249.98 38.8549 250.605 39.4064C251.16 39.8553 251.749 40.0812 252.374 40.0812C252.738 40.0812 253.11 40.0078 253.486 39.8611C254.29 39.5179 254.935 38.9839 255.428 38.2652C255.792 37.743 256.132 37.2149 256.443 36.6839C257.018 35.7539 257.502 34.7857 257.901 33.7736C257.942 33.6386 257.963 33.5183 257.963 33.4127C257.954 33.137 257.831 32.9228 257.579 32.7761ZM220.211 35.1407C220.211 36.6868 219.883 38.1566 219.226 39.556C219.132 39.7849 219.006 39.9902 218.85 40.1663C218.683 40.3452 218.516 40.4332 218.348 40.4332C218.128 40.4332 217.952 40.2865 217.817 39.9961C217.609 39.4445 217.503 38.8754 217.503 38.2886V37.9747C217.503 36.5343 217.732 35.1202 218.193 33.7325C218.234 33.6269 218.29 33.5477 218.357 33.489C218.425 33.4303 218.495 33.3775 218.568 33.3247C218.683 33.2631 218.777 33.1839 218.85 33.09L218.897 33.0577C218.906 33.0577 218.92 33.0666 218.935 33.0812C218.95 33.0959 218.964 33.1106 218.973 33.1194L218.988 33.134C219.343 33.4479 219.707 33.7384 220.082 34.0112C220.135 34.0435 220.167 34.0816 220.185 34.1286C220.2 34.1755 220.208 34.2254 220.208 34.2782V35.1407H220.211ZM230.479 35.1407C230.479 36.6868 230.151 38.1566 229.494 39.556C229.4 39.7849 229.274 39.9902 229.118 40.1663C228.951 40.3452 228.784 40.4332 228.617 40.4332C228.396 40.4332 228.22 40.2865 228.086 39.9961C227.877 39.4445 227.772 38.8754 227.772 38.2886V37.9747C227.772 36.5343 228 35.1202 228.461 33.7325C228.502 33.6269 228.558 33.5477 228.625 33.489C228.693 33.4303 228.763 33.3775 228.837 33.3247C228.951 33.2631 229.045 33.1839 229.118 33.09L229.165 33.0577C229.174 33.0577 229.189 33.0666 229.203 33.0812C229.218 33.0959 229.233 33.1106 229.241 33.1194L229.256 33.134C229.611 33.4479 229.975 33.7384 230.35 34.0112C230.403 34.0435 230.435 34.0816 230.453 34.1286C230.468 34.1755 230.477 34.2254 230.477 34.2782V35.1407H230.479Z" fill="#070A08"/>
<path d="M260.172 25.2451C260.078 25.1982 259.984 25.1747 259.89 25.1747C259.711 25.1747 259.547 25.2539 259.398 25.4153C259.051 25.7996 258.755 26.2132 258.512 26.6562C258.427 26.8176 258.385 26.9672 258.385 27.108C258.385 27.3339 258.485 27.5158 258.682 27.6566C258.796 27.7329 258.914 27.7681 259.034 27.7681C259.269 27.7681 259.483 27.6449 259.682 27.4014C259.691 27.3838 259.7 27.3691 259.712 27.3574C259.72 27.331 259.735 27.3046 259.753 27.287L260.43 26.2719C260.524 26.1399 260.571 25.9991 260.571 25.8494C260.565 25.5795 260.433 25.3771 260.172 25.2451Z" fill="#070A08"/>
<path d="M271.992 34.1637C271.843 33.9672 271.655 33.8674 271.429 33.8674C271.335 33.8674 271.238 33.885 271.133 33.9232C270.927 34.0082 270.728 34.1197 270.543 34.2605C269.724 34.8913 268.994 35.6042 268.346 36.4022C267.369 37.5581 266.459 38.7551 265.611 39.9961C265.556 40.0811 265.503 40.1222 265.456 40.1222C265.409 40.1222 265.356 40.0929 265.3 40.0371C264.916 39.6792 264.517 39.3418 264.103 39.022C263.305 38.3473 262.906 37.5992 262.906 36.7806V36.6545C262.915 35.7245 263.056 34.9265 263.329 34.2605C263.546 33.6797 263.877 33.1663 264.329 32.7262L264.359 32.6998C264.367 32.6822 264.382 32.6646 264.4 32.6499C264.417 32.6352 264.444 32.6294 264.47 32.6294H264.499C264.526 32.6558 264.54 32.691 264.54 32.7291V32.8289C264.532 33.2807 264.432 33.7061 264.244 34.1109C264.171 34.2811 264.118 34.4542 264.092 34.6331V34.7182C264.092 35.0204 264.25 35.2316 264.57 35.3519L264.74 35.3783C264.966 35.3783 265.154 35.2463 265.303 34.9852L265.333 34.9001C265.541 34.4688 265.699 34.0082 265.814 33.5183C265.869 33.2543 265.899 32.9961 265.899 32.7438C265.899 32.424 265.831 32.116 265.702 31.8138C265.438 31.3268 265.083 31.0804 264.631 31.0804C264.461 31.0804 264.288 31.1185 264.109 31.1948C263.546 31.4471 263.091 31.8431 262.742 32.3771C262.076 33.3335 261.671 34.4014 261.53 35.5749C261.483 35.8859 261.46 36.191 261.46 36.4902C261.46 37.2324 261.607 37.9189 261.903 38.5468C262.199 39.1746 262.675 39.7408 263.332 40.2366C263.737 40.5476 264.127 40.8791 264.502 41.237C264.587 41.3133 264.628 41.3925 264.628 41.4776C264.628 41.5333 264.611 41.6008 264.573 41.6742C264.15 42.3783 263.848 43.1352 263.672 43.942C263.634 44.1679 263.616 44.382 263.616 44.5903C263.616 44.9013 263.663 45.1976 263.757 45.4792C263.851 45.7609 264.007 46.0279 264.224 46.2831C264.532 46.6117 264.875 46.776 265.25 46.776C265.57 46.776 265.884 46.6498 266.195 46.3946C266.447 46.1687 266.644 45.8958 266.785 45.5761C267.037 44.9746 267.166 44.382 267.166 43.8011C267.166 43.0589 266.964 42.3255 266.562 41.6037C266.515 41.5187 266.491 41.4336 266.491 41.3514C266.491 41.2781 266.518 41.196 266.576 41.1109C267.178 40.2366 267.809 39.3829 268.466 38.5468C269.234 37.5024 270.1 36.5518 271.056 35.6864C271.188 35.5719 271.32 35.4663 271.449 35.3636C271.573 35.261 271.699 35.1524 271.831 35.0409C272.01 34.8708 272.098 34.6918 272.098 34.5041C272.092 34.3896 272.057 34.2781 271.992 34.1637ZM265.385 45.1389C265.385 45.1477 265.38 45.1565 265.371 45.1683C265.362 45.1859 265.347 45.2064 265.327 45.224C265.309 45.2416 265.286 45.2504 265.256 45.2504C265.227 45.2504 265.209 45.2416 265.201 45.224C265.192 45.2064 265.183 45.1859 265.171 45.1683C265.171 45.1507 265.165 45.136 265.159 45.1243C265.083 44.9453 265.045 44.7663 265.045 44.5874L265.074 44.2764C265.159 43.807 265.324 43.3288 265.567 42.8389C265.673 43.1762 265.723 43.5048 265.723 43.8246C265.723 44.2793 265.608 44.7165 265.385 45.1389Z" fill="#070A08"/>
<path d="M115.385 12.9585C115.412 12.9702 115.347 13.0876 115.265 13.2343C114.963 13.7799 114.658 14.3256 114.364 14.8772C108.749 25.4446 103.125 36.0061 97.5098 46.5735C96.6062 48.2751 95.6997 49.9738 94.6436 51.5815C94.0187 52.5408 93.2148 53.5441 92.0853 53.6908C91.0174 53.8228 89.9906 53.1187 89.4332 52.2005C88.8846 51.2793 88.6294 50.1967 88.6059 49.123C88.4357 41.4981 88.6558 35.1113 89.3775 26.7178C84.0996 38.9076 81.5649 51.866 78.9362 64.8919C78.7015 64.9389 79.1533 61.4271 79.1826 61.2189C79.6286 58.2734 80.1977 55.3425 80.7992 52.4264C81.8465 47.3422 82.8909 42.3166 84.2346 37.3058C85.2995 33.3393 86.5699 29.3435 87.9869 25.4857C88.2333 24.8168 88.4797 24.1508 88.7526 23.4936C89.1193 22.6106 89.4713 21.7099 89.9026 20.8532C90.1608 20.3398 90.7065 19.4568 91.3695 19.9731C91.8272 20.331 91.7509 21.0498 91.7333 21.5603C91.7069 22.3143 91.6981 23.0682 91.6717 23.8222C91.613 25.5825 91.5074 27.3398 91.3812 29.0942C91.1318 32.6118 90.8062 36.1205 90.636 39.644C90.5862 40.7031 90.548 41.7592 90.5334 42.8183C90.4952 45.2797 90.5656 47.747 90.815 50.1967C90.8766 50.8451 91.0233 51.5873 91.5954 51.8895C92.5313 52.3765 93.4671 51.2705 93.9541 50.3434C100.576 37.5933 107.743 25.1248 115.385 12.9585Z" fill="#070A08"/>
<path d="M35.7776 34.8443C36.8455 32.3301 37.84 29.7865 38.6556 27.1285C39.7088 23.6931 40.4423 20.0435 40.3191 16.3264C40.1753 12.0549 37.9163 8.14124 34.1376 8.14124C28.0207 8.14124 24.0836 18.1307 22.0799 22.6105C18.6679 30.2354 16.1243 38.2093 13.8125 46.2244C9.91357 59.7461 8.64325 69.5947 6.18182 84.1872C9.97518 80.0565 15.5141 77.9647 20.5895 75.87C25.7705 73.7313 31.1951 72.2674 36.4436 70.3135C44.8664 67.1802 51.5143 60.3739 53.6677 51.5081C55.026 45.9163 54.1635 37.5845 49.1966 33.841C47.2926 32.4034 44.9397 32.1306 42.6367 32.5061C41.4163 32.7056 40.2281 33.0694 39.0663 33.4889C38.5207 33.6855 35.9947 34.3309 35.7776 34.8443Z" fill="#EEC6D4"/>
<path d="M57.0034 18.8085C57.0386 18.8231 56.9505 18.9816 56.842 19.1781C56.4371 19.9057 56.0294 20.6333 55.6392 21.3696C48.1405 35.4781 40.6359 49.5748 33.1372 63.6833C31.9314 65.954 30.7227 68.2247 29.3087 70.3693C28.4725 71.6484 27.3988 72.9892 25.8938 73.1857C24.4709 73.3617 23.0979 72.4229 22.3556 71.1937C21.6222 69.9644 21.2848 68.5181 21.2526 67.0864C21.0237 56.9063 21.3171 48.3808 22.2823 37.1767C15.2354 53.4474 11.8528 70.7478 8.34401 88.1332C8.03009 88.1948 8.63151 83.5096 8.67552 83.2309C9.27107 79.2967 10.0309 75.389 10.8348 71.4929C12.2342 64.7042 13.6248 58.0006 15.4202 51.3087C16.8402 46.0132 18.5359 40.6797 20.4282 35.528C20.7567 34.6361 21.0853 33.7472 21.452 32.87C21.942 31.6906 22.4114 30.4878 22.9864 29.3465C23.3297 28.663 24.0602 27.4836 24.9432 28.1701C25.5564 28.6454 25.4508 29.6076 25.4302 30.2883C25.398 31.2946 25.3833 32.3008 25.351 33.3071C25.2718 35.6571 25.131 38.0011 24.9638 40.3481C24.6293 45.0422 24.1951 49.7303 23.9692 54.4302C23.9017 55.8413 23.8519 57.2554 23.8313 58.6695C23.7815 61.9553 23.8724 65.247 24.2068 68.5181C24.289 69.3836 24.4856 70.3752 25.2483 70.7771C26.4981 71.4284 27.745 69.9527 28.3963 68.7147C37.2357 51.693 46.7997 35.0498 57.0034 18.8085Z" fill="#070A08"/>
<path d="M35.7543 32.6034C35.9044 32.5253 35.6942 32.7535 35.7543 32.6034Z" fill="#070A08"/>
<path d="M56.3579 32.336C54.6358 30.5992 52.0276 29.5812 48.9795 29.4052C48.8768 29.3905 48.7888 29.3905 48.7008 29.3905C48.6127 29.3758 48.5247 29.3758 48.4221 29.3758H48.0084C47.803 29.3758 47.5801 29.3758 47.3747 29.3905C46.9024 29.4052 46.433 29.4345 45.9166 29.4932C45.8286 29.5079 45.7113 29.5225 45.6086 29.5225C45.5059 29.5372 45.3885 29.5519 45.2859 29.5812C43.7251 29.7866 42.0763 30.1709 40.366 30.7312L39.3362 31.054L39.7645 30.0829C40.7356 27.8738 41.6187 25.6646 42.3844 23.5142C43.2088 21.2611 43.8718 19.0959 44.4175 17.0922C45.1832 14.22 45.6555 11.1279 45.6555 8.07968C45.6409 5.69453 45.4942 2.42339 43.0181 1.1736C42.5457 0.938904 42.003 0.806885 41.428 0.806885H41.2666C39.4712 0.880229 37.5554 2.08894 36.0827 3.13336C34.8153 4.01642 33.6095 5.06377 32.4888 6.22554C32.0165 6.72721 31.5471 7.22595 31.1187 7.74229C27.6393 11.9405 25.1955 16.1387 22.7223 20.953C22.4876 21.4107 21.9126 22.9128 22.825 23.0448C23.0157 23.0741 23.2064 22.9861 23.3707 22.8541C23.843 22.4551 24.0044 21.795 24.1657 21.1907C24.7114 19.0842 25.5651 17.0511 26.5949 15.1676C28.1263 12.3835 30.0274 9.88101 32.2805 7.58387C34.0906 5.75907 36.3438 3.71131 38.9079 3.04828C43.7515 1.75156 43.5608 7.77457 43.1061 10.7641C42.754 13.0465 42.1643 15.2997 41.5307 17.5088C40.1459 22.3847 38.2331 27.8914 35.757 32.603C35.9037 32.5296 35.6983 32.7497 35.757 32.603C35.5076 32.7497 34.5043 33.2807 34.2403 33.4274C33.7092 33.7354 33.1812 34.0611 32.6502 34.3984C31.195 35.3724 29.7457 36.3905 28.5253 37.6608C27.4369 38.7961 26.0433 40.5095 26.6242 42.1905C26.8736 42.9122 27.4046 43.4726 28.1556 43.6779C29.6431 44.0916 30.9985 43.0882 31.9549 42.0732C34.1053 39.8054 35.7247 37.2589 37.4615 34.6507C39.0223 33.929 41.1581 33.002 43.3819 32.471C43.4992 32.4416 43.6166 32.427 43.7192 32.3829C43.8366 32.3683 43.9393 32.3389 44.0566 32.3243C44.9543 32.1336 45.8668 32.0162 46.7968 31.9869H47.3718C48.1668 31.9869 48.9325 32.0602 49.6542 32.2069C52.6584 32.8113 57.8424 35.1377 58.7694 43.8716C59.9341 54.8438 52.5557 68.8173 33.4393 75.2833C29.7721 76.5214 25.9436 77.3458 22.247 78.1408C20.5367 78.5105 18.8233 78.8801 17.1218 79.2908C16.8196 79.3642 16.5174 79.4375 16.2182 79.5138C16.0333 79.5607 15.2647 79.6605 15.5874 80.0067C15.7634 80.1944 16.1272 80.0565 16.3326 80.0067C16.6641 79.9304 16.9927 79.8365 17.3242 79.7602C18.1691 79.5637 19.0199 79.3818 19.8707 79.2116C21.4285 78.9006 22.9922 78.6219 24.5588 78.3462C28.8304 77.5951 32.8497 76.8881 36.3555 75.5767C43.2469 72.9862 48.8005 69.407 52.8784 64.9154C55.8386 61.6912 58.1064 57.7864 59.4618 53.6498C60.4329 50.7336 60.9199 47.6854 60.9345 44.6519C60.9521 39.5971 59.3767 35.3402 56.3579 32.336ZM33.1342 38.3003C32.2072 39.5677 31.0571 41.0111 29.6871 41.8209C29.3497 42.0262 28.9214 42.1436 28.5517 41.9969C26.1519 41.0845 31.5852 36.8276 32.2922 36.4022C32.8819 36.0501 34.4134 35.0908 35.2231 34.7681C34.651 35.9445 33.9293 37.1972 33.1342 38.3003Z" fill="#070A08"/>
<path d="M12.9734 80.6785C12.9734 80.3294 12.5187 80.5377 12.3427 80.5905C12.1373 80.655 11.932 80.7196 11.7266 80.7871C11.3159 80.9191 10.9081 81.057 10.5003 81.1978C9.68763 81.4823 8.88085 81.7875 8.0858 82.1219C8.07113 82.1278 8.05353 82.1366 8.03886 82.1424C5.5657 83.2015 3.63529 84.3809 2.22122 85.751C2.11853 85.8243 2.03052 85.927 1.94251 86.015C1.83983 86.103 1.75181 86.2057 1.6638 86.3084C1.11812 86.9127 0.663388 87.5318 0.293735 88.1948C0.0737026 88.6085 -0.0436478 89.0632 0.0150274 89.3595C0.0150274 89.3888 0.0150274 89.4182 0.0296962 89.4328C0.0737026 89.5502 0.117709 89.6089 0.220391 89.6675C0.264397 89.6822 0.323072 89.6969 0.367079 89.6969C0.484429 89.6969 0.839414 89.6089 1.39683 88.8725C1.42617 88.8285 1.47017 88.7845 1.51418 88.7258C1.55819 88.6671 1.60219 88.6085 1.6462 88.5498C1.71954 88.4178 1.82222 88.3151 1.91024 88.1977C2.75223 87.0741 3.76437 86.0649 4.8528 85.1789C5.93242 84.3017 7.10593 83.5477 8.33517 82.8994C9.58495 82.2393 10.8934 81.6906 12.2253 81.2183C12.3662 81.1684 12.5099 81.1186 12.6507 81.0716C12.7916 81.0247 12.9353 80.8985 12.9676 80.7401C12.9705 80.7166 12.9734 80.6961 12.9734 80.6785Z" fill="#070A08"/>
<path d="M192.675 31.4622C192.775 31.4127 192.635 31.5644 192.675 31.4622Z" fill="#070A08"/>
<path d="M205.956 31.2915C204.844 30.1708 203.166 29.5166 201.201 29.4022C201.133 29.3934 201.077 29.3934 201.022 29.3934C200.966 29.3846 200.907 29.3846 200.843 29.3846H200.576C200.444 29.3846 200.3 29.3846 200.168 29.3934C199.863 29.4022 199.561 29.4227 199.229 29.4609C199.173 29.4697 199.097 29.4785 199.03 29.4785C198.962 29.4873 198.886 29.4961 198.821 29.5166C197.815 29.6486 196.753 29.8951 195.65 30.2559L194.984 30.4642L195.26 29.8364C195.888 28.4135 196.457 26.9877 196.95 25.603C197.481 24.1508 197.909 22.7543 198.261 21.4634C198.754 19.6122 199.059 17.6173 199.059 15.6546C199.05 14.1173 198.953 12.0079 197.36 11.2011C197.055 11.0486 196.706 10.9635 196.336 10.9635H196.231C195.072 11.0104 193.84 11.7908 192.889 12.4627C192.074 13.0318 191.293 13.7066 190.572 14.4576C190.266 14.7803 189.964 15.103 189.689 15.4346C187.447 18.1395 185.872 20.8473 184.276 23.9513C184.123 24.2446 183.754 25.2128 184.343 25.3008C184.466 25.3184 184.59 25.2626 184.695 25.1776C185 24.9223 185.103 24.494 185.209 24.1038C185.561 22.7455 186.109 21.437 186.775 20.2195C187.764 18.4241 188.987 16.8105 190.44 15.3289C191.607 14.1525 193.059 12.8323 194.711 12.404C197.836 11.5679 197.712 15.4522 197.416 17.3796C197.187 18.8524 196.809 20.3046 196.401 21.7275C195.509 24.8695 194.274 28.4194 192.681 31.4588C192.775 31.4118 192.643 31.5526 192.681 31.4588C192.52 31.5526 191.874 31.8959 191.704 31.9898C191.361 32.1893 191.02 32.3976 190.677 32.6176C189.738 33.2454 188.803 33.9026 188.019 34.7211C187.318 35.4516 186.42 36.5576 186.796 37.6402C186.957 38.1067 187.3 38.4675 187.785 38.5995C188.744 38.8665 189.618 38.2211 190.234 37.5639C191.619 36.1029 192.663 34.46 193.784 32.7789C194.79 32.3125 196.166 31.7169 197.601 31.3737C197.677 31.3561 197.753 31.3443 197.818 31.3179C197.894 31.3091 197.962 31.2886 198.035 31.2798C198.613 31.1566 199.203 31.0803 199.801 31.0627H200.171C200.684 31.0627 201.177 31.1096 201.644 31.2064C203.58 31.5966 206.921 33.0958 207.52 38.7257C208.271 45.799 203.512 54.8086 191.191 58.9745C188.826 59.7725 186.359 60.3035 183.976 60.8169C182.873 61.0545 181.77 61.2922 180.673 61.5591C180.479 61.6061 180.283 61.653 180.089 61.7029C179.972 61.7322 179.473 61.7968 179.681 62.0197C179.796 62.14 180.028 62.052 180.163 62.0197C180.377 61.9699 180.588 61.9112 180.802 61.8613C181.348 61.7352 181.894 61.6178 182.445 61.5093C183.448 61.3068 184.458 61.1279 185.467 60.9518C188.219 60.4678 190.812 60.013 193.071 59.1681C197.513 57.4959 201.092 55.1899 203.724 52.2943C205.631 50.2143 207.095 47.7001 207.969 45.0303C208.597 43.1498 208.908 41.1842 208.919 39.2303C208.919 35.9709 207.904 33.2278 205.956 31.2915ZM190.985 35.1348C190.387 35.9503 189.647 36.8803 188.764 37.4025C188.547 37.5346 188.272 37.6108 188.034 37.517C186.488 36.9273 189.991 34.1842 190.445 33.9084C190.824 33.6796 191.813 33.0635 192.335 32.8552C191.962 33.618 191.499 34.4248 190.985 35.1348Z" fill="#070A08"/>
<path d="M185.217 56.6686C185.226 56.6627 185.235 56.6539 185.244 56.6451C185.555 56.3429 185.411 55.2839 185.385 54.8203C185.068 49.6422 185.317 44.3556 185.552 39.2626C185.66 36.9655 185.766 34.5891 185.825 32.2626C185.836 31.8226 185.81 30.7429 185.484 30.6109C185.311 30.5435 185.173 30.7136 185.059 30.9718C184.921 31.2857 184.953 32.333 184.921 32.7555C184.865 33.4772 184.81 34.1989 184.751 34.9206C184.642 36.2966 184.537 37.6696 184.452 39.0484C184.273 41.947 184.152 44.8543 184.059 47.7617C184 49.5366 183.968 51.3262 184.123 53.0923C184.194 53.905 184.276 54.7235 184.434 55.5068C184.522 55.9557 184.836 56.9796 185.217 56.6686Z" fill="#070A08"/>
</svg>
