<svg width="334" height="92" viewBox="0 0 334 92" fill="none" xmlns="http://www.w3.org/2000/svg">
<path d="M235.692 79.7611V83.428C235.692 84.5788 235.683 85.3687 235.673 85.7881C235.663 86.2123 235.619 86.6658 235.546 87.1583C235.478 87.6508 235.351 88.0945 235.171 88.4944C234.839 89.2746 233.966 90.1377 232.562 91.0836C232.498 91.108 232.386 91.1763 232.225 91.2836C232.064 91.3908 231.952 91.4591 231.889 91.4835C231.879 91.4981 231.84 91.503 231.777 91.503C231.684 91.503 231.64 91.4689 231.64 91.4055C231.64 91.3567 231.723 91.2738 231.889 91.1568C232.069 91.069 232.25 90.9325 232.425 90.7521C232.859 90.3278 233.181 89.9377 233.396 89.5818C233.605 89.2258 233.781 88.6309 233.922 87.8068C234.064 86.9827 234.132 85.8612 234.132 84.4374V79.7562C234.132 77.7716 234.122 76.611 234.093 76.2648C234.068 75.9966 234 75.7918 233.893 75.6504C233.786 75.509 233.6 75.4066 233.347 75.3432C233.196 75.3188 233.001 75.3042 232.771 75.3042C232.679 75.3042 232.64 75.2652 232.64 75.1872C232.64 75.0848 232.737 75.0311 232.927 75.0311C233.171 75.0311 233.449 75.036 233.761 75.0506C234.073 75.0653 234.346 75.0701 234.576 75.0701L234.902 75.0896C234.917 75.0896 235.029 75.0848 235.249 75.0799C235.468 75.075 235.717 75.0653 235.995 75.0506C236.277 75.036 236.492 75.0311 236.648 75.0311C236.828 75.0311 236.916 75.0848 236.916 75.1872C236.916 75.2652 236.877 75.3042 236.799 75.3042C236.785 75.3042 236.638 75.3188 236.355 75.3432C235.97 75.431 235.761 75.7479 235.722 76.2843C235.702 76.6305 235.692 77.7911 235.692 79.7611Z" fill="#070A08"/>
<path d="M245.767 87.5923C244.64 87.5923 243.641 87.3972 242.763 87.0071C241.885 86.617 241.193 86.105 240.681 85.4711C240.169 84.8372 239.783 84.1545 239.53 83.428C239.276 82.7014 239.145 81.9505 239.145 81.1849C239.145 80.6485 239.223 80.0975 239.384 79.5367C239.544 78.976 239.798 78.4103 240.149 77.8398C240.5 77.2693 240.929 76.7671 241.436 76.3233C241.944 75.8796 242.578 75.5187 243.348 75.2408C244.118 74.958 244.957 74.8166 245.864 74.8166C247.81 74.8166 249.409 75.3676 250.672 76.4647C251.935 77.5667 252.564 79.054 252.564 80.9362C252.564 82.8038 251.935 84.3788 250.672 85.6661C249.409 86.9486 247.776 87.5923 245.767 87.5923ZM246.244 86.9388C246.561 86.9388 246.888 86.9047 247.225 86.8413C247.556 86.7779 247.946 86.6268 248.385 86.3878C248.829 86.1538 249.214 85.8417 249.546 85.4662C249.877 85.0908 250.165 84.5495 250.399 83.8424C250.633 83.1403 250.755 82.3259 250.755 81.4043C250.755 79.5514 250.267 78.0836 249.287 77.0109C248.307 75.9381 247.127 75.3968 245.747 75.3968C244.328 75.3968 243.168 75.8454 242.27 76.7427C241.373 77.6399 240.929 78.9516 240.929 80.6778C240.929 82.56 241.412 84.0716 242.378 85.2175C243.343 86.3634 244.63 86.9388 246.244 86.9388Z" fill="#070A08"/>
<path d="M257.743 79.761V82.0431C257.743 83.1549 257.84 84.0131 258.03 84.6129C258.22 85.2127 258.518 85.6857 258.913 86.0319C259.576 86.6219 260.425 86.9145 261.449 86.9145C262.56 86.9145 263.438 86.5439 264.077 85.8027C264.706 85.0859 265.018 83.7498 265.018 81.7944V79.761C265.018 77.7911 265.003 76.6305 264.979 76.2892C264.964 76.0698 264.945 75.9137 264.911 75.8113C264.876 75.7089 264.808 75.6114 264.711 75.5236C264.608 75.4358 264.462 75.3773 264.272 75.353C264.091 75.3286 263.911 75.3139 263.735 75.3139C263.609 75.3139 263.54 75.2749 263.54 75.1969C263.54 75.0945 263.633 75.0409 263.809 75.0409C264.052 75.0409 264.321 75.0457 264.613 75.0604C264.906 75.075 265.154 75.0799 265.354 75.0896C265.554 75.0945 265.657 75.0994 265.671 75.0994C265.686 75.0994 265.779 75.0945 265.949 75.0896C266.12 75.0848 266.325 75.075 266.554 75.0604C266.783 75.0457 266.973 75.0409 267.129 75.0409C267.31 75.0409 267.397 75.0848 267.397 75.1774C267.397 75.2652 267.334 75.3091 267.202 75.3091C267.1 75.3091 266.983 75.3139 266.856 75.3286C266.612 75.3529 266.451 75.4407 266.369 75.587C266.286 75.7333 266.232 75.9674 266.208 76.2843C266.193 76.6305 266.188 77.7862 266.188 79.7562V81.4629C266.188 83.8815 265.666 85.5394 264.633 86.4317C263.721 87.1973 262.555 87.5825 261.122 87.5825C259.561 87.5825 258.367 87.1973 257.533 86.4317C256.587 85.5491 256.114 84.1155 256.114 82.1309V79.7513C256.114 77.7667 256.094 76.6061 256.055 76.2599C256.041 75.9674 255.992 75.7479 255.904 75.6065C255.812 75.4651 255.626 75.3773 255.348 75.3383C255.197 75.3139 255.031 75.2993 254.851 75.2993C254.71 75.2993 254.641 75.2603 254.641 75.1823C254.641 75.0799 254.739 75.0262 254.929 75.0262C255.173 75.0262 255.451 75.0311 255.768 75.0457C256.08 75.0604 256.348 75.0653 256.563 75.075C256.777 75.0848 256.904 75.0848 256.928 75.0848C256.953 75.0848 257.211 75.075 257.699 75.0555C258.186 75.036 258.528 75.0262 258.737 75.0262C258.913 75.0262 259.006 75.0701 259.006 75.1628C259.006 75.2506 258.927 75.2944 258.776 75.2944C258.698 75.2944 258.557 75.3091 258.352 75.3334C258.133 75.3578 257.991 75.4407 257.923 75.5821C257.85 75.7235 257.806 75.9479 257.782 76.2551C257.747 76.6159 257.743 77.7764 257.743 79.761Z" fill="#070A08"/>
<path d="M271.098 82.638V79.761C271.098 77.7667 271.084 76.5964 271.059 76.2502C271.035 75.9673 270.972 75.7577 270.864 75.6163C270.762 75.4748 270.572 75.3773 270.289 75.3286C270.133 75.3042 269.982 75.2895 269.831 75.2895C269.689 75.2895 269.621 75.2505 269.621 75.1774C269.621 75.0896 269.694 75.0409 269.85 75.0409C270.001 75.0409 270.177 75.0457 270.367 75.0506C270.562 75.0555 270.743 75.0652 270.913 75.0701C271.084 75.075 271.24 75.0799 271.381 75.0799C271.523 75.0799 271.645 75.0799 271.747 75.0799L271.879 75.0994C271.903 75.0994 272.196 75.0896 272.752 75.0701C273.307 75.0506 273.688 75.0409 273.893 75.0409C275.302 75.0409 276.35 75.2847 277.043 75.7723C277.808 76.3331 278.193 77.1133 278.193 78.1129C278.193 79.4295 277.516 80.6388 276.16 81.7408C277.862 83.8376 279.042 85.2273 279.69 85.9051C280.354 86.5829 281.031 86.973 281.724 87.0754C281.904 87.0997 282.099 87.1144 282.319 87.1144C282.46 87.1144 282.528 87.1583 282.528 87.2509C282.528 87.3387 282.411 87.3826 282.182 87.3826H280.841C280.046 87.3826 279.466 87.3046 279.095 87.1534C278.978 87.1046 278.871 87.0461 278.769 86.9827C278.666 86.9193 278.559 86.8316 278.442 86.7243C278.33 86.617 278.228 86.5195 278.145 86.4366C278.062 86.3537 277.95 86.2269 277.808 86.0611C277.667 85.8953 277.559 85.7637 277.481 85.6661C277.408 85.5686 277.282 85.4077 277.106 85.1785C276.935 84.9493 276.804 84.7738 276.711 84.6616C276.428 84.3057 276.067 83.8424 275.628 83.2817C275.185 82.716 274.931 82.3942 274.868 82.3016C274.795 82.2235 274.717 82.1845 274.639 82.1845L272.664 82.165C272.6 82.165 272.566 82.1992 272.566 82.2625V82.5307C272.566 84.4861 272.6 85.6954 272.664 86.1586C272.688 86.3488 272.713 86.5 272.737 86.6024C272.761 86.7048 272.83 86.8023 272.937 86.8998C273.044 86.9973 273.205 87.0559 273.405 87.0802C273.658 87.1046 273.849 87.1193 273.961 87.1193C274.127 87.1193 274.21 87.1583 274.21 87.2363C274.21 87.3387 274.117 87.3923 273.941 87.3923C273.649 87.3923 273.327 87.3874 272.981 87.3826C272.634 87.3777 272.347 87.3679 272.118 87.3533L271.791 87.3338C271.703 87.3338 271.45 87.3436 271.035 87.3631C270.621 87.3826 270.313 87.3923 270.123 87.3923C269.943 87.3923 269.855 87.3436 269.855 87.2363C269.855 87.1583 269.933 87.1193 270.084 87.1193C270.265 87.1193 270.401 87.1046 270.504 87.0802C270.786 87.0315 270.952 86.7877 271.006 86.3488C271.074 85.9733 271.098 84.7397 271.098 82.638ZM272.576 75.904V81.1215C272.576 81.2385 272.61 81.3117 272.673 81.3507C272.981 81.5165 273.551 81.5994 274.38 81.5994C274.941 81.5994 275.37 81.5019 275.667 81.3117C276.306 80.9021 276.628 80.0926 276.628 78.8736C276.628 77.8398 276.375 77.0401 275.872 76.4745C275.365 75.9137 274.678 75.6309 273.81 75.6309C273.322 75.6309 272.951 75.665 272.698 75.7284C272.615 75.7577 272.576 75.8162 272.576 75.904Z" fill="#070A08"/>
<path d="M283.362 84.9786V75.5967C283.362 75.0701 283.43 74.8117 283.572 74.8117C283.621 74.8117 283.821 74.9823 284.167 75.3286C284.284 75.4553 286.122 77.3424 289.692 80.9898C290.204 81.4872 290.945 82.2235 291.92 83.1988C292.89 84.1691 293.456 84.7348 293.607 84.8859L293.397 76.9036C293.383 76.3769 293.334 76.0112 293.251 75.8015C293.168 75.5919 292.998 75.4553 292.744 75.3871C292.451 75.3383 292.198 75.3091 291.998 75.3091C291.847 75.3091 291.769 75.2603 291.769 75.153C291.769 75.075 291.886 75.036 292.115 75.036C292.447 75.036 292.832 75.0506 293.266 75.075L293.919 75.0945C293.934 75.0945 294.119 75.0847 294.475 75.0652C294.831 75.0457 295.158 75.036 295.455 75.036C295.636 75.036 295.723 75.075 295.723 75.153C295.723 75.231 295.665 75.2798 295.553 75.3091C295.528 75.3091 295.46 75.3139 295.353 75.3286C295.246 75.3432 295.153 75.3529 295.075 75.3676C294.846 75.4163 294.69 75.5334 294.617 75.7138C294.538 75.8942 294.499 76.2599 294.499 76.806L294.46 86.4415C294.46 86.6853 294.456 86.8706 294.451 87.0071C294.441 87.1388 294.436 87.246 294.421 87.3241C294.407 87.4021 294.392 87.4508 294.373 87.4655C294.353 87.485 294.324 87.4947 294.285 87.4947C294.158 87.4947 293.734 87.1534 293.017 86.4756C292.993 86.461 292.744 86.2269 292.281 85.7734C291.813 85.3199 291.189 84.7007 290.399 83.9205C289.614 83.1403 289.014 82.5502 288.604 82.1553C287.273 80.7753 285.81 79.249 284.211 77.5862L284.459 85.0907C284.484 85.7832 284.537 86.2659 284.62 86.539C284.703 86.8121 284.859 86.9778 285.088 87.0266C285.293 87.0754 285.556 87.1046 285.873 87.1046C286.025 87.1046 286.103 87.1485 286.103 87.2412C286.103 87.3289 286 87.3728 285.795 87.3728C285.488 87.3728 285.191 87.3679 284.903 87.3631C284.615 87.3582 284.386 87.3484 284.22 87.3338C284.055 87.3192 283.957 87.3143 283.933 87.3143C283.908 87.3143 283.811 87.3192 283.645 87.3241C283.479 87.3289 283.27 87.3387 283.011 87.3533C282.753 87.3679 282.504 87.3728 282.265 87.3728C282.07 87.3728 281.977 87.3289 281.977 87.2412C281.977 87.1534 282.065 87.1046 282.246 87.1046C282.475 87.1046 282.675 87.0802 282.84 87.0266C283.045 86.9632 283.182 86.7828 283.255 86.4902C283.328 86.2025 283.362 85.6954 283.362 84.9786Z" fill="#070A08"/>
<path d="M304.32 82.6965H300.829C300.741 82.6965 300.678 82.7453 300.639 82.8477L299.795 85.2468C299.576 85.8612 299.468 86.3147 299.468 86.6073C299.468 86.9389 299.678 87.1046 300.102 87.1046H300.239C300.395 87.1046 300.468 87.1485 300.468 87.2412C300.468 87.329 300.37 87.3728 300.18 87.3728C300.024 87.3728 299.746 87.3631 299.346 87.3436C298.942 87.3241 298.717 87.3143 298.664 87.3143C298.649 87.3143 298.42 87.3241 297.971 87.3436C297.523 87.3631 297.142 87.3728 296.821 87.3728C296.616 87.3728 296.513 87.329 296.513 87.2412C296.513 87.1534 296.587 87.1046 296.743 87.1046C296.923 87.1046 297.05 87.0998 297.128 87.0851C297.498 87.0461 297.791 86.9047 298.001 86.6609C298.21 86.4171 298.415 86.0514 298.605 85.5686L302.443 75.4554C302.545 75.1725 302.623 74.997 302.672 74.919C302.721 74.841 302.779 74.8019 302.843 74.8019C302.935 74.8019 303.062 75.0067 303.228 75.4163C303.252 75.4797 303.808 76.8792 304.896 79.6196C305.983 82.3601 306.724 84.1984 307.124 85.1444C307.558 86.1928 308.046 86.8169 308.582 87.0071C308.748 87.0705 308.967 87.1046 309.235 87.1046C309.391 87.1046 309.465 87.1485 309.465 87.2412C309.465 87.329 309.372 87.3728 309.177 87.3728C308.09 87.3728 307.114 87.3582 306.261 87.3338C305.944 87.3192 305.783 87.2753 305.783 87.1973C305.783 87.1339 305.827 87.09 305.915 87.0656C306.056 87.0022 306.081 86.8608 305.993 86.6414L304.476 82.7843C304.432 82.7307 304.384 82.6965 304.32 82.6965ZM301.019 82.0236H304.091C304.154 82.0236 304.174 81.9846 304.15 81.9066L302.633 77.6643C302.57 77.4692 302.496 77.4692 302.423 77.6643L300.985 81.9066C300.941 81.9895 300.951 82.0236 301.019 82.0236Z" fill="#070A08"/>
<path d="M313.375 79.761V82.677C313.375 84.8372 313.512 86.0465 313.78 86.3049C314.073 86.5585 314.746 86.6902 315.794 86.6902C316.165 86.6902 316.442 86.6853 316.628 86.6706C316.813 86.656 317.028 86.6121 317.271 86.5292C317.515 86.4463 317.701 86.3196 317.827 86.1538C318.022 85.8612 318.139 85.5394 318.193 85.1931C318.217 85.0371 318.271 84.964 318.349 84.964C318.422 84.964 318.461 85.0469 318.461 85.2127C318.461 85.7783 318.388 86.3537 318.232 86.9388C318.193 87.0656 318.169 87.1485 318.154 87.1778C318.139 87.207 318.1 87.2558 318.027 87.3094C317.954 87.3631 317.861 87.3972 317.74 87.407C317.618 87.4118 317.442 87.4167 317.213 87.4167C316.828 87.4167 316.13 87.4021 315.111 87.3679C314.097 87.3338 313.239 87.3192 312.546 87.3192C312.342 87.3192 312.069 87.3289 311.722 87.3484C311.376 87.3679 311.088 87.3777 310.859 87.3777C310.654 87.3777 310.552 87.3289 310.552 87.2217C310.552 87.1436 310.62 87.1046 310.762 87.1046C310.967 87.1046 311.123 87.09 311.22 87.0656C311.488 87.0169 311.654 86.7145 311.722 86.1635C311.771 85.8417 311.795 84.6665 311.795 82.6331V79.7562C311.795 77.7862 311.781 76.6256 311.756 76.2843C311.742 76.0795 311.722 75.9186 311.688 75.8064C311.654 75.6894 311.581 75.587 311.469 75.4992C311.352 75.4115 311.196 75.3529 310.991 75.3286C310.918 75.3139 310.757 75.3091 310.513 75.3091C310.372 75.3091 310.303 75.2652 310.303 75.1774C310.303 75.0896 310.401 75.0409 310.591 75.0409C310.742 75.0409 310.913 75.0457 311.098 75.0506C311.283 75.0555 311.459 75.0652 311.625 75.0701C311.791 75.075 311.947 75.0799 312.093 75.0799C312.239 75.0799 312.356 75.0799 312.449 75.0799L312.581 75.0994C312.644 75.0994 312.936 75.0896 313.463 75.0701C313.99 75.0506 314.351 75.0409 314.56 75.0409C314.726 75.0409 314.809 75.0847 314.809 75.1774C314.809 75.2652 314.736 75.3091 314.599 75.3091C314.507 75.3091 314.336 75.3237 314.078 75.3481C313.824 75.3871 313.648 75.4748 313.561 75.6163C313.473 75.7577 313.414 75.982 313.39 76.2892C313.38 76.4647 313.375 77.6253 313.375 79.761Z" fill="#070A08"/>
<path d="M76.2935 31.0818C77.615 31.0818 78.8292 31.15 79.9361 31.2914C80.3701 31.3451 80.8041 31.3792 81.2332 31.3938C81.9987 31.3938 82.4132 31.0037 82.4815 30.2235C82.4815 29.458 81.7452 28.946 80.2677 28.6875C79.0389 28.512 77.7954 28.4291 76.5471 28.4291C74.6551 28.4291 72.0854 28.5949 68.8427 28.9216C68.7549 28.9216 68.711 28.8631 68.711 28.7412C68.8476 27.8586 69.0133 26.9955 69.2035 26.1665C69.3254 25.6789 69.4376 25.1523 69.54 24.5818C69.54 24.0259 69.2815 23.6699 68.7598 23.5139C68.6233 23.4602 68.4818 23.4359 68.3453 23.4359C67.9991 23.4359 67.687 23.6016 67.4091 23.9284C67.0092 24.4647 66.585 25.9422 66.1315 28.3511C66.0632 28.6437 65.9998 28.8631 65.9511 28.9996C65.9023 29.141 65.795 29.2337 65.639 29.2873C65.483 29.341 64.9466 29.4336 64.025 29.575C61.4065 30.009 58.8659 30.6868 56.4035 31.6035C55.9695 31.7254 55.5891 31.9595 55.2575 32.3057C55.0674 32.5495 54.9698 32.8177 54.9698 33.1103C54.9698 33.3687 55.0479 33.6076 55.2039 33.8124C55.4623 34.1099 55.7598 34.2562 56.0865 34.2562C56.2767 34.2562 56.4766 34.2025 56.6863 34.1001C57.1398 33.8758 57.6176 33.6905 58.1199 33.554C60.4458 32.8762 62.8108 32.3837 65.2245 32.0716C65.3464 32.0716 65.405 32.1253 65.405 32.2277V32.4617C64.971 35.6166 64.654 38.7374 64.4492 41.8338C64.3419 41.9314 64.2347 42.0045 64.1323 42.141C63.8007 42.5896 63.5227 43.0675 63.2984 43.5698C63.2448 43.6575 63.2009 43.7502 63.1668 43.8575C62.4548 45.491 61.465 47.3537 60.202 49.4505C59.6803 50.455 58.9976 51.3571 58.1443 52.1568C57.6761 52.5566 57.1934 52.7566 56.6863 52.7566C56.1987 52.7566 55.7257 52.5761 55.2527 52.2104C54.6626 51.7082 54.2287 51.0986 53.9556 50.3916C53.4338 49.0067 53.1754 47.5926 53.1754 46.1493C53.1754 45.1935 53.2632 44.2427 53.4338 43.2869C53.5216 42.7993 53.624 42.3068 53.7459 41.8046C53.8678 41.2828 53.98 40.7562 54.0824 40.2198L54.1068 40.0101C54.1068 39.7322 54.0239 39.4689 53.8581 39.2153C53.6923 38.9666 53.4826 38.7716 53.2242 38.6302C53.034 38.5278 52.8438 38.4741 52.6536 38.4741C52.2879 38.4741 51.932 38.6399 51.5857 38.9666C51.4443 39.0885 51.3078 39.2446 51.1713 39.4347C51.0981 39.5713 51.025 39.6444 50.9372 39.6444C50.8641 39.6444 50.7812 39.5908 50.6739 39.4884C50.2058 39.0885 49.6791 38.8886 49.0891 38.8886L48.7527 38.913C47.5044 39.1031 46.3389 39.7956 45.2662 40.9951C44.1934 42.1898 43.3206 43.6039 42.6623 45.2374C42.004 46.8661 41.6724 48.3777 41.6724 49.7626C41.6724 50.5086 41.7845 51.1669 42.0089 51.7374C42.4575 52.6054 43.067 53.0394 43.8277 53.0394C44.1934 53.0394 44.5737 52.937 44.9736 52.7273C45.4758 52.4152 45.905 52.0251 46.2512 51.557C46.8071 50.8451 47.3093 50.099 47.7579 49.3188L47.9676 48.9824L50.3862 45.1301C50.4203 45.1301 50.4496 45.1301 50.4642 45.1301C50.4788 45.1301 50.4983 45.1399 50.513 45.1545L50.4886 46.0127C50.4886 46.9831 50.5812 47.9535 50.7763 48.9287C51.0347 50.8207 51.8198 52.4591 53.1169 53.844C53.6191 54.3316 54.1604 54.7119 54.7455 54.9899C55.3258 55.2678 55.9451 55.4043 56.6083 55.4043C56.9545 55.4043 57.3007 55.3702 57.6469 55.3019C58.9683 54.9899 60.0167 54.2974 60.7969 53.2198C62.0989 51.4985 63.2155 49.6748 64.1957 47.7779C64.181 48.602 64.1518 49.431 64.1518 50.2551C64.1518 53.41 64.2834 56.56 64.5419 59.7003C64.615 61.1729 64.8539 62.6309 65.2684 64.0694C65.4245 64.6789 65.7268 65.1958 66.1803 65.6298C66.4387 65.8395 66.7118 65.9419 66.9897 65.9419C67.214 65.9419 67.4237 65.8785 67.6139 65.7614C67.9796 65.5176 68.16 65.1812 68.16 64.7472C68.1259 64.4351 68.0576 64.1377 67.9552 63.8646C67.1896 61.4899 66.8093 56.7356 66.8093 49.6065C66.8093 46.6076 66.9556 43.3991 67.253 39.9809C67.4286 37.5866 67.6773 35.2022 68.0089 32.8275C68.0576 32.4471 68.1161 32.174 68.1795 32.0082C68.2429 31.8425 68.3551 31.7352 68.516 31.6815C68.6818 31.6279 68.9548 31.584 69.3352 31.5499C70.4957 31.428 71.6563 31.3207 72.807 31.2232C73.9725 31.1305 75.133 31.0818 76.2935 31.0818ZM49.3134 42.0094C48.3236 43.4479 47.3776 44.9254 46.4803 46.4321C45.8562 47.4366 45.2223 48.4362 44.5786 49.4261L44.3202 49.7138C44.408 48.7776 44.5737 47.934 44.8127 47.1879C45.3491 45.2959 46.2853 43.6575 47.6214 42.2727C47.9481 41.8923 48.3577 41.6046 48.8453 41.4145C48.9136 41.3803 48.9867 41.3608 49.055 41.3608C49.1233 41.3608 49.1915 41.4047 49.2647 41.4925C49.2793 41.512 49.2988 41.5364 49.3134 41.5705C49.3671 41.6388 49.3914 41.7168 49.3914 41.8046C49.3914 41.8533 49.3622 41.9265 49.3134 42.0094Z" fill="#070A08"/>
<path d="M97.1881 20.3102C97.0467 20.2566 96.9102 20.2322 96.7688 20.2322C96.3007 20.2322 95.9106 20.5296 95.5985 21.1148L95.3644 21.7926C94.6866 24.2209 94.1746 26.6834 93.8284 29.18C93.2433 33.554 92.8678 37.7281 92.6971 41.7266C92.5509 41.8387 92.4046 41.9557 92.268 42.141C91.9364 42.5896 91.6585 43.0675 91.4342 43.5698C91.3806 43.6575 91.3367 43.7502 91.3025 43.8575C90.5906 45.491 89.6007 47.3537 88.3378 49.4505C87.816 50.455 87.1334 51.3571 86.28 52.1568C85.8119 52.5566 85.3292 52.7566 84.822 52.7566C84.3344 52.7566 83.8614 52.5761 83.3884 52.2104C82.7984 51.7082 82.3644 51.0986 82.0914 50.3916C81.5696 49.0067 81.3112 47.5926 81.3112 46.1493C81.3112 45.1935 81.3989 44.2427 81.5696 43.2869C81.6574 42.7993 81.7598 42.3068 81.8817 41.8046C82.0036 41.2828 82.1157 40.7562 82.2181 40.2198L82.2425 40.0101C82.2425 39.7322 82.1596 39.4689 81.9938 39.2153C81.828 38.9666 81.6184 38.7716 81.3599 38.6302C81.1698 38.5278 80.9796 38.4741 80.7894 38.4741C80.4237 38.4741 80.0677 38.6399 79.7215 38.9666C79.5801 39.0885 79.4436 39.2446 79.307 39.4347C79.2339 39.5713 79.1608 39.6444 79.073 39.6444C78.9998 39.6444 78.9169 39.5908 78.8097 39.4884C78.3416 39.0885 77.8149 38.8886 77.2249 38.8886L76.8884 38.913C75.6401 39.1031 74.4747 39.7956 73.4019 40.9951C72.3292 42.1898 71.4563 43.6039 70.798 45.2374C70.1397 46.8661 69.8082 48.3777 69.8082 49.7626C69.8082 50.5086 69.9203 51.1669 70.1446 51.7374C70.5932 52.6054 71.2028 53.0394 71.9635 53.0394C72.3292 53.0394 72.7095 52.937 73.1094 52.7273C73.6116 52.4152 74.0407 52.0251 74.3869 51.557C74.9428 50.8451 75.4451 50.099 75.8937 49.3188L76.1034 48.9824L78.522 45.1302C78.5561 45.1302 78.5854 45.1302 78.6 45.1302C78.6146 45.1302 78.6341 45.1399 78.6488 45.1545L78.6244 46.0128C78.6244 46.9831 78.717 47.9535 78.9121 48.9287C79.1705 50.8207 79.9556 52.4591 81.2527 53.844C81.7549 54.3316 82.2962 54.7119 82.8813 54.9899C83.4616 55.2678 84.0809 55.4043 84.744 55.4043C85.0902 55.4043 85.4364 55.3702 85.7827 55.3019C87.1041 54.9899 88.1525 54.2974 88.9327 53.2198C90.337 51.362 91.5512 49.392 92.585 47.3245C92.6045 50.8548 92.7313 53.9756 92.9702 56.6283C93.058 58.018 93.2823 59.3785 93.6431 60.7146C93.7992 61.3387 94.1015 61.8946 94.555 62.3773C94.7988 62.6212 95.0767 62.7431 95.3888 62.7431C95.5449 62.7431 95.7009 62.7187 95.8569 62.665C96.325 62.4749 96.5689 62.1287 96.5835 61.6264V61.524C96.5835 61.2461 96.5201 60.9876 96.3982 60.7438C96.1397 59.9441 95.9496 59.1298 95.8277 58.3008C95.5156 55.8042 95.3352 53.2881 95.2815 50.7573C95.2474 49.6309 95.2279 48.4947 95.2279 47.3488C95.2279 44.072 95.3596 40.7903 95.618 37.5135C95.9301 33.6808 96.3884 29.8578 96.998 26.0398C97.1345 25.3132 97.2954 24.5818 97.4661 23.8552C97.6416 23.2311 97.7879 22.5971 97.9098 21.9584L97.9586 21.5146C97.9683 20.9344 97.7099 20.5345 97.1881 20.3102ZM77.4394 42.0094C76.4496 43.4479 75.5036 44.9254 74.6064 46.4321C73.9822 47.4366 73.3483 48.4362 72.7046 49.4261L72.4462 49.7138C72.534 48.7776 72.6998 47.934 72.9387 47.1879C73.4751 45.2959 74.4113 43.6575 75.7474 42.2727C76.0741 41.8923 76.4837 41.6046 76.9713 41.4145C77.0396 41.3803 77.1127 41.3608 77.181 41.3608C77.2493 41.3608 77.3175 41.4047 77.3907 41.4925C77.4053 41.512 77.4248 41.5364 77.4394 41.5705C77.4931 41.6388 77.5175 41.7168 77.5175 41.8046C77.5175 41.8533 77.4931 41.9265 77.4394 42.0094Z" fill="#070A08"/>
<path d="M144.073 41.5705C143.897 41.4827 143.727 41.4388 143.551 41.4388C143.137 41.4388 142.752 41.6729 142.405 42.141C142.074 42.5896 141.796 43.0675 141.572 43.5698C141.518 43.6575 141.474 43.7502 141.44 43.8575C140.728 45.491 139.738 47.3537 138.475 49.4505C137.953 50.455 137.271 51.3571 136.417 52.1568C135.949 52.5566 135.466 52.7566 134.959 52.7566C134.472 52.7566 133.999 52.5761 133.526 52.2104C132.936 51.7082 132.502 51.0986 132.229 50.3916C131.707 49.0067 131.448 47.5926 131.448 46.1493C131.448 45.1935 131.536 44.2427 131.707 43.2869C131.795 42.7993 131.897 42.3068 132.019 41.8046C132.141 41.2828 132.253 40.7562 132.355 40.2198L132.38 40.0101C132.38 39.7322 132.297 39.4689 132.131 39.2153C131.965 38.9666 131.756 38.7716 131.497 38.6301C131.307 38.5277 131.117 38.4741 130.927 38.4741C130.561 38.4741 130.205 38.6399 129.859 38.9666C129.717 39.0885 129.581 39.2445 129.444 39.4347C129.371 39.5713 129.298 39.6444 129.21 39.6444C129.137 39.6444 129.054 39.5908 128.947 39.4884C128.479 39.0885 127.952 38.8886 127.362 38.8886L127.026 38.913C125.777 39.1031 124.612 39.7956 123.539 40.9951C123.325 41.234 123.154 41.5266 122.954 41.7851C121.321 42.5165 119.785 43.4186 118.361 44.5109C117.073 45.4471 115.801 46.4516 114.533 47.5292L114.274 47.7389C114.24 47.5292 114.211 46.7052 114.196 45.2667C114.196 43.0626 114.26 41.2974 114.382 39.9614C114.382 39.5127 114.192 39.1617 113.811 38.9178C113.621 38.8154 113.431 38.7618 113.241 38.7618C112.597 38.7618 112.017 39.3079 111.5 40.4002L109.028 45.2374C108.423 46.4857 107.633 47.6121 106.663 48.6215C106.263 49.0701 105.775 49.4017 105.205 49.6114C105.083 49.6455 104.971 49.665 104.868 49.665C104.434 49.665 104.171 49.1043 104.088 47.973L104.064 47.2172C104.064 45.725 104.361 43.8867 104.951 41.7022L105.053 41.3121C105.195 40.6196 105.478 39.976 105.912 39.386C106.087 39.1763 106.175 38.9422 106.175 38.6838C106.175 38.3717 106.058 38.084 105.824 37.8256C105.59 37.5671 105.302 37.4355 104.956 37.4355C104.746 37.4355 104.537 37.4794 104.332 37.5671C103.883 37.8256 103.576 38.201 103.42 38.6838C102.62 40.6294 102.025 42.6238 101.626 44.6669C101.469 45.4812 101.391 46.3004 101.391 47.1148C101.391 49.3334 101.923 50.8548 102.976 51.6692C103.513 52.1031 104.147 52.3177 104.878 52.3177C105.205 52.3177 105.536 52.2738 105.868 52.186C106.838 51.9081 107.672 51.4058 108.364 50.6793C109.593 49.4992 110.505 48.2704 111.095 46.9831C111.271 46.6028 111.393 46.4126 111.461 46.4126C111.549 46.4662 111.593 46.8222 111.593 47.4805C111.627 47.7243 111.646 48.0705 111.646 48.5191V48.8556L111.671 49.5821C111.671 49.9966 111.529 50.3184 111.256 50.5427C106.882 54.7753 103.527 59.71 101.187 65.3469C100.236 67.5851 99.7531 69.8136 99.7531 72.0322L99.7823 72.8905C99.8311 74.2265 100.241 75.4407 101.006 76.533C101.957 77.8691 103.181 78.5371 104.673 78.5371C104.932 78.5371 105.205 78.5127 105.483 78.4591C106.643 78.2153 107.623 77.6692 108.423 76.8207C110.676 74.5679 112.3 71.9396 113.289 68.9358C114.104 66.1076 114.513 63.2355 114.513 60.3244L114.543 58.2667C114.543 57.6767 114.499 55.4726 114.411 51.6594C114.411 51.4839 114.421 51.3571 114.435 51.2693C114.455 51.1815 114.504 51.1035 114.591 51.0352C116.469 49.2896 118.487 47.7438 120.584 46.2956C120.184 47.5244 119.98 48.68 119.98 49.7626C119.98 50.5086 120.092 51.1669 120.316 51.7374C120.765 52.6054 121.374 53.0394 122.135 53.0394C122.501 53.0394 122.881 52.937 123.281 52.7273C123.783 52.4152 124.212 52.0251 124.558 51.557C125.114 50.8451 125.617 50.099 126.065 49.3188L126.275 48.9824L128.693 45.1301C128.728 45.1301 128.757 45.1301 128.771 45.1301C128.786 45.1301 128.806 45.1399 128.82 45.1545L128.796 46.0127C128.796 46.9831 128.888 47.9535 129.084 48.9287C129.342 50.8207 130.127 52.4591 131.424 53.8439C131.926 54.3316 132.468 54.7119 133.053 54.9899C133.633 55.2678 134.252 55.4043 134.915 55.4043C135.262 55.4043 135.608 55.3702 135.954 55.3019C137.276 54.9899 138.324 54.2974 139.104 53.2198C140.562 51.2937 141.82 49.2554 142.878 47.105C142.898 47.0514 142.922 47.0026 142.956 46.949C143.005 46.8612 143.059 46.7686 143.112 46.6613C143.824 45.2911 144.307 44.1695 144.57 43.3064C144.673 43.048 144.726 42.8139 144.726 42.6043C144.697 42.141 144.492 41.7948 144.073 41.5705ZM111.836 59.4418C111.836 62.4261 111.539 65.0983 110.949 67.4535C110.183 70.1598 108.833 72.5345 106.892 74.5825C106.092 75.431 105.346 75.8552 104.654 75.8552C103.908 75.8552 103.303 75.4066 102.835 74.5045C102.537 73.7584 102.391 72.988 102.391 72.1883C102.493 69.8965 102.957 67.8094 103.771 65.9175C105.678 61.5289 108.238 57.5889 111.446 54.1073C111.514 54.0195 111.578 53.9268 111.632 53.8196L111.841 53.8976V59.4418H111.836ZM127.577 42.0094C126.587 43.4479 125.641 44.9253 124.744 46.4321C124.12 47.4366 123.486 48.4362 122.842 49.4261L122.584 49.7138C122.671 48.7776 122.837 47.934 123.076 47.1879C123.476 45.7787 124.1 44.5109 124.944 43.3796C125.007 43.3064 125.08 43.2333 125.124 43.165C125.363 42.8578 125.612 42.5555 125.885 42.2727C126.211 41.8923 126.621 41.6046 127.109 41.4145C127.177 41.3803 127.25 41.3608 127.318 41.3608C127.387 41.3608 127.455 41.4047 127.528 41.4925C127.543 41.512 127.562 41.5364 127.577 41.5705C127.63 41.6388 127.655 41.7168 127.655 41.8046C127.655 41.8533 127.63 41.9265 127.577 42.0094Z" fill="#070A08"/>
<path d="M224.604 15.9947C224.462 15.9411 224.326 15.9167 224.184 15.9167C223.716 15.9167 223.326 16.2142 223.014 16.7993L222.78 17.4771C222.102 19.9055 221.59 22.368 221.244 24.8646C220.43 30.9355 220.01 36.6455 219.996 41.985C219.996 45.9591 220.127 49.4017 220.386 52.3128C220.474 53.7025 220.698 55.063 221.059 56.3991C221.215 57.0232 221.517 57.5791 221.971 58.0619C222.214 58.3057 222.492 58.4276 222.804 58.4276C222.96 58.4276 223.116 58.4032 223.273 58.3496C223.741 58.1594 223.984 57.8132 223.999 57.3109V57.2085C223.999 56.9306 223.936 56.6722 223.814 56.4283C223.555 55.6286 223.365 54.8143 223.243 53.9854C222.931 51.4887 222.751 48.9726 222.697 46.4418C222.663 45.3154 222.644 44.1793 222.644 43.0334C222.644 39.7566 222.775 36.4749 223.034 33.198C223.346 29.3653 223.804 25.5424 224.414 21.7243C224.55 20.9977 224.711 20.2663 224.882 19.5397C225.057 18.9156 225.204 18.2817 225.325 17.6429L225.374 17.1992C225.384 16.6189 225.121 16.219 224.604 15.9947Z" fill="#070A08"/>
<path d="M297.167 36.7577C296.991 36.6699 296.811 36.626 296.621 36.626C296.201 36.626 295.84 36.9625 295.528 37.6403C295.231 38.0548 294.972 38.518 294.748 39.0202C293.744 40.9122 292.564 42.7652 291.208 44.5889C290.759 45.2667 290.16 45.7592 289.414 46.0713C289.116 46.1932 288.824 46.2517 288.531 46.2517C288.151 46.2517 287.775 46.12 287.414 45.8616C286.912 45.4617 286.493 44.9936 286.166 44.4572C285.576 43.4332 285.118 42.3605 284.786 41.2292C284.752 41.1073 284.708 40.9805 284.654 40.8391C284.62 40.7708 284.591 40.6928 284.576 40.605C284.42 40.0833 284.201 39.581 283.928 39.0983C283.44 38.3863 282.85 38.0304 282.158 38.0304C281.758 38.0304 281.358 38.1523 280.963 38.3961C280.339 38.8106 279.817 39.3323 279.403 39.9565C278.12 41.6924 277.038 43.5405 276.15 45.5007C276.131 45.5349 276.126 45.5641 276.126 45.5788C276.077 45.7348 275.98 45.8762 275.838 45.9932C275.697 45.6617 275.614 45.3349 275.58 45.0034C275.282 43.0626 275.136 41.1121 275.136 39.1519V38.2157C275.136 37.4696 275.068 36.7138 274.926 35.9531C274.561 34.7584 273.932 34.1587 273.03 34.1587C272.596 34.1587 272.127 34.3147 271.625 34.6268C270.845 35.1632 270.201 35.8312 269.699 36.6309C268.417 38.5375 267.383 40.5855 266.603 42.7701C266.325 43.5356 266.066 44.3158 265.822 45.1106C265.681 45.5983 265.535 46.0713 265.379 46.5442C265.379 43.5795 265.569 40.6099 265.949 37.6452V37.5623C265.969 37.5086 265.983 37.455 265.998 37.3916C266.017 37.3282 266.052 37.2843 266.1 37.2502C266.481 36.9722 266.671 36.6455 266.671 36.2603C266.671 36.0019 266.622 35.7337 266.515 35.4509C266.373 34.8608 266.027 34.5146 265.471 34.4122H265.291C265.028 34.4122 264.803 34.4805 264.613 34.6219C264.423 34.7584 264.257 34.9437 264.121 35.168C263.911 35.5337 263.784 35.9287 263.731 36.3627C263.643 36.7577 263.579 37.1478 263.501 37.5428C263.482 37.5525 263.462 37.5476 263.443 37.5574C263.409 37.5769 263.384 37.5915 263.365 37.611C262.863 37.9085 262.321 38.1133 261.751 38.2352C261.078 38.3571 260.415 38.4156 259.776 38.4156C258.059 38.4156 256.392 38.0596 254.783 37.3477C254.592 37.2599 254.48 37.1234 254.446 36.9332C254.256 36.2408 253.959 35.5971 253.564 35.0071C252.798 33.8124 251.716 33.1688 250.311 33.081H250.233C249.121 33.081 248.551 33.6369 248.517 34.7487L248.541 35.0608C248.541 35.0949 248.531 35.1241 248.517 35.1534C248.497 35.1778 248.468 35.1924 248.414 35.1924C247.966 35.2802 247.624 35.4704 247.4 35.7629C247.176 36.0555 246.981 36.3871 246.83 36.7528C246.713 37.0064 246.625 37.2697 246.517 37.5281C246.474 37.5476 246.43 37.5379 246.386 37.5623C246.352 37.5818 246.327 37.5964 246.308 37.6159C245.806 37.9133 245.264 38.1181 244.694 38.24C244.021 38.362 243.358 38.4205 242.719 38.4205C241.002 38.4205 239.335 38.0645 237.726 37.3526C237.535 37.2648 237.423 37.1283 237.389 36.9381C237.199 36.2457 236.902 35.602 236.507 35.012C235.741 33.8173 234.659 33.1737 233.254 33.0859H233.176C232.064 33.0859 231.494 33.6418 231.46 34.7536L231.484 35.0656C231.484 35.0998 231.474 35.129 231.46 35.1583C231.44 35.1827 231.411 35.1973 231.357 35.1973C230.909 35.2851 230.567 35.4752 230.343 35.7678C230.119 36.0604 229.924 36.392 229.773 36.7577C228.524 39.4445 227.9 42.2483 227.9 45.1594C227.9 45.6275 227.92 46.0956 227.954 46.5638C227.988 47.934 228.344 49.2359 229.022 50.4647C229.714 51.5765 230.68 52.1275 231.908 52.1275L232.323 52.1031C233.781 51.913 234.829 51.1572 235.473 49.8406C236.497 47.9827 237.165 46.0225 237.477 43.9599C237.614 43.0041 237.701 42.0435 237.735 41.0731L237.784 40.2393L238.306 40.3953C239.744 40.8293 241.202 41.0439 242.675 41.0439C243.558 41.0439 244.455 40.9561 245.357 40.7854C245.396 40.7806 245.43 40.7562 245.469 40.7513C245.138 42.1898 244.967 43.6575 244.967 45.1545C244.967 45.6226 244.986 46.0908 245.02 46.5589C245.055 47.9291 245.411 49.231 246.088 50.4599C246.781 51.5716 247.746 52.1226 248.975 52.1226L249.39 52.0983C250.848 51.9081 251.896 51.1523 252.54 49.8357C253.564 47.9779 254.232 46.0176 254.544 43.955C254.68 42.9992 254.768 42.0386 254.802 41.0683L254.851 40.2344L255.373 40.3905C256.811 40.8244 258.269 41.039 259.742 41.039C260.624 41.039 261.522 40.9512 262.424 40.7806C262.643 40.7464 262.828 40.6489 263.038 40.5904C262.828 42.3214 262.711 44.0574 262.711 45.8031C262.711 47.0367 262.765 48.2753 262.867 49.5236C262.921 50.5135 263.18 51.4302 263.648 52.2836C264.062 52.8199 264.53 53.0881 265.052 53.0881C265.54 53.0881 265.983 52.8638 266.378 52.4103C266.622 52.0983 266.803 51.7423 266.924 51.3425C267.183 50.5623 267.402 49.7723 267.573 48.9726C268.27 45.6422 269.421 42.4775 271.035 39.4737C271.401 38.7618 271.869 38.1133 272.439 37.5232C272.474 37.8548 272.488 38.1913 272.488 38.5375C272.488 40.6684 272.62 42.7944 272.878 44.9107C272.981 46.0225 273.312 47.0563 273.868 48.0071C274.439 48.7727 275.082 49.153 275.794 49.153C276.472 49.153 277.096 48.8263 277.667 48.1632C277.911 47.8706 278.106 47.539 278.267 47.1733C279.047 45.4373 279.973 43.7746 281.051 42.1752C281.1 42.0874 281.163 41.9996 281.231 41.9167C281.407 41.6193 281.641 41.3364 281.933 41.0585L282.143 41.6583C282.455 42.614 282.811 43.56 283.211 44.4962C283.747 45.7641 284.537 46.8563 285.576 47.7731C286.498 48.5191 287.478 48.8946 288.516 48.8946C289.121 48.8946 289.74 48.7727 290.364 48.5289C291.701 47.9584 292.773 47.0709 293.593 45.8762C294.197 45.0082 294.763 44.1305 295.28 43.2479C296.235 41.7022 297.04 40.093 297.703 38.4107C297.771 38.1864 297.806 37.9865 297.806 37.8109C297.791 37.3526 297.586 37.0015 297.167 36.7577ZM235.063 40.683C235.063 43.2528 234.517 45.6958 233.425 48.0217C233.269 48.4021 233.059 48.7434 232.801 49.036C232.523 49.3334 232.245 49.4797 231.967 49.4797C231.601 49.4797 231.309 49.2359 231.084 48.7532C230.738 47.8364 230.562 46.8905 230.562 45.9152V45.3935C230.562 42.9992 230.943 40.6489 231.708 38.3424C231.777 38.1669 231.869 38.0352 231.981 37.9377C232.094 37.8402 232.211 37.7524 232.333 37.6647C232.523 37.5623 232.679 37.4306 232.801 37.2746L232.879 37.2209C232.893 37.2209 232.918 37.2355 232.942 37.2599C232.966 37.2843 232.991 37.3087 233.005 37.3233L233.03 37.3477C233.62 37.8695 234.225 38.3522 234.849 38.8057C234.936 38.8593 234.99 38.9227 235.019 39.0007C235.044 39.0788 235.058 39.1617 235.058 39.2494V40.683H235.063ZM252.13 40.683C252.13 43.2528 251.584 45.6958 250.492 48.0217C250.336 48.4021 250.126 48.7434 249.867 49.036C249.59 49.3334 249.312 49.4797 249.034 49.4797C248.668 49.4797 248.375 49.2359 248.151 48.7532C247.805 47.8364 247.629 46.8905 247.629 45.9152V45.3935C247.629 42.9992 248.01 40.6489 248.775 38.3424C248.843 38.1669 248.936 38.0352 249.048 37.9377C249.16 37.8402 249.277 37.7524 249.399 37.6647C249.59 37.5623 249.746 37.4306 249.867 37.2746L249.945 37.2209C249.96 37.2209 249.984 37.2355 250.009 37.2599C250.033 37.2843 250.058 37.3087 250.072 37.3233L250.097 37.3477C250.687 37.8695 251.291 38.3522 251.915 38.8057C252.003 38.8593 252.057 38.9227 252.086 39.0007C252.111 39.0788 252.125 39.1617 252.125 39.2494V40.683H252.13Z" fill="#070A08"/>
<path d="M301.477 24.2404C301.321 24.1624 301.165 24.1234 301.009 24.1234C300.712 24.1234 300.439 24.2551 300.19 24.5232C299.615 25.162 299.122 25.8496 298.717 26.5859C298.576 26.8541 298.508 27.1028 298.508 27.3368C298.508 27.7123 298.674 28.0146 299 28.2487C299.19 28.3755 299.385 28.434 299.585 28.434C299.975 28.434 300.331 28.2292 300.663 27.8244C300.678 27.7952 300.692 27.7708 300.712 27.7513C300.726 27.7074 300.751 27.6635 300.78 27.6343L301.906 25.9471C302.063 25.7277 302.141 25.4936 302.141 25.2449C302.136 24.7914 301.916 24.4599 301.477 24.2404Z" fill="#070A08"/>
<path d="M321.129 39.0641C320.88 38.7374 320.568 38.5716 320.192 38.5716C320.036 38.5716 319.875 38.6009 319.7 38.6643C319.358 38.8057 319.027 38.991 318.72 39.225C317.359 40.2734 316.145 41.4584 315.067 42.7847C313.444 44.7059 311.932 46.6954 310.523 48.7581C310.43 48.8995 310.342 48.9677 310.264 48.9677C310.186 48.9677 310.099 48.919 310.006 48.8263C309.367 48.2314 308.704 47.6707 308.016 47.1391C306.69 46.0176 306.027 44.7742 306.027 43.4137V43.204C306.042 41.6583 306.276 40.3319 306.729 39.225C307.09 38.2596 307.641 37.4062 308.392 36.6748L308.441 36.6309C308.455 36.6016 308.48 36.5724 308.509 36.548C308.538 36.5236 308.582 36.5139 308.626 36.5139H308.675C308.719 36.5578 308.743 36.6163 308.743 36.6797V36.8455C308.728 37.5964 308.563 38.3034 308.25 38.9764C308.129 39.2592 308.041 39.5469 307.997 39.8443V39.9857C307.997 40.488 308.26 40.8391 308.792 41.039L309.075 41.0829C309.45 41.0829 309.762 40.8635 310.011 40.4295L310.06 40.2881C310.406 39.5713 310.669 38.8057 310.859 37.9914C310.952 37.5525 311.001 37.1234 311.001 36.704C311.001 36.1725 310.888 35.6605 310.674 35.1583C310.235 34.3488 309.645 33.9392 308.894 33.9392C308.611 33.9392 308.324 34.0026 308.026 34.1294C307.09 34.5488 306.334 35.207 305.754 36.0945C304.647 37.6842 303.974 39.4591 303.74 41.4096C303.662 41.9265 303.623 42.4336 303.623 42.931C303.623 44.1647 303.867 45.3057 304.359 46.3492C304.852 47.3927 305.642 48.3338 306.734 49.1579C307.407 49.6748 308.055 50.2258 308.68 50.8207C308.821 50.9475 308.889 51.0791 308.889 51.2205C308.889 51.3132 308.86 51.4253 308.797 51.5473C308.094 52.7175 307.592 53.9756 307.3 55.3166C307.236 55.692 307.207 56.048 307.207 56.3942C307.207 56.9111 307.285 57.4036 307.441 57.8717C307.597 58.3398 307.855 58.7836 308.216 59.2078C308.728 59.7539 309.299 60.027 309.923 60.027C310.454 60.027 310.976 59.8173 311.493 59.3931C311.913 59.0176 312.239 58.5641 312.473 58.0326C312.893 57.033 313.107 56.048 313.107 55.0825C313.107 53.8488 312.771 52.6298 312.103 51.4302C312.025 51.2888 311.986 51.1474 311.986 51.0109C311.986 50.889 312.03 50.7524 312.127 50.611C313.127 49.1579 314.175 47.7389 315.267 46.3492C316.545 44.6133 317.983 43.0334 319.573 41.5949C319.792 41.4047 320.012 41.2292 320.226 41.0585C320.431 40.8878 320.641 40.7074 320.86 40.5221C321.158 40.2393 321.304 39.9418 321.304 39.6298C321.289 39.4347 321.236 39.2494 321.129 39.0641ZM310.142 57.3012C310.142 57.3158 310.133 57.3304 310.118 57.35C310.103 57.3792 310.079 57.4133 310.045 57.4426C310.016 57.4719 309.977 57.4865 309.928 57.4865C309.879 57.4865 309.85 57.4719 309.835 57.4426C309.821 57.4133 309.806 57.3792 309.786 57.35C309.786 57.3207 309.777 57.2963 309.767 57.2768C309.64 56.9794 309.577 56.6819 309.577 56.3845L309.626 55.8676C309.767 55.0874 310.04 54.2926 310.445 53.4782C310.62 54.039 310.703 54.5851 310.703 55.1166C310.703 55.8773 310.518 56.599 310.142 57.3012Z" fill="#070A08"/>
<path d="M60.8311 3.81395C60.875 3.83345 60.7677 4.0285 60.6311 4.27231C60.1289 5.17929 59.6218 6.08627 59.1341 7.003C49.8011 24.5671 40.4533 42.1215 31.1203 59.6857C29.6184 62.5139 28.1116 65.3372 26.3562 68.0094C25.3176 69.6039 23.9815 71.2716 22.1041 71.5154C20.3292 71.7348 18.6225 70.5645 17.696 69.0383C16.7842 67.5071 16.3599 65.7078 16.3209 63.9231C16.0381 51.2498 16.4038 40.6343 17.6034 26.6834C8.82131 46.949 4.61314 68.4872 0.244044 90.1377C-0.146053 90.2157 0.604884 84.3788 0.653647 84.0326C1.39483 79.1369 2.34082 74.2656 3.34044 69.4186C5.08125 60.9681 6.81719 52.6151 9.0505 44.2866C10.8206 37.6939 12.932 31.0525 15.2872 24.6403C15.6968 23.5285 16.1064 22.4216 16.5599 21.3293C17.1694 19.8616 17.7545 18.3646 18.4714 16.9407C18.9005 16.0874 19.8074 14.6197 20.9095 15.4779C21.6702 16.0728 21.5434 17.2674 21.5141 18.1159C21.4702 19.3691 21.4556 20.6223 21.4117 21.8755C21.3142 24.8012 21.1386 27.7221 20.929 30.638C20.5145 36.4846 19.9732 42.3166 19.6904 48.1729C19.6075 49.9332 19.5441 51.6887 19.5197 53.449C19.4563 57.5401 19.5734 61.641 19.9879 65.7127C20.0903 66.7903 20.3341 68.024 21.2849 68.5263C22.8404 69.3357 24.396 67.4974 25.2054 65.9565C36.2159 44.7596 48.1236 24.0356 60.8311 3.81395Z" fill="#070A08"/>
<path d="M326.673 67.6485C326.975 66.9415 327.253 66.2198 327.487 65.4689C327.785 64.4985 327.989 63.4696 327.955 62.4212C327.916 61.2168 327.277 60.1099 326.21 60.1099C324.483 60.1099 323.372 62.9283 322.806 64.1913C321.84 66.3417 321.124 68.5945 320.47 70.8571C319.368 74.6752 319.012 77.4546 318.315 81.5701C319.388 80.4047 320.948 79.8147 322.382 79.2198C323.845 78.6151 325.376 78.2007 326.858 77.6497C329.238 76.7671 331.11 74.8458 331.72 72.3443C332.105 70.7644 331.861 68.4141 330.457 67.356C329.92 66.9512 329.257 66.8732 328.604 66.9805C328.258 67.0341 327.926 67.1414 327.594 67.2584C327.448 67.3218 326.731 67.5071 326.673 67.6485Z" fill="#EEC6D4"/>
<path d="M332.661 63.1234C332.671 63.1283 332.646 63.1722 332.617 63.2258C332.505 63.4306 332.388 63.6354 332.276 63.8451C330.159 67.829 328.043 71.808 325.927 75.787C325.585 76.4257 325.244 77.0694 324.844 77.674C324.61 78.0349 324.308 78.4152 323.879 78.4689C323.479 78.5176 323.089 78.2543 322.879 77.9081C322.674 77.5619 322.577 77.1523 322.567 76.7476C322.504 73.8755 322.587 71.4666 322.86 68.3068C320.87 72.9002 319.914 77.7813 318.924 82.6917C318.837 82.7112 319.007 81.3849 319.017 81.3068C319.188 80.1951 319.397 79.093 319.627 77.9959C320.022 76.0795 320.417 74.1876 320.919 72.3005C321.319 70.8035 321.797 69.3016 322.333 67.8485C322.426 67.5949 322.518 67.3462 322.621 67.0975C322.757 66.766 322.894 66.4246 323.055 66.1028C323.152 65.9077 323.357 65.5762 323.606 65.7712C323.776 65.9077 323.747 66.1759 323.742 66.371C323.732 66.6538 323.728 66.9415 323.718 67.2243C323.693 67.8875 323.654 68.5506 323.611 69.2089C323.518 70.5353 323.396 71.8567 323.333 73.1831C323.313 73.5829 323.298 73.9828 323.294 74.3777C323.279 75.3042 323.303 76.2356 323.401 77.1572C323.425 77.401 323.479 77.6838 323.693 77.796C324.045 77.9813 324.4 77.5619 324.581 77.2157C327.082 72.4077 329.784 67.7071 332.661 63.1234Z" fill="#070A08"/>
<path d="M326.663 67.0195C326.707 66.9951 326.648 67.0585 326.663 67.0195Z" fill="#070A08"/>
<path d="M332.48 66.9415C331.993 66.449 331.256 66.1662 330.398 66.1125C330.369 66.1077 330.345 66.1076 330.32 66.1076C330.296 66.1028 330.271 66.1028 330.242 66.1028H330.125C330.067 66.1028 330.003 66.1028 329.945 66.1076C329.813 66.1125 329.677 66.1223 329.535 66.1369C329.511 66.1418 329.477 66.1467 329.447 66.1467C329.418 66.1515 329.384 66.1564 329.355 66.1613C328.916 66.2198 328.448 66.3271 327.965 66.4831L327.672 66.5758L327.794 66.3027C328.067 65.6785 328.316 65.0544 328.536 64.4497C328.77 63.8158 328.955 63.2014 329.111 62.6358C329.325 61.8263 329.462 60.9535 329.462 60.0904C329.457 59.4175 329.418 58.4959 328.716 58.1399C328.584 58.0716 328.428 58.0375 328.267 58.0375H328.223C327.716 58.057 327.175 58.3983 326.761 58.6958C326.405 58.9445 326.063 59.2419 325.746 59.5686C325.615 59.71 325.478 59.8515 325.361 59.9977C324.381 61.1827 323.689 62.3676 322.991 63.7281C322.923 63.8548 322.762 64.2791 323.021 64.3181C323.074 64.3278 323.128 64.3034 323.177 64.2644C323.308 64.1523 323.357 63.967 323.401 63.7963C323.557 63.2014 323.796 62.626 324.088 62.0945C324.522 61.3094 325.059 60.6024 325.693 59.9539C326.205 59.437 326.839 58.8616 327.565 58.6714C328.931 58.3057 328.877 60.0075 328.75 60.8511C328.653 61.4947 328.482 62.1335 328.306 62.7528C327.916 64.1279 327.375 65.6834 326.678 67.0146C326.722 66.9951 326.663 67.0585 326.678 67.0146C326.609 67.0585 326.327 67.2048 326.249 67.2487C326.097 67.3365 325.951 67.4291 325.8 67.5218C325.39 67.7948 324.981 68.0825 324.635 68.4434C324.327 68.7652 323.932 69.2479 324.098 69.7209C324.166 69.9257 324.318 70.0818 324.532 70.1403C324.952 70.2573 325.337 69.9745 325.605 69.6868C326.21 69.048 326.668 68.3263 327.16 67.59C327.599 67.3852 328.204 67.1268 328.833 66.9756C328.867 66.9659 328.901 66.961 328.93 66.9512C328.965 66.9464 328.994 66.9366 329.028 66.9366C329.282 66.883 329.54 66.8488 329.803 66.8391H329.964C330.189 66.8391 330.403 66.8586 330.608 66.9025C331.456 67.0731 332.919 67.7314 333.183 70.1939C333.509 73.2903 331.427 77.2352 326.034 79.0589C325 79.41 323.918 79.6392 322.874 79.8635C322.391 79.9659 321.909 80.0731 321.426 80.1902C321.343 80.2097 321.255 80.2341 321.172 80.2536C321.119 80.2682 320.904 80.2926 320.992 80.395C321.041 80.4486 321.143 80.4096 321.202 80.395C321.294 80.3755 321.387 80.3462 321.48 80.3267C321.719 80.2731 321.958 80.2194 322.196 80.1707C322.635 80.0829 323.079 80.0049 323.518 79.9269C324.722 79.7172 325.858 79.5173 326.848 79.1467C328.794 78.4152 330.359 77.4058 331.51 76.138C332.344 75.2262 332.988 74.1242 333.368 72.9587C333.641 72.1347 333.777 71.2764 333.782 70.4182C333.777 68.9944 333.334 67.7899 332.48 66.9415ZM325.927 68.6287C325.663 68.9846 325.342 69.3942 324.956 69.6234C324.859 69.6819 324.742 69.7161 324.635 69.6722C323.957 69.4137 325.493 68.2142 325.693 68.0923C325.859 67.9947 326.292 67.7217 326.522 67.629C326.351 67.9606 326.151 68.3166 325.927 68.6287Z" fill="#070A08"/>
<path d="M320.236 80.5851C320.236 80.4876 320.109 80.5461 320.061 80.5608C320.002 80.5803 319.944 80.5949 319.885 80.6144C319.768 80.6534 319.656 80.6924 319.539 80.7314C319.31 80.8095 319.081 80.8972 318.856 80.9899C318.851 80.9899 318.846 80.9948 318.842 80.9948C318.144 81.2922 317.598 81.6287 317.198 82.0139C317.169 82.0334 317.145 82.0626 317.12 82.087C317.091 82.1114 317.067 82.1407 317.042 82.1699C316.886 82.3406 316.759 82.5161 316.657 82.7014C316.594 82.8185 316.56 82.9452 316.579 83.0281C316.579 83.0379 316.579 83.0428 316.584 83.0476C316.599 83.0818 316.608 83.0964 316.638 83.1159C316.652 83.1208 316.667 83.1257 316.681 83.1257C316.716 83.1257 316.813 83.1013 316.974 82.8916C316.984 82.877 316.994 82.8672 317.008 82.8477C317.023 82.8331 317.032 82.8136 317.047 82.799C317.067 82.7599 317.096 82.7307 317.12 82.7014C317.359 82.3845 317.642 82.0968 317.949 81.8481C318.252 81.5994 318.583 81.3897 318.934 81.2044C319.285 81.0191 319.656 80.8631 320.031 80.7314C320.07 80.7168 320.109 80.7022 320.153 80.6876C320.192 80.6729 320.231 80.6388 320.241 80.5949C320.236 80.5998 320.236 80.5949 320.236 80.5851Z" fill="#070A08"/>
<path d="M189.295 34.5731C189.451 34.4902 189.232 34.7292 189.295 34.5731Z" fill="#070A08"/>
<path d="M211.37 34.2854C209.522 32.4227 206.732 31.3353 203.465 31.1452C203.353 31.1305 203.261 31.1305 203.168 31.1305C203.075 31.1159 202.978 31.1159 202.87 31.1159H202.427C202.207 31.1159 201.968 31.1159 201.749 31.1305C201.242 31.1452 200.74 31.1793 200.189 31.2427C200.096 31.2573 199.969 31.2719 199.857 31.2719C199.745 31.2866 199.618 31.3012 199.511 31.3353C197.838 31.5548 196.073 31.9644 194.24 32.5641L193.133 32.9103L193.591 31.8668C194.635 29.5019 195.581 27.132 196.4 24.8304C197.282 22.4167 197.994 20.0956 198.579 17.9501C199.399 14.8732 199.906 11.5574 199.906 8.29519C199.891 5.74005 199.73 2.23405 197.082 0.893088C196.566 0.644401 195.985 0.502991 195.366 0.502991H195.19C193.264 0.58101 191.216 1.87808 189.636 2.99474C188.281 3.94073 186.984 5.06226 185.784 6.31057C185.277 6.84695 184.775 7.38334 184.316 7.93435C180.591 12.4302 177.972 16.931 175.32 22.09C175.066 22.5776 174.452 24.1868 175.432 24.3331C175.637 24.3623 175.842 24.2697 176.017 24.1283C176.524 23.704 176.695 22.9921 176.87 22.3436C177.456 20.0859 178.367 17.9111 179.474 15.8875C181.118 12.9032 183.151 10.2213 185.565 7.75881C187.506 5.80344 189.919 3.60914 192.665 2.89721C197.858 1.50749 197.653 7.96361 197.16 11.1673C196.78 13.6151 196.151 16.0289 195.473 18.3938C193.991 23.6163 191.938 29.5165 189.29 34.5683C189.446 34.4902 189.227 34.7243 189.29 34.5683C189.022 34.7243 187.949 35.2948 187.666 35.4509C187.096 35.7824 186.53 36.1286 185.96 36.4944C184.399 37.5379 182.844 38.6302 181.542 39.9906C180.376 41.2048 178.884 43.0431 179.508 44.8425C179.777 45.6178 180.347 46.2175 181.152 46.437C182.746 46.8807 184.199 45.8079 185.223 44.7157C187.525 42.2873 189.261 39.5566 191.124 36.7626C192.796 35.9872 195.083 34.9974 197.468 34.4268C197.594 34.3976 197.721 34.3781 197.828 34.3342C197.955 34.3196 198.067 34.2854 198.189 34.2708C199.15 34.066 200.13 33.9392 201.125 33.91H201.739C202.593 33.91 203.412 33.988 204.187 34.1489C207.405 34.7974 212.959 37.2892 213.954 46.6467C215.202 58.4032 207.293 73.3781 186.813 80.3023C182.883 81.6286 178.782 82.5112 174.822 83.3646C172.989 83.7596 171.156 84.1545 169.332 84.5983C169.01 84.6763 168.683 84.7543 168.361 84.8372C168.166 84.886 167.337 84.9932 167.684 85.3638C167.874 85.5638 168.259 85.4175 168.483 85.3638C168.839 85.2809 169.19 85.1834 169.546 85.1005C170.453 84.8908 171.36 84.6958 172.277 84.5154C173.945 84.1789 175.622 83.8815 177.3 83.5889C181.873 82.7843 186.184 82.0285 189.939 80.6241C197.321 77.8447 203.27 74.012 207.644 69.1992C210.814 65.7419 213.247 61.563 214.7 57.1257C215.744 54 216.261 50.7329 216.28 47.4854C216.29 42.0679 214.603 37.5037 211.37 34.2854ZM186.486 40.6782C185.492 42.0338 184.263 43.5795 182.795 44.4475C182.434 44.6669 181.976 44.7937 181.581 44.6377C179.011 43.6575 184.833 39.0983 185.589 38.6399C186.218 38.2596 187.861 37.2356 188.729 36.8893C188.11 38.1523 187.335 39.4932 186.486 40.6782Z" fill="#070A08"/>
<path d="M176.895 76.4647C176.909 76.455 176.924 76.4404 176.939 76.4257C177.456 75.9235 177.217 74.1632 177.173 73.3927C176.646 64.7862 177.061 55.9993 177.451 47.5341C177.631 43.7161 177.807 39.7663 177.904 35.8995C177.924 35.168 177.88 33.3736 177.339 33.1542C177.051 33.042 176.822 33.3248 176.632 33.7539C176.402 34.2757 176.456 36.0165 176.402 36.7187C176.31 37.9182 176.217 39.1178 176.12 40.3173C175.939 42.6043 175.764 44.8864 175.622 47.1782C175.325 51.9959 175.125 56.8282 174.969 61.6605C174.871 64.6107 174.818 67.5851 175.076 70.5206C175.193 71.8713 175.33 73.2318 175.593 74.5338C175.739 75.2798 176.261 76.9816 176.895 76.4647Z" fill="#070A08"/>
</svg>
