<svg width="48" height="41" viewBox="0 0 48 41" fill="none" xmlns="http://www.w3.org/2000/svg">
<g clip-path="url(#clip0_539_5295)">
<path d="M39.5065 29.2502C43.8756 26.4232 45.1262 20.5893 42.2989 16.2196C39.4715 11.85 33.6374 10.6003 29.2683 13.4273M39.0866 29.5227L33.3171 33.2558C33.1023 33.408 32.86 33.5169 32.6033 33.5752C32.3466 33.6335 32.081 33.6408 31.8215 33.5964C31.5621 33.5521 31.3139 33.4571 31.0911 33.3169C30.8684 33.1767 30.6754 32.9939 30.5233 32.7791C30.3712 32.5643 30.2628 32.3216 30.2045 32.065C30.1461 31.8083 30.1389 31.5426 30.1832 31.2832C30.2276 31.0237 30.3225 30.7755 30.4628 30.5528C30.603 30.33 30.7858 30.1371 31.0006 29.9849" stroke="#52B69A" stroke-width="2" stroke-miterlimit="10" stroke-linecap="round" stroke-linejoin="round"/>
<path d="M8.868 26.3409C5.49772 23.4996 2.49846 13.999 11.5656 5.01754M11.5656 5.01754C11.1719 5.08887 6.74907 5.55141 4.58687 5.77377M11.5656 5.01754L12.2328 11.5027" stroke="#52B69A" stroke-width="2" stroke-miterlimit="10" stroke-linecap="round" stroke-linejoin="round"/>
<path d="M28.7114 26.6931C28.4966 26.8452 28.3139 27.0382 28.1736 27.2609C28.0334 27.4837 27.9384 27.7319 27.8941 27.9913C27.8498 28.2508 27.857 28.5165 27.9153 28.7731C27.9737 29.0298 28.082 29.2725 28.2341 29.4873C28.3862 29.7021 28.5792 29.8849 28.8019 30.0251C29.0247 30.1653 29.2729 30.2603 29.5323 30.3047C29.7918 30.349 30.0574 30.3418 30.3141 30.2834C30.5707 30.2251 30.8134 30.1167 31.0282 29.9646" stroke="#52B69A" stroke-width="2" stroke-miterlimit="10" stroke-linecap="round" stroke-linejoin="round"/>
<path d="M28.6486 26.7364C28.2269 27.06 27.9511 27.5378 27.8817 28.0648C27.8124 28.5918 27.9552 29.1247 28.2788 29.5464C28.6024 29.968 29.0802 30.2439 29.6072 30.3132C30.1342 30.3826 30.6672 30.2397 31.0888 29.9161M26.2931 23.4582C25.8804 23.78 25.6098 24.2504 25.5393 24.7689C25.4687 25.2875 25.6038 25.8131 25.9156 26.2334C26.2274 26.6538 26.6912 26.9355 27.2079 27.0184C27.7247 27.1014 28.2534 26.979 28.681 26.6773M22.0871 14.6154C21.5655 14.5131 21.0246 14.6222 20.5834 14.9187C20.1422 15.2152 19.8369 15.6747 19.7346 16.1963C19.6322 16.7179 19.7413 17.2588 20.0378 17.7C20.3343 18.1412 20.7939 18.4465 21.3155 18.5488M13.3585 27.052C12.9122 27.3407 12.5989 27.795 12.4875 28.3147C12.3761 28.8345 12.4757 29.3772 12.7645 29.8235C13.0533 30.2698 13.5075 30.5831 14.0273 30.6945C14.5471 30.8059 15.0898 30.7062 15.5361 30.4174M26.2749 23.4692L15.5361 30.4174M13.3585 27.052L26.72 18.4067M22.9893 18.8014L21.3155 18.5488M23.7528 14.7438C25.3911 15.0154 27.2865 14.7577 29.358 13.3682M22.0871 14.6154L23.7985 14.7508M11.7768 31.7128C11.6206 32.0561 11.3705 32.3483 11.0554 32.5556C10.7403 32.7629 10.373 32.8768 9.99585 32.8843C9.61873 32.8918 9.24719 32.7925 8.92411 32.5978C8.60103 32.4032 8.33958 32.1211 8.16994 31.7842C8.00029 31.4474 7.92937 31.0694 7.96536 30.6939C8.00135 30.3185 8.14278 29.9609 8.37333 29.6623C8.60388 29.3638 8.91415 29.1366 9.26832 29.0069C9.6225 28.8771 10.0061 28.8502 10.375 28.9292" stroke="#52B69A" stroke-width="2" stroke-miterlimit="10" stroke-linecap="round" stroke-linejoin="round"/>
</g>
<defs>
<clipPath id="clip0_539_5295">
<rect width="41" height="48" fill="white" transform="matrix(0 1 1 0 0 0)"/>
</clipPath>
</defs>
</svg>
