<svg width="41" height="48" viewBox="0 0 41 48" fill="none" xmlns="http://www.w3.org/2000/svg">
<g clip-path="url(#clip0_13_8885)">
<path d="M29.2509 39.506C26.4242 43.8753 20.5903 45.1265 16.2203 42.2994C11.8504 39.4724 10.6002 33.6383 13.4269 29.2689M29.5234 39.086L33.2561 33.3161C33.4082 33.1013 33.5171 32.859 33.5754 32.6023C33.6337 32.3456 33.6409 32.0799 33.5966 31.8205C33.5523 31.561 33.4572 31.3128 33.317 31.0901C33.1767 30.8673 32.994 30.6744 32.7791 30.5223C32.5643 30.3702 32.3216 30.2619 32.065 30.2035C31.8083 30.1452 31.5426 30.138 31.2832 30.1824C31.0237 30.2267 30.7755 30.3217 30.5528 30.462C30.33 30.6022 30.1371 30.785 29.985 30.9998" stroke="#52B69A" stroke-width="2" stroke-miterlimit="10" stroke-linecap="round" stroke-linejoin="round"/>
<path d="M26.3408 8.86975C23.5002 5.49986 14.0003 2.49987 5.0177 11.5633M5.0177 11.5633C5.08909 11.1698 5.55232 6.74811 5.77502 4.58648M5.0177 11.5633L11.5026 12.2314" stroke="#52B69A" stroke-width="2" stroke-miterlimit="10" stroke-linecap="round" stroke-linejoin="round"/>
<path d="M26.6932 28.7115C26.8453 28.4967 27.0382 28.314 27.261 28.1737C27.4837 28.0334 27.7319 27.9384 27.9914 27.8941C28.2509 27.8498 28.5165 27.8569 28.7732 27.9153C29.0299 27.9736 29.2726 28.0819 29.4874 28.234C29.7022 28.3861 29.885 28.5791 30.0252 28.8018C30.1655 29.0246 30.2605 29.2728 30.3048 29.5322C30.3492 29.7917 30.342 30.0573 30.2836 30.314C30.2253 30.5707 30.117 30.8134 29.9649 31.0282" stroke="#52B69A" stroke-width="2" stroke-miterlimit="10" stroke-linecap="round" stroke-linejoin="round"/>
<path d="M26.7374 28.6485C27.061 28.2268 27.5388 27.9509 28.0658 27.8816C28.5928 27.8122 29.1257 27.9549 29.5474 28.2785C29.9691 28.6021 30.245 29.0799 30.3144 29.6069C30.3838 30.1338 30.241 30.6668 29.9174 31.0885M23.4589 26.2933C23.7806 25.8805 24.251 25.6099 24.7696 25.5394C25.2882 25.4688 25.8138 25.6038 26.2342 25.9155C26.6545 26.2273 26.9363 26.6911 27.0193 27.2078C27.1023 27.7246 26.9799 28.2533 26.6783 28.681M14.6155 22.088C14.5131 21.5664 14.6222 21.0255 14.9186 20.5843C15.2151 20.143 15.6747 19.8377 16.1963 19.7353C16.7179 19.6329 17.2588 19.742 17.7 20.0384C18.1412 20.3349 18.4466 20.7945 18.5489 21.3161M27.0518 13.3584C27.3405 12.912 27.7947 12.5987 28.3145 12.4873C28.8343 12.3758 29.377 12.4754 29.8234 12.7642C30.2697 13.0529 30.583 13.5071 30.6944 14.0269C30.8059 14.5467 30.7063 15.0894 30.4175 15.5358M23.4699 26.275L30.4175 15.5358M27.0518 13.3584L18.4073 26.7206M18.8017 22.9898L18.5489 21.3161M14.744 23.7536C15.0157 25.3919 14.7582 27.2874 13.3688 29.3589M14.6155 22.088L14.751 23.7994M31.7126 11.7763C32.056 11.6201 32.3481 11.37 32.5554 11.0549C32.7627 10.7397 32.8766 10.3724 32.884 9.99528C32.8915 9.61817 32.7921 9.24663 32.5974 8.92357C32.4028 8.6005 32.1207 8.33907 31.7838 8.16945C31.4469 7.99984 31.0689 7.92894 30.6934 7.96496C30.318 8.00098 29.9603 8.14244 29.6618 8.37301C29.3633 8.60359 29.1361 8.91387 29.0064 9.26806C28.8767 9.62225 28.8498 10.0059 28.9288 10.3747" stroke="#52B69A" stroke-width="2" stroke-miterlimit="10" stroke-linecap="round" stroke-linejoin="round"/>
</g>
<defs>
<clipPath id="clip0_13_8885">
<rect width="41" height="48" fill="white"/>
</clipPath>
</defs>
</svg>
