<svg width="58" height="58" viewBox="0 0 58 58" fill="none" xmlns="http://www.w3.org/2000/svg">
<path fill-rule="evenodd" clip-rule="evenodd" d="M7 34.1992C7 33.9231 7.22386 33.6992 7.5 33.6992H50.5C50.7761 33.6992 51 33.9231 51 34.1992V37.783C51 38.0591 50.7761 38.283 50.5 38.283H7.5C7.22386 38.283 7 38.0591 7 37.783V34.1992ZM8 34.6992V37.283H50V34.6992H8Z" fill="white"/>
<path fill-rule="evenodd" clip-rule="evenodd" d="M10.6323 12.6001C10.6323 12.324 10.8562 12.1001 11.1323 12.1001H46.873C47.1491 12.1001 47.373 12.324 47.373 12.6001V34.1992C47.373 34.4754 47.1491 34.6992 46.873 34.6992H11.1323C10.8562 34.6992 10.6323 34.4754 10.6323 34.1992V12.6001ZM11.6323 13.1001V33.6992H46.373V13.1001H11.6323Z" fill="white"/>
<path fill-rule="evenodd" clip-rule="evenodd" d="M13.0938 15.0618C13.0938 14.7857 13.3176 14.5618 13.5938 14.5618H44.411C44.6871 14.5618 44.911 14.7857 44.911 15.0618V34.1992C44.911 34.4754 44.6871 34.6992 44.411 34.6992H13.5938C13.3176 34.6992 13.0938 34.4754 13.0938 34.1992V15.0618ZM14.0938 15.5618V33.6992H43.911V15.5618H14.0938Z" fill="white"/>
<path fill-rule="evenodd" clip-rule="evenodd" d="M26.4712 9.5C26.4712 9.22386 26.695 9 26.9712 9H31.0386C31.3147 9 31.5386 9.22386 31.5386 9.5V12.6001C31.5386 12.8762 31.3147 13.1001 31.0386 13.1001H26.9712C26.695 13.1001 26.4712 12.8762 26.4712 12.6001V9.5ZM27.4712 10V12.1001H30.5386V10H27.4712Z" fill="white"/>
<path fill-rule="evenodd" clip-rule="evenodd" d="M26.4712 37.783C26.4712 37.5068 26.695 37.283 26.9712 37.283H31.0386C31.3147 37.283 31.5386 37.5068 31.5386 37.783V47.0349C31.5386 47.3111 31.3147 47.5349 31.0386 47.5349H26.9712C26.695 47.5349 26.4712 47.3111 26.4712 47.0349V37.783ZM27.4712 38.283V46.5349H30.5386V38.283H27.4712Z" fill="white"/>
<path fill-rule="evenodd" clip-rule="evenodd" d="M21.7159 37.551C21.8022 37.3862 21.9728 37.283 22.1588 37.283H24.9687C25.1437 37.283 25.3059 37.3744 25.3965 37.5241C25.4871 37.6738 25.4928 37.86 25.4117 38.015L20.29 47.7941C20.2037 47.9588 20.033 48.0621 19.847 48.0621H17.0371C16.8621 48.0621 16.6999 47.9706 16.6093 47.8209C16.5188 47.6713 16.513 47.4851 16.5942 47.3301L21.7159 37.551ZM22.4614 38.283L17.8634 47.0621H19.5445L24.1424 38.283H22.4614Z" fill="white"/>
<path fill-rule="evenodd" clip-rule="evenodd" d="M32.6128 37.5241C32.7034 37.3744 32.8656 37.283 33.0405 37.283H35.8456C36.0316 37.283 36.2022 37.3862 36.2885 37.551L41.4102 47.3301C41.4914 47.4851 41.4857 47.6713 41.3951 47.8209C41.3045 47.9706 41.1423 48.0621 40.9673 48.0621H38.1574C37.9713 48.0621 37.8006 47.9588 37.7144 47.7939L32.5975 38.0148C32.5164 37.8598 32.5222 37.6737 32.6128 37.5241ZM33.8665 38.283L38.4601 47.0621H40.141L35.5431 38.283H33.8665Z" fill="white"/>
<path fill-rule="evenodd" clip-rule="evenodd" d="M17.8887 18.4249C17.7868 18.4249 17.6872 18.4551 17.6025 18.5117C17.5177 18.5682 17.4516 18.6486 17.4125 18.7427C17.3734 18.8367 17.3631 18.9403 17.3828 19.0403C17.4025 19.1402 17.4513 19.2321 17.5232 19.3043C17.5951 19.3765 17.6867 19.4258 17.7866 19.446C17.8864 19.4662 17.99 19.4563 18.0843 19.4176C18.1786 19.379 18.2593 19.3133 18.3162 19.2288C18.3732 19.1443 18.4038 19.0449 18.4043 18.943C18.4046 18.8751 18.3915 18.8078 18.3658 18.7449C18.34 18.6821 18.3021 18.625 18.2542 18.5768C18.2062 18.5287 18.1493 18.4905 18.0866 18.4644C18.0239 18.4383 17.9566 18.4249 17.8887 18.4249ZM17.0474 17.6799C17.2965 17.5136 17.5892 17.4249 17.8887 17.4249C18.0883 17.4249 18.286 17.4644 18.4703 17.541C18.6547 17.6176 18.8221 17.7299 18.9629 17.8714C19.1038 18.0129 19.2153 18.1808 19.291 18.3656C19.3667 18.5503 19.4052 18.7481 19.4043 18.9478C19.4029 19.2472 19.3128 19.5395 19.1454 19.7878C18.978 20.0361 18.7408 20.2293 18.4637 20.3429C18.1866 20.4565 17.8821 20.4855 17.5886 20.4262C17.2951 20.3669 17.0257 20.222 16.8144 20.0097C16.6032 19.7975 16.4595 19.5274 16.4016 19.2336C16.3437 18.9398 16.3742 18.6354 16.4891 18.3589C16.604 18.0824 16.7983 17.8461 17.0474 17.6799Z" fill="white"/>
<path fill-rule="evenodd" clip-rule="evenodd" d="M40.1162 18.4249C40.0132 18.4249 39.9126 18.4555 39.827 18.5126C39.7414 18.5698 39.6747 18.6511 39.6353 18.7462C39.5959 18.8413 39.5856 18.946 39.6057 19.0469C39.6258 19.1479 39.6754 19.2406 39.7481 19.3134C39.8209 19.3862 39.9137 19.4358 40.0146 19.4559C40.1156 19.4759 40.2202 19.4656 40.3153 19.4262C40.4105 19.3869 40.4917 19.3201 40.5489 19.2346C40.6061 19.149 40.6366 19.0483 40.6366 18.9454C40.6366 18.8074 40.5818 18.675 40.4842 18.5774C40.3866 18.4798 40.2542 18.4249 40.1162 18.4249ZM39.2714 17.6812C39.5215 17.5141 39.8155 17.4249 40.1162 17.4249C40.5194 17.4249 40.9062 17.5851 41.1913 17.8703C41.4764 18.1554 41.6366 18.5421 41.6366 18.9454C41.6366 19.2461 41.5475 19.5401 41.3804 19.7901C41.2133 20.0402 40.9759 20.235 40.698 20.3501C40.4202 20.4652 40.1145 20.4953 39.8195 20.4367C39.5246 20.378 39.2537 20.2332 39.041 20.0205C38.8284 19.8079 38.6836 19.537 38.6249 19.242C38.5663 18.9471 38.5964 18.6414 38.7114 18.3635C38.8265 18.0857 39.0214 17.8482 39.2714 17.6812Z" fill="white"/>
<path fill-rule="evenodd" clip-rule="evenodd" d="M19.3799 22.9596V28.6761C19.3799 28.9925 19.5055 29.2958 19.7292 29.5195C19.9529 29.7432 20.2563 29.8689 20.5726 29.8689C20.8889 29.8689 21.1923 29.7432 21.416 29.5195C21.6397 29.2958 21.7653 28.9925 21.7653 28.6761V23.6076H22.7653V28.6761C22.7653 29.2577 22.5343 29.8154 22.1231 30.2266C21.7119 30.6378 21.1542 30.8689 20.5726 30.8689C19.9911 30.8689 19.4333 30.6378 19.0221 30.2266C18.6109 29.8154 18.3799 29.2577 18.3799 28.6761V22.9596H19.3799Z" fill="white"/>
<path fill-rule="evenodd" clip-rule="evenodd" d="M22.3737 19.0634C22.7849 18.6522 23.3426 18.4212 23.9242 18.4212C24.5057 18.4212 25.0634 18.6522 25.4747 19.0634C25.8859 19.4747 26.1169 20.0324 26.1169 20.6139V29.8949C26.1169 30.2112 26.2426 30.5146 26.4662 30.7383C26.6899 30.9619 26.9933 31.0876 27.3096 31.0876C27.6259 31.0876 27.9293 30.9619 28.153 30.7383C28.3767 30.5146 28.5023 30.2112 28.5023 29.8949V28.9711H29.5023V29.8949C29.5023 30.4764 29.2713 31.0342 28.8601 31.4454C28.4489 31.8566 27.8912 32.0876 27.3096 32.0876C26.7281 32.0876 26.1703 31.8566 25.7591 31.4454C25.3479 31.0342 25.1169 30.4764 25.1169 29.8949V20.6139C25.1169 20.2976 24.9912 19.9942 24.7676 19.7705C24.5439 19.5469 24.2405 19.4212 23.9242 19.4212C23.6078 19.4212 23.3045 19.5469 23.0808 19.7705C22.8571 19.9942 22.7314 20.2976 22.7314 20.6139V22.0648H21.7314V20.6139C21.7314 20.0324 21.9625 19.4747 22.3737 19.0634Z" fill="white"/>
<path fill-rule="evenodd" clip-rule="evenodd" d="M38.6104 31.1281V27.8152H39.6104V31.1281H38.6104Z" fill="white"/>
<path fill-rule="evenodd" clip-rule="evenodd" d="M30.6952 21.97C30.3788 21.97 30.0755 22.0956 29.8518 22.3193C29.6281 22.543 29.5024 22.8464 29.5024 23.1627V25.7647H28.5024V23.1627C28.5024 22.5811 28.7335 22.0234 29.1447 21.6122C29.5559 21.201 30.1136 20.97 30.6952 20.97C31.2767 20.97 31.8344 21.201 32.2457 21.6122C32.6569 22.0234 32.8879 22.5811 32.8879 23.1627V27.7185C32.8879 28.0349 33.0135 28.3382 33.2372 28.5619C33.4609 28.7856 33.7643 28.9113 34.0806 28.9113C34.3969 28.9113 34.7003 28.7856 34.924 28.5619C35.1477 28.3382 35.2733 28.0349 35.2733 27.7185V25.2181C35.2733 24.6366 35.5044 24.0789 35.9156 23.6677C36.3268 23.2564 36.8845 23.0254 37.4661 23.0254C38.0476 23.0254 38.6053 23.2564 39.0165 23.6677C39.4278 24.0789 39.6588 24.6366 39.6588 25.2181H38.6588C38.6588 24.9018 38.5331 24.5984 38.3094 24.3748C38.0858 24.1511 37.7824 24.0254 37.4661 24.0254C37.1497 24.0254 36.8464 24.1511 36.6227 24.3748C36.399 24.5984 36.2733 24.9018 36.2733 25.2181V27.7185C36.2733 28.3001 36.0423 28.8578 35.6311 29.269C35.2199 29.6802 34.6622 29.9113 34.0806 29.9113C33.4991 29.9113 32.9413 29.6802 32.5301 29.269C32.1189 28.8578 31.8879 28.3001 31.8879 27.7185V23.1627C31.8879 22.8464 31.7622 22.543 31.5385 22.3193C31.3149 22.0956 31.0115 21.97 30.6952 21.97Z" fill="white"/>
<path fill-rule="evenodd" clip-rule="evenodd" d="M29.5024 27.4961V30.3592H28.5024V27.4961H29.5024Z" fill="white"/>
</svg>
