<svg width="58" height="58" viewBox="0 0 58 58" fill="none" xmlns="http://www.w3.org/2000/svg">
<path d="M50.25 18.75V25.7976C36.9335 32.7351 21.0665 32.7351 7.75 25.7976V18.75H50.25ZM33.875 37.25V34.9857C38.5073 34.53 43.0922 33.4454 47.5 31.697V48.25C47.5 49.3558 46.6058 50.25 45.5 50.25H12.5C11.3953 50.25 10.5 49.3556 10.5 48.25V31.6971C14.9069 33.4454 19.4927 34.53 24.125 34.9857V37.25C24.125 39.1845 25.6923 40.75 27.625 40.75H30.375C32.3093 40.75 33.875 39.1843 33.875 37.25ZM21.75 12.5V14.5H21.5V12.5C21.5 9.87684 23.6268 7.75 26.25 7.75H31.75C34.3732 7.75 36.5 9.87684 36.5 12.5V14.5H36.25V12.5C36.25 10.7835 35.5929 9.65846 34.6097 9.00143C33.6803 8.38033 32.5661 8.25 31.75 8.25H26.25C25.3488 8.25 24.2484 8.5418 23.3557 9.21308C22.4369 9.90407 21.75 10.9932 21.75 12.5Z" stroke="white" stroke-width="1.5" stroke-linejoin="round"/>
</svg>
