<svg width="58" height="58" viewBox="0 0 58 58" fill="none" xmlns="http://www.w3.org/2000/svg">
<path fill-rule="evenodd" clip-rule="evenodd" d="M10.8636 42.4212H43.1667C43.4394 42.4212 43.6636 42.1969 43.6636 41.9242V10.8636C43.6636 10.5909 43.4394 10.3667 43.1667 10.3667H10.8636C10.5909 10.3667 10.3667 10.5909 10.3667 10.8636V41.9242C10.3667 42.1969 10.5909 42.4212 10.8636 42.4212ZM43.1667 43.7879H10.8636C9.83615 43.7879 9 42.9517 9 41.9242V10.8636C9 9.83615 9.83615 9 10.8636 9H43.1667C44.1941 9 45.0303 9.83615 45.0303 10.8636V41.9242C45.0303 42.9517 44.1941 43.7879 43.1667 43.7879Z" fill="#429D84"/>
<path d="M29.6213 20.1815C29.621 20.5265 29.723 20.8637 29.9145 21.1507L30.3304 20.8732L29.9145 21.1507C30.1059 21.4377 30.3782 21.6615 30.6969 21.7937L30.8885 21.3318L30.6969 21.7937C31.0156 21.9258 31.3663 21.9605 31.7047 21.8933C32.0431 21.8261 32.354 21.66 32.598 21.416L32.2444 21.0625L32.598 21.416C32.8419 21.172 33.008 20.8612 33.0752 20.5228C33.1425 20.1844 33.1078 19.8337 32.9756 19.515L32.5512 19.691L32.9756 19.515C32.8434 19.1963 32.6196 18.924 32.3326 18.7325L32.0552 19.1485L32.3326 18.7325C32.0457 18.5411 31.7084 18.4391 31.3635 18.4394M29.6213 20.1815C29.6215 19.2214 30.4014 18.4395 31.3635 18.4394M29.6213 20.1815C29.6213 20.1816 29.6213 20.1817 29.6213 20.1818H30.1213L29.6213 20.1813C29.6213 20.1814 29.6213 20.1815 29.6213 20.1815ZM31.3635 18.4394C31.3636 18.4394 31.3637 18.4394 31.3638 18.4394V18.9394L31.3633 18.4394C31.3633 18.4394 31.3634 18.4394 31.3635 18.4394ZM33.3486 20.1818C33.3486 21.2761 32.458 22.1667 31.3638 22.1667C30.2695 22.1667 29.3789 21.2761 29.3789 20.1818C29.3789 19.0876 30.2695 18.197 31.3638 18.197C32.458 18.197 33.3486 19.0876 33.3486 20.1818Z" fill="#429D84" stroke="#429D84"/>
<path fill-rule="evenodd" clip-rule="evenodd" d="M40.6821 37.5757H13.3488C13.184 37.5757 13.026 37.5103 12.9095 37.3938C12.793 37.2773 12.7275 37.1193 12.7275 36.9545V13.3485C12.7275 13.1837 12.793 13.0257 12.9095 12.9092C13.026 12.7927 13.184 12.7273 13.3488 12.7273H40.6821C40.8468 12.7273 41.0048 12.7927 41.1213 12.9092C41.2378 13.0257 41.3033 13.1837 41.3033 13.3485V36.9545C41.3033 37.1193 41.2378 37.2773 41.1213 37.3938C41.0048 37.5103 40.8468 37.5757 40.6821 37.5757ZM13.97 30.571V36.3333H40.0609V31.4792L37.8133 28.921C37.6779 28.7893 37.4654 28.6999 37.2368 28.6999C37.1246 28.6998 37.0135 28.7219 36.9098 28.765C36.8062 28.808 36.7121 28.8712 36.633 28.9508L31.8298 33.513C31.7128 33.6257 31.556 33.6879 31.3935 33.686C31.231 33.6842 31.0758 33.6185 30.9614 33.5031L21.6171 24.1588C21.4544 24.0036 21.2381 23.9169 21.0133 23.9169C20.7884 23.9169 20.5721 24.0036 20.4094 24.1588L14.0532 30.515C14.038 30.5303 14.0204 30.5404 14.0027 30.5505C13.9916 30.5569 13.9805 30.5633 13.97 30.571ZM40.0609 29.6006V13.9697H13.97V28.8427L19.5311 23.2817C20.3225 22.4902 21.7016 22.489 22.4955 23.2817L31.4111 32.1985L35.7646 28.0637C35.9582 27.8712 36.1879 27.7187 36.4405 27.6151C36.6932 27.5115 36.9638 27.4587 37.2369 27.4599H37.2381C37.5132 27.4592 37.7857 27.5132 38.0397 27.6188C38.2938 27.7244 38.5243 27.8794 38.7178 28.0749L40.0609 29.6006Z" fill="#429D84"/>
<path d="M14.5909 45.1334C14.4262 45.1334 14.2682 45.1989 14.1517 45.3154C14.0352 45.4319 13.9697 45.5899 13.9697 45.7546V46.8939C13.9697 47.9214 14.8059 48.7576 15.8334 48.7576H48.1364C49.1639 48.7576 50 47.9214 50 46.8939V14.5909C50 13.5634 49.1639 12.7273 48.1364 12.7273H46.9971C46.8323 12.7273 46.6743 12.7927 46.5578 12.9092C46.4413 13.0257 46.3759 13.1837 46.3759 13.3485C46.3759 13.5132 46.4413 13.6712 46.5578 13.7877C46.6743 13.9042 46.8323 13.9697 46.9971 13.9697H48.1364C48.3011 13.9697 48.4592 14.0351 48.5756 14.1516C48.6922 14.2681 48.7576 14.4261 48.7576 14.5909V46.8939C48.7576 47.0587 48.6922 47.2167 48.5756 47.3332C48.4592 47.4497 48.3011 47.5151 48.1364 47.5151H15.8334C15.6686 47.5151 15.5106 47.4497 15.3941 47.3332C15.2776 47.2167 15.2122 47.0587 15.2122 46.8939V45.7546C15.2122 45.5899 15.1467 45.4319 15.0302 45.3154C14.9137 45.1989 14.7557 45.1334 14.5909 45.1334Z" fill="#429D84"/>
</svg>
