<svg width="41" height="40" viewBox="0 0 41 40" fill="none" xmlns="http://www.w3.org/2000/svg">
<path fill-rule="evenodd" clip-rule="evenodd" d="M1.86364 33.4212H34.1667C34.4394 33.4212 34.6636 33.1969 34.6636 32.9242V1.86364C34.6636 1.59094 34.4394 1.36667 34.1667 1.36667H1.86364C1.59094 1.36667 1.36667 1.59094 1.36667 1.86364V32.9242C1.36667 33.1969 1.59094 33.4212 1.86364 33.4212ZM34.1667 34.7879H1.86364C0.836151 34.7879 0 33.9517 0 32.9242V1.86364C0 0.836151 0.836151 0 1.86364 0H34.1667C35.1941 0 36.0303 0.836151 36.0303 1.86364V32.9242C36.0303 33.9517 35.1941 34.7879 34.1667 34.7879Z" fill="#9388CC"/>
<path d="M22.3638 13.665C23.7341 13.665 24.8486 12.5506 24.8486 11.1802C24.8486 9.80977 23.7341 8.69531 22.3638 8.69531C20.9934 8.69531 19.8789 9.80977 19.8789 11.1802C19.8789 12.5506 20.9934 13.665 22.3638 13.665ZM22.3638 9.93774C22.6098 9.93749 22.8505 10.0103 23.0552 10.1468C23.2599 10.2834 23.4195 10.4776 23.5138 10.7049C23.608 10.9322 23.6328 11.1824 23.5848 11.4237C23.5369 11.6651 23.4184 11.8868 23.2444 12.0608C23.0704 12.2348 22.8487 12.3533 22.6073 12.4012C22.366 12.4492 22.1148 12.4244 21.8885 12.3302C21.6612 12.2359 21.467 12.0763 21.3304 11.8716C21.1938 11.6669 21.1211 11.4262 21.1213 11.1802C21.1213 10.4956 21.6779 9.93774 22.3638 9.93774Z" fill="#9388CC"/>
<path fill-rule="evenodd" clip-rule="evenodd" d="M31.6811 28.575H4.34777C4.18302 28.575 4.02501 28.5096 3.90851 28.3931C3.79201 28.2766 3.72656 28.1186 3.72656 27.9538V4.34777C3.72656 4.18302 3.79201 4.02501 3.90851 3.90851C4.02501 3.79201 4.18302 3.72656 4.34777 3.72656H31.6811C31.8489 3.72656 32.0039 3.79201 32.1204 3.90851C32.2369 4.02501 32.3023 4.18302 32.3023 4.34777V27.9538C32.3023 28.1186 32.2369 28.2766 32.1204 28.3931C32.0039 28.5096 31.8489 28.575 31.6811 28.575ZM4.96899 21.5703V27.3326H31.0599V22.4785L28.8123 19.9203C28.6769 19.7886 28.4648 19.6992 28.2359 19.6992C28.1236 19.6991 28.0125 19.7212 27.9088 19.7642C27.8052 19.8073 27.7111 19.8705 27.632 19.9501L22.8288 24.5123C22.7118 24.625 22.5551 24.6872 22.3926 24.6853C22.2301 24.6835 22.0748 24.6178 21.9604 24.5024L12.6161 15.1581C12.4834 15.0029 12.2372 14.9162 12.0123 14.9162C11.7874 14.9162 11.5712 15.0029 11.4085 15.1581L5.05223 21.5143C5.03697 21.5296 5.01938 21.5397 5.00174 21.5498C4.99065 21.5562 4.97954 21.5626 4.96899 21.5703ZM31.0599 20.5999V4.96898H4.96901V19.842L10.5301 14.281C11.3215 13.4895 12.7006 13.4883 13.4948 14.281L22.4102 23.1978L26.7636 19.063C26.9572 18.8705 27.1869 18.718 27.4396 18.6144C27.6922 18.5108 27.9628 18.488 28.2359 18.4892H28.2371C28.5122 18.4885 28.7847 18.5125 29.0388 18.6181C29.2928 18.7237 29.5233 18.8787 29.7169 19.0742L31.0599 20.5999Z" fill="#9388CC"/>
<path d="M5.58996 36.1327C5.42521 36.1327 5.2672 36.1982 5.1507 36.3147C5.0342 36.4312 4.96875 36.5892 4.96875 36.7539V37.8932C4.96875 38.9207 5.8049 39.7569 6.83239 39.7569H39.1354C40.1629 39.7569 40.999 38.9207 40.999 37.8932V5.5902C40.999 4.56271 40.1629 3.72656 39.1354 3.72656H37.9961C37.8314 3.72656 37.6733 3.79201 37.5568 3.90851C37.4403 4.02501 37.3749 4.18302 37.3749 4.34777C37.3749 4.51253 37.4403 4.67054 37.5568 4.78704C37.6733 4.90354 37.8314 4.96899 37.9961 4.96899H39.1354C39.3002 4.96899 39.4882 5.03444 39.5747 5.15094C39.6912 5.26744 39.7566 5.42544 39.7566 5.5902V37.8932C39.7566 38.058 39.6912 38.216 39.5747 38.3325C39.4882 38.449 39.3002 38.5144 39.1354 38.5144H6.83239C6.66763 38.5144 6.50962 38.449 6.39312 38.3325C6.27662 38.216 6.21117 38.058 6.21117 37.8932V36.7539C6.21117 36.5892 6.14873 36.4312 6.02923 36.3147C5.91273 36.1982 5.75472 36.1327 5.58996 36.1327Z" fill="#9388CC"/>
</svg>
