<svg width="44" height="40" viewBox="0 0 44 40" fill="none" xmlns="http://www.w3.org/2000/svg">
<path fill-rule="evenodd" clip-rule="evenodd" d="M0 25.1992C0 24.9231 0.223858 24.6992 0.5 24.6992H43.5C43.7761 24.6992 44 24.9231 44 25.1992V28.783C44 29.0591 43.7761 29.283 43.5 29.283H0.5C0.223858 29.283 0 29.0591 0 28.783V25.1992ZM1 25.6992V28.283H43V25.6992H1Z" fill="#9388CC"/>
<path fill-rule="evenodd" clip-rule="evenodd" d="M3.63281 3.60156C3.63281 3.32542 3.85667 3.10156 4.13281 3.10156H39.8734C40.1496 3.10156 40.3734 3.32542 40.3734 3.60156V25.2007C40.3734 25.4768 40.1496 25.7007 39.8734 25.7007H4.13281C3.85667 25.7007 3.63281 25.4768 3.63281 25.2007V3.60156ZM4.63281 4.10156V24.7007H39.3734V4.10156H4.63281Z" fill="#9388CC"/>
<path fill-rule="evenodd" clip-rule="evenodd" d="M6.09375 6.0625C6.09375 5.78636 6.31761 5.5625 6.59375 5.5625H37.411C37.6871 5.5625 37.911 5.78636 37.911 6.0625V25.1999C37.911 25.4761 37.6871 25.6999 37.411 25.6999H6.59375C6.31761 25.6999 6.09375 25.4761 6.09375 25.1999V6.0625ZM7.09375 6.5625V24.6999H36.911V6.5625H7.09375Z" fill="#9388CC"/>
<path fill-rule="evenodd" clip-rule="evenodd" d="M19.4727 0.5C19.4727 0.223858 19.6965 0 19.9727 0H24.04C24.3162 0 24.54 0.223858 24.54 0.5V3.6001C24.54 3.87624 24.3162 4.1001 24.04 4.1001H19.9727C19.6965 4.1001 19.4727 3.87624 19.4727 3.6001V0.5ZM20.4727 1V3.1001H23.54V1H20.4727Z" fill="#9388CC"/>
<path fill-rule="evenodd" clip-rule="evenodd" d="M19.4727 28.7812C19.4727 28.5051 19.6965 28.2812 19.9727 28.2812H24.04C24.3162 28.2812 24.54 28.5051 24.54 28.7812V38.0332C24.54 38.3093 24.3162 38.5332 24.04 38.5332H19.9727C19.6965 38.5332 19.4727 38.3093 19.4727 38.0332V28.7812ZM20.4727 29.2812V37.5332H23.54V29.2812H20.4727Z" fill="#9388CC"/>
<path fill-rule="evenodd" clip-rule="evenodd" d="M14.7178 28.5493C14.8041 28.3845 14.9748 28.2812 15.1608 28.2812H17.9707C18.1456 28.2812 18.3079 28.3727 18.3985 28.5224C18.489 28.6721 18.4948 28.8582 18.4136 29.0132L13.2919 38.7923C13.2056 38.9571 13.035 39.0604 12.849 39.0604H10.0391C9.8641 39.0604 9.70186 38.9689 9.61128 38.8192C9.5207 38.6695 9.51496 38.4834 9.59613 38.3284L14.7178 28.5493ZM15.4633 29.2812L10.8654 38.0604H12.5464L17.1444 29.2812H15.4633Z" fill="#9388CC"/>
<path fill-rule="evenodd" clip-rule="evenodd" d="M25.6113 28.5223C25.7019 28.3727 25.8641 28.2812 26.0391 28.2812H28.8441C29.0301 28.2812 29.2008 28.3845 29.2871 28.5493L34.4088 38.3284C34.4899 38.4834 34.4842 38.6695 34.3936 38.8192C34.303 38.9689 34.1408 39.0604 33.9658 39.0604H31.1559C30.9698 39.0604 30.7992 38.957 30.7129 38.7922L25.596 29.0131C25.5149 28.8581 25.5207 28.672 25.6113 28.5223ZM26.865 29.2812L31.4586 38.0604H33.1395L28.5416 29.2812H26.865Z" fill="#9388CC"/>
<path fill-rule="evenodd" clip-rule="evenodd" d="M10.8906 9.42578C10.7888 9.42578 10.6892 9.45596 10.6044 9.51251C10.5197 9.56907 10.4536 9.64945 10.4145 9.74353C10.3754 9.8376 10.365 9.94115 10.3847 10.0411C10.4044 10.1411 10.4533 10.2329 10.5252 10.3052C10.597 10.3774 10.6887 10.4267 10.7885 10.4468C10.8884 10.467 10.992 10.4572 11.0863 10.4185C11.1805 10.3798 11.2612 10.3141 11.3182 10.2297C11.3751 10.1452 11.4058 10.0457 11.4063 9.94387C11.4066 9.87595 11.3935 9.80864 11.3677 9.74579C11.3419 9.68295 11.304 9.62581 11.2561 9.57767C11.2082 9.52953 11.1512 9.49133 11.0885 9.46526C11.0258 9.4392 10.9586 9.42578 10.8906 9.42578ZM10.0493 8.68072C10.2984 8.5145 10.5912 8.42578 10.8906 8.42578C11.0903 8.42578 11.2879 8.46522 11.4723 8.54184C11.6567 8.61846 11.8241 8.73074 11.9649 8.87225C12.1057 9.01375 12.2172 9.18169 12.293 9.36641C12.3687 9.55113 12.4072 9.74899 12.4063 9.94863C12.4048 10.2481 12.3147 10.5404 12.1473 10.7887C11.9799 11.037 11.7427 11.2301 11.4656 11.3437C11.1886 11.4573 10.8841 11.4863 10.5905 11.427C10.297 11.3677 10.0276 11.2228 9.81638 11.0106C9.60513 10.7983 9.4615 10.5283 9.4036 10.2345C9.3457 9.94065 9.37613 9.63628 9.49106 9.35975C9.60598 9.08323 9.80025 8.84694 10.0493 8.68072Z" fill="#9388CC"/>
<path fill-rule="evenodd" clip-rule="evenodd" d="M33.1142 9.42578C33.0113 9.42578 32.9107 9.45631 32.8251 9.5135C32.7395 9.57068 32.6728 9.65197 32.6334 9.74708C32.594 9.84218 32.5837 9.94683 32.6038 10.0478C32.6238 10.1488 32.6734 10.2415 32.7462 10.3143C32.819 10.3871 32.9117 10.4366 33.0127 10.4567C33.1136 10.4768 33.2183 10.4665 33.3134 10.4271C33.4085 10.3877 33.4898 10.321 33.547 10.2354C33.6042 10.1498 33.6347 10.0492 33.6347 9.94625C33.6347 9.80822 33.5799 9.67583 33.4822 9.57822C33.3846 9.48062 33.2523 9.42578 33.1142 9.42578ZM32.2695 8.68203C32.5195 8.51495 32.8135 8.42578 33.1142 8.42578C33.5175 8.42578 33.9042 8.58597 34.1894 8.87112C34.4745 9.15626 34.6347 9.54299 34.6347 9.94625C34.6347 10.247 34.5455 10.5409 34.3784 10.791C34.2114 11.041 33.9739 11.2359 33.6961 11.351C33.4182 11.4661 33.1125 11.4962 32.8176 11.4375C32.5226 11.3788 32.2517 11.234 32.0391 11.0214C31.8264 10.8087 31.6816 10.5378 31.623 10.2429C31.5643 9.94794 31.5944 9.64222 31.7095 9.36439C31.8246 9.08656 32.0195 8.8491 32.2695 8.68203Z" fill="#9388CC"/>
<path fill-rule="evenodd" clip-rule="evenodd" d="M12.3789 13.9609V19.6775C12.3789 19.9938 12.5046 20.2972 12.7282 20.5209C12.9519 20.7446 13.2553 20.8702 13.5716 20.8702C13.888 20.8702 14.1913 20.7446 14.415 20.5209C14.6387 20.2972 14.7644 19.9938 14.7644 19.6775V14.609H15.7644V19.6775C15.7644 20.2591 15.5333 20.8168 15.1221 21.228C14.7109 21.6392 14.1532 21.8702 13.5716 21.8702C12.9901 21.8702 12.4324 21.6392 12.0211 21.228C11.6099 20.8168 11.3789 20.2591 11.3789 19.6775V13.9609H12.3789Z" fill="#9388CC"/>
<path fill-rule="evenodd" clip-rule="evenodd" d="M15.3727 10.0641C15.7839 9.65289 16.3416 9.42188 16.9232 9.42188C17.5047 9.42188 18.0625 9.65289 18.4737 10.0641C18.8849 10.4753 19.1159 11.0331 19.1159 11.6146V20.8956C19.1159 21.2119 19.2416 21.5153 19.4653 21.7389C19.6889 21.9626 19.9923 22.0883 20.3086 22.0883C20.625 22.0883 20.9283 21.9626 21.152 21.7389C21.3757 21.5153 21.5014 21.2119 21.5014 20.8956V19.9718H22.5014V20.8956C22.5014 21.4771 22.2703 22.0348 21.8591 22.446C21.4479 22.8573 20.8902 23.0883 20.3086 23.0883C19.7271 23.0883 19.1694 22.8573 18.7581 22.446C18.3469 22.0348 18.1159 21.4771 18.1159 20.8956V11.6146C18.1159 11.2983 17.9903 10.9949 17.7666 10.7712C17.5429 10.5475 17.2395 10.4219 16.9232 10.4219C16.6069 10.4219 16.3035 10.5475 16.0798 10.7712C15.8561 10.9949 15.7305 11.2983 15.7305 11.6146V13.0655H14.7305V11.6146C14.7305 11.0331 14.9615 10.4753 15.3727 10.0641Z" fill="#9388CC"/>
<path fill-rule="evenodd" clip-rule="evenodd" d="M31.6094 22.1293V18.8164H32.6094V22.1293H31.6094Z" fill="#9388CC"/>
<path fill-rule="evenodd" clip-rule="evenodd" d="M23.6966 12.9688C23.3803 12.9688 23.0769 13.0944 22.8532 13.3181C22.6296 13.5418 22.5039 13.8451 22.5039 14.1615V16.7634H21.5039V14.1615C21.5039 13.5799 21.7349 13.0222 22.1461 12.611C22.5574 12.1998 23.1151 11.9688 23.6966 11.9688C24.2782 11.9688 24.8359 12.1998 25.2471 12.611C25.6583 13.0222 25.8894 13.5799 25.8894 14.1615V18.7173C25.8894 19.0336 26.015 19.337 26.2387 19.5607C26.4624 19.7844 26.7657 19.91 27.0821 19.91C27.3984 19.91 27.7018 19.7844 27.9255 19.5607C28.1491 19.337 28.2748 19.0336 28.2748 18.7173V16.2169C28.2748 15.6354 28.5058 15.0776 28.917 14.6664C29.3282 14.2552 29.886 14.0242 30.4675 14.0242C31.0491 14.0242 31.6068 14.2552 32.018 14.6664C32.4292 15.0776 32.6602 15.6354 32.6602 16.2169H31.6602C31.6602 15.9006 31.5346 15.5972 31.3109 15.3735C31.0872 15.1499 30.7839 15.0242 30.4675 15.0242C30.1512 15.0242 29.8478 15.1499 29.6241 15.3735C29.4005 15.5972 29.2748 15.9006 29.2748 16.2169V18.7173C29.2748 19.2989 29.0438 19.8566 28.6326 20.2678C28.2213 20.679 27.6636 20.91 27.0821 20.91C26.5005 20.91 25.9428 20.679 25.5316 20.2678C25.1204 19.8566 24.8894 19.2989 24.8894 18.7173V14.1615C24.8894 13.8451 24.7637 13.5418 24.54 13.3181C24.3163 13.0944 24.013 12.9688 23.6966 12.9688Z" fill="#9388CC"/>
<path fill-rule="evenodd" clip-rule="evenodd" d="M22.5039 18.4961V21.3592H21.5039V18.4961H22.5039Z" fill="#9388CC"/>
</svg>
