<svg width="37" height="37" viewBox="0 0 37 37" fill="none" xmlns="http://www.w3.org/2000/svg">
<g clip-path="url(#clip0_24_631)">
<path d="M10.9844 0H11.1434C13.4486 0 15.5877 1.22201 16.7584 3.21221L18.5 6.17582L20.2416 3.21221C21.4123 1.22201 23.5514 0 25.8566 0H26.0156C29.5277 0 32.375 2.84727 32.375 6.35938C32.375 7.4 32.1221 8.31777 31.6812 9.25H34.6875C35.9666 9.25 37 10.2834 37 11.5625V16.1875C37 17.4666 35.9666 18.5 34.6875 18.5H2.3125C1.03557 18.5 0 17.4666 0 16.1875V11.5625C0 10.2834 1.03557 9.25 2.3125 9.25H5.31875C4.87504 8.31777 4.625 7.4 4.625 6.35938C4.625 2.84727 7.47227 0 10.9844 0ZM13.7666 4.97043C13.2174 4.04037 12.2201 3.46875 11.1434 3.46875H10.9844C9.3873 3.46875 8.09375 4.76303 8.09375 6.35938C8.09375 7.95645 9.3873 9.25 10.9844 9.25H16.2814L13.7666 4.97043ZM26.0156 3.46875H25.8566C24.7799 3.46875 23.7826 4.04037 23.2334 4.97043L20.7186 9.25H26.0156C27.6127 9.25 28.9062 7.95645 28.9062 6.35938C28.9062 4.76303 27.6127 3.46875 26.0156 3.46875ZM2.3125 20.8125H16.1875V37H5.78125C3.86549 37 2.3125 35.4463 2.3125 33.5312V20.8125ZM20.8125 37V20.8125H34.6875V33.5312C34.6875 35.4463 33.1338 37 31.2188 37H20.8125Z" fill="#8F99A3"/>
</g>
<defs>
<clipPath id="clip0_24_631">
<rect width="37" height="37" fill="white"/>
</clipPath>
</defs>
</svg>
