<svg width="30" height="18" viewBox="0 0 30 18" fill="none" xmlns="http://www.w3.org/2000/svg">
<path d="M21.5222 4.09395C21.5222 5.97098 20.0714 7.43791 18.3478 7.43791C16.6242 7.43791 15.1733 5.97098 15.1733 4.09395C15.1733 2.21693 16.6242 0.75 18.3478 0.75C20.0714 0.75 21.5222 2.21693 21.5222 4.09395Z" stroke="url(#paint0_linear_1885_10041)" stroke-width="1.5" stroke-linecap="round"/>
<path d="M24.0779 16.25H13.0299V17.75H24.0779V16.25ZM12.8589 16.1146C12.9905 15.2054 13.3289 13.847 14.1717 12.7314C14.9864 11.6529 16.3071 10.75 18.5539 10.75V9.25C15.8225 9.25 14.0643 10.385 12.9748 11.8272C11.9134 13.2322 11.5223 14.8775 11.3744 15.8998L12.8589 16.1146ZM18.5539 10.75C20.8007 10.75 22.1213 11.6529 22.936 12.7314C23.7788 13.847 24.1173 15.2054 24.2488 16.1146L25.7334 15.8998C25.5854 14.8775 25.1943 13.2322 24.1329 11.8272C23.0434 10.385 21.2852 9.25 18.5539 9.25V10.75ZM13.0299 16.25C12.9567 16.25 12.9076 16.2211 12.8829 16.1948C12.8708 16.1819 12.8645 16.1699 12.8613 16.1601C12.8584 16.1513 12.8556 16.1374 12.8589 16.1146L11.3744 15.8998C11.221 16.9597 12.0845 17.75 13.0299 17.75V16.25ZM24.0779 17.75C25.0232 17.75 25.8867 16.9597 25.7334 15.8998L24.2488 16.1146C24.2521 16.1374 24.2494 16.1513 24.2465 16.1601C24.2433 16.1699 24.237 16.1819 24.2249 16.1948C24.2002 16.2211 24.1511 16.25 24.0779 16.25V17.75Z" fill="url(#paint1_linear_1885_10041)"/>
<path d="M11.1768 6.3532C11.548 6.3532 11.8488 6.65408 11.8488 7.02523C11.8488 7.39638 11.548 7.69725 11.1768 7.69725H4.67203C4.30088 7.69725 4 7.39638 4 7.02523C4 6.65408 4.30088 6.3532 4.67203 6.3532H11.1768ZM7.92836 3.07031C8.33013 3.07031 8.65583 3.39601 8.65583 3.79779V10.5307C8.65583 10.9325 8.33013 11.2582 7.92836 11.2582C7.52658 11.2582 7.20088 10.9325 7.20088 10.5307V3.79779C7.20088 3.39601 7.52658 3.07031 7.92836 3.07031Z" fill="#52B69A"/>
<defs>
<linearGradient id="paint0_linear_1885_10041" x1="14.4233" y1="0.614093" x2="22.662" y2="1.06502" gradientUnits="userSpaceOnUse">
<stop stop-color="#62C6AA"/>
<stop offset="1" stop-color="#44A88C"/>
</linearGradient>
<linearGradient id="paint1_linear_1885_10041" x1="12.1074" y1="10.525" x2="25.5327" y2="11.9368" gradientUnits="userSpaceOnUse">
<stop stop-color="#62C6AA"/>
<stop offset="1" stop-color="#44A88C"/>
</linearGradient>
</defs>
</svg>
