<svg width="32" height="32" viewBox="0 0 32 32" fill="none" xmlns="http://www.w3.org/2000/svg">
<path d="M32 25V7C32 5.34 30.7396 4 29.1781 4H2.82187C1.26044 4 0 5.34 0 7V25C0 26.66 1.26044 28 2.82187 28H29.1781C30.7396 28 32 26.66 32 25ZM29.5356 6.78C30.1564 7.44 29.8178 8.12 29.4791 8.46L21.8413 15.9L29.1781 24.02C29.4039 24.3 29.5544 24.74 29.291 25.04C29.0464 25.36 28.4821 25.34 28.2375 25.14L20.0165 17.68L15.9906 21.58L11.9835 17.68L3.76249 25.14C3.51793 25.34 2.95356 25.36 2.70899 25.04C2.44562 24.74 2.59612 24.3 2.82187 24.02L10.1587 15.9L2.52087 8.46C2.18225 8.12 1.84362 7.44 2.46443 6.78C3.08524 6.12 3.72487 6.44 4.25162 6.92L15.9906 17L27.7484 6.92C28.2751 6.44 28.9148 6.12 29.5356 6.78Z" fill="#FFE178"/>
</svg>
