<svg width="16" height="14" viewBox="0 0 16 14" fill="none" xmlns="http://www.w3.org/2000/svg">
<path d="M3.4063 0.500538C3.10919 0.508721 2.82716 0.626314 2.62003 0.828239L0.335438 2.99173C-0.111813 3.41468 -0.111813 4.10116 0.335438 4.52411L2.62003 6.68972C3.69851 7.71646 5.32171 6.17892 4.23777 5.15735L3.90183 4.83966H10.2863C12.2055 4.83966 13.7137 6.27042 13.7137 8.08834C13.7137 9.90625 12.2055 11.3365 10.2863 11.3365H8.00003C6.41266 11.3365 6.41266 13.5 8.00003 13.5H10.2863C13.4322 13.5 16 11.0683 16 8.08834C16 5.10842 13.4322 2.67617 10.2863 2.67617H3.90239L4.23777 2.35849C4.98475 1.66978 4.44824 0.470946 3.4063 0.500538Z" fill="white"/>
</svg>
