<svg width="37" height="43" viewBox="0 0 37 43" fill="none" xmlns="http://www.w3.org/2000/svg">
<path d="M35.2736 29.6309H23.4123L22.6699 27.9151C23.1252 27.3803 25.0813 24.1718 25.5185 23.5146C25.7115 23.2246 24.9621 23.9901 24.6714 23.7977C24.3808 23.6053 24.5805 22.6627 24.3876 22.9528C23.679 24.8593 22.0959 26.6487 21.6557 27.1602H14.672C13.5902 25.9015 12.4706 24.1409 11.5682 22.1646H24.763C24.6415 22.432 24.5162 22.6951 24.3876 22.9528C24.2321 23.2643 24.3591 23.6426 24.6714 23.7977C24.9839 23.9529 25.363 23.8261 25.5185 23.5146C26.3572 21.8351 27.0498 20.0383 27.464 18.1902C28.0102 15.7528 28.1383 13.2311 27.2995 10.857C26.9352 9.82613 26.3806 8.86771 25.6541 8.04836C25.2464 7.58846 24.7795 7.11219 23.6287 6.378V3.98194H23.7407C24.7125 3.98194 25.5032 3.19333 25.5032 2.22398V0.766438C25.5032 0.343831 25.1585 0 24.7348 0H11.5927C11.169 0 10.8243 0.343831 10.8243 0.766438V2.22398C10.8243 3.19333 11.6149 3.98194 12.5868 3.98194H12.6988V6.39505C12.2002 6.74266 11.1688 7.48936 10.6723 8.04962C9.83081 8.99931 9.22784 10.1396 8.8704 11.3536C8.63421 12.1559 8.5042 12.987 8.45831 13.8213C8.43069 14.3238 8.43415 14.8278 8.46269 15.3303C8.52938 16.5035 8.72801 17.6667 9.02314 18.8035C9.87233 22.0743 11.4343 25.3254 13.6582 27.9138L12.9152 29.631H1.05388C0.472713 29.631 0 30.1025 0 30.6821V32.6516C0 33.2312 0.472797 33.7027 1.05388 33.7027H4.26722V42.3699C4.26722 42.7179 4.55005 43 4.89899 43H11.4097C11.7586 43 10.8655 42.7179 10.8655 42.3699C10.8655 42.0218 11.7586 41.7397 11.4097 41.7397H5.53076V33.7175H30.7968V41.7397H11.4097C11.0608 41.7397 10.7779 42.0218 10.7779 42.3699C10.7779 42.7179 11.0608 43 11.4097 43H31.4286C31.7775 43 32.0604 42.7179 32.0604 42.3699V33.7027H35.2737C35.8549 33.7027 36.3276 33.2312 36.3276 32.6516V30.6821C36.3275 30.1024 35.8548 29.6309 35.2736 29.6309ZM12.5867 2.72167C12.3116 2.72167 12.0878 2.49844 12.0878 2.22398V1.26026H24.2396V2.22398C24.2396 2.49844 24.0158 2.72167 23.7407 2.72167H12.5867ZM22.3652 3.98194V6.09439C22.1451 6.09413 21.8761 6.09397 21.5689 6.09388C20.71 6.09355 19.5598 6.09371 18.3918 6.09405C16.6541 6.09455 14.8777 6.09539 13.9622 6.0959V3.98194H22.3652ZM10.8046 20.2879C10.7593 20.1601 10.7142 20.0324 10.6716 19.9051C10.6702 19.9012 10.6691 19.8972 10.6677 19.8934C9.89043 17.564 9.57576 15.3131 9.76505 13.396H13.6329C13.9818 13.396 14.2647 13.1139 14.2647 12.7658C14.2647 12.4178 13.9818 12.1357 13.6329 12.1357H9.96798C10.2544 10.9341 10.7835 9.82697 11.619 8.884C12.0248 8.42603 13.0194 7.70453 13.5255 7.35625C13.6247 7.35616 22.8162 7.35608 22.8162 7.35608C23.9299 8.05298 24.3339 8.46139 24.7076 8.88308C25.539 9.82093 26.0647 10.9298 26.3482 12.1357H16.5946C16.2457 12.1357 15.9629 12.4178 15.9629 12.7658C15.9629 13.1139 16.2457 13.396 16.5946 13.396H26.5554C26.7953 15.806 26.2298 18.4788 25.2925 20.9042H11.0349C10.9553 20.7003 10.8785 20.4947 10.8046 20.2879ZM14.815 28.4203H21.5124L22.0362 29.6309H14.2912L14.815 28.4203ZM35.064 32.4424H1.26354V30.8911H35.064L35.064 32.4424Z" fill="#9388CC"/>
<path d="M23.841 40.4045C24.3902 40.4045 24.837 39.9848 24.837 39.4689V36.1504C24.837 35.6345 24.3902 35.2148 23.841 35.2148H12.4882C11.939 35.2148 11.4922 35.6345 11.4922 36.1504V39.4689C11.4922 39.9848 11.939 40.4045 12.4882 40.4045H23.841ZM12.7901 36.4343H23.539V39.1851H12.7901V36.4343Z" fill="#9388CC"/>
<path d="M13.8312 15.0517C13.602 14.6793 13.2123 14.457 12.7888 14.457C12.3653 14.457 11.9756 14.6793 11.7464 15.0517L10.9468 16.3504C10.6844 16.7766 10.6844 17.3272 10.9468 17.7534L11.7464 19.0521C11.9757 19.4244 12.3654 19.6467 12.7888 19.6467C13.2123 19.6467 13.602 19.4244 13.8312 19.0521L14.6308 17.7534C14.8932 17.3272 14.8932 16.7766 14.6308 16.3505L13.8312 15.0517ZM13.6462 17.0908L12.8467 18.3895C12.8411 18.3985 12.8264 18.4225 12.7889 18.4225C12.7513 18.4225 12.7366 18.3985 12.7311 18.3895L11.9315 17.0907C11.9169 17.0671 11.9169 17.0366 11.9315 17.0129L12.7311 15.7142C12.7366 15.7052 12.7514 15.6812 12.7889 15.6812C12.8264 15.6812 12.8411 15.7052 12.8467 15.7142L13.6462 17.0129C13.6607 17.0366 13.6607 17.0671 13.6462 17.0908Z" fill="#9388CC"/>
<path d="M19.2987 15.0517C19.0486 14.6793 18.6235 14.457 18.1616 14.457C17.6996 14.457 17.2745 14.6793 17.0245 15.0517L16.1522 16.3503C15.8659 16.7765 15.8659 17.3272 16.1522 17.7533L17.0245 19.0521C17.2746 19.4244 17.6997 19.6467 18.1616 19.6467C18.6236 19.6467 19.0487 19.4244 19.2987 19.0521L20.1711 17.7534C20.4573 17.3272 20.4573 16.7765 20.1711 16.3503L19.2987 15.0517ZM19.0971 17.0908L18.2247 18.3895C18.2187 18.3986 18.2026 18.4226 18.1616 18.4226C18.1207 18.4226 18.1047 18.3986 18.0986 18.3896L17.2264 17.0909C17.2105 17.0672 17.2105 17.0367 17.2264 17.013L18.0986 15.7143C18.1047 15.7053 18.1208 15.6813 18.1616 15.6813C18.2027 15.6813 18.2187 15.7053 18.2247 15.7143L19.0971 17.0131C19.1129 17.0366 19.1129 17.0671 19.0971 17.0908Z" fill="#9388CC"/>
<path d="M25.3808 16.3503L24.5812 15.0517C24.3519 14.6793 23.9623 14.457 23.5388 14.457C23.1153 14.457 22.7256 14.6793 22.4964 15.0517L21.6968 16.3503C21.4344 16.7765 21.4344 17.3272 21.6968 17.7533L22.4964 19.0521C22.7256 19.4244 23.1153 19.6467 23.5388 19.6467C23.9623 19.6467 24.352 19.4244 24.5812 19.0521L25.3808 17.7534C25.6432 17.3273 25.6432 16.7765 25.3808 16.3503ZM24.3963 17.0908L23.5966 18.3895C23.5911 18.3986 23.5763 18.4226 23.5388 18.4226C23.5013 18.4226 23.4866 18.3986 23.481 18.3896L22.6815 17.0909C22.6669 17.0672 22.6669 17.0367 22.6815 17.013L23.481 15.7143C23.4866 15.7053 23.5013 15.6813 23.5388 15.6813C23.5764 15.6813 23.5911 15.7053 23.5966 15.7143L24.3963 17.0131C24.4108 17.0366 24.4108 17.0671 24.3963 17.0908Z" fill="#9388CC"/>
</svg>
