<svg width="26" height="24" viewBox="0 0 26 24" fill="none" xmlns="http://www.w3.org/2000/svg">
<path d="M4.42969 21.0402C4.37818 21.0403 4.32716 21.0301 4.27956 21.0103C4.23196 20.9905 4.18871 20.9615 4.15228 20.9248C4.11586 20.8882 4.08698 20.8447 4.0673 20.7968C4.04762 20.7489 4.03752 20.6976 4.03759 20.6457V18.5833C2.9355 18.4833 1.91035 17.9725 1.16333 17.1511C0.416322 16.3297 0.00139744 15.2571 0 14.1438V4.45685C0.00138361 3.27525 0.468526 2.14244 1.29896 1.30692C2.12938 0.471399 3.25529 0.00139209 4.42969 0H17.6351C18.8095 0.00139209 19.9354 0.471399 20.7659 1.30692C21.5963 2.14244 22.0634 3.27525 22.0648 4.45685V14.1438C22.0634 15.3254 21.5963 16.4582 20.7659 17.2937C19.9354 18.1292 18.8095 18.5992 17.6351 18.6006H7.83888L4.66286 20.9629C4.59537 21.0131 4.51364 21.0402 4.42969 21.0402ZM4.42969 0.789009C3.46319 0.790123 2.53659 1.17691 1.85316 1.86452C1.16974 2.55214 0.785309 3.48442 0.784202 4.45685V14.1438C0.785309 15.1162 1.16974 16.0485 1.85316 16.7361C2.53659 17.4237 3.46319 17.8105 4.42969 17.8116C4.53369 17.8116 4.63342 17.8532 4.70695 17.9272C4.78048 18.0011 4.82179 18.1015 4.82179 18.2061V19.8636L7.47606 17.8889C7.54355 17.8387 7.62528 17.8116 7.70923 17.8116H17.6351C18.6016 17.8105 19.5282 17.4237 20.2117 16.7361C20.8951 16.0485 21.2795 15.1162 21.2806 14.1438V4.45685C21.2795 3.48442 20.8951 2.55214 20.2117 1.86452C19.5282 1.17691 18.6016 0.790123 17.6351 0.789009H4.42969Z" fill="#429D84"/>
<path d="M22.0714 23.9998C21.9875 23.9999 21.9058 23.9727 21.8383 23.9225L19.0674 21.8616H10.4982C9.74456 21.8625 9.00668 21.6446 8.37301 21.2341C8.28552 21.1775 8.22397 21.0882 8.20191 20.9859C8.17985 20.8836 8.19909 20.7767 8.25538 20.6886C8.31168 20.6006 8.40042 20.5387 8.50209 20.5165C8.60376 20.4943 8.71003 20.5137 8.79753 20.5703C9.30448 20.8991 9.89505 21.0735 10.4982 21.0726H19.1971C19.281 21.0726 19.3626 21.0995 19.4303 21.1494L21.6783 22.8226V21.4671C21.6783 21.3625 21.7196 21.2622 21.7931 21.1882C21.8667 21.1142 21.9664 21.0726 22.0704 21.0726C22.9046 21.0717 23.7044 20.7378 24.2942 20.1442C24.8841 19.5507 25.2158 18.7459 25.2166 17.9066V9.41529C25.2178 8.99935 25.1369 8.58732 24.9787 8.20305C24.8205 7.81878 24.5881 7.4699 24.2949 7.17661C24.2214 7.1026 24.18 7.00222 24.18 6.89756C24.18 6.7929 24.2214 6.69252 24.2949 6.61851C24.3685 6.54451 24.4682 6.50293 24.5723 6.50293C24.6763 6.50293 24.7761 6.54451 24.8496 6.61851C25.2156 6.98502 25.5057 7.42092 25.7031 7.90099C25.9006 8.38105 26.0014 8.89575 25.9998 9.41529V17.9066C25.9987 18.8868 25.6363 19.8318 24.9827 20.5587C24.3291 21.2855 23.4307 21.7427 22.4615 21.8416V23.6053C22.461 23.7098 22.4196 23.8099 22.3462 23.8838C22.2727 23.9577 22.1732 23.9994 22.0694 23.9998H22.0714Z" fill="#429D84"/>
<path fill-rule="evenodd" clip-rule="evenodd" d="M5.23309 7.27872C5.23309 5.56509 6.62816 4.19873 8.32083 4.19873C9.20576 4.19873 9.96477 4.67522 10.4674 5.09319C10.6436 5.23968 10.7963 5.38568 10.921 5.51444C11.0458 5.38568 11.1985 5.23968 11.3747 5.09319C11.8773 4.67522 12.6363 4.19873 13.5212 4.19873C15.2139 4.19873 16.609 5.56509 16.609 7.27872C16.609 7.92793 16.479 8.98884 15.7547 10.2495C15.0322 11.507 13.734 12.9361 11.4395 14.3513L11.4376 14.3525L11.4376 14.3525C11.2814 14.4479 11.1027 14.4979 10.921 14.4979C10.7394 14.4979 10.5607 14.4479 10.4044 14.3525L10.4025 14.3513C8.10805 12.9361 6.80992 11.507 6.08743 10.2495C5.3631 8.98884 5.23309 7.92793 5.23309 7.27872ZM11.3092 6.56221C11.3093 6.56214 11.3094 6.56207 11.3094 6.562L11.3092 6.56221ZM11.3094 6.562L11.31 6.56126L11.317 6.55209C11.3238 6.54328 11.3348 6.52926 11.3498 6.51075C11.3798 6.47371 11.4255 6.41898 11.4851 6.35248C11.605 6.21886 11.7782 6.04101 11.9907 5.86423C12.4292 5.49959 12.9703 5.19347 13.5212 5.19347C14.7002 5.19347 15.6339 6.13947 15.6339 7.27872C15.6339 7.78098 15.5364 8.66225 14.9134 9.74652C14.2888 10.8337 13.1202 12.152 10.9366 13.4991C10.9324 13.5016 10.927 13.5032 10.921 13.5032C10.9149 13.5032 10.9093 13.5015 10.9051 13.4989L10.6548 13.9257L10.6548 13.9257L10.6548 13.9257L10.907 13.5001C8.72239 12.1526 7.55345 10.834 6.92865 9.74652C6.30568 8.66225 6.20817 7.78098 6.20817 7.27872C6.20817 6.13947 7.14185 5.19347 8.32083 5.19347C8.87175 5.19347 9.41283 5.49959 9.85134 5.86423C10.0639 6.04101 10.2371 6.21886 10.357 6.35248C10.4166 6.41898 10.4623 6.47371 10.4923 6.51075C10.5072 6.52926 10.5182 6.54328 10.5251 6.55209L10.5321 6.56126L10.5328 6.56221C10.5328 6.56221 10.5328 6.56221 10.5328 6.56221C10.5329 6.56228 10.5329 6.56235 10.533 6.56243C10.5331 6.56252 10.5331 6.56261 10.5332 6.5627C10.6254 6.68619 10.7688 6.75869 10.921 6.75869C11.0734 6.75869 11.2171 6.68599 11.3092 6.56221" fill="#429D84"/>
</svg>
