<svg width="35" height="35" viewBox="0 0 35 35" fill="none" xmlns="http://www.w3.org/2000/svg">
<path d="M23.2379 0.825314L34.6514 12.0296C34.7617 12.1378 34.8493 12.2675 34.9092 12.4109C34.9691 12.5542 35 12.7084 35 12.8641C35 13.0199 34.9691 13.174 34.9092 13.3174C34.8493 13.4608 34.7617 13.5904 34.6514 13.6987L23.2379 24.9029C23.1336 25.0073 23.0099 25.0898 22.8741 25.1455C22.7383 25.2012 22.593 25.229 22.4466 25.2275C22.1438 25.2275 21.8535 25.1054 21.6395 24.888C21.4254 24.6706 21.3052 24.3758 21.3052 24.0684V18.2886C11.1091 18.7058 6.81766 24.5011 6.63505 24.7484C6.48976 24.9426 6.28922 25.0868 6.06058 25.1614C5.83194 25.236 5.58624 25.2375 5.35674 25.1657C5.12781 25.0908 4.92804 24.9443 4.78593 24.7473C4.64382 24.5503 4.56664 24.3127 4.5654 24.0684C4.5654 11.6742 14.5941 7.87243 21.3052 7.48607V1.65984C21.3057 1.43189 21.3724 1.20915 21.4969 1.01948C21.6214 0.829813 21.7982 0.681641 22.0052 0.593501C22.2102 0.503735 22.4368 0.477846 22.6563 0.51912C22.8757 0.560393 23.0782 0.666969 23.2379 0.825314ZM7.22855 2.04619C5.31142 2.04619 3.47281 2.81959 2.11719 4.19625C0.761577 5.57291 0 7.44005 0 9.38694V27.1593C0 29.1061 0.761577 30.9733 2.11719 32.3499C3.47281 33.7266 5.31142 34.5 7.22855 34.5H24.7292C26.6464 34.5 28.485 33.7266 29.8406 32.3499C31.1962 30.9733 31.9578 29.1061 31.9578 27.1593V26.3865C31.9578 26.0791 31.8376 25.7843 31.6235 25.567C31.4095 25.3496 31.1192 25.2275 30.8165 25.2275C30.5137 25.2275 30.2234 25.3496 30.0094 25.567C29.7953 25.7843 29.6751 26.0791 29.6751 26.3865V27.1593C29.6751 28.4913 29.154 29.7689 28.2265 30.7108C27.299 31.6527 26.041 32.1819 24.7292 32.1819H7.22855C5.91683 32.1819 4.65883 31.6527 3.73131 30.7108C2.80378 29.7689 2.2827 28.4913 2.2827 27.1593V9.38694C2.2827 8.05486 2.80378 6.77734 3.73131 5.83541C4.65883 4.89349 5.91683 4.36432 7.22855 4.36432H14.0767C14.3794 4.36432 14.6697 4.24221 14.8837 4.02484C15.0978 3.80748 15.218 3.51266 15.218 3.20526C15.218 2.89786 15.0978 2.60304 14.8837 2.38568C14.6697 2.16831 14.3794 2.04619 14.0767 2.04619H7.22855Z" fill="#8F969C"/>
</svg>
