<svg width="65" height="40" viewBox="0 0 65 40" fill="none" xmlns="http://www.w3.org/2000/svg">
<g opacity="0.8" clip-path="url(#clip0_1860_6704)">
<path d="M24.7195 28.3076L26.3872 31.9175L30.1196 32.496L27.418 35.3062L28.0579 39.2702L24.7195 37.3988L21.381 39.2702L22.0179 35.3062L19.3193 32.496L23.0488 31.9175L24.7195 28.3076Z" fill="#F4D76E"/>
<path d="M10.9602 17.7559L14.346 25.0769L21.9175 26.2528L16.4374 31.9522L17.7319 40.0002L10.9602 36.2006L4.18562 40.0002L5.48011 31.9522L0 26.2528L7.57143 25.0769L10.9602 17.7559Z" fill="#F4D76E"/>
<path d="M17.0361 15.6914C18.6387 14.0094 20.4133 12.5249 22.3267 11.2659C24.3491 9.93964 26.4967 8.8441 28.7339 7.99741C31.1173 7.11036 33.5817 6.49371 36.0862 6.15768C37.3958 5.9871 38.7127 5.88897 40.0318 5.8637C41.3967 5.84465 42.7614 5.90691 44.1197 6.0502C42.763 5.9775 41.4182 5.96169 40.1 6.02807C38.7984 6.0808 37.5002 6.2053 36.2106 6.40108C33.7329 6.76479 31.2956 7.39276 28.9354 8.27559C24.5527 9.89337 20.5099 12.4129 17.0361 15.6914Z" fill="#F4D76E"/>
<path d="M13.1494 14.6037C15.911 11.3879 19.1806 8.71518 22.8092 6.70734C26.7594 4.52989 31.0257 3.07966 35.4283 2.41778C40.2676 1.71218 45.1847 1.90145 49.9639 2.97729C52.5476 3.56395 55.0774 4.39435 57.5235 5.45872C60.1286 6.60587 62.6311 8.00243 65.0001 9.63131C62.6356 8.07014 60.1442 6.73924 57.5561 5.6547C55.1291 4.62301 52.6211 3.82328 50.0616 3.26495C45.3153 2.20515 40.4335 2.02444 35.6297 2.73073C31.2318 3.34823 26.9633 4.75469 23.0047 6.89068C19.341 8.85967 16.0102 11.4664 13.1494 14.6037Z" fill="#F4D76E"/>
<path d="M4.45801 20.8946C5.5586 18.4639 6.90664 16.1699 8.47774 14.0541C10.1037 11.8685 11.9394 9.87033 13.9549 8.0923C16.0643 6.24834 18.3476 4.64338 20.768 3.3033C22.0062 2.62473 23.2898 2.00411 24.6189 1.44144C25.9656 0.883976 27.3391 0.402826 28.7334 0C27.3619 0.464675 26.023 0.979927 24.7344 1.58053C20.9602 3.26134 17.4317 5.51179 14.257 8.263C12.2333 10.0197 10.3796 11.9883 8.72361 14.1394C7.10371 16.2413 5.67538 18.5032 4.45801 20.8946Z" fill="#F4D76E"/>
<path d="M15.5635 23.0759C16.1479 22.073 16.8066 21.1216 17.5334 20.2309C18.2824 19.3046 19.0932 18.4373 19.9594 17.6357C20.858 16.8018 21.8103 16.036 22.8091 15.344C23.3186 14.9994 23.8429 14.6643 24.379 14.3451C24.9152 14.0258 25.4751 13.7318 26.0497 13.46C25.5195 13.7919 24.9893 14.1175 24.4827 14.4683C23.9762 14.8192 23.4637 15.1638 22.9779 15.5305C22.0161 16.2495 21.0887 17.0196 20.1994 17.838C19.3369 18.6355 18.5133 19.4795 17.7318 20.3669C16.9557 21.2362 16.2418 22.1465 15.5635 23.0759Z" fill="#F4D76E"/>
<path d="M23.1055 18.9659C23.9535 18.2009 24.8568 17.5086 25.807 16.8954C26.7959 16.2541 27.8264 15.689 28.8907 15.2042C29.9986 14.6969 31.139 14.2744 32.3032 13.9398C32.8956 13.7712 33.5009 13.6216 34.119 13.4909C34.7381 13.374 35.3602 13.2633 36.003 13.1748C35.3898 13.3171 34.7766 13.4593 34.1812 13.6268C33.5858 13.7944 32.9963 13.9587 32.4039 14.1516C31.2582 14.5345 30.1321 14.9808 29.0299 15.4887C27.9699 15.9677 26.9337 16.5047 25.9255 17.0977C24.945 17.6698 23.9941 18.302 23.1055 18.9659Z" fill="#F4D76E"/>
<path d="M28.9082 12.088C30.8761 11.2067 32.9268 10.5529 35.0252 10.1377C37.2615 9.69354 39.5344 9.49441 41.8087 9.54339C44.2405 9.60673 46.6597 9.9383 49.0276 10.5328C50.2788 10.8524 51.5137 11.2407 52.7274 11.6961C53.9868 12.1741 55.22 12.7271 56.4213 13.3525C55.1979 12.7961 53.9686 12.2935 52.7452 11.8794C49.2461 10.662 45.6003 9.99124 41.9212 9.88794C39.6525 9.81954 37.3828 9.98468 35.1437 10.3811C33.022 10.7524 30.9354 11.3236 28.9082 12.088Z" fill="#F4D76E"/>
<path d="M30.3364 10.0996L30.7334 10.9594L31.622 11.0953L30.9792 11.7655L31.1303 12.7106L30.3364 12.2649L29.5396 12.7106L29.6907 11.7655L29.0479 11.0953L29.9365 10.9594L30.3364 10.0996Z" fill="#F4D76E"/>
<path d="M37.7358 0.999023L38.1357 1.85883L39.0244 1.99476L38.3816 2.6649L38.5326 3.61006L37.7358 3.16435L36.9419 3.61006L37.093 2.6649L36.4502 1.99476L37.3389 1.85883L37.7358 0.999023Z" fill="#F4D76E"/>
<path d="M4.65966 18.6885L5.0566 19.5483L5.94526 19.6874L5.30246 20.3575L5.45353 21.3027L4.65966 20.8538L3.86282 21.3027L4.01686 20.3575L3.37109 19.6874L4.26272 19.5483L4.65966 18.6885Z" fill="#F4D76E"/>
<path d="M23.7063 17.9453L23.9314 18.4353L24.438 18.5143L24.0736 18.8936L24.1595 19.4342L23.7063 19.1781L23.2501 19.4342L23.339 18.8936L22.9717 18.5143L23.4782 18.4353L23.7063 17.9453Z" fill="#F4D76E"/>
<path d="M13.2733 13.6211L13.4629 14.0289L13.8835 14.0921L13.5784 14.4114L13.6525 14.8602L13.2733 14.6484L12.8971 14.8602L12.9682 14.4114L12.6631 14.0921L13.0837 14.0289L13.2733 13.6211Z" fill="#F4D76E"/>
<path d="M21.9171 4.47559L22.7435 6.26158L24.592 6.54924L23.256 7.9401L23.57 9.90628L21.9171 8.97693L20.2642 9.90628L20.5811 7.9401L19.2422 6.54924L21.0906 6.26158L21.9171 4.47559Z" fill="#F4D76E"/>
</g>
<defs>
<clipPath id="clip0_1860_6704">
<rect width="65" height="40" fill="white"/>
</clipPath>
</defs>
</svg>
