<svg width="35" height="36" viewBox="0 0 35 36" fill="none" xmlns="http://www.w3.org/2000/svg">
<path d="M8.13806 18.2515L11.3468 11.4474C11.4336 11.2529 11.5749 11.0877 11.7536 10.9718C11.9322 10.8559 12.1407 10.7942 12.3536 10.7942C12.5666 10.7942 12.775 10.8559 12.9537 10.9718C13.1323 11.0877 13.2736 11.2529 13.3604 11.4474L16.5723 18.2515L23.7465 19.351C24.6668 19.49 25.0312 20.676 24.3641 21.3555L19.1757 26.6462L20.3987 34.1235C20.5562 35.0841 19.5958 35.8161 18.7712 35.3621L12.3536 31.8318L5.93608 35.3621C5.1115 35.8161 4.15103 35.0841 4.30854 34.1266L5.53152 26.6462L0.343126 21.3555C-0.327041 20.676 0.0404697 19.49 0.960791 19.3479L8.13806 18.2515Z" fill="#8F969C"/>
<path d="M23.9547 5.47152L26.0939 0.935467C26.1517 0.805805 26.2459 0.69568 26.365 0.618402C26.4841 0.541124 26.6231 0.5 26.765 0.5C26.907 0.5 27.046 0.541124 27.1651 0.618402C27.2842 0.69568 27.3784 0.805805 27.4362 0.935467L29.5775 5.47152L34.3603 6.20454C34.9738 6.29719 35.2168 7.08786 34.7721 7.54085L31.3131 11.068L32.1284 16.0529C32.2334 16.6933 31.5931 17.1813 31.0434 16.8786L26.765 14.5251L22.4867 16.8786C21.937 17.1813 21.2967 16.6933 21.4017 16.055L22.217 11.068L18.758 7.54085C18.3113 7.08786 18.5563 6.29719 19.1698 6.20248L23.9547 5.47152Z" fill="#8F969C"/>
</svg>
