<svg width="41" height="48" viewBox="0 0 41 48" fill="none" xmlns="http://www.w3.org/2000/svg">
<g clip-path="url(#clip0_103_15813)">
<path d="M29.2514 39.507C26.4247 43.8763 20.5908 45.1275 16.2208 42.3004C11.8509 39.4734 10.6007 33.6393 13.4274 29.2699M29.5239 39.0869L33.2566 33.3171C33.4087 33.1023 33.5176 32.8599 33.5759 32.6033C33.6342 32.3466 33.6414 32.0809 33.5971 31.8215C33.5527 31.562 33.4577 31.3138 33.3175 31.0911C33.1772 30.8683 32.9945 30.6754 32.7796 30.5233C32.5648 30.3712 32.3221 30.2628 32.0654 30.2045C31.8088 30.1462 31.5431 30.139 31.2836 30.1833C31.0242 30.2277 30.776 30.3227 30.5532 30.4629C30.3305 30.6032 30.1376 30.786 29.9855 31.0008" stroke="#52B69A" stroke-width="2" stroke-miterlimit="10" stroke-linecap="round" stroke-linejoin="round"/>
<path d="M26.3383 8.86951C23.4977 5.49962 13.9978 2.49962 5.01526 11.5631M5.01526 11.5631C5.08665 11.1695 5.54988 6.74786 5.77258 4.58624M5.01526 11.5631L11.5001 12.2312" stroke="#52B69A" stroke-width="2" stroke-miterlimit="10" stroke-linecap="round" stroke-linejoin="round"/>
<path d="M26.6912 28.712C26.8434 28.4972 27.0363 28.3145 27.259 28.1742C27.4818 28.0339 27.73 27.9389 27.9894 27.8946C28.2489 27.8502 28.5146 27.8574 28.7712 27.9158C29.0279 27.9741 29.2706 28.0824 29.4854 28.2345C29.7002 28.3866 29.883 28.5796 30.0233 28.8023C30.1635 29.0251 30.2585 29.2732 30.3029 29.5327C30.3472 29.7922 30.34 30.0578 30.2817 30.3145C30.2234 30.5712 30.1151 30.8139 29.9629 31.0287" stroke="#52B69A" stroke-width="2" stroke-miterlimit="10" stroke-linecap="round" stroke-linejoin="round"/>
<path d="M26.7374 28.6485C27.061 28.2268 27.5388 27.9509 28.0658 27.8816C28.5928 27.8122 29.1257 27.9549 29.5474 28.2785C29.9691 28.6021 30.245 29.0799 30.3144 29.6069C30.3838 30.1338 30.241 30.6668 29.9174 31.0885M23.4589 26.2933C23.7806 25.8805 24.251 25.6099 24.7696 25.5394C25.2882 25.4688 25.8138 25.6038 26.2342 25.9155C26.6545 26.2273 26.9363 26.6911 27.0193 27.2078C27.1023 27.7246 26.9799 28.2533 26.6783 28.681M14.6155 22.088C14.5131 21.5664 14.6222 21.0255 14.9186 20.5843C15.2151 20.143 15.6747 19.8377 16.1963 19.7353C16.7179 19.6329 17.2588 19.742 17.7 20.0384C18.1412 20.3349 18.4466 20.7945 18.5489 21.3161M27.0518 13.3584C27.3405 12.912 27.7947 12.5987 28.3145 12.4873C28.8343 12.3758 29.377 12.4754 29.8234 12.7642C30.2697 13.0529 30.583 13.5071 30.6944 14.0269C30.8059 14.5467 30.7063 15.0894 30.4175 15.5358M23.4699 26.275L30.4175 15.5358M27.0518 13.3584L18.4073 26.7206M18.8017 22.9898L18.5489 21.3161M14.744 23.7536C15.0157 25.3919 14.7582 27.2874 13.3688 29.3589M14.6155 22.088L14.751 23.7994M31.7126 11.7763C32.056 11.6201 32.3481 11.37 32.5554 11.0549C32.7627 10.7397 32.8766 10.3724 32.884 9.99528C32.8915 9.61817 32.7921 9.24663 32.5974 8.92357C32.4028 8.6005 32.1207 8.33907 31.7838 8.16945C31.4469 7.99984 31.0689 7.92894 30.6934 7.96496C30.318 8.00098 29.9603 8.14244 29.6618 8.37301C29.3633 8.60359 29.1361 8.91387 29.0064 9.26806C28.8767 9.62225 28.8498 10.0059 28.9288 10.3747" stroke="#52B69A" stroke-width="2" stroke-miterlimit="10" stroke-linecap="round" stroke-linejoin="round"/>
</g>
<defs>
<clipPath id="clip0_103_15813">
<rect width="41" height="48" fill="white"/>
</clipPath>
</defs>
</svg>
