<svg width="58" height="58" viewBox="0 0 58 58" fill="none" xmlns="http://www.w3.org/2000/svg">
<path d="M46.2736 36.6309H34.4123L33.6699 34.9151C34.1252 34.3803 36.0813 31.1718 36.5185 30.5146C36.7115 30.2246 35.9621 30.9901 35.6714 30.7977C35.3808 30.6053 35.5805 29.6627 35.3876 29.9528C34.679 31.8593 33.0959 33.6487 32.6557 34.1602H25.672C24.5902 32.9015 23.4706 31.1409 22.5682 29.1646H35.763C35.6415 29.432 35.5162 29.6951 35.3876 29.9528C35.2321 30.2643 35.3591 30.6426 35.6714 30.7977C35.9839 30.9529 36.363 30.8261 36.5185 30.5146C37.3572 28.8351 38.0498 27.0383 38.464 25.1902C39.0102 22.7528 39.1383 20.2311 38.2995 17.857C37.9352 16.8261 37.3806 15.8677 36.6541 15.0484C36.2464 14.5885 35.7795 14.1122 34.6287 13.378V10.9819H34.7407C35.7125 10.9819 36.5032 10.1933 36.5032 9.22398V7.76644C36.5032 7.34383 36.1585 7 35.7348 7H22.5927C22.169 7 21.8243 7.34383 21.8243 7.76644V9.22398C21.8243 10.1933 22.6149 10.9819 23.5868 10.9819H23.6988V13.395C23.2002 13.7427 22.1688 14.4894 21.6723 15.0496C20.8308 15.9993 20.2278 17.1396 19.8704 18.3536C19.6342 19.1559 19.5042 19.987 19.4583 20.8213C19.4307 21.3238 19.4341 21.8278 19.4627 22.3303C19.5294 23.5035 19.728 24.6667 20.0231 25.8035C20.8723 29.0743 22.4343 32.3254 24.6582 34.9138L23.9152 36.631H12.0539C11.4727 36.631 11 37.1025 11 37.6821V39.6516C11 40.2312 11.4728 40.7027 12.0539 40.7027H15.2672V49.3699C15.2672 49.7179 15.5501 50 15.899 50H22.4097C22.7586 50 21.8655 49.7179 21.8655 49.3699C21.8655 49.0218 22.7586 48.7397 22.4097 48.7397H16.5308V40.7175H41.7968V48.7397H22.4097C22.0608 48.7397 21.7779 49.0218 21.7779 49.3699C21.7779 49.7179 22.0608 50 22.4097 50H42.4286C42.7775 50 43.0604 49.7179 43.0604 49.3699V40.7027H46.2737C46.8549 40.7027 47.3276 40.2312 47.3276 39.6516V37.6821C47.3275 37.1024 46.8548 36.6309 46.2736 36.6309ZM23.5867 9.72167C23.3116 9.72167 23.0878 9.49844 23.0878 9.22398V8.26026H35.2396V9.22398C35.2396 9.49844 35.0158 9.72167 34.7407 9.72167H23.5867ZM33.3652 10.9819V13.0944C33.1451 13.0941 32.8761 13.094 32.5689 13.0939C31.71 13.0935 30.5598 13.0937 29.3918 13.094C27.6541 13.0946 25.8777 13.0954 24.9622 13.0959V10.9819H33.3652ZM21.8046 27.2879C21.7593 27.1601 21.7142 27.0324 21.6716 26.9051C21.6702 26.9012 21.6691 26.8972 21.6677 26.8934C20.8904 24.564 20.5758 22.3131 20.7651 20.396H24.6329C24.9818 20.396 25.2647 20.1139 25.2647 19.7658C25.2647 19.4178 24.9818 19.1357 24.6329 19.1357H20.968C21.2544 17.9341 21.7835 16.827 22.619 15.884C23.0248 15.426 24.0194 14.7045 24.5255 14.3562C24.6247 14.3562 33.8162 14.3561 33.8162 14.3561C34.9299 15.053 35.3339 15.4614 35.7076 15.8831C36.539 16.8209 37.0647 17.9298 37.3482 19.1357H27.5946C27.2457 19.1357 26.9629 19.4178 26.9629 19.7658C26.9629 20.1139 27.2457 20.396 27.5946 20.396H37.5554C37.7953 22.806 37.2298 25.4788 36.2925 27.9042H22.0349C21.9553 27.7003 21.8785 27.4947 21.8046 27.2879ZM25.815 35.4203H32.5124L33.0362 36.6309H25.2912L25.815 35.4203ZM46.064 39.4424H12.2635V37.8911H46.064L46.064 39.4424Z" fill="#429D84"/>
<path d="M34.8401 47.4052C35.3893 47.4052 35.836 46.9854 35.836 46.4696V43.1511C35.836 42.6352 35.3893 42.2155 34.8401 42.2155H23.4872C22.938 42.2155 22.4912 42.6352 22.4912 43.1511V46.4696C22.4912 46.9855 22.938 47.4052 23.4872 47.4052H34.8401ZM23.7892 43.435H34.538V46.1858H23.7892V43.435Z" fill="#429D84"/>
<path d="M24.8312 22.0515C24.602 21.6792 24.2123 21.4569 23.7888 21.4569C23.3653 21.4569 22.9756 21.6792 22.7464 22.0515L21.9468 23.3503C21.6844 23.7764 21.6844 24.3271 21.9468 24.7533L22.7464 26.052C22.9757 26.4243 23.3654 26.6466 23.7888 26.6466C24.2123 26.6466 24.602 26.4243 24.8312 26.052L25.6308 24.7533C25.8932 24.3271 25.8932 23.7764 25.6308 23.3504L24.8312 22.0515ZM24.6462 24.0907L23.8467 25.3893C23.8411 25.3984 23.8264 25.4224 23.7889 25.4224C23.7513 25.4224 23.7366 25.3984 23.7311 25.3893L22.9315 24.0906C22.9169 24.067 22.9169 24.0364 22.9315 24.0128L23.7311 22.714C23.7366 22.7051 23.7514 22.6811 23.7889 22.6811C23.8264 22.6811 23.8411 22.7051 23.8467 22.714L24.6462 24.0128C24.6607 24.0364 24.6607 24.067 24.6462 24.0907Z" fill="#429D84"/>
<path d="M30.3007 22.0515C30.0506 21.6792 29.6255 21.4569 29.1635 21.4569C28.7015 21.4569 28.2764 21.6792 28.0264 22.0515L27.1542 23.3502C26.8679 23.7764 26.8679 24.3271 27.1542 24.7532L28.0264 26.052C28.2765 26.4243 28.7016 26.6466 29.1635 26.6466C29.6256 26.6466 30.0507 26.4243 30.3007 26.052L31.173 24.7532C31.4593 24.3271 31.4593 23.7764 31.173 23.3502L30.3007 22.0515ZM30.099 24.0907L29.2267 25.3894C29.2206 25.3985 29.2045 25.4225 29.1636 25.4225C29.1226 25.4225 29.1066 25.3985 29.1006 25.3895L28.2283 24.0907C28.2124 24.0671 28.2124 24.0366 28.2283 24.0129L29.1006 22.7141C29.1066 22.7052 29.1227 22.6812 29.1636 22.6812C29.2046 22.6812 29.2206 22.7052 29.2267 22.7142L30.099 24.013C30.1148 24.0365 30.1148 24.067 30.099 24.0907Z" fill="#429D84"/>
<path d="M36.3808 23.3502L35.5812 22.0515C35.3519 21.6792 34.9623 21.4569 34.5388 21.4569C34.1153 21.4569 33.7256 21.6792 33.4964 22.0515L32.6968 23.3502C32.4344 23.7764 32.4344 24.3271 32.6968 24.7532L33.4964 26.052C33.7256 26.4243 34.1153 26.6466 34.5388 26.6466C34.9623 26.6466 35.352 26.4243 35.5812 26.052L36.3808 24.7532C36.6432 24.3272 36.6432 23.7764 36.3808 23.3502ZM35.3963 24.0907L34.5966 25.3894C34.5911 25.3985 34.5763 25.4225 34.5388 25.4225C34.5013 25.4225 34.4866 25.3985 34.481 25.3895L33.6815 24.0907C33.6669 24.0671 33.6669 24.0366 33.6815 24.0129L34.481 22.7141C34.4866 22.7052 34.5013 22.6812 34.5388 22.6812C34.5764 22.6812 34.5911 22.7052 34.5966 22.7142L35.3963 24.013C35.4108 24.0365 35.4108 24.067 35.3963 24.0907Z" fill="#429D84"/>
</svg>
