<svg width="52" height="45" viewBox="0 0 52 45" fill="none" xmlns="http://www.w3.org/2000/svg">
<path d="M8.16176 17.7476V17.7483L8.16175 22.498L8.16176 22.4993C8.16316 23.2606 8.42402 23.9987 8.90132 24.5918C9.2485 25.0232 9.69511 25.3591 10.1989 25.5734V29.0432C10.1989 29.3016 10.0963 29.5494 9.91358 29.732C9.73089 29.9147 9.4831 30.0174 9.22474 30.0174H8.92945C8.67323 30.0163 8.42759 29.9149 8.24523 29.7349C8.06384 29.5558 7.95943 29.3131 7.95406 29.0584V22.1521C7.95406 22.1521 7.95406 22.1521 7.95406 22.152C7.95407 21.8407 7.83141 21.5418 7.61265 21.3203C7.39388 21.0987 7.09661 20.9723 6.78526 20.9683L6.76645 20.9683C6.45617 20.9722 6.15969 21.0971 5.94028 21.3165C5.72086 21.536 5.59589 21.8324 5.59204 22.1427L5.59198 22.1427V22.152V29.0432C5.59198 29.301 5.48977 29.5483 5.30775 29.731C5.12597 29.9133 4.8794 30.0163 4.62195 30.0174L4.31581 30.0174L4.31097 30.0174C4.05367 30.019 3.80616 29.9188 3.62249 29.7386C3.43978 29.5594 3.33499 29.3155 3.33067 29.0597V19.0441C3.33067 18.6299 2.99488 18.2941 2.58067 18.2941H2.15786C1.88639 18.2941 1.62604 18.1863 1.43408 17.9943C1.24212 17.8024 1.13428 17.542 1.13428 17.2706V12.5213C1.13531 11.6112 1.4235 10.7246 1.95779 9.9879C2.41962 9.35107 3.04496 8.85424 3.76455 8.54795C4.6535 9.13566 5.69832 9.45167 6.77028 9.45167C7.84165 9.45167 8.88591 9.136 9.77455 8.54891C10.073 8.6777 10.3554 8.84079 10.6162 9.03489V9.03494V9.03592V9.0369V9.03788V9.03886V9.03984V9.04082V9.0418V9.04278V9.04376V9.04475V9.04573V9.04671V9.04769V9.04867V9.04965V9.05064V9.05162V9.0526V9.05358V9.05456V9.05555V9.05653V9.05751V9.0585V9.05948V9.06046V9.06145V9.06243V9.06341V9.0644V9.06538V9.06636V9.06735V9.06833V9.06932V9.0703V9.07129V9.07227V9.07326V9.07424V9.07523V9.07621V9.0772V9.07818V9.07917V9.08015V9.08114V9.08213V9.08311V9.0841V9.08508V9.08607V9.08706V9.08804V9.08903V9.09002V9.09101V9.09199V9.09298V9.09397V9.09495V9.09594V9.09693V9.09792V9.09891V9.0999V9.10088V9.10187V9.10286V9.10385V9.10484V9.10583V9.10682V9.10781V9.1088V9.10978V9.11077V9.11176V9.11275V9.11374V9.11473V9.11572V9.11671V9.11771V9.1187V9.11969V9.12068V9.12167V9.12266V9.12365V9.12464V9.12563V9.12663V9.12762V9.12861V9.1296V9.13059V9.13159V9.13258V9.13357V9.13456V9.13556V9.13655V9.13754V9.13854V9.13953V9.14052V9.14152V9.14251V9.1435V9.1445V9.14549V9.14649V9.14748V9.14847V9.14947V9.15046V9.15146V9.15245V9.15345V9.15444V9.15544V9.15643V9.15743V9.15843V9.15942V9.16042V9.16141V9.16241V9.16341V9.1644V9.1654V9.1664V9.16739V9.16839V9.16939V9.17038V9.17113C10.6162 9.17122 10.6162 9.1713 10.6162 9.17138C10.6159 10.1886 10.8993 11.179 11.4254 12.0352C10.5734 12.5385 9.84106 13.228 9.28582 14.0567C8.55417 15.1486 8.16297 16.4332 8.16176 17.7476Z" stroke="white" stroke-width="1.5" stroke-linejoin="round"/>
<path d="M8.80173 6.36837L8.80173 6.36837L8.7997 6.37009C8.22884 6.85419 7.50467 7.11991 6.75618 7.11991C6.0077 7.11991 5.28353 6.85419 4.71267 6.37009L4.22759 6.94211L4.71063 6.36837C4.21237 5.94888 3.85514 5.38633 3.68734 4.75698C3.51954 4.12762 3.5493 3.4619 3.77258 2.85003C3.99586 2.23815 4.40186 1.70972 4.93556 1.33635C5.46926 0.962982 6.10485 0.762726 6.75618 0.762726C7.40752 0.762726 8.04311 0.962982 8.57681 1.33635C9.11051 1.70972 9.51651 2.23815 9.73979 2.85003C9.96307 3.4619 9.99282 4.12763 9.82503 4.75698C9.65723 5.38633 9.29999 5.94888 8.80173 6.36837Z" stroke="white" stroke-width="1.5" stroke-linejoin="round"/>
<path d="M17.8531 31.4802C17.8513 32.1617 18.0575 32.8275 18.4443 33.3887C18.7281 33.8005 19.0992 34.1415 19.5286 34.3891C19.5065 34.6115 19.4083 34.8207 19.2491 34.9803C19.0674 35.1627 18.8208 35.2657 18.5633 35.2667H18.2641C18.0066 35.2657 17.76 35.1627 17.5783 34.9803C17.3962 34.7977 17.294 34.5504 17.294 34.2926V27.3795H17.2941L17.294 27.3701C17.2901 27.0599 17.1651 26.7634 16.9457 26.544C16.7263 26.3245 16.4298 26.1996 16.1196 26.1957L16.1007 26.1957C15.7894 26.1997 15.4921 26.3261 15.2734 26.5477C15.0546 26.7693 14.9319 27.0681 14.9319 27.3795C14.9319 27.3795 14.9319 27.3795 14.9319 27.3795V34.2912C14.9309 34.5496 14.8277 34.7971 14.645 34.9798C14.4623 35.1625 14.2148 35.2657 13.9564 35.2667H13.6558C13.3974 35.2667 13.1496 35.1641 12.9669 34.9814C12.7842 34.7987 12.6816 34.5509 12.6816 34.2926V24.2716C12.6816 23.8573 12.3458 23.5216 11.9316 23.5216H11.4978C11.2254 23.5216 10.9642 23.4136 10.7713 23.2213C10.5786 23.0292 10.4699 22.7687 10.4688 22.4967V17.7495C10.4718 16.8336 10.7657 15.9424 11.3079 15.2043C11.778 14.5644 12.4137 14.0683 13.1434 13.7672C14.0337 14.3589 15.0816 14.6772 16.1569 14.6772C17.2293 14.6772 18.2744 14.3607 19.1631 13.7721C19.6178 13.9697 20.036 14.2443 20.399 14.5846C20.7654 14.9283 21.0686 15.3325 21.2957 15.7786C20.8484 16.6205 20.6459 17.5742 20.7158 18.5306C20.7755 19.3477 21.0317 20.1339 21.4574 20.8245C20.509 21.3128 19.6879 22.0245 19.0682 22.9033C18.2782 24.0234 17.8538 25.3604 17.8531 26.7312V26.7315V31.4802ZM17.8531 31.4802C17.8531 31.4798 17.8531 31.4793 17.8531 31.4789L18.6028 31.4812H17.8531V31.4802Z" stroke="white" stroke-width="1.5" stroke-linejoin="round"/>
<path d="M12.9508 9.1728L12.9508 9.17084C12.9503 8.44748 13.1967 7.74561 13.6492 7.18133C14.1018 6.61704 14.7335 6.22414 15.4397 6.06764C16.1459 5.91113 16.8844 6.00038 17.533 6.32064C18.1816 6.64089 18.7014 7.17295 19.0065 7.82881C19.3117 8.48467 19.3837 9.22504 19.2109 9.92744C19.038 10.6298 18.6306 11.2522 18.0559 11.6915C17.4813 12.1309 16.7739 12.3609 16.0507 12.3436C15.3276 12.3262 14.632 12.0626 14.0791 11.5962L13.5955 12.1695L14.0776 11.5949C13.724 11.2982 13.4398 10.9276 13.2451 10.509C13.0504 10.0905 12.95 9.63438 12.9508 9.1728Z" stroke="white" stroke-width="1.5" stroke-linejoin="round"/>
<path d="M47.7674 8.54795C46.8785 9.13566 45.8337 9.45167 44.7617 9.45167C43.6884 9.45167 42.6423 9.13485 41.7526 8.54571C41.4441 8.67434 41.1521 8.83942 40.8828 9.03744V9.17029M47.7674 8.54795L40.7124 9.16967C40.7117 9.17024 40.711 9.17081 40.7103 9.17138M47.7674 8.54795C48.487 8.85424 49.1124 9.35107 49.5742 9.9879C50.1086 10.7247 50.3968 11.6114 50.3977 12.5217V17.2706C50.3977 17.542 50.2899 17.8024 50.0979 17.9943C49.906 18.1863 49.6456 18.2941 49.3741 18.2941H48.9349C48.5206 18.2941 48.1849 18.6299 48.1849 19.0441V29.0432C48.1849 29.301 48.0826 29.5484 47.9006 29.731C47.7188 29.9133 47.4723 30.0163 47.2148 30.0174L46.9087 30.0174L46.9039 30.0174C46.6466 30.019 46.399 29.9188 46.2154 29.7387C46.0327 29.5594 45.9279 29.3155 45.9235 29.0597V22.152H45.9236L45.9235 22.1427C45.9196 21.8324 45.7947 21.536 45.5752 21.3165C45.3558 21.0971 45.0593 20.9722 44.7491 20.9683L44.7303 20.9683C44.4189 20.9723 44.1216 21.0987 43.9029 21.3203C43.6841 21.5419 43.5615 21.8407 43.5615 22.152C43.5615 22.1521 43.5615 22.1521 43.5615 22.1521V29.0584C43.5561 29.3115 43.453 29.5529 43.2736 29.7317C43.094 29.9108 42.8519 30.0131 42.5984 30.0174H42.3073V30.0173L42.2976 30.0174C42.1697 30.0191 42.0427 29.9955 41.9239 29.948C41.8051 29.9006 41.6968 29.8302 41.6051 29.7409C41.5135 29.6516 41.4404 29.5451 41.3899 29.4275C41.34 29.3112 41.3133 29.1863 41.3111 29.0598V25.5734C41.8149 25.3591 42.2615 25.0232 42.6087 24.5918C43.086 23.9987 43.3469 23.2606 43.3483 22.4993V22.498V17.7483L43.3483 17.7476C43.3471 16.4332 42.9559 15.1486 42.2242 14.0567C41.6684 13.2272 40.9352 12.5371 40.0822 12.0337C40.6053 11.1768 40.8856 10.1865 40.8828 9.17029M47.7674 8.54795L40.8828 9.16917C40.8828 9.16954 40.8828 9.16992 40.8828 9.17029M40.8828 9.17029V9.17138H40.7103M40.7103 9.17138H40.5603L40.6235 9.2444C40.6521 9.21966 40.681 9.19531 40.7103 9.17138Z" stroke="white" stroke-width="1.5" stroke-linejoin="round"/>
<path d="M46.8055 6.36778L46.8055 6.36777L46.8028 6.37006C46.232 6.85416 45.5078 7.11988 44.7593 7.11988C44.0108 7.11988 43.2866 6.85416 42.7158 6.37006L42.2307 6.94208L42.7131 6.36778C42.2132 5.94794 41.8546 5.3845 41.6859 4.7539C41.5171 4.1233 41.5465 3.45606 41.7699 2.8427C41.9933 2.22934 42.4 1.69954 42.9348 1.32518C43.4695 0.950829 44.1065 0.750031 44.7593 0.750031C45.4121 0.750031 46.0491 0.950829 46.5838 1.32518C47.1186 1.69954 47.5253 2.22933 47.7487 2.8427C47.9721 3.45606 48.0014 4.1233 47.8327 4.7539C47.664 5.3845 47.3054 5.94794 46.8055 6.36778Z" stroke="white" stroke-width="1.5" stroke-linejoin="round"/>
<path d="M30.0751 20.8245C31.0235 21.3128 31.8445 22.0245 32.4643 22.9033C33.2542 24.0234 33.6786 25.3604 33.6793 26.7312L33.6793 26.7315L33.6793 31.4807L30.0751 20.8245ZM30.0751 20.8245C30.5007 20.1339 30.7569 19.3477 30.8166 18.5306C30.8865 17.5745 30.6841 16.6212 30.2372 15.7796C30.4667 15.3315 30.773 14.9261 31.1431 14.5821C31.5106 14.2405 31.934 13.9661 32.3939 13.7702C33.2833 14.36 34.3295 14.6772 35.403 14.6772C36.4767 14.6772 37.5231 14.3598 38.4126 13.7698C39.1337 14.0758 39.7604 14.5731 40.2232 15.2109C40.7584 15.9487 41.0469 16.8368 41.0472 17.7483C41.0472 17.7484 41.0472 17.7484 41.0472 17.7485V22.4967C41.0461 22.7682 40.9378 23.0282 40.7458 23.2202C40.5538 23.4121 40.2938 23.5204 40.0224 23.5216H39.5898C39.1756 23.5216 38.8398 23.8573 38.8398 24.2716V34.2926C38.8398 34.5509 38.7372 34.7987 38.5545 34.9814C38.3718 35.1641 38.124 35.2667 37.8657 35.2667H37.565C37.3066 35.2657 37.0591 35.1625 36.8764 34.9798C36.6937 34.7971 36.5906 34.5496 36.5895 34.2912V27.3795C36.5895 27.3795 36.5895 27.3795 36.5895 27.3795C36.5895 27.0681 36.4669 26.7693 36.2481 26.5477C36.0293 26.3261 35.732 26.1997 35.4207 26.1957L35.4019 26.1957C35.0916 26.1996 34.7951 26.3245 34.5757 26.544C34.3563 26.7634 34.2313 27.0599 34.2275 27.3701H34.2274V27.3795V34.2926C34.2274 34.5509 34.1248 34.7987 33.9421 34.9814C33.7594 35.1641 33.5116 35.2667 33.2533 35.2667H32.9526C32.6952 35.2657 32.4486 35.1627 32.2668 34.9803C32.1084 34.8214 32.0104 34.6134 31.9877 34.3922L30.0751 20.8245Z" stroke="white" stroke-width="1.5" stroke-linejoin="round"/>
<path d="M32.2243 9.17205L32.2242 9.17007C32.2229 8.44975 32.4674 7.75053 32.9172 7.18791C33.367 6.6253 33.9953 6.23295 34.6982 6.07567C35.4012 5.91839 36.1367 6.0056 36.7834 6.32288C37.4301 6.64016 37.9492 7.16854 38.255 7.82074C38.5608 8.47293 38.635 9.20992 38.4653 9.90998C38.2956 10.61 37.8922 11.2313 37.3217 11.671C36.7512 12.1108 36.0478 12.3429 35.3276 12.3288C34.6074 12.3148 33.9136 12.0555 33.3607 11.5938L32.88 12.1695L33.3591 11.5925C33.0037 11.2973 32.7177 10.9273 32.5215 10.509C32.3254 10.0906 32.2239 9.63412 32.2243 9.17205Z" stroke="white" stroke-width="1.5" stroke-linejoin="round"/>
<path d="M20.7137 32.3649L20.7138 32.3649L20.7082 32.3616C20.5549 32.2712 20.4278 32.1424 20.3394 31.9879C20.2511 31.8335 20.2045 31.6588 20.2043 31.4809V26.7372C20.2043 26.7372 20.2043 26.7371 20.2043 26.737C20.2046 25.888 20.4545 25.0577 20.923 24.3496C21.3907 23.6426 22.0557 23.0886 22.8354 22.7561C22.9881 22.6933 23.1442 22.6392 23.3028 22.594C24.0733 23.0392 24.9492 23.2752 25.8431 23.2752C26.7361 23.2752 27.6111 23.0397 28.381 22.5953C29.2248 22.8424 29.9755 23.3423 30.5295 24.031C31.1453 24.7966 31.4813 25.7494 31.4818 26.7319V31.4812C31.4818 31.7527 31.374 32.0131 31.182 32.205C30.9901 32.397 30.7297 32.5048 30.4583 32.5048H30.019C29.6048 32.5048 29.269 32.8406 29.269 33.2548V43.2745C29.2679 43.5329 29.1648 43.7804 28.982 43.9631C28.7993 44.1458 28.5518 44.2489 28.2935 44.25H27.9983C27.7399 44.25 27.4921 44.1474 27.3095 43.9647C27.1268 43.782 27.0241 43.5342 27.0241 43.2758V36.3946C27.0343 36.2461 27.0163 36.0969 26.9711 35.9548C26.9205 35.796 26.837 35.6496 26.7259 35.5253C26.6149 35.401 26.4788 35.3016 26.3267 35.2335C26.1746 35.1654 26.0098 35.1302 25.8431 35.1302C25.6764 35.1302 25.5116 35.1654 25.3595 35.2335C25.2074 35.3016 25.0713 35.401 24.9603 35.5253C24.8492 35.6496 24.7657 35.796 24.7151 35.9548C24.6699 36.0969 24.6519 36.2461 24.6621 36.3946V43.2758C24.6621 43.5342 24.5594 43.782 24.3767 43.9647C24.194 44.1474 23.9462 44.25 23.6879 44.25H23.3872C23.1289 44.2489 22.8814 44.1458 22.6986 43.9631C22.5159 43.7804 22.4128 43.5329 22.4117 43.2745V33.2548C22.4117 32.8406 22.0759 32.5048 21.6617 32.5048L21.2279 32.5048L21.2238 32.5048C21.0441 32.5058 20.8677 32.4574 20.7137 32.3649Z" stroke="white" stroke-width="1.5" stroke-linejoin="round"/>
<path d="M24.0174 20.3101L24.0157 20.3087C23.7007 20.0449 23.4485 19.7142 23.2774 19.3406C23.1063 18.967 23.0207 18.56 23.0267 18.1492L23.0267 18.147C23.0341 17.514 23.2568 16.9024 23.6581 16.4129C24.0595 15.9234 24.6156 15.5851 25.2348 15.4538C25.8541 15.3225 26.4996 15.406 27.0651 15.6906C27.6305 15.9751 28.0822 16.4437 28.3458 17.0193C28.6094 17.5948 28.6692 18.2429 28.5152 18.8569C28.3613 19.471 28.0029 20.0142 27.499 20.3974C26.9951 20.7805 26.3757 20.9806 25.7429 20.9647C25.1101 20.9489 24.5015 20.718 24.0174 20.3101Z" stroke="white" stroke-width="1.5" stroke-linejoin="round"/>
</svg>
